<svg xmlns="http://www.w3.org/2000/svg" width="600.305" height="252.427"><g data-name="Group 36160"><g data-name="Group 36116"><g data-name="Group 35819"><path data-name="Path 37540" d="M600.3 247.427H0" fill="none" stroke="#4fa2ff" stroke-width="10"/><g data-name="Group 35790"><g data-name="Group 35779" fill="none" stroke="#000" stroke-miterlimit="10"><path data-name="Path 37514" d="M380.987 187.991l100.28 14.758-3.644 19.454-86.483-3.344"/><path data-name="Path 37515" d="M480.503 202.992l14.163 1.015 24.892-7.2 7.228-4.169 1.247 3.71-35.657 27.88-5.114-5.978-6.265-1.82"/></g><g data-name="Group 35786" transform="translate(461.702 152.748)"><circle data-name="Ellipse 361" cx="46.512" cy="46.512" r="46.512" fill="#4fa2ff"/><g data-name="Group 35781" fill="#fff"><g data-name="Group 35780"><path data-name="Path 37516" d="M16.012 64.142l2.062-20.078-4.918-.506.853-8.311 4.918.5.143-1.4c.871-8.487 7.711-11.156 13.683-10.543a14.793 14.793 0 015.479 1.671c.066.036 1.191.624 1.255.66L37.2 33.464a8.256 8.256 0 00-3.774-1.252c-1.7-.173-3.327.724-3.586 3.241l-.143 1.4 7.492.77-.854 8.311-7.492-.768-2.063 20.082z"/><path data-name="Path 37517" d="M49.79 67.611l2.92-28.447-10.828-1.112-2.92 28.447z"/><path data-name="Path 37518" d="M73.532 33.526l-.789 7.693 6.5.667-.857 8.344-6.556-.673-.934 9.1a2.583 2.583 0 002.58 3.1 8.084 8.084 0 003.547-.533l.9 8.224a17.43 17.43 0 01-8.166.918c-5.737-.588-10.616-3.753-9.509-12.807l.934-9.1-4.625-.476.856-8.342 4.626.474.661-6.437z"/></g><path data-name="Path 37519" d="M48.676 25.405a5.509 5.509 0 015.209 6.177c-.374 3.66-3.484 5.224-6.349 4.93-2.919-.3-5.646-2.462-5.27-6.122.382-3.724 3.493-5.285 6.41-4.985z"/></g><g data-name="Group 35783" fill="#fff"><g data-name="Group 35782"><path data-name="Path 37520" d="M16.012 64.142l2.062-20.078-4.918-.506.853-8.311 4.918.5.143-1.4c.871-8.487 7.711-11.156 13.683-10.543a14.793 14.793 0 015.479 1.671c.066.036 1.191.624 1.255.66L37.2 33.464a8.256 8.256 0 00-3.774-1.252c-1.7-.173-3.327.724-3.586 3.241l-.143 1.4 7.492.77-.854 8.311-7.492-.768-2.063 20.082z"/><path data-name="Path 37521" d="M49.79 67.611l2.92-28.447-10.828-1.112-2.92 28.447z"/><path data-name="Path 37522" d="M73.532 33.526l-.789 7.693 6.5.667-.857 8.344-6.556-.673-.934 9.1a2.583 2.583 0 002.58 3.1 8.084 8.084 0 003.547-.533l.9 8.224a17.43 17.43 0 01-8.166.918c-5.737-.588-10.616-3.753-9.509-12.807l.934-9.1-4.625-.476.856-8.342 4.626.474.661-6.437z"/></g><path data-name="Path 37523" d="M48.676 25.405a5.509 5.509 0 015.209 6.177c-.374 3.66-3.484 5.224-6.349 4.93-2.919-.3-5.646-2.462-5.27-6.122.382-3.724 3.493-5.285 6.41-4.985z"/></g><g data-name="Group 35785" fill="#fff"><g data-name="Group 35784"><path data-name="Path 37524" d="M16.012 64.142l2.062-20.078-4.918-.506.853-8.311 4.918.5.143-1.4c.871-8.487 7.711-11.156 13.683-10.543a14.793 14.793 0 015.479 1.671c.066.036 1.191.624 1.255.66L37.2 33.464a8.256 8.256 0 00-3.774-1.252c-1.7-.173-3.327.724-3.586 3.241l-.143 1.4 7.492.77-.854 8.311-7.492-.768-2.063 20.082z"/><path data-name="Path 37525" d="M49.79 67.611l2.92-28.447-10.828-1.112-2.92 28.447z"/><path data-name="Path 37526" d="M73.532 33.526l-.789 7.693 6.5.667-.857 8.344-6.556-.673-.934 9.1a2.583 2.583 0 002.58 3.1 8.084 8.084 0 003.547-.533l.9 8.224a17.43 17.43 0 01-8.166.918c-5.737-.588-10.616-3.753-9.509-12.807l.934-9.1-4.625-.476.856-8.342 4.626.474.661-6.437z"/></g><path data-name="Path 37527" d="M48.676 25.405a5.509 5.509 0 015.209 6.177c-.374 3.66-3.484 5.224-6.349 4.93-2.919-.3-5.646-2.462-5.27-6.122.382-3.724 3.493-5.285 6.41-4.985z"/></g></g><path data-name="Path 37528" d="M224.369 206.358c-32.838-.248-110.237-9.126-115.276 15.29-1.711 8.295-.819 13.58 6.435 17.953 6.852 4.13 48.4 3.894 62.633 4.487 14.554.6 45.587-5.037 60.89-4.241 20.015 1.041 35.312 3.6 49.877 3.747 25.812.266 80.225-5.81 80.225-5.81" fill="none" stroke="#000" stroke-miterlimit="10" stroke-width="4"/><g data-name="Group 35787"><path data-name="Path 37529" d="M70.342 214.38c1.058-1.97 6.283-3.271 6.283-3.271a21.044 21.044 0 009.39-4.543.994.994 0 011.558.5 17.994 17.994 0 001.425 3.435c2.265-.67 7.327-1.856 9.535-2.692a1.674 1.674 0 012.222 1.92l-1.74 8.157" fill="none" stroke="#000" stroke-miterlimit="10"/><path data-name="Path 37530" d="M83.68 220.309c-1.737 1.191-7.656 4.412-9 2.79a4.183 4.183 0 01-.73-2.008c-.574-3.359-.937-6.838-2.514-9.857s-4.764-5.515-8.142-5.073-5.882 4.888-3.726 7.525a4.9 4.9 0 00-1.54 9.018c-2.353 2.173-4.282 5.093-4.27 8.293s2.58 6.483 5.779 6.386c-1.325 2.707-2.155 1.958-2.668 4.927a6.187 6.187 0 00-.01 2.8c.624 2.1 5.6 2.243 7.781 2.414 4.693.369 12.259-.992 14.438-.394s7.162.9 8.635-.816 2.432 1.067 3.365-.991c1.852-4.087-1.17-9.863 1.723-13.292a5.837 5.837 0 00-4.1-1.132 7.886 7.886 0 01-7.32 4.27 1.694 1.694 0 01-1.71-1.537c-.246-3.618 1.828-8.195 5.263-9.461a7.255 7.255 0 00-1.254-3.862z"/><path data-name="Path 37531" d="M87.714 237.41c5.337-.825 10.181.289 18.29.828" fill="none" stroke="#000" stroke-miterlimit="10"/><path data-name="Path 37533" d="M99.587 219.262c1.434-.2 2.526-.327 3.345-.4a1.2 1.2 0 011.164 1.761l-.546 1.025" fill="none" stroke="#000" stroke-miterlimit="10"/><g data-name="Group 36113"><path data-name="Path 37731" d="M78.19 212.19l3.477 5.861s-1.316.802-3.188-1.763-.289-4.098-.289-4.098z"/><g data-name="Group 36109" transform="rotate(76 -92.81 160.225)"><ellipse data-name="Ellipse 358" cx="1.284" cy="1.283" rx="1.284" ry="1.283" transform="translate(.402 2.276)"/><path data-name="Line 102" fill="none" stroke="#000" stroke-miterlimit="10" d="M0 1.902L2.37 0"/></g><g data-name="Group 36110"><path data-name="Line 103" fill="none" stroke="#000" stroke-miterlimit="10" d="M93.483 209.68l.16 1.844"/><path data-name="Path 37485" d="M89.679 210.516c-.842 1.23.837 1.053 1.236 2.016.283.69 1.174 2.867.14 3.997 0 0 2.769-1.55 2.147-4.146s-1.63-2.82-1.935-2.81z"/></g></g></g><path data-name="Line 106" fill="none" stroke="#000" stroke-miterlimit="10" d="M207.983 197.927l51.488 1.794"/><path data-name="Line 122" fill="none" stroke="#000" stroke-miterlimit="10" d="M111.805 215.097l25-66"/><path data-name="Path 37534" d="M241.529 190.799l95.205 5.8c10.566-6.183 20.715 2.665 32.416 2.665" fill="none" stroke="#000" stroke-miterlimit="10" stroke-width="4"/><g data-name="Group 35788"><path data-name="Path 37535" d="M136.442 142.416l8.524-49.47 10.803 1.596-2.304 79.991-4.753 60.942" fill="none" stroke="#000" stroke-miterlimit="10"/></g><g data-name="Group 36115"><path data-name="Path 37535" d="M160.987 164.64l46.165-40.65 7.53 7.908-37.189 47.898-19.421 25.068" fill="none" stroke="#000" stroke-miterlimit="10"/></g><g data-name="Group 35789"><path data-name="Path 37537" d="M484.444 214.366l13.985-2.457 22.4-13.034 6-5.8 2.111 3.3-27.814 35.708-6.413-4.556-10.137-.378" fill="#f5f5f6"/><path data-name="Path 37538" d="M484.444 214.366l13.985-2.457 22.4-13.034 6-5.8 2.111 3.3-27.814 35.708-6.413-4.556-10.137-.378" fill="none" stroke="#000" stroke-miterlimit="10"/><path data-name="Path 37539" d="M375.871 200.654l108.221 13.564-2.03 18.932-112.91 4.633" fill="none" stroke="#000" stroke-miterlimit="10" stroke-width="4"/></g></g></g></g><g data-name="Group 36122"><g data-name="Group 36121"><g data-name="Group 1443"><path data-name="Path 943" d="M150.54 35.832l30.737 6.415 25.314-38.404L174.35 5.36z" fill="#6ab3f9"/><g data-name="Group 1442" fill="none" stroke="#000" stroke-miterlimit="10"><g data-name="Group 1441"><path data-name="Path 944" d="M173.294 47.088a3.323 3.323 0 10-2.818-3.761"/><path data-name="Path 945" d="M167.92 46.533l-42.602-2.969h0l45.912 6.586" stroke-width="4"/><path data-name="Path 946" d="M203.11 1.553L176.415 41.55l-1.996-1.329 26.804-38.803z"/></g><path data-name="Path 947" d="M195.751 2.285L165.244 5.73l-16.22 31.56"/><path data-name="Path 948" d="M146.042 38.974c-12.02-.882-34.564-1.973-34.557-1.949-.073-.002-1.414 3.772-1.382 3.74l13.521 3.665"/></g></g></g><path data-name="Path 951" d="M146.083 95.956a1.545 1.545 0 01-.034-.276c.413-7.49-4.964-21.16-6.434-28.991-.06-.324-.086-.7.199-.792a.859.859 0 01.528.072c2.209.86 4.584 7.431 6.111 8.773.645-.956.268-2.788.543-4.007.508-2.271.874-19.03 1.739-21.096.11-.267.272-.56.628-.528.52.047.925.69 1.141 1.188 3.989 9.149 4.018 39.53 3.753 40.017.14 1.643-.413 1.069.002 5.641" fill="none" stroke="#000" stroke-miterlimit="10"/><path data-name="Path 37733" d="M212.472 132.3a1.545 1.545 0 00.222-.167c5.103-5.502 18.67-13.13 25.323-17.514.275-.182.564-.424.432-.692a.859.859 0 00-.419-.33c-2.15-.991-10.56 3.664-10.554 3.7.012-.005 1.82-2.128 2.506-3.173 1.28-1.943 13.08-13.848 13.965-15.905.116-.265.215-.585-.057-.82-.394-.339-1.138-.185-1.647.006-9.352 3.486-31.227 24.57-31.393 25.1-1.275 1.039-.483 1.038-4.056 3.916" fill="none" stroke="#000" stroke-miterlimit="10"/><path data-name="Path 37732" d="M147.424 60.111c-7.19-4.008-8.225-.74-6.96 0s6.96 4.082 6.96 4.082z" fill="none" stroke="#000"/></g></g></svg>