<svg xmlns="http://www.w3.org/2000/svg" width="558.742" height="210.454"><g data-name="Group 36117"><g data-name="Group 36114"><g data-name="Group 35816"><path data-name="Path 37542" d="M53.999 195.225a4.248 4.248 0 114.247-4.248" fill="none" stroke="#000" stroke-miterlimit="10"/><path data-name="Path 37543" d="M60.892 193.728l54.442 4.1 2.011 1.643H56.052" fill="none" stroke="#000" stroke-miterlimit="10" stroke-width="4"/><path data-name="Path 37544" d="M24.999 133.439l26.053 54.214 2.765-1.318-26.87-53.947z" fill="none" stroke="#000" stroke-miterlimit="10"/><path data-name="Path 37573" d="M558.742 205.454H0" fill="none" stroke="#4fa2ff" stroke-width="10"/><g data-name="Group 35803"><g data-name="Group 35793" fill="none" stroke="#000" stroke-miterlimit="10"><path data-name="Path 37545" d="M455.076 174.971l48.75-86.3-17.213-8.851-54.651 65.9"/><path data-name="Path 37546" d="M503.18 89.116l7.711-11.547 20.491-14.9 7.555-3.081-2.118-3.188-42.917 10.816 1.55 7.535-2.352 5.93"/></g><g data-name="Group 35800" transform="translate(467.781)"><circle data-name="Ellipse 363" cx="45.481" cy="45.481" r="45.481" fill="#4fa2ff"/><g data-name="Group 35795" fill="#fff"><g data-name="Group 35794"><path data-name="Path 37547" d="M32.368 68.63l18.563-6.7-2.5-6.928 7.685-2.775 2.5 6.928 1.3-.468c2.327-.84 2.793-2.6 2.227-4.168a8.081 8.081 0 00-2.079-3.284l6.412-3.9c.05.051.874.98.924 1.034a14.482 14.482 0 012.882 4.8c1.993 5.521 1.077 12.641-6.77 15.475l-1.3.47 1.643 4.545-7.685 2.775-1.641-4.546-18.563 6.7z"/><path data-name="Path 37548" d="M28.304 57.372l26.3-9.5-3.614-10.009-26.3 9.5z"/><path data-name="Path 37549" d="M53.828 27.095l-5.951 2.149 1.544 4.275-7.713 2.785-1.545-4.275-8.413 3.038c-8.328 3.191-12.485-.692-14.4-6a17.05 17.05 0 01-1.058-7.966l8.014-1.093a7.9 7.9 0 00.333 3.49 2.527 2.527 0 003.556 1.716l8.413-3.039-2.189-6.061 7.713-2.787 2.17 6.008 7.11-2.569z"/></g><path data-name="Path 37550" d="M64.997 38.435a5.389 5.389 0 00-7.094-3.481c-3.384 1.223-4.132 4.542-3.175 7.19.973 2.7 3.671 4.775 7.054 3.553 3.444-1.245 4.189-4.563 3.215-7.262z"/></g><g data-name="Group 35797" fill="#fff"><g data-name="Group 35796"><path data-name="Path 37551" d="M32.368 68.63l18.563-6.7-2.5-6.928 7.685-2.775 2.5 6.928 1.3-.468c2.327-.84 2.793-2.6 2.227-4.168a8.081 8.081 0 00-2.079-3.284l6.412-3.9c.05.051.874.98.924 1.034a14.482 14.482 0 012.882 4.8c1.993 5.521 1.077 12.641-6.77 15.475l-1.3.47 1.643 4.545-7.685 2.775-1.641-4.546-18.563 6.7z"/><path data-name="Path 37552" d="M28.304 57.372l26.3-9.5-3.614-10.009-26.3 9.5z"/><path data-name="Path 37553" d="M53.828 27.095l-5.951 2.149 1.544 4.275-7.713 2.785-1.545-4.275-8.413 3.038c-8.328 3.191-12.485-.692-14.4-6a17.05 17.05 0 01-1.058-7.966l8.014-1.093a7.9 7.9 0 00.333 3.49 2.527 2.527 0 003.556 1.716l8.413-3.039-2.189-6.061 7.713-2.787 2.17 6.008 7.11-2.569z"/></g><path data-name="Path 37554" d="M64.997 38.435a5.389 5.389 0 00-7.094-3.481c-3.384 1.223-4.132 4.542-3.175 7.19.973 2.7 3.671 4.775 7.054 3.553 3.444-1.245 4.189-4.563 3.215-7.262z"/></g><g data-name="Group 35799" fill="#fff"><g data-name="Group 35798"><path data-name="Path 37555" d="M32.368 68.63l18.563-6.7-2.5-6.928 7.685-2.775 2.5 6.928 1.3-.468c2.327-.84 2.793-2.6 2.227-4.168a8.081 8.081 0 00-2.079-3.284l6.412-3.9c.05.051.874.98.924 1.034a14.482 14.482 0 012.882 4.8c1.993 5.521 1.077 12.641-6.77 15.475l-1.3.47 1.643 4.545-7.685 2.775-1.641-4.546-18.563 6.7z"/><path data-name="Path 37556" d="M28.304 57.372l26.3-9.5-3.614-10.009-26.3 9.5z"/><path data-name="Path 37557" d="M53.828 27.095l-5.951 2.149 1.544 4.275-7.713 2.785-1.545-4.275-8.413 3.038c-8.328 3.191-12.485-.692-14.4-6a17.05 17.05 0 01-1.058-7.966l8.014-1.093a7.9 7.9 0 00.333 3.49 2.527 2.527 0 003.556 1.716l8.413-3.039-2.189-6.061 7.713-2.787 2.17 6.008 7.11-2.569z"/></g><path data-name="Path 37558" d="M64.997 38.435a5.389 5.389 0 00-7.094-3.481c-3.384 1.223-4.132 4.542-3.175 7.19.973 2.7 3.671 4.775 7.054 3.553 3.444-1.245 4.189-4.563 3.215-7.262z"/></g></g><path data-name="Path 37559" d="M322.503 156.68c9.9-10.24 25-8.448 36.781-.441 14.892 10.124 55.654 5.073 66.567 19.605" fill="none" stroke="#000" stroke-miterlimit="10" stroke-width="4"/><g data-name="Group 35801"><path data-name="Path 37560" d="M197.542 100.474c-1.21 1.821.077 6.926.077 6.926a20.587 20.587 0 01.413 10.191.971.971 0 001.147 1.115 17.546 17.546 0 013.62-.356c.467 2.262 2.316 7.312 2.615 9.6a1.635 1.635 0 002.679 1.03l6.232-5.263" fill="none" stroke="#000" stroke-miterlimit="10"/><path data-name="Path 37561" d="M208.807 109.24c.226-2.046.274-8.635-1.742-9.045a4.081 4.081 0 00-2.069.3c-3.16 1.053-6.328 2.346-9.659 2.378s-6.952-1.566-8.13-4.682 1.5-7.326 4.771-6.682a4.787 4.787 0 017.066-5.487c.786-3.03 2.415-6.04 5.181-7.505s6.779-.766 8.172 2.038c1.722-2.393.693-2.76 3.017-4.574a6.055 6.055 0 012.41-1.3c2.1-.432 12.163-.032 13.754 5.366 1.3 4.415-1.85 10.145.3 10.651 6.116 1.443 2.011 7.972 1.212 10.031s2.041 1.606.7 3.359c-2.669 3.481-9.043 3.54-10.666 7.616a5.709 5.709 0 01-2.87-3.017 7.71 7.71 0 00.306-8.282 1.657 1.657 0 00-2.113-.766c-3.235 1.456-6.224 5.355-5.731 8.9a7.1 7.1 0 01-3.909.701z"/><path data-name="Path 37562" d="M225.412 104.834c1.751 4.983 4.945 8.645 9.15 15.39" fill="none" stroke="#000" stroke-miterlimit="10"/><path data-name="Path 37564" d="M216.238 125.441a61.89 61.89 0 001.2 3.068 1.172 1.172 0 002.054.191l.633-.943" fill="none" stroke="#000" stroke-miterlimit="10"/></g><g data-name="Group 35802"><path data-name="Path 37565" d="M478.437 63.635l7.711-11.547 20.491-14.9 7.555-3.081-2.118-3.188-42.918 10.815 1.55 7.535-3.657 9.22" fill="#f5f5f6"/><path data-name="Path 37566" d="M478.437 63.635l7.711-11.547 20.491-14.9 7.555-3.081-2.118-3.188-42.918 10.815 1.55 7.535-3.657 9.22" fill="none" stroke="#000" stroke-miterlimit="10"/><path data-name="Path 37567" d="M439.365 194.826l39.069-130.819-17.742-5.646-48.652 99.213" fill="none" stroke="#000" stroke-miterlimit="10" stroke-width="4"/></g><path data-name="Line 107" fill="none" stroke="#000" stroke-miterlimit="10" stroke-width="4" d="M300.351 199.77h122.491"/><path data-name="Line 108" fill="none" stroke="#000" stroke-miterlimit="10" d="M227.741 159.021l62.19 29.766"/><path data-name="Path 37568" d="M177.897 183.492l-48.594 6.938 1.255 10.6h71.634l38.746-41.017" fill="none" stroke="#000" stroke-miterlimit="10"/><path data-name="Path 37569" d="M205.501 197.726h17.12l21.375-30.27" fill="none" stroke="#000" stroke-miterlimit="10"/><path data-name="Path 37570" d="M128.358 191.964l2 8.657h-8.042l-6.512-5.355-11.258-.49-5.325-.392a.743.743 0 01-.108-1.431c4.983-1.727 15.441-5.362 16.528-5.811 1.434-.593 12.717 4.822 12.717 4.822z" fill="none" stroke="#000" stroke-miterlimit="10"/><path data-name="Path 37571" d="M113.263 191.632a68.328 68.328 0 00-7.886 2.981c-1.512.947-.938 2.091 1.338 2.262 2.054.155 6.98-2.552 8.605-1.609" fill="#fff" stroke="#000" stroke-miterlimit="10"/><path data-name="Path 37572" d="M185.352 182.984c24.846-29.138 42.175-59.152 47.146-63.048 6.827-5.352 12.027-4.275 19.564-.842 30.832 14.046 31.317 28.569 64.554 39.843" fill="none" stroke="#000" stroke-miterlimit="10" stroke-width="4"/></g></g><g data-name="Group 36112"><path data-name="Path 37731" d="M199.389 107.623l6.814.08s.036-1.54-3.121-1.878-3.693 1.798-3.693 1.798z"/><g data-name="Group 36109" transform="rotate(-16 489.303 -660.191)"><ellipse data-name="Ellipse 358" cx="1.284" cy="1.283" rx="1.284" ry="1.283" transform="translate(.402)"/><path data-name="Line 102" fill="none" stroke="#000" stroke-miterlimit="10" d="M0 2.941l2.371 1.902"/></g><g data-name="Group 36110"><path data-name="Line 103" fill="none" stroke="#000" stroke-miterlimit="10" d="M204.86 122.117l1.677-.784"/><path data-name="Path 37485" d="M202.861 118.75c.644-1.343 2.153-.147 3.185-.284.74-.1 3.07-.418 3.531-1.878 0 0 .042 3.173-2.516 3.933s-3.258 0-3.403-.271z"/></g></g></g></g></svg>