<svg xmlns="http://www.w3.org/2000/svg" width="631.984" height="231.57"><g data-name="Group 36118"><g data-name="Group 35825"><g data-name="Group 35817"><path data-name="Path 37542" d="M59.983 215.341a4.248 4.248 0 114.247-4.248" fill="none" stroke="#000" stroke-miterlimit="10"/><path data-name="Path 37543" d="M66.876 213.844l54.442 4.1 2.011 1.643H62.036" fill="none" stroke="#000" stroke-miterlimit="10" stroke-width="4"/><path data-name="Path 37544" d="M30.983 153.555l26.053 54.214 2.765-1.318-26.87-53.947z" fill="none" stroke="#000" stroke-miterlimit="10"/><path data-name="Path 37513" d="M631.984 226.57H0" fill="none" stroke="#4fa2ff" stroke-width="10"/><g data-name="Group 35767" fill="none" stroke="#000" stroke-miterlimit="10"><path data-name="Path 37487" d="M359.227 100.439l86.59-46.744 8.458 17.255-69.228 47.607"/><path data-name="Path 37488" d="M445.367 54.328l11.609-7.434 15.187-20.056 3.2-7.44 3.124 2.163-11.555 42.4-7.45-1.682-5.931 2.221"/></g><g data-name="Group 35774" transform="translate(443.721)"><circle data-name="Ellipse 359" cx="45.155" cy="45.155" r="45.155" fill="#4fa2ff"/><g data-name="Group 35769" fill="#fff"><g data-name="Group 35768"><path data-name="Path 37489" d="M12.111 53.97l7.008-18.3-4.48-1.715 2.9-7.576 4.482 1.717.49-1.278c2.964-7.734 10.049-8.508 15.491-6.423a14.373 14.373 0 014.714 2.952c.052.049.959.885 1.008.936l-4 6.291a8 8 0 00-3.22-2.127c-1.546-.592-3.3-.164-4.181 2.131l-.49 1.279 6.829 2.616-2.9 7.575-6.829-2.616-7.008 18.3z"/><path data-name="Path 37490" d="M42.892 65.758l9.929-25.927-9.869-3.779-9.929 25.923z"/><path data-name="Path 37491" d="M73.766 39.813l-2.69 7.013 5.922 2.268-2.912 7.6-5.975-2.289-3.177 8.293a2.507 2.507 0 001.634 3.561 7.847 7.847 0 003.459.4l-1.239 7.935a16.931 16.931 0 01-7.888-1.2c-5.228-2-9-6.2-5.676-14.409l3.177-8.293-4.215-1.614 2.912-7.6 4.215 1.614 2.247-5.867z"/></g><path data-name="Path 37492" d="M52.521 25.917a5.424 5.424 0 11-3.876 10.123c-2.66-1.018-4.67-3.734-3.393-7.071 1.3-3.394 4.609-4.067 7.269-3.052z"/></g><g data-name="Group 35771" fill="#fff"><g data-name="Group 35770"><path data-name="Path 37493" d="M12.111 53.97l7.008-18.3-4.48-1.715 2.9-7.576 4.482 1.717.49-1.278c2.964-7.734 10.049-8.508 15.491-6.423a14.373 14.373 0 014.714 2.952c.052.049.959.885 1.008.936l-4 6.291a8 8 0 00-3.22-2.127c-1.546-.592-3.3-.164-4.181 2.131l-.49 1.279 6.829 2.616-2.9 7.575-6.829-2.616-7.008 18.3z"/><path data-name="Path 37494" d="M42.892 65.758l9.929-25.927-9.869-3.779-9.929 25.923z"/><path data-name="Path 37495" d="M73.766 39.813l-2.69 7.013 5.922 2.268-2.912 7.6-5.975-2.289-3.177 8.293a2.507 2.507 0 001.634 3.561 7.847 7.847 0 003.459.4l-1.239 7.935a16.931 16.931 0 01-7.888-1.2c-5.228-2-9-6.2-5.676-14.409l3.177-8.293-4.215-1.614 2.912-7.6 4.215 1.614 2.247-5.867z"/></g><path data-name="Path 37496" d="M52.521 25.917a5.424 5.424 0 11-3.876 10.123c-2.66-1.018-4.67-3.734-3.393-7.071 1.3-3.394 4.609-4.067 7.269-3.052z"/></g><g data-name="Group 35773" fill="#fff"><g data-name="Group 35772"><path data-name="Path 37497" d="M12.111 53.97l7.008-18.3-4.48-1.715 2.9-7.576 4.482 1.717.49-1.278c2.964-7.734 10.049-8.508 15.491-6.423a14.373 14.373 0 014.714 2.952c.052.049.959.885 1.008.936l-4 6.291a8 8 0 00-3.22-2.127c-1.546-.592-3.3-.164-4.181 2.131l-.49 1.279 6.829 2.616-2.9 7.575-6.829-2.616-7.008 18.3z"/><path data-name="Path 37498" d="M42.892 65.758l9.929-25.927-9.869-3.779-9.929 25.923z"/><path data-name="Path 37499" d="M73.766 39.813l-2.69 7.013 5.922 2.268-2.912 7.6-5.975-2.289-3.177 8.293a2.507 2.507 0 001.634 3.561 7.847 7.847 0 003.459.4l-1.239 7.935a16.931 16.931 0 01-7.888-1.2c-5.228-2-9-6.2-5.676-14.409l3.177-8.293-4.215-1.614 2.912-7.6 4.215 1.614 2.247-5.867z"/></g><path data-name="Path 37500" d="M52.521 25.917a5.424 5.424 0 11-3.876 10.123c-2.66-1.018-4.67-3.734-3.393-7.071 1.3-3.394 4.609-4.067 7.269-3.052z"/></g></g><path data-name="Path 37501" d="M335.675 201.048c-37.63-13.844-92.375-5.8-94.75 0-3.114 7.609-.8 13.184 6.248 17.429 6.652 4.01 46.985 3.781 60.806 4.354 14.129.588 30.522 1.815 45.18-.72 13.934-2.41 20.745-15.808 20.9-29.948.116-10.425-2.942-51-8.777-68.08" fill="none" stroke="#000" stroke-miterlimit="10" stroke-width="4"/><g data-name="Group 35775"><path data-name="Path 37502" d="M203.304 193.991c1.027-1.912 6.1-3.175 6.1-3.175a20.43 20.43 0 009.116-4.411.965.965 0 011.512.482 17.441 17.441 0 001.383 3.336c2.2-.65 6.142-1.8 8.286-2.613a1.624 1.624 0 012.157 1.862l-1.689 7.921" fill="none" stroke="#000" stroke-miterlimit="10"/><path data-name="Path 37503" d="M216.253 199.748c-1.686 1.156-7.433 4.283-8.735 2.709a4.061 4.061 0 01-.708-1.95c-.558-3.261-.91-6.639-2.441-9.569s-4.625-5.354-7.9-4.925-5.71 4.744-3.617 7.305a4.753 4.753 0 00-1.495 8.755c-2.284 2.109-4.157 4.944-4.146 8.051s2.5 6.293 5.61 6.2c-1.286 2.628-2.092 1.9-2.59 4.783a6.006 6.006 0 00-.01 2.719c.605 2.04 5.434 2.177 7.554 2.344 4.556.358 11.9-.963 14.016-.382s6.953.871 8.383-.792 2.361 1.036 3.267-.962c1.8-3.968-1.136-9.575 1.673-12.9a5.667 5.667 0 00-3.985-1.1 7.654 7.654 0 01-7.107 4.144 1.642 1.642 0 01-1.66-1.491c-.239-3.514 1.774-7.956 5.109-9.185a7.039 7.039 0 00-1.218-3.754z"/><path data-name="Path 37504" d="M220.17 216.351c5.182-.8 9.884.281 17.757.8" fill="none" stroke="#000" stroke-miterlimit="10"/><path data-name="Path 37506" d="M231.696 198.73a60.75 60.75 0 013.248-.387 1.165 1.165 0 011.13 1.709l-.53 1" fill="none" stroke="#000" stroke-miterlimit="10"/></g><path data-name="Path 37507" d="M464.263 80.086l11.609-7.434 15.186-20.057 3.2-7.44 3.124 2.163-11.555 42.4-7.45-1.682-9.222 3.454" fill="#f5f5f6"/><path data-name="Line 105" fill="none" stroke="#000" stroke-miterlimit="10" d="M288.106 185.674l49.986 1.741"/><path data-name="Path 37508" d="M328.647 191.798l.565-51.769a44.291 44.291 0 012.983-15.923c4.4-11.041 11.893-15.678 23.253-15.678" fill="none" stroke="#000" stroke-miterlimit="10" stroke-width="4"/><g data-name="Group 35776" fill="none" stroke="#000" stroke-miterlimit="10"><path data-name="Path 37509" d="M346.592 205.035l48.246 6.888-1.246 10.528h-77.69l-59.276-2.909"/><path data-name="Path 37510" d="M394.775 212.445l-1.987 8.594h7.985l12.807-.232 19.4 1.352 1.409-.409a1.241 1.241 0 00.127-2.341c-4.512-1.834-19.785-6.259-20.777-6.671-1.418-.584-18.964-.293-18.964-.293z"/></g><path data-name="Path 37511" d="M464.263 80.086l11.609-7.434 15.186-20.057 3.2-7.44 3.124 2.163-11.555 42.4-7.45-1.682-9.222 3.454" fill="none" stroke="#000" stroke-miterlimit="10"/><path data-name="Path 37512" d="M361.87 108.428l102.022-28.344 5.266 17.719-99.413 46.4" fill="none" stroke="#000" stroke-miterlimit="10" stroke-width="4"/></g></g><g data-name="Group 36111"><path data-name="Path 37731" d="M206.951 192.811l3.476 5.861s-1.316.803-3.187-1.763-.289-4.098-.289-4.098z"/><g data-name="Group 36109" transform="rotate(76 -15.692 233.2)"><ellipse data-name="Ellipse 358" cx="1.284" cy="1.283" rx="1.284" ry="1.283" transform="translate(.402 2.276)"/><path data-name="Line 102" fill="none" stroke="#000" stroke-miterlimit="10" d="M0 1.902L2.37 0"/></g><g data-name="Group 36110"><path data-name="Line 103" fill="none" stroke="#000" stroke-miterlimit="10" d="M224.162 189.823l.16 1.844"/><path data-name="Path 37485" d="M220.253 189.775c-.842 1.23.949 1.938 1.345 2.9.283.691 1.174 2.868.14 3.998 0 0 2.769-1.55 2.147-4.146s-1.634-2.822-1.94-2.811z"/></g></g></g></svg>