<svg xmlns="http://www.w3.org/2000/svg" width="119.302" height="120.934"><g data-name="Group 36592"><g data-name="Group 35908"><g data-name="Group 35906"><path data-name="Path 37604" d="M93 34.16h-7.867a26.292 26.292 0 00-52.584 0h-7.867a34.159 34.159 0 1168.318 0z"/></g><g data-name="Group 35907"><path data-name="Rectangle 1400" d="M85.135 34.16h7.868v11.268h-7.868z"/></g></g><g data-name="Group 35910"><path data-name="Path 37605" d="M115.369 66.809a19.51 19.51 0 00-19.511-19.51V86.32a19.51 19.51 0 0019.511-19.511z" fill="#4fa2ff"/><path data-name="Path 37606" d="M95.858 90.254h-3.934V43.365h3.934a23.445 23.445 0 010 46.889zm3.934-38.518v30.146a15.578 15.578 0 000-30.146z"/></g><g data-name="Group 35911"><path data-name="Rectangle 1402" fill="#fff" d="M95.858 88.995H82.28V44.623h13.578z"/><path data-name="Path 37607" d="M99.792 92.929H78.346V40.687h21.446zM86.213 85.06h5.711v-36.5h-5.711z"/></g><g data-name="Group 35914"><g data-name="Group 35912"><path data-name="Path 37608" d="M35.302 71.315h-.119c-7.742-9.289-23.507-9.148-31.249 0v41.595c9.2-7.126 22.1-7.511 31.249 2.886h.119c9.15-10.4 22.052-10.012 31.249-2.886V71.315c-7.742-9.148-23.507-9.289-31.249 0z" fill="#fff"/><path data-name="Path 37609" d="M70.486 120.934l-6.344-4.915c-7.042-5.455-17.778-6.838-25.886 2.376l-1.174 1.334h-3.676l-1.174-1.334c-8.111-9.214-18.846-7.832-25.886-2.376l-6.344 4.915V69.875l.932-1.1a24.275 24.275 0 0118.691-8.307h.1a24.537 24.537 0 0115.517 5.393 24.537 24.537 0 0115.517-5.393h.1a24.275 24.275 0 0118.691 8.307l.932 1.1zm-52.208-17.132a25.755 25.755 0 0116.966 6.516 25.442 25.442 0 0127.374-4.3V72.861a16.71 16.71 0 00-11.756-4.523h-.072a16.129 16.129 0 00-12.465 5.5l-1.178 1.415h-3.805l-1.178-1.415a16.129 16.129 0 00-12.465-5.5h-.074a16.709 16.709 0 00-11.754 4.523v33.157a25.991 25.991 0 0110.406-2.216z"/></g><g data-name="Group 35913"><path data-name="Line 109" fill="#1ee892" d="M35.183 71.315v44.48"/><path data-name="Rectangle 1403" d="M31.249 71.315h7.868v44.48h-7.868z"/></g></g></g></svg>