<svg xmlns="http://www.w3.org/2000/svg" width="116.565" height="121.336"><g data-name="Group 35931"><g data-name="Group 35894"><path data-name="Path 37595" d="M58.282 81.492a50.381 50.381 0 0146.567 31.034H11.716a50.381 50.381 0 0146.567-31.034m0-8.808A59.249 59.249 0 00.001 121.336h116.564a59.249 59.249 0 00-58.282-48.652z"/></g><g data-name="Group 35897"><g data-name="Group 35895"><path data-name="Path 37596" d="M5.532 116.931a54.842 54.842 0 01105.5 0z" fill="#fff"/></g><g data-name="Group 35896"><path data-name="Path 37597" d="M58.282 81.492a50.381 50.381 0 0146.567 31.034H11.716a50.381 50.381 0 0146.567-31.034m0-8.808A59.249 59.249 0 00.001 121.336h116.564a59.249 59.249 0 00-58.282-48.652z"/></g></g><g data-name="Group 35901"><g data-name="Group 35898"><path data-name="Path 37598" d="M81.621 37.371c0 12.965-10.51 23.975-23.475 23.975s-23.475-11.01-23.475-23.975c0-6.215-1.581-21.355 2.361-25.553 4.283-4.563 14.363-7.411 21.114-7.411 6.482 0 16.348 2.626 20.595 6.875s2.88 19.604 2.88 26.089z" fill="#4fa2ff"/><path data-name="Path 37599" d="M58.149 65.749c-15.374 0-27.881-12.731-27.881-28.379 0-1.127-.057-2.614-.124-4.336-.414-10.673-.423-19.864 3.678-24.232 5.173-5.51 16.431-8.8 24.327-8.8 7.641 0 18.6 3.055 23.711 8.166 4.492 4.492 4.584 14.105 4.253 25.277-.044 1.541-.083 2.87-.083 3.927-.003 15.647-12.512 28.377-27.881 28.377zm0-56.94c-5.783 0-14.667 2.575-17.9 6.022-1.909 2.087-1.45 13.96-1.3 17.861.07 1.814.13 3.38.13 4.677 0 10.607 8.733 19.569 19.071 19.569s19.071-8.962 19.071-19.569c0-1.187.041-2.577.088-4.187.122-4.111.491-16.62-1.678-18.789C72.43 11.197 63.762 8.81 58.149 8.81z"/></g><g data-name="Group 35899"><circle data-name="Ellipse 365" cx="8.083" cy="8.083" r="8.083" transform="translate(22.478 26.54)"/></g><g data-name="Group 35900"><circle data-name="Ellipse 366" cx="8.083" cy="8.083" r="8.083" transform="translate(77.65 26.54)"/></g></g></g></svg>