<svg xmlns="http://www.w3.org/2000/svg" width="114.454" height="136.208"><g data-name="Group 35947"><g data-name="Group 35936"><path data-name="Path 37616" d="M57.224 97.085a49.468 49.468 0 0145.723 30.472H11.503a49.468 49.468 0 0145.721-30.472m0-8.649A58.176 58.176 0 000 136.208h114.454a58.176 58.176 0 00-57.23-47.772z"/></g><g data-name="Group 35939"><g data-name="Group 35937"><path data-name="Path 37617" d="M5.432 131.881a53.848 53.848 0 01103.591 0z" fill="#fff"/></g><g data-name="Group 35938"><path data-name="Path 37618" d="M57.224 97.085a49.468 49.468 0 0145.723 30.472H11.503a49.468 49.468 0 0145.721-30.472m0-8.649A58.176 58.176 0 000 136.208h114.454a58.176 58.176 0 00-57.23-47.772z"/></g></g><g data-name="Group 35943"><g data-name="Group 35940"><path data-name="Path 37619" d="M80.143 53.761c0 12.73-10.32 23.541-23.05 23.541s-23.05-10.811-23.05-23.541c0-6.1-1.553-20.968 2.318-25.09 4.206-4.48 14.1-7.277 20.732-7.277 6.365 0 16.052 2.579 20.222 6.751s2.828 19.251 2.828 25.616z" fill="#4fa2ff"/><path data-name="Path 37620" d="M57.093 81.627c-15.1 0-27.376-12.5-27.376-27.865 0-1.106-.056-2.567-.122-4.258-.406-10.48-.415-19.5 3.611-23.793 5.079-5.41 16.133-8.643 23.886-8.643 7.5 0 18.263 3 23.281 8.019 4.41 4.41 4.5 13.85 4.176 24.819-.043 1.513-.082 2.818-.082 3.856.002 15.365-12.28 27.865-27.374 27.865zm0-55.908c-5.678 0-14.4 2.529-17.579 5.913-1.874 2.049-1.424 13.707-1.274 17.538.068 1.781.128 3.319.128 4.593 0 10.415 8.575 19.215 18.726 19.215s18.726-8.8 18.726-19.215c0-1.166.04-2.53.086-4.111.12-4.037.482-16.319-1.648-18.448-3.141-3.139-11.652-5.486-17.165-5.486z"/></g><g data-name="Group 35941"><circle data-name="Ellipse 367" cx="7.936" cy="7.936" r="7.936" transform="translate(22.071 43.128)"/></g><g data-name="Group 35942"><circle data-name="Ellipse 368" cx="7.936" cy="7.936" r="7.936" transform="translate(76.244 43.128)"/></g></g><g data-name="Group 35946"><g data-name="Group 35944"><path data-name="Path 37621" d="M35.284 25.378v12.629a5.155 5.155 0 002.431 4.4c13.626 8.263 25.4 8.263 39.028 0a5.156 5.156 0 002.431-4.4V25.378zm0 0" fill="#fff"/><path data-name="Path 37622" d="M57.229 52.953c-7.117 0-14.232-2.281-21.757-6.844a9.493 9.493 0 01-4.514-8.1V21.054h52.541v16.953a9.505 9.505 0 01-4.516 8.1c-7.522 4.564-14.639 6.846-21.754 6.846zM39.606 29.704v8.3a.852.852 0 00.343.7c12.275 7.443 22.28 7.443 34.548 0a.847.847 0 00.35-.706v-8.3z"/></g><g data-name="Group 35945"><path data-name="Path 37623" d="M24.958 18.925l32.268-14.2 32.268 14.2-32.268 14.2zm0 0" fill="#fff"/><path data-name="Path 37624" d="M57.225 37.849L14.22 18.926 57.225 0l43.009 18.926zM35.697 18.925l21.528 9.473 21.531-9.473-21.531-9.473z"/></g></g></g></svg>