<svg xmlns="http://www.w3.org/2000/svg" width="121.095" height="121"><g data-name="Group 720"><g data-name="Group 707"><path data-name="Path 508" d="M43.449.02v41.364A36.631 36.631 0 0158.08 64.549h63.015V.02z" fill="#fff"/></g><g data-name="Group 708"><path data-name="Path 509" d="M121.057 64.49H70.689v-7.964h42.409V7.96h-69.65V0h77.609z"/></g><g data-name="Group 709"><path data-name="Path 510" d="M12.89 31.549a3.389 3.389 0 001.878-.566 10.052 10.052 0 009.757 8.427 10.05 10.05 0 009.756-8.427 3.394 3.394 0 001.878.566 3.409 3.409 0 003.409-3.41 3.409 3.409 0 00-3.409-3.409 3.392 3.392 0 00-1.646.424c.015-2.741-.173-5.731-1.3-6.86-1.792-1.792-5.953-2.9-8.687-2.9-2.848 0-7.1 1.2-8.906 3.126-1.031 1.1-1.166 3.967-1.12 6.614a3.4 3.4 0 00-1.609-.4 3.41 3.41 0 00-3.41 3.409 3.41 3.41 0 003.409 3.406z"/></g><g data-name="Group 710"><path data-name="Path 511" d="M24.582 44.194A24.99 24.99 0 000 64.714h49.169a24.99 24.99 0 00-24.587-20.52z"/></g><g data-name="Group 711"><path data-name="Path 512" d="M84.821 87.836a3.391 3.391 0 001.878-.565 10.05 10.05 0 009.757 8.426 10.049 10.049 0 009.756-8.426 3.391 3.391 0 001.878.565 3.409 3.409 0 003.409-3.409 3.409 3.409 0 00-3.409-3.409 3.389 3.389 0 00-1.646.424c.014-2.741-.174-5.731-1.3-6.86-1.792-1.792-5.952-2.9-8.686-2.9-2.848 0-7.1 1.2-8.906 3.126-1.031 1.1-1.166 3.966-1.121 6.613a3.393 3.393 0 00-1.609-.4 3.409 3.409 0 00-3.409 3.409 3.409 3.409 0 003.408 3.406z"/></g><g data-name="Group 712"><path data-name="Path 513" d="M49.002 87.836a3.392 3.392 0 001.878-.565 10.049 10.049 0 009.756 8.426 10.049 10.049 0 009.757-8.426 3.391 3.391 0 001.878.565 3.409 3.409 0 003.409-3.409 3.409 3.409 0 00-3.409-3.409 3.394 3.394 0 00-1.647.424c.015-2.741-.173-5.731-1.3-6.86-1.792-1.792-5.952-2.9-8.687-2.9-2.847 0-7.1 1.2-8.906 3.126-1.03 1.1-1.165 3.966-1.12 6.613a3.393 3.393 0 00-1.609-.4 3.409 3.409 0 00-3.409 3.409 3.409 3.409 0 003.409 3.406z"/></g><g data-name="Group 713"><path data-name="Path 514" d="M60.695 100.48A24.99 24.99 0 0036.113 121h49.163a24.99 24.99 0 00-24.581-20.52z"/></g><g data-name="Group 716"><g data-name="Group 714"><path data-name="Path 515" d="M14.375 13.017v6.82a4.157 4.157 0 001.98 3.547 15.64 15.64 0 008.17 2.534 15.637 15.637 0 008.168-2.529 4.162 4.162 0 001.982-3.547v-6.82z" fill="#4fa2ff"/></g><g data-name="Group 715"><path data-name="Path 516" d="M24.524 5.422l-17.26 7.6 17.26 7.594 17.261-7.594z" fill="#4fa2ff"/></g></g><g data-name="Group 717"><path data-name="Path 517" d="M12.89 87.836a3.388 3.388 0 001.878-.565 10.051 10.051 0 009.757 8.426 10.049 10.049 0 009.756-8.426 3.393 3.393 0 001.878.565 3.408 3.408 0 003.409-3.409 3.409 3.409 0 00-3.409-3.409 3.391 3.391 0 00-1.646.424c.015-2.741-.173-5.731-1.3-6.86-1.792-1.792-5.953-2.9-8.687-2.9-2.848 0-7.1 1.2-8.906 3.126-1.031 1.1-1.166 3.966-1.12 6.613a3.4 3.4 0 00-1.609-.4 3.41 3.41 0 00-3.41 3.409 3.409 3.409 0 003.409 3.406z"/></g><g data-name="Group 718"><path data-name="Path 518" d="M24.582 100.48A24.99 24.99 0 000 121h30.738a30.383 30.383 0 018.278-15.928 24.86 24.86 0 00-14.434-4.592z"/></g><g data-name="Group 719"><path data-name="Path 519" d="M96.513 100.48a24.85 24.85 0 00-14.257 4.472 30.392 30.392 0 018.394 16.049h30.445a24.99 24.99 0 00-24.582-20.521z"/></g><g data-name="Group 756"><text data-name="Onlineschool" transform="translate(77.811 27)" font-size="11" font-family="Nexa-Black, Nexa" letter-spacing=".01em" font-weight="800"><tspan x="-22.356" y="0">ONLINE</tspan><tspan font-family="Nexa-Regular" font-weight="400"><tspan x="-17.076" y="12">school</tspan></tspan></text></g></g></svg>