<svg xmlns="http://www.w3.org/2000/svg" width="107.932" height="41.291"><defs><clipPath id="a"><circle data-name="Ellipse 303" cx="20.645" cy="20.645" fill="none" r="20.645"/></clipPath></defs><g data-name="Group 1017"><g data-name="Group 1016"><g data-name="Group 1015" clip-path="url(#a)" transform="translate(66.641)"><g data-name="Group 1014"><path data-name="Rectangle 1260" fill="#fff" d="M-35.938-19.412h141.584v74.151H-35.938z"/><path data-name="Rectangle 1261" fill="#cf1c31" d="M-35.937-19.691h141.466v5.866H-35.937z"/><path data-name="Rectangle 1262" fill="#cf1c31" d="M-35.937-8.218h141.466v5.866H-35.937z"/><path data-name="Rectangle 1263" fill="#cf1c31" d="M-35.937 3.256h141.466v5.866H-35.937z"/><path data-name="Rectangle 1264" fill="#cf1c31" d="M-35.937 14.729h141.466v5.866H-35.937z"/><path data-name="Rectangle 1265" fill="#cf1c31" d="M-35.937 26.202h141.466v5.866H-35.937z"/><path data-name="Rectangle 1266" fill="#cf1c31" d="M-35.937 37.676h141.466v5.866H-35.937z"/><path data-name="Rectangle 1267" fill="#cf1c31" d="M-35.937 49.149h141.466v5.866H-35.937z"/><path data-name="Rectangle 1268" fill="#3a3870" d="M-35.941-19.692H20.56v40.288h-56.501z"/><g data-name="Group 1013" fill="#fff"><path data-name="Path 734" d="M-31.135-18.149l.529 1.645h1.711l-1.384 1.016.529 1.645-1.385-1.016-1.384 1.016.529-1.645-1.384-1.016h1.711z"/><path data-name="Path 735" d="M-26.479-14.015l.529 1.645h1.711l-1.384 1.016.529 1.645-1.384-1.016-1.384 1.016.529-1.645-1.384-1.016h1.711z"/><path data-name="Path 736" d="M-26.479-5.938l.529 1.645h1.711l-1.384 1.016.529 1.645-1.384-1.016-1.384 1.016.529-1.645-1.384-1.016h1.711z"/><path data-name="Path 737" d="M-26.479 2.139l.529 1.645h1.711L-25.623 4.8l.529 1.645-1.384-1.016-1.384 1.016.529-1.645-1.384-1.016h1.711z"/><path data-name="Path 738" d="M-26.479 10.216l.529 1.645h1.711l-1.384 1.016.529 1.645-1.384-1.016-1.384 1.016.529-1.645-1.384-1.016h1.711z"/><path data-name="Path 739" d="M-17.039-14.015l.529 1.645h1.711l-1.384 1.016.529 1.645-1.384-1.016-1.384 1.016.529-1.645-1.384-1.016h1.711z"/><path data-name="Path 740" d="M-17.039-5.938l.529 1.645h1.711l-1.384 1.016.529 1.645-1.384-1.016-1.384 1.016.529-1.645-1.384-1.016h1.711z"/><path data-name="Path 741" d="M-17.039 2.139l.529 1.645h1.711L-16.183 4.8l.529 1.645-1.384-1.016-1.384 1.016.529-1.645-1.384-1.016h1.711z"/><path data-name="Path 742" d="M-17.039 10.216l.529 1.645h1.711l-1.384 1.016.529 1.645-1.384-1.016-1.384 1.016.529-1.645-1.384-1.016h1.711z"/><path data-name="Path 743" d="M-7.6-14.015l.529 1.645h1.711l-1.384 1.016.529 1.645-1.384-1.016-1.385 1.016.529-1.645-1.384-1.016h1.711z"/><path data-name="Path 744" d="M-7.6-5.938l.529 1.645h1.711l-1.384 1.016.529 1.645-1.384-1.016-1.385 1.016.529-1.645-1.384-1.016h1.711z"/><path data-name="Path 745" d="M-7.6 2.139l.529 1.645h1.711L-6.744 4.8l.529 1.645-1.384-1.016-1.385 1.016.529-1.645-1.384-1.016h1.711z"/><path data-name="Path 746" d="M-7.6 10.216l.529 1.645h1.711l-1.384 1.016.529 1.645-1.384-1.016-1.385 1.016.529-1.645-1.384-1.016h1.711z"/><path data-name="Path 747" d="M1.84-14.015l.529 1.645H4.08l-1.384 1.016.529 1.645-1.384-1.016L.457-9.709l.529-1.645-1.385-1.016h1.711z"/><path data-name="Path 748" d="M1.84-5.938l.529 1.645H4.08L2.696-3.277l.529 1.645-1.384-1.016L.457-1.632l.529-1.645-1.385-1.016h1.711z"/><path data-name="Path 749" d="M1.84 2.139l.529 1.645H4.08L2.696 4.8l.529 1.645-1.384-1.016L.457 6.445.986 4.8-.399 3.784h1.711z"/><path data-name="Path 750" d="M1.84 10.216l.529 1.645H4.08l-1.384 1.016.529 1.645-1.384-1.016-1.384 1.016.529-1.645-1.385-1.016h1.711z"/><path data-name="Path 751" d="M11.279-14.015l.529 1.645h1.711l-1.384 1.016.529 1.645-1.384-1.016-1.384 1.016.529-1.645-1.384-1.016h1.711z"/><path data-name="Path 752" d="M11.279-5.938l.529 1.645h1.711l-1.384 1.016.529 1.645-1.384-1.016-1.384 1.016.529-1.645-1.384-1.016h1.711z"/><path data-name="Path 753" d="M11.279 2.139l.529 1.645h1.711L12.135 4.8l.529 1.645-1.384-1.016-1.384 1.016.529-1.645-1.384-1.016h1.711z"/><path data-name="Path 754" d="M11.279 10.216l.529 1.645h1.711l-1.384 1.016.529 1.645-1.384-1.016-1.384 1.016.529-1.645-1.384-1.016h1.711z"/><path data-name="Path 755" d="M-31.135-10.072l.529 1.645h1.711l-1.384 1.016.529 1.645-1.385-1.016-1.384 1.016.529-1.645-1.384-1.016h1.711z"/><path data-name="Path 756" d="M-31.135-1.993l.529 1.645h1.711L-30.279.668l.529 1.645-1.385-1.016-1.384 1.016.529-1.645-1.384-1.016h1.711z"/><path data-name="Path 757" d="M-31.135 6.082l.529 1.645h1.711l-1.384 1.016.529 1.645-1.385-1.016-1.384 1.016.529-1.645-1.384-1.016h1.711z"/><path data-name="Path 758" d="M-31.135 14.159l.529 1.645h1.711l-1.384 1.016.529 1.645-1.385-1.016-1.384 1.016.529-1.645-1.384-1.016h1.711z"/><path data-name="Path 759" d="M-21.821-18.149l.529 1.645h1.711l-1.385 1.016.529 1.645-1.384-1.016-1.384 1.016.529-1.645-1.384-1.016h1.711z"/><path data-name="Path 760" d="M-21.821-10.072l.529 1.645h1.711l-1.385 1.016.529 1.645-1.384-1.016-1.384 1.016.529-1.645-1.384-1.016h1.711z"/><path data-name="Path 761" d="M-21.821-1.993l.529 1.645h1.711L-20.966.668l.529 1.645-1.384-1.016-1.384 1.016.529-1.645-1.384-1.016h1.711z"/><path data-name="Path 762" d="M-21.821 6.082l.529 1.645h1.711l-1.385 1.016.529 1.645-1.384-1.016-1.384 1.016.529-1.645-1.384-1.016h1.711z"/><path data-name="Path 763" d="M-21.821 14.159l.529 1.645h1.711l-1.385 1.016.529 1.645-1.384-1.016-1.384 1.016.529-1.645-1.384-1.016h1.711z"/><path data-name="Path 764" d="M-12.257-18.149l.529 1.645h1.711l-1.384 1.016.529 1.645-1.384-1.016-1.384 1.016.529-1.645-1.384-1.016h1.711z"/><path data-name="Path 765" d="M-12.257-10.072l.529 1.645h1.711l-1.384 1.016.529 1.645-1.384-1.016-1.384 1.016.529-1.645-1.384-1.016h1.711z"/><path data-name="Path 766" d="M-12.257-1.993l.529 1.645h1.711L-11.401.668l.529 1.645-1.384-1.016-1.384 1.016.529-1.645-1.384-1.016h1.711z"/><path data-name="Path 767" d="M-12.257 6.082l.529 1.645h1.711l-1.384 1.016.529 1.645-1.384-1.016-1.384 1.016.529-1.645-1.384-1.016h1.711z"/><path data-name="Path 768" d="M-12.257 14.159l.529 1.645h1.711l-1.384 1.016.529 1.645-1.384-1.016-1.384 1.016.529-1.645-1.384-1.016h1.711z"/><path data-name="Path 769" d="M-2.88-18.149l.529 1.645H-.64l-1.384 1.016.529 1.645-1.384-1.016-1.384 1.016.529-1.645-1.384-1.016h1.711z"/><path data-name="Path 770" d="M-2.88-10.072l.529 1.645H-.64l-1.384 1.016.529 1.645-1.384-1.016-1.384 1.016.529-1.645-1.384-1.016h1.711z"/><path data-name="Path 771" d="M-2.88-1.993l.529 1.645H-.64L-2.024.668l.529 1.645-1.384-1.016-1.384 1.016.529-1.645-1.384-1.016h1.711z"/><path data-name="Path 772" d="M-2.88 6.082l.529 1.645H-.64l-1.384 1.016.529 1.645-1.384-1.016-1.384 1.016.529-1.645-1.384-1.016h1.711z"/><path data-name="Path 773" d="M-2.88 14.159l.529 1.645H-.64l-1.384 1.016.529 1.645-1.384-1.016-1.384 1.016.529-1.645-1.384-1.016h1.711z"/><path data-name="Path 774" d="M6.497-18.149l.529 1.645h1.711l-1.385 1.016.529 1.645-1.384-1.016-1.384 1.016.529-1.645-1.384-1.016h1.711z"/><path data-name="Path 775" d="M6.497-10.072l.529 1.645h1.711L7.352-7.411l.529 1.645-1.384-1.016-1.384 1.016.529-1.645-1.384-1.016h1.711z"/><path data-name="Path 776" d="M6.497-1.993l.529 1.645h1.711L7.352.668l.529 1.645-1.384-1.016-1.384 1.016.529-1.645L4.258-.348h1.711z"/><path data-name="Path 777" d="M6.497 6.082l.529 1.645h1.711L7.352 8.743l.529 1.645-1.384-1.016-1.384 1.016.529-1.645-1.384-1.016h1.711z"/><path data-name="Path 778" d="M6.497 14.159l.529 1.645h1.711L7.352 16.82l.529 1.645-1.384-1.016-1.384 1.016.529-1.645-1.384-1.016h1.711z"/><path data-name="Path 779" d="M16.062-18.149l.529 1.645h1.711l-1.384 1.016.529 1.645-1.384-1.016-1.384 1.016.529-1.645-1.384-1.016h1.711z"/><path data-name="Path 780" d="M16.062-10.072l.529 1.645h1.711l-1.384 1.016.529 1.645-1.384-1.016-1.384 1.016.529-1.645-1.384-1.016h1.711z"/><path data-name="Path 781" d="M16.062-1.993l.529 1.645h1.711L16.918.668l.529 1.645-1.384-1.016-1.384 1.016.529-1.645-1.384-1.016h1.711z"/><path data-name="Path 782" d="M16.062 6.082l.529 1.645h1.711l-1.384 1.016.529 1.645-1.384-1.016-1.384 1.016.529-1.645-1.384-1.016h1.711z"/><path data-name="Path 783" d="M16.062 14.159l.529 1.645h1.711l-1.384 1.016.529 1.645-1.384-1.016-1.384 1.016.529-1.645-1.384-1.016h1.711z"/></g></g></g></g><path data-name="Path 39624" d="M9.519 4.63a10.6 10.6 0 015.557 1.371 7.436 7.436 0 013.221 3.837 9.926 9.926 0 01.3 5.571H6.443a2.81 2.81 0 001.316 1.692 4.933 4.933 0 002.649.649 7.789 7.789 0 004.478-1.333l3.11 3.5a11.87 11.87 0 01-7.947 2.777 10.648 10.648 0 01-7.366-2.4A8.37 8.37 0 010 13.723a8.68 8.68 0 012.632-6.58A9.561 9.561 0 019.519 4.63zm.222 4.819a3.494 3.494 0 00-2.333.743 2.66 2.66 0 00-.931 2.025h6.306a2.737 2.737 0 00-.829-2.034 3.136 3.136 0 00-2.213-.734zM32.932 4.63a6.4 6.4 0 015 2.034 8.242 8.242 0 011.837 5.725v9.912h-6.375v-9.553a3.076 3.076 0 00-.675-2.1 2.339 2.339 0 00-1.854-.769 2.658 2.658 0 00-2.111.914 3.555 3.555 0 00-.795 2.418v9.09h-6.357V5.006h5.52l.359 2.034a6.77 6.77 0 015.451-2.41zm25.43 14.492a6.439 6.439 0 012.52 2.29 6 6 0 01.88 3.23 6.357 6.357 0 01-2.657 5.349 11.56 11.56 0 01-7.118 2 10.321 10.321 0 01-7.195-2.341 6.644 6.644 0 01-2.1-6.118h6.05q-.1 3.281 3.247 3.281a3.679 3.679 0 002.307-.684 2.157 2.157 0 00.889-1.794 2.006 2.006 0 00-.797-1.718 3.848 3.848 0 00-2.312-.589 9.987 9.987 0 01-7.015-2.4 8.277 8.277 0 01-2.623-6.417 8.09 8.09 0 012.692-6.272 9.936 9.936 0 016.946-2.446 9.114 9.114 0 013.521.7l1.9-2.461 4.648 3.333-2.239 2.649a6.487 6.487 0 011.617 4.495 6.759 6.759 0 01-.837 3.281 7.99 7.99 0 01-2.324 2.632zm-8.75-3.384a3.162 3.162 0 002.41.957 3.19 3.19 0 002.418-.957 3.509 3.509 0 00.914-2.529 3.539 3.539 0 00-.914-2.538 3.175 3.175 0 00-2.418-.966 3.148 3.148 0 00-2.41.966 3.559 3.559 0 00-.906 2.538 3.528 3.528 0 00.906 2.53z"/></g></svg>