<svg xmlns="http://www.w3.org/2000/svg" width="108.956" height="53.99"><defs><clipPath id="a"><circle data-name="Ellipse 303" cx="20.645" cy="20.645" fill="none" r="20.645"/></clipPath></defs><g data-name="Group 1017"><g data-name="Group 1016"><g data-name="Group 1015" clip-path="url(#a)" transform="translate(67.665 12.699)"><g data-name="Group 1014"><path data-name="Rectangle 1260" fill="#fff" d="M-35.938-19.412h141.584v74.151H-35.938z"/><path data-name="Rectangle 1261" fill="#cf1c31" d="M-35.937-19.691h141.466v5.866H-35.937z"/><path data-name="Rectangle 1262" fill="#cf1c31" d="M-35.937-8.218h141.466v5.866H-35.937z"/><path data-name="Rectangle 1263" fill="#cf1c31" d="M-35.937 3.256h141.466v5.866H-35.937z"/><path data-name="Rectangle 1264" fill="#cf1c31" d="M-35.937 14.729h141.466v5.866H-35.937z"/><path data-name="Rectangle 1265" fill="#cf1c31" d="M-35.937 26.202h141.466v5.866H-35.937z"/><path data-name="Rectangle 1266" fill="#cf1c31" d="M-35.937 37.676h141.466v5.866H-35.937z"/><path data-name="Rectangle 1267" fill="#cf1c31" d="M-35.937 49.149h141.466v5.866H-35.937z"/><path data-name="Rectangle 1268" fill="#3a3870" d="M-35.941-19.692H20.56v40.288h-56.501z"/><g data-name="Group 1013" fill="#fff"><path data-name="Path 734" d="M-31.135-18.149l.529 1.645h1.711l-1.384 1.016.529 1.645-1.385-1.016-1.384 1.016.529-1.645-1.384-1.016h1.711z"/><path data-name="Path 735" d="M-26.479-14.015l.529 1.645h1.711l-1.384 1.016.529 1.645-1.384-1.016-1.384 1.016.529-1.645-1.384-1.016h1.711z"/><path data-name="Path 736" d="M-26.479-5.938l.529 1.645h1.711l-1.384 1.016.529 1.645-1.384-1.016-1.384 1.016.529-1.645-1.384-1.016h1.711z"/><path data-name="Path 737" d="M-26.479 2.139l.529 1.645h1.711L-25.623 4.8l.529 1.645-1.384-1.016-1.384 1.016.529-1.645-1.384-1.016h1.711z"/><path data-name="Path 738" d="M-26.479 10.216l.529 1.645h1.711l-1.384 1.016.529 1.645-1.384-1.016-1.384 1.016.529-1.645-1.384-1.016h1.711z"/><path data-name="Path 739" d="M-17.039-14.015l.529 1.645h1.711l-1.384 1.016.529 1.645-1.384-1.016-1.384 1.016.529-1.645-1.384-1.016h1.711z"/><path data-name="Path 740" d="M-17.039-5.938l.529 1.645h1.711l-1.384 1.016.529 1.645-1.384-1.016-1.384 1.016.529-1.645-1.384-1.016h1.711z"/><path data-name="Path 741" d="M-17.039 2.139l.529 1.645h1.711L-16.183 4.8l.529 1.645-1.384-1.016-1.384 1.016.529-1.645-1.384-1.016h1.711z"/><path data-name="Path 742" d="M-17.039 10.216l.529 1.645h1.711l-1.384 1.016.529 1.645-1.384-1.016-1.384 1.016.529-1.645-1.384-1.016h1.711z"/><path data-name="Path 743" d="M-7.6-14.015l.529 1.645h1.711l-1.384 1.016.529 1.645-1.384-1.016-1.385 1.016.529-1.645-1.384-1.016h1.711z"/><path data-name="Path 744" d="M-7.6-5.938l.529 1.645h1.711l-1.384 1.016.529 1.645-1.384-1.016-1.385 1.016.529-1.645-1.384-1.016h1.711z"/><path data-name="Path 745" d="M-7.6 2.139l.529 1.645h1.711L-6.744 4.8l.529 1.645-1.384-1.016-1.385 1.016.529-1.645-1.384-1.016h1.711z"/><path data-name="Path 746" d="M-7.6 10.216l.529 1.645h1.711l-1.384 1.016.529 1.645-1.384-1.016-1.385 1.016.529-1.645-1.384-1.016h1.711z"/><path data-name="Path 747" d="M1.84-14.015l.529 1.645H4.08l-1.384 1.016.529 1.645-1.384-1.016L.457-9.709l.529-1.645-1.385-1.016h1.711z"/><path data-name="Path 748" d="M1.84-5.938l.529 1.645H4.08L2.696-3.277l.529 1.645-1.384-1.016L.457-1.632l.529-1.645-1.385-1.016h1.711z"/><path data-name="Path 749" d="M1.84 2.139l.529 1.645H4.08L2.696 4.8l.529 1.645-1.384-1.016L.457 6.445.986 4.8-.399 3.784h1.711z"/><path data-name="Path 750" d="M1.84 10.216l.529 1.645H4.08l-1.384 1.016.529 1.645-1.384-1.016-1.384 1.016.529-1.645-1.385-1.016h1.711z"/><path data-name="Path 751" d="M11.279-14.015l.529 1.645h1.711l-1.384 1.016.529 1.645-1.384-1.016-1.384 1.016.529-1.645-1.384-1.016h1.711z"/><path data-name="Path 752" d="M11.279-5.938l.529 1.645h1.711l-1.384 1.016.529 1.645-1.384-1.016-1.384 1.016.529-1.645-1.384-1.016h1.711z"/><path data-name="Path 753" d="M11.279 2.139l.529 1.645h1.711L12.135 4.8l.529 1.645-1.384-1.016-1.384 1.016.529-1.645-1.384-1.016h1.711z"/><path data-name="Path 754" d="M11.279 10.216l.529 1.645h1.711l-1.384 1.016.529 1.645-1.384-1.016-1.384 1.016.529-1.645-1.384-1.016h1.711z"/><path data-name="Path 755" d="M-31.135-10.072l.529 1.645h1.711l-1.384 1.016.529 1.645-1.385-1.016-1.384 1.016.529-1.645-1.384-1.016h1.711z"/><path data-name="Path 756" d="M-31.135-1.993l.529 1.645h1.711L-30.279.668l.529 1.645-1.385-1.016-1.384 1.016.529-1.645-1.384-1.016h1.711z"/><path data-name="Path 757" d="M-31.135 6.082l.529 1.645h1.711l-1.384 1.016.529 1.645-1.385-1.016-1.384 1.016.529-1.645-1.384-1.016h1.711z"/><path data-name="Path 758" d="M-31.135 14.159l.529 1.645h1.711l-1.384 1.016.529 1.645-1.385-1.016-1.384 1.016.529-1.645-1.384-1.016h1.711z"/><path data-name="Path 759" d="M-21.821-18.149l.529 1.645h1.711l-1.385 1.016.529 1.645-1.384-1.016-1.384 1.016.529-1.645-1.384-1.016h1.711z"/><path data-name="Path 760" d="M-21.821-10.072l.529 1.645h1.711l-1.385 1.016.529 1.645-1.384-1.016-1.384 1.016.529-1.645-1.384-1.016h1.711z"/><path data-name="Path 761" d="M-21.821-1.993l.529 1.645h1.711L-20.966.668l.529 1.645-1.384-1.016-1.384 1.016.529-1.645-1.384-1.016h1.711z"/><path data-name="Path 762" d="M-21.821 6.082l.529 1.645h1.711l-1.385 1.016.529 1.645-1.384-1.016-1.384 1.016.529-1.645-1.384-1.016h1.711z"/><path data-name="Path 763" d="M-21.821 14.159l.529 1.645h1.711l-1.385 1.016.529 1.645-1.384-1.016-1.384 1.016.529-1.645-1.384-1.016h1.711z"/><path data-name="Path 764" d="M-12.257-18.149l.529 1.645h1.711l-1.384 1.016.529 1.645-1.384-1.016-1.384 1.016.529-1.645-1.384-1.016h1.711z"/><path data-name="Path 765" d="M-12.257-10.072l.529 1.645h1.711l-1.384 1.016.529 1.645-1.384-1.016-1.384 1.016.529-1.645-1.384-1.016h1.711z"/><path data-name="Path 766" d="M-12.257-1.993l.529 1.645h1.711L-11.401.668l.529 1.645-1.384-1.016-1.384 1.016.529-1.645-1.384-1.016h1.711z"/><path data-name="Path 767" d="M-12.257 6.082l.529 1.645h1.711l-1.384 1.016.529 1.645-1.384-1.016-1.384 1.016.529-1.645-1.384-1.016h1.711z"/><path data-name="Path 768" d="M-12.257 14.159l.529 1.645h1.711l-1.384 1.016.529 1.645-1.384-1.016-1.384 1.016.529-1.645-1.384-1.016h1.711z"/><path data-name="Path 769" d="M-2.88-18.149l.529 1.645H-.64l-1.384 1.016.529 1.645-1.384-1.016-1.384 1.016.529-1.645-1.384-1.016h1.711z"/><path data-name="Path 770" d="M-2.88-10.072l.529 1.645H-.64l-1.384 1.016.529 1.645-1.384-1.016-1.384 1.016.529-1.645-1.384-1.016h1.711z"/><path data-name="Path 771" d="M-2.88-1.993l.529 1.645H-.64L-2.024.668l.529 1.645-1.384-1.016-1.384 1.016.529-1.645-1.384-1.016h1.711z"/><path data-name="Path 772" d="M-2.88 6.082l.529 1.645H-.64l-1.384 1.016.529 1.645-1.384-1.016-1.384 1.016.529-1.645-1.384-1.016h1.711z"/><path data-name="Path 773" d="M-2.88 14.159l.529 1.645H-.64l-1.384 1.016.529 1.645-1.384-1.016-1.384 1.016.529-1.645-1.384-1.016h1.711z"/><path data-name="Path 774" d="M6.497-18.149l.529 1.645h1.711l-1.385 1.016.529 1.645-1.384-1.016-1.384 1.016.529-1.645-1.384-1.016h1.711z"/><path data-name="Path 775" d="M6.497-10.072l.529 1.645h1.711L7.352-7.411l.529 1.645-1.384-1.016-1.384 1.016.529-1.645-1.384-1.016h1.711z"/><path data-name="Path 776" d="M6.497-1.993l.529 1.645h1.711L7.352.668l.529 1.645-1.384-1.016-1.384 1.016.529-1.645L4.258-.348h1.711z"/><path data-name="Path 777" d="M6.497 6.082l.529 1.645h1.711L7.352 8.743l.529 1.645-1.384-1.016-1.384 1.016.529-1.645-1.384-1.016h1.711z"/><path data-name="Path 778" d="M6.497 14.159l.529 1.645h1.711L7.352 16.82l.529 1.645-1.384-1.016-1.384 1.016.529-1.645-1.384-1.016h1.711z"/><path data-name="Path 779" d="M16.062-18.149l.529 1.645h1.711l-1.384 1.016.529 1.645-1.384-1.016-1.384 1.016.529-1.645-1.384-1.016h1.711z"/><path data-name="Path 780" d="M16.062-10.072l.529 1.645h1.711l-1.384 1.016.529 1.645-1.384-1.016-1.384 1.016.529-1.645-1.384-1.016h1.711z"/><path data-name="Path 781" d="M16.062-1.993l.529 1.645h1.711L16.918.668l.529 1.645-1.384-1.016-1.384 1.016.529-1.645-1.384-1.016h1.711z"/><path data-name="Path 782" d="M16.062 6.082l.529 1.645h1.711l-1.384 1.016.529 1.645-1.384-1.016-1.384 1.016.529-1.645-1.384-1.016h1.711z"/><path data-name="Path 783" d="M16.062 14.159l.529 1.645h1.711l-1.384 1.016.529 1.645-1.384-1.016-1.384 1.016.529-1.645-1.384-1.016h1.711z"/></g></g></g></g><text transform="translate(64 35)" font-size="35" font-family="Nexa-Black, Nexa" font-weight="800"><tspan x="-63.95" y="0">eng</tspan></text></g></svg>