<svg xmlns="http://www.w3.org/2000/svg" width="97.749" height="44.598"><defs><clipPath id="a"><circle data-name="Ellipse 309" cx="20.645" cy="20.645" fill="none" r="20.645"/></clipPath></defs><g data-name="Group 1029"><g data-name="Group 1028"><g data-name="Group 1027"><g data-name="Group 1026" clip-path="url(#a)" transform="translate(56.458 3.307)"><path data-name="Rectangle 1274" fill="#001e9a" d="M0 50.602V-9.312h13.763v59.914z"/><path data-name="Rectangle 1275" fill="#fff" d="M13.764 50.602V-9.312h13.763v59.914z"/><path data-name="Rectangle 1276" fill="#ff2437" d="M27.527 50.602V-9.312H41.29v59.914z"/></g></g><path data-name="Path 39627" d="M9.382 7.022v.8h4.443v5.007H9.382v12.293H2.939V12.834H0V7.827h2.939v-.8a7.87 7.87 0 01.434-2.695 5.975 5.975 0 011.154-2A6.488 6.488 0 016.219.999 7.527 7.527 0 018.227.23a9.74 9.74 0 012.128-.231 8.067 8.067 0 015.318 1.71l-2.051 3.845a3.87 3.87 0 00-2.1-.667 1.888 1.888 0 00-2.14 2.135zm17.278.427a6.717 6.717 0 012.367.444 5.549 5.549 0 012.076 1.367l-2.6 4.478a4.682 4.682 0 00-2.581-.837 3.217 3.217 0 00-2.444.931 4.045 4.045 0 00-.889 2.88v8.41h-6.357V7.827h5.588l.427 2.068a4.938 4.938 0 014.413-2.444zm18.713.376h5.52v17.297h-5.52l-.359-2.034a7.27 7.27 0 01-5.541 2.376 7.525 7.525 0 01-5.841-2.512 9.284 9.284 0 01-2.273-6.477 9.284 9.284 0 012.273-6.477 7.525 7.525 0 015.841-2.513 7.251 7.251 0 015.541 2.337zm-6.75 11.367a3.276 3.276 0 002.512 1.03 3.236 3.236 0 002.5-1.034 3.85 3.85 0 00.948-2.709 3.85 3.85 0 00-.948-2.709 3.236 3.236 0 00-2.5-1.034 3.263 3.263 0 00-2.512 1.034 3.829 3.829 0 00-.957 2.709 3.86 3.86 0 00.957 2.713z"/></g></g></svg>