<svg xmlns="http://www.w3.org/2000/svg" width="658.859" height="637.114"><defs><linearGradient id="a" x1="-.115" y1="1.456" x2=".704" y2=".656" gradientUnits="objectBoundingBox"><stop offset="0" stop-color="#fff"/><stop offset="1" stop-color="#fff" stop-opacity="0"/></linearGradient></defs><g data-name="Group 36389"><path data-name="Path 915" d="M458.907 291.56a427.384 427.384 0 01-3.43 81.131c-21.755 4.462-19.142-7.484-43.586-20.256-9.25-5.246-6.084 7.533-17.822 0-18.8-14.439-34.891-28.576-34.891-28.576l7.115-33.845c-.628-.287-26.521 20.7-27.146 20.384-2.331-4.605-8.633-14.708-11.7-16.586-1.8-1.077-24.656-29.459-26.434-30.668-7.768-5.212 19.2-18.156 29.529-28.505 6.812-6.822 21.489-23.6 27.156-27.712 9.595-4.392 14.475-5.756 20.614-4.975l21.808-10.454c13.893-3.455 30.436-4.522 41.545 20.939 4.49 6.085 14.763 35.423 17.242 79.123z" fill="#fff"/><g data-name="Group 1549" transform="translate(268.021 394.774)"><circle data-name="Ellipse 331" cx="121.17" cy="121.17" r="121.17" fill="#fff"/><g data-name="Group 1544" fill="#fff"><g data-name="Group 1543"><path data-name="Path 973" d="M32.496 144.824l18.807-49.1-12.026-4.613 7.787-20.327 12.024 4.606 1.316-3.434c7.95-20.758 26.963-22.831 41.565-17.238a38.6 38.6 0 0112.651 7.921c.138.134 2.571 2.378 2.707 2.512L106.6 82.032a21.516 21.516 0 00-8.64-5.706c-4.149-1.589-8.86-.438-11.217 5.717l-1.316 3.435 18.325 7.018-7.787 20.327-18.323-7.012-18.807 49.1z"/><path data-name="Path 974" d="M115.097 176.461l26.645-69.571-26.483-10.144-26.645 69.571z"/><path data-name="Path 975" d="M197.947 106.833l-7.206 18.818 15.89 6.085-7.814 20.4-16.035-6.14-8.521 22.262c-1.775 5.065.377 8.022 4.384 9.556a21.042 21.042 0 009.283 1.065l-3.327 21.294c-7.158.8-14.407-.641-21.163-3.227-14.031-5.373-24.159-16.643-15.232-38.666l8.524-22.255-11.311-4.331 7.814-20.4 11.311 4.331 6.029-15.742z"/></g><path data-name="Path 976" d="M140.937 69.548c7 2.684 12.4 9.968 8.91 19.073-3.428 8.952-12.311 10.773-19.314 8.091-7.137-2.733-12.533-10.023-9.1-18.975 3.484-9.108 12.366-10.923 19.504-8.189z"/></g><g data-name="Group 1546" fill="#fff"><g data-name="Group 1545"><path data-name="Path 977" d="M32.496 144.824l18.807-49.1-12.026-4.613 7.787-20.327 12.024 4.606 1.316-3.434c7.95-20.758 26.963-22.831 41.565-17.238a38.6 38.6 0 0112.651 7.921c.138.134 2.571 2.378 2.707 2.512L106.6 82.032a21.516 21.516 0 00-8.64-5.706c-4.149-1.589-8.86-.438-11.217 5.717l-1.316 3.435 18.325 7.018-7.787 20.327-18.323-7.012-18.807 49.1z"/><path data-name="Path 978" d="M115.097 176.461l26.645-69.571-26.483-10.144-26.645 69.571z"/><path data-name="Path 979" d="M197.947 106.833l-7.206 18.818 15.89 6.085-7.814 20.4-16.035-6.14-8.521 22.262c-1.775 5.065.377 8.022 4.384 9.556a21.042 21.042 0 009.283 1.065l-3.327 21.294c-7.158.8-14.407-.641-21.163-3.227-14.031-5.373-24.159-16.643-15.232-38.666l8.524-22.255-11.311-4.331 7.814-20.4 11.311 4.331 6.029-15.742z"/></g><path data-name="Path 980" d="M140.937 69.548c7 2.684 12.4 9.968 8.91 19.073-3.428 8.952-12.311 10.773-19.314 8.091-7.137-2.733-12.533-10.023-9.1-18.975 3.484-9.108 12.366-10.923 19.504-8.189z"/></g><g data-name="Group 1548" fill="#4fa2ff"><g data-name="Group 1547"><path data-name="Path 981" d="M32.496 144.824l18.807-49.1-12.026-4.613 7.787-20.327 12.024 4.606 1.316-3.434c7.95-20.758 26.963-22.831 41.565-17.238a38.6 38.6 0 0112.651 7.921c.138.134 2.571 2.378 2.707 2.512L106.6 82.032a21.516 21.516 0 00-8.64-5.706c-4.149-1.589-8.86-.438-11.217 5.717l-1.316 3.435 18.325 7.018-7.787 20.327-18.323-7.012-18.807 49.1z"/><path data-name="Path 982" d="M115.097 176.461l26.645-69.571-26.483-10.144-26.645 69.571z"/><path data-name="Path 983" d="M197.947 106.833l-7.206 18.818 15.89 6.085-7.814 20.4-16.035-6.14-8.521 22.262c-1.775 5.065.377 8.022 4.384 9.556a21.042 21.042 0 009.283 1.065l-3.327 21.294c-7.158.8-14.407-.641-21.163-3.227-14.031-5.373-24.159-16.643-15.232-38.666l8.524-22.255-11.311-4.331 7.814-20.4 11.311 4.331 6.029-15.742z"/></g><path data-name="Path 984" d="M140.937 69.548c7 2.684 12.4 9.968 8.91 19.073-3.428 8.952-12.311 10.773-19.314 8.091-7.137-2.733-12.533-10.023-9.1-18.975 3.484-9.108 12.366-10.923 19.504-8.189z"/></g></g><path data-name="Path 985" d="M357.027 146.732c-2.718 2.417-2.811 11.184-2.811 11.184.2 6.209-1.066 10.936-3.661 16.584a1.616 1.616 0 001.379 2.282 29.307 29.307 0 015.978.964c-.209 3.838 1.593 10.138 1.051 13.945-.617 4.346 5.257 4.161 7.2 3.238l6.889-3.238" fill="none" stroke="#000" stroke-miterlimit="10" stroke-width="2"/><path data-name="Path 986" d="M371.444 165.623c1.232-3.2 4.1-13.786 1.03-15.3a6.785 6.785 0 00-3.457-.4c-5.534.355-11.181 1.091-16.559-.27s-10.528-5.47-11.1-10.987 5.526-11.157 10.516-8.735a7.97 7.97 0 0113.7-5.835c2.553-4.545 6.452-8.7 11.526-9.887s11.24 1.645 12.292 6.748a51.845 51.845 0 0112.532-7.63 10.039 10.039 0 014.431-1.071c3.561.194 6.044 3.68 7.139 7.076a22.861 22.861 0 01-4.39 21.554c2.269-2.893 7.436-1.764 9.2 1.46s.753 7.38-1.407 10.356-5.278 5.082-8.184 7.334c-5.777 4.472-1.633 7.365-5.973 13.241-3.014-2.368-12.639-3.695-12.639-3.695 4.086-3.571 4.921-13.56-2.3-13.2-5.825.972-9.065 3.85-9.777 9.77a11.822 11.822 0 01-6.58-.529z"/><path data-name="Path 987" d="M400.047 165.572c2.262 8.47 7.271 16.608 9.1 24.517" fill="none" stroke="#000" stroke-miterlimit="10" stroke-width="2"/><path data-name="Line 89" fill="none" stroke="#fff" stroke-miterlimit="10" stroke-width="10" d="M330.519 315.167H0"/><path data-name="Path 988" d="M78.978 301.67a6.628 6.628 0 116.627-6.629" fill="none" stroke="#000" stroke-miterlimit="10" stroke-width="2"/><path data-name="Path 990" d="M375.775 191.212c.219 2.349.435 4.125.627 5.449a1.953 1.953 0 003.228 1.181l1.419-1.249" fill="none" stroke="#000" stroke-miterlimit="10" stroke-width="2"/><path data-name="Path 991" d="M240.159 390.34l-78.386 145.209 28.936 14.183 79.834-116.092" fill="none" stroke="#000" stroke-miterlimit="10" stroke-width="2"/><path data-name="Line 90" fill="none" stroke="#000" stroke-miterlimit="10" stroke-width="2" d="M370.1 267.025l2.92 83.823"/><path data-name="Path 993" d="M279.884 282.071l-80.9 11.551 2.09 17.655H331.35l83.44-60.1" fill="none" stroke="#000" stroke-miterlimit="10" stroke-width="2"/><path data-name="Path 994" d="M197.406 296.175l3.333 14.412H187.35l-10.841-8.915-19.4.909-9.812-.909c-1.244-.24-1.2-2.768 0-3.183 8.3-2.876 27.132-9.6 28.942-10.345 2.383-.983 21.167 8.031 21.167 8.031z" fill="none" stroke="#000" stroke-miterlimit="10" stroke-width="2"/><path data-name="Path 995" d="M168.214 538.706l-12.466 19.468 25.792 4.207 5.8-15.487" fill="none" stroke="#000" stroke-miterlimit="10" stroke-width="2"/><path data-name="Path 996" d="M327.689 550.075l7.967 25.189 21.611-14.946-5.917-10.977" fill="none" stroke="#000" stroke-miterlimit="10" stroke-width="2"/><path data-name="Path 997" d="M89.742 299.333l84.95 6.4 3.137 2.564H82.186" fill="none" stroke="#000" stroke-miterlimit="10" stroke-width="6"/><path data-name="Path 998" d="M33.735 205.261l40.653 84.591 4.315-2.056-41.921-84.178z" fill="none" stroke="#000" stroke-miterlimit="10" stroke-width="2"/><path data-name="Path 999" d="M172.271 295.623c-.6.1-11.184 3.743-13.13 4.963-2.517 1.576-1.562 3.481 2.228 3.765 3.42.258 11.621-4.246 14.327-2.679" fill="none" stroke="#000" stroke-miterlimit="10" stroke-width="2"/><g data-name="Group 1636"><g data-name="Group 1567"><g data-name="Group 1566"><g data-name="Group 1565"><g data-name="Group 1564"><g data-name="Group 1563"><g data-name="Group 1562"><path data-name="Path 1005" d="M111.555 600.868l83.065-9.075a13.691 13.691 0 00.542-5.147c-.316-7.715-7.341-18.464-7.341-26.293 0-1.38.394-5.781.306-6.568-.685-6.289-5.674-4.654-5.674-4.654-7.423 9.906-18.413-2.526-23.487 2.5 0 0-.207.2-.668.692a88.699 88.699 0 00-1.948 2.16c-1.275 1.445-3.058 3.534-5.461 6.466-5.886 7.186-14.019 12.68-23.092 18.073a68.643 68.643 0 00-3.216 2.033c-.751.5-1.455 1.006-2.116 1.5-7.3 5.446-11.925 10.108-12.139 13.36a7.63 7.63 0 001.229 4.953z" fill="#effaff" stroke="#000" stroke-miterlimit="10" stroke-width="2"/></g></g></g></g></g></g><g data-name="Group 1625"><g data-name="Group 1577"><g data-name="Group 1576"><g data-name="Group 1575"><g data-name="Group 1574"><g data-name="Group 1573"><g data-name="Group 1572"><g data-name="Group 1571"><g data-name="Group 1570"><g data-name="Group 1569"><g data-name="Group 1568"><path data-name="Path 1006" d="M150.016 564.63a3.565 3.565 0 001.2-1.028c.508-.622.739-1.183.5-1.236l-1.963-.442c-.318-.075-1.057.5-1.615 1.258-.539.734-.68 1.326-.343 1.348l2.082.124a.347.347 0 00.139-.024z"/></g></g></g></g></g></g></g></g></g></g><g data-name="Group 1587"><g data-name="Group 1586"><g data-name="Group 1585"><g data-name="Group 1584"><g data-name="Group 1583"><g data-name="Group 1582"><g data-name="Group 1581"><g data-name="Group 1580"><g data-name="Group 1579"><g data-name="Group 1578"><path data-name="Path 1007" d="M154.093 560.341a3.609 3.609 0 001.246-1.066c.59-.7.96-1.387.8-1.518l-1.283-1.093c-.211-.18-.957.4-1.637 1.275-.656.843-.969 1.6-.726 1.71l1.489.69a.182.182 0 00.111.002z"/></g></g></g></g></g></g></g></g></g></g><g data-name="Group 1597"><g data-name="Group 1596"><g data-name="Group 1595"><g data-name="Group 1594"><g data-name="Group 1593"><g data-name="Group 1592"><g data-name="Group 1591"><g data-name="Group 1590"><g data-name="Group 1589"><g data-name="Group 1588"><path data-name="Path 1008" d="M146.47 567.933a3.877 3.877 0 001.338-1.085c.505-.612.646-1.117.3-1.113l-2.871.034a3.213 3.213 0 00-1.841 1.365c-.512.709-.515 1.224-.036 1.171l2.932-.323a.676.676 0 00.178-.049z"/></g></g></g></g></g></g></g></g></g></g><g data-name="Group 1604"><g data-name="Group 1603"><g data-name="Group 1602"><g data-name="Group 1601"><g data-name="Group 1600"><g data-name="Group 1599"><g data-name="Group 1598"><path data-name="Path 1009" d="M141.47 571.363a3.379 3.379 0 001.4-.731c.508-.437.614-.826.214-.858l-3.284-.256a3.006 3.006 0 00-1.955.906c-.505.515-.449.925.092.93l3.326.034a1.091 1.091 0 00.207-.025z"/></g></g></g></g></g></g></g><g data-name="Group 1614"><g data-name="Group 1613"><g data-name="Group 1612"><g data-name="Group 1611"><g data-name="Group 1610"><g data-name="Group 1609"><g data-name="Group 1608"><g data-name="Group 1607"><g data-name="Group 1606"><g data-name="Group 1605"><path data-name="Path 1010" d="M136.933 574.78a3.282 3.282 0 001.387-.816c.418-.437.367-.775-.141-.741l-4.19.279a3.128 3.128 0 00-1.994 1.047c-.377.505-.107.836.568.755l4.127-.478a1.574 1.574 0 00.243-.046z"/></g></g></g></g></g></g></g></g></g></g><g data-name="Group 1624"><g data-name="Group 1623"><g data-name="Group 1622"><g data-name="Group 1621"><g data-name="Group 1620"><g data-name="Group 1619"><g data-name="Group 1618"><g data-name="Group 1617"><g data-name="Group 1616"><g data-name="Group 1615"><path data-name="Path 1011" d="M131.753 578.469a3.162 3.162 0 001.426-.85c.345-.418.124-.7-.522-.612l-5.364.724a3.188 3.188 0 00-2.135 1.127c-.255.474.265.721 1.12.573l5.179-.894a2.748 2.748 0 00.296-.068z"/></g></g></g></g></g></g></g></g></g></g></g><path data-name="Path 1012" d="M190.708 558.977c-8.558-2.337-16.062 5.786-16.992 13.037-.6 4.7.892 8.762 7.161 13.717l5.5 4.283" fill="none" stroke="#8bd3ff" stroke-miterlimit="10"/><g data-name="Group 1635"><g data-name="Group 1634"><g data-name="Group 1633"><g data-name="Group 1632"><g data-name="Group 1631"><g data-name="Group 1630"><g data-name="Group 1629"><g data-name="Group 1628"><g data-name="Group 1627"><g data-name="Group 1626"><path data-name="Path 1013" d="M111.001 601.98l84.3-9.211a20.482 20.482 0 00.43-6.187l-86.077 9.406a12.535 12.535 0 001.347 5.992z"/></g></g></g></g></g></g></g></g></g></g><path data-name="Path 1014" d="M127.541 580.607a2.845 2.845 0 003.121 1.274c1.564-.488 3.381-.782 12.338-7.611s16.538-15.221 17.148-16.953c.588-1.664-5.852-7.586-5.852-7.586" fill="none" stroke="#8bd3ff" stroke-miterlimit="10"/></g><g data-name="Group 1712" transform="translate(314.231 549.37)"><g data-name="Group 1643"><g data-name="Group 1642"><g data-name="Group 1641"><g data-name="Group 1640"><g data-name="Group 1639"><g data-name="Group 1638"><g data-name="Group 1637"><path data-name="Path 1015" d="M5.386 85.033l63.462-54.357a13.709 13.709 0 00-2.458-4.555c-4.616-6.194-16.654-12.508-22.669-17.519-1.815-1.511-.93-3.678-1.678-5.645-2.067-5.437-4.368-1.71-4.368-1.71-.539 12.367-19.572 9.372-20.927 16.385 0 0-.054.284-.16.95-.095.612-.228 1.55-.391 2.881-.238 1.912-.53 4.645-.86 8.419-.8 9.255-6.578 19.853-11.028 29.429q-.849 1.829-1.506 3.491-.5 1.261-.9 2.434c-2.956 8.619-1.982 13.6-.323 16.4a7.633 7.633 0 003.806 3.397z" fill="#effaff" stroke="#000" stroke-miterlimit="10" stroke-width="2"/></g></g></g></g></g></g></g><g data-name="Group 1701"><g data-name="Group 1653"><g data-name="Group 1652"><g data-name="Group 1651"><g data-name="Group 1650"><g data-name="Group 1649"><g data-name="Group 1648"><g data-name="Group 1647"><g data-name="Group 1646"><g data-name="Group 1645"><g data-name="Group 1644"><path data-name="Path 1016" d="M19.908 33.039a1.407 1.407 0 00.272-1.734 1.513 1.513 0 00-1.946-.726l-4.883 2.322a1.37 1.37 0 00-.554 1.917 1.508 1.508 0 001.943.726l4.885-2.322a1.3 1.3 0 00.283-.183z"/></g></g></g></g></g></g></g></g></g></g><g data-name="Group 1663"><g data-name="Group 1662"><g data-name="Group 1661"><g data-name="Group 1660"><g data-name="Group 1659"><g data-name="Group 1658"><g data-name="Group 1657"><g data-name="Group 1656"><g data-name="Group 1655"><g data-name="Group 1654"><path data-name="Path 1017" d="M20.765 26.068a1.407 1.407 0 00.272-1.734 1.515 1.515 0 00-1.946-.726l-4.883 2.322a1.375 1.375 0 00-.554 1.917 1.511 1.511 0 001.946.726l4.883-2.322a1.167 1.167 0 00.282-.183z"/></g></g></g></g></g></g></g></g></g></g><g data-name="Group 1673"><g data-name="Group 1672"><g data-name="Group 1671"><g data-name="Group 1670"><g data-name="Group 1669"><g data-name="Group 1668"><g data-name="Group 1667"><g data-name="Group 1666"><g data-name="Group 1665"><g data-name="Group 1664"><path data-name="Path 1018" d="M18.093 38.947a1.4 1.4 0 00.274-1.734 1.511 1.511 0 00-1.945-.726l-4.883 2.322a1.372 1.372 0 00-.556 1.917 1.516 1.516 0 001.946.726l4.882-2.322a1.334 1.334 0 00.282-.183z"/></g></g></g></g></g></g></g></g></g></g><g data-name="Group 1680"><g data-name="Group 1679"><g data-name="Group 1678"><g data-name="Group 1677"><g data-name="Group 1676"><g data-name="Group 1675"><g data-name="Group 1674"><path data-name="Path 1019" d="M16.2 44.756a1.4 1.4 0 00.272-1.732 1.514 1.514 0 00-1.946-.729l-4.883 2.322a1.375 1.375 0 00-.554 1.919 1.515 1.515 0 001.946.726l4.883-2.322a1.257 1.257 0 00.282-.184z"/></g></g></g></g></g></g></g><g data-name="Group 1690"><g data-name="Group 1689"><g data-name="Group 1688"><g data-name="Group 1687"><g data-name="Group 1686"><g data-name="Group 1685"><g data-name="Group 1684"><g data-name="Group 1683"><g data-name="Group 1682"><g data-name="Group 1681"><path data-name="Path 1020" d="M13.789 50.692a1.407 1.407 0 00.272-1.734 1.511 1.511 0 00-1.946-.726l-4.883 2.322a1.372 1.372 0 00-.554 1.917 1.515 1.515 0 001.946.726l4.883-2.322a1.4 1.4 0 00.282-.183z"/></g></g></g></g></g></g></g></g></g></g><g data-name="Group 1700"><g data-name="Group 1699"><g data-name="Group 1698"><g data-name="Group 1697"><g data-name="Group 1696"><g data-name="Group 1695"><g data-name="Group 1694"><g data-name="Group 1693"><g data-name="Group 1692"><g data-name="Group 1691"><path data-name="Path 1021" d="M10.733 56.61a1.406 1.406 0 00.272-1.734 1.515 1.515 0 00-1.946-.726l-4.883 2.325a1.369 1.369 0 00-.554 1.917 1.513 1.513 0 001.944.726l4.885-2.325a1.219 1.219 0 00.282-.183z"/></g></g></g></g></g></g></g></g></g></g></g><circle data-name="Ellipse 334" cx="4.7" cy="4.7" r="4.7" transform="translate(30.815 25.941)" fill="#8bd3ff"/><path data-name="Path 1022" d="M44.691 10.948c-1.55 1.737-4.04 11.142-.43 17.5 2.344 4.122 5.981 6.469 13.97 6.661l4.212.119" fill="none" stroke="#8bd3ff" stroke-miterlimit="10"/><path data-name="Path 1023" d="M12.616 21.697c5.541-.906 11.373-7.764 14.985-1.409 2.342 4.12-10.851 39.467-15.515 41.305a7.828 7.828 0 01-5.589.935" fill="none" stroke="#8bd3ff" stroke-miterlimit="10"/><g data-name="Group 1711"><g data-name="Group 1710"><g data-name="Group 1709"><g data-name="Group 1708"><g data-name="Group 1707"><g data-name="Group 1706"><g data-name="Group 1705"><g data-name="Group 1704"><g data-name="Group 1703"><g data-name="Group 1702"><path data-name="Path 1024" d="M5.559 86.264l64.4-55.169a20.424 20.424 0 00-3.136-5.351L1.065 82.074a12.553 12.553 0 004.494 4.19z"/></g></g></g></g></g></g></g></g></g></g></g><path data-name="Path 1027" d="M378.889 203.727c-10.258 2.381-8.653 1.846-17.334 7.8s-40.477 33.787-66.671 64.013" fill="none" stroke="#000" stroke-miterlimit="10" stroke-width="2"/><path data-name="Path 37481" d="M357.389 157.241l10.455 3.132s.736-2.357-3.976-4.271-6.479 1.139-6.479 1.139z"/><g data-name="Group 35725" transform="translate(-1061.443 -385.763)"><circle data-name="Ellipse 358" cx="2.056" cy="2.056" r="2.056" transform="translate(1421.107 547.096)"/><path data-name="Line 102" fill="none" stroke="#000" stroke-miterlimit="10" d="M1420.463 551.807l3.796 3.046"/></g><g data-name="Group 35724" fill="none" stroke="#000" stroke-miterlimit="10"><path data-name="Path 37482" d="M384.087 158.726s7.919-1.649 7.149 3.63-3.52 8.358-6.049 7.589-2.419-1.65-2.419-1.65"/><path data-name="Path 37483" d="M383.537 163.566a2.836 2.836 0 011.544-.18c.968.124 1.9.662 1.425 1.94l-.77 2.09"/><path data-name="Path 37484" d="M388.706 161.366c-1.539-.22-2.961-.03-3.625 2.019"/></g><g data-name="Group 35726"><path data-name="Line 103" fill="none" stroke="#000" stroke-miterlimit="10" d="M359.456 185.144l2.929-.468"/><path data-name="Path 37485" d="M357.866 179.08c1.587-1.786 3.379.722 5.029.967 1.175.174 4.91.712 6.259-1.331 0 0-1.337 4.904-5.61 4.944s-5.01-1.444-5.112-1.925z"/></g><path data-name="Path 992" d="M389.213 321.025l-91.762 19.082c-31.3 5.905-43.9 19.652-43.9 43.9" fill="none" stroke="#000" stroke-miterlimit="10" stroke-width="6"/><path data-name="Path 1003" d="M253.552 394.774l74.21 164.2 26.508-13.423-40.718-137.571" fill="none" stroke="#000" stroke-miterlimit="10" stroke-width="6"/><path data-name="Path 1004" d="M288.126 296.511c48.479-44.6 101.935-94.2 111.666-98.177 12.76-5.225 22.108-1.334 29.228 10.475 6.724 11.155 9.909 24.049 12.52 36.809a516.989 516.989 0 018.1 53.886c2.286 23.6 2.837 48.068-5.361 70.317s-26.835 41.981-50.3 45.394c-9.629 1.4-85.531-4.934-114.166-14.718" fill="none" stroke="#000" stroke-miterlimit="10" stroke-width="6"/><path data-name="Path 37726" d="M1573.684 314.182c1.281-1.555 212.5 254.783 212.5 254.783L1204.04 596.2l-38.011-77.248s406.371-203.216 407.655-204.77z" transform="translate(-1127.326 -314.174)" fill="url(#a)"/></g></svg>