<svg xmlns="http://www.w3.org/2000/svg" width="104.9" height="123.977"><g data-name="4"><path data-name="Path 499" d="M60.31 66.563H45.036c-9.084-10.9-41.113 0-41.113 0v51.914s40.8-14.037 40.846 1.472h15.272c0-15.511 40.94-1.919 40.94-1.919V66.563s-31.592-10.9-40.671 0z" fill="#4fa2ff"/><path data-name="Path 500" d="M0 123.977V63.751l2.66-.905c3.4-1.156 32.41-10.6 44.028-.211h11.968c11.594-10.4 40.238-.935 43.6.216l2.643.912v59.7l-5.161-1.712c-11.425-3.787-29.79-7.486-34.839-3.838a2.172 2.172 0 00-.935 2.033v3.923H40.856l-.007-3.907a2.107 2.107 0 00-.922-2c-5.037-3.584-23.338.313-34.724 4.227zm47.993-7.954h8.817a9.806 9.806 0 013.509-4.473c8.129-5.865 27-1.607 36.742 1.169V69.443a104.008 104.008 0 00-13.69-3.1c-10.183-1.52-17.3-.552-20.039 2.734l-1.17 1.4H43.214l-1.17-1.4c-5.091-6.113-23.694-2.763-34.172.358v43.677c9.729-2.887 28.5-7.322 36.623-1.544a9.727 9.727 0 013.5 4.459z"/><path data-name="Path 501" d="M52.51 61.073h-.12a21.054 21.054 0 00-29.741-1.436q-.752.683-1.436 1.436v41.5a22.012 22.012 0 0131.014 2.682c.055.065.109.132.164.2h.12a22.014 22.014 0 0130.984-3.042l.194.161v-41.5a21.054 21.054 0 00-29.741-1.436q-.754.681-1.438 1.435z" fill="#fff"/><path data-name="Rectangle 1195" d="M48.526 61.063h7.849v44.379h-7.849z"/><path data-name="Path 502" d="M56.943 61.739h-9.017a21.055 21.055 0 00-29.741-1.436q-.752.684-1.436 1.436v41.5a22.015 22.015 0 0131.017 2.686l.161.194h9.018a22.014 22.014 0 0130.984-3.041l.194.161v-41.5a21.056 21.056 0 00-29.742-1.436q-.755.684-1.438 1.436z" fill="#fff"/><path data-name="Path 503" d="M92.045 111.241l-6.328-4.913a18.152 18.152 0 00-25.586 2.082c-.081.1-.162.193-.242.29l-1.169 1.331H46.153l-1.17-1.331c-8.089-9.194-18.8-7.814-25.826-2.372l-6.329 4.913V60.3l.936-1.1c4.692-5.375 14.074-8.408 21.208-8.289a24.16 24.16 0 0117.152 6.9h.65a24.16 24.16 0 0117.153-6.9h-.362c7.134-.118 16.878 2.914 21.57 8.289l.935 1.1zm-42.418-9.051h5.615a25.536 25.536 0 0128.955-5.835V63.279c-3.171-2.977-10.3-4.6-14.648-4.513h.393a16.089 16.089 0 00-12.437 5.486l-1.169 1.4h-7.8l-1.17-1.4a16.085 16.085 0 00-12.436-5.486h.031c-4.348-.083-11.115 1.536-14.286 4.513v33.079a25.534 25.534 0 0128.952 5.835z"/><path data-name="Rectangle 1196" d="M48.448 61.739h7.849v44.379h-7.849z"/><path data-name="Path 504" d="M32.089 23.45v11.718a4.784 4.784 0 002.255 4.087c12.633 7.666 23.572 7.666 36.214 0a4.789 4.789 0 002.256-4.087V23.45z" fill="#fff"/><path data-name="Path 505" d="M52.451 48.946a38.566 38.566 0 01-20.143-6.336 8.715 8.715 0 01-4.145-7.441V19.525h48.579v15.634a8.725 8.725 0 01-4.148 7.444 38.559 38.559 0 01-20.143 6.343zM36.012 27.374v7.785a.867.867 0 00.36.725c11.421 6.927 20.735 6.927 32.15 0a.876.876 0 00.368-.73v-7.781z"/><path data-name="Path 506" d="M22.509 17.461L52.454 4.286l29.944 13.175-29.944 13.173z" fill="#fff"/><path data-name="Path 507" d="M52.449 34.925L12.763 17.463 52.449 0l39.688 17.463zm-20.2-17.462l20.2 8.89 20.2-8.89-20.2-8.89z"/></g></svg>