<svg xmlns="http://www.w3.org/2000/svg" width="120.999" height="121.064"><g data-name="1" transform="translate(363.999 -403.611)"><circle data-name="Ellipse 263" cx="10.59" cy="10.59" r="10.59" transform="translate(-268.163 407.594)" fill="#4fa2ff"/><path data-name="Path 226" d="M-257.574 432.757a14.59 14.59 0 01-14.573-14.573 14.59 14.59 0 0114.573-14.573 14.589 14.589 0 0114.573 14.573 14.589 14.589 0 01-14.573 14.573zm0-21.18a6.613 6.613 0 00-6.606 6.606 6.614 6.614 0 006.606 6.606 6.613 6.613 0 006.606-6.606 6.613 6.613 0 00-6.606-6.605z"/><path data-name="Path 227" d="M-342.389 508.674l-5.337-5.335-13.432 13.432h10.67z"/><path data-name="Path 228" d="M-321.937 498.77l-21.15 9.159-3.918-3.919 9.159-21.15" fill="#4fa2ff"/><path data-name="Path 229" d="M-343.985 512.66l-7.748-7.748 10.235-23.635 7.311 3.167-8.083 18.665.089.089 18.666-8.083 3.166 7.31z"/><path data-name="Rectangle 1114" fill="#fff" d="M-275.025 415.701l20.252 20.252-63.627 63.626-20.252-20.251z"/><path data-name="Path 230" d="M-318.401 505.213l-25.884-25.885 69.26-69.26 25.884 25.885zm-14.618-25.885l14.618 14.618 57.993-57.993-14.618-14.618z"/><g data-name="Group 372"><path data-name="Rectangle 1115" fill="#4fa2ff" d="M-363.999 516.708h82.811v7.967h-82.811z"/></g></g></svg>