<svg xmlns="http://www.w3.org/2000/svg" width="121.856" height="122.064"><g data-name="2" transform="translate(-266.857 -19.899)"><path data-name="Path 39604" d="M341.205 53.938c0 11.81-9.573 21.839-21.383 21.839s-21.384-10.029-21.384-21.839c0-5.661-1.44-19.451 2.151-23.276 3.9-4.155 13.084-6.751 19.233-6.751 5.9 0 14.891 2.394 18.76 6.263s2.623 17.86 2.623 23.764z" fill="#4fa2ff"/><path data-name="Path 39605" d="M319.822 79.789a25.655 25.655 0 01-25.4-25.85c0-1.026-.052-2.381-.113-3.95-.376-9.722-.384-18.093 3.351-22.072 4.71-5.018 14.965-8.017 22.158-8.017 6.96 0 16.941 2.782 21.6 7.439 4.093 4.091 4.177 12.848 3.876 23.023-.041 1.4-.077 2.615-.077 3.577a25.655 25.655 0 01-25.395 25.85zm0-51.865c-5.268 0-13.361 2.346-16.308 5.485-1.74 1.9-1.321 12.717-1.184 16.271.065 1.651.12 3.078.12 4.259 0 9.662 7.955 17.826 17.372 17.826s17.371-8.163 17.371-17.826c0-1.08.038-2.347.081-3.814.111-3.743.447-15.137-1.529-17.113-2.912-2.912-10.809-5.088-15.923-5.088z"/><circle data-name="Ellipse 853" cx="7.362" cy="7.362" r="7.362" transform="translate(287.331 44.074)"/><circle data-name="Ellipse 854" cx="7.362" cy="7.362" r="7.362" transform="translate(337.587 44.074)"/><path data-name="Path 39606" d="M271.896 126.414a49.954 49.954 0 0196.1 0z" fill="#fff"/><path data-name="Path 39607" d="M319.945 94.131a45.891 45.891 0 0142.418 28.271h-84.834a45.891 45.891 0 0142.416-28.267m0-8.025a53.97 53.97 0 00-53.088 44.317h106.178a53.971 53.971 0 00-53.09-44.325z"/><circle data-name="Ellipse 855" cx="33.401" cy="33.401" r="33.401" transform="translate(317.899 71.149)" fill="#fff"/><path data-name="Path 39608" d="M351.3 141.963a37.413 37.413 0 1137.413-37.413 37.456 37.456 0 01-37.413 37.413zm0-66.8a29.389 29.389 0 1029.388 29.389 29.422 29.422 0 00-29.388-29.39z"/><path data-name="Path 39609" d="M373.659 104.971a22.358 22.358 0 11-22.357-22.357 22.357 22.357 0 0122.357 22.357zm-7.364 0" fill="#4fa2ff"/><path data-name="Path 39610" d="M341.57 120.145l-5.621-5.727 11.34-11.131V88.873h8.025v17.783z"/></g></svg>