<svg xmlns="http://www.w3.org/2000/svg" width="119.703" height="121.065"><g data-name="3"><g data-name="Group 1918"><g data-name="Group 1915"><path data-name="Path 1147" d="M30.184 3.903a26.214 26.214 0 11-26.29 25.99 26.279 26.279 0 0126.29-25.99zm-3.5 37.905l15.962-15.9-5.281-5.373-10.789 11.162-4.844-5.221-5.213 5.127z" fill="#4fa2ff"/><path data-name="Path 1148" d="M26.681 41.808l-10.162-10.2 5.214-5.13 4.844 5.216 10.785-11.16 5.281 5.373z"/></g><g data-name="Group 1917"><g data-name="Group 1916"><path data-name="Path 1149" d="M30.118 60.235a30.117 30.117 0 1130.117-30.118 30.152 30.152 0 01-30.117 30.118zm0-52.585a22.467 22.467 0 1022.466 22.467A22.492 22.492 0 0030.118 7.65z"/></g></g></g><g data-name="Group 1923"><g data-name="Group 1920"><g data-name="Group 1919"><path data-name="Path 1150" d="M107.188 54.806h-7.65V41.394a3.63 3.63 0 00-3.626-3.626H78.04v-7.65h17.872a11.289 11.289 0 0111.277 11.277z"/></g></g><g data-name="Group 1922"><g data-name="Group 1921"><path data-name="Path 1151" d="M86.962 48.279l-11.653-11.66-2.653-2.7 14.307-14.307 5.41 5.41-8.924 8.925 8.924 8.924z"/></g></g></g><g data-name="Group 1928"><g data-name="Group 1925"><g data-name="Group 1924"><path data-name="Path 1152" d="M45.867 93.976H27.991A11.288 11.288 0 0116.714 82.7V69.287h7.653V82.7a3.63 3.63 0 003.626 3.625h17.874z"/></g></g><g data-name="Group 1927"><g data-name="Group 1926"><path data-name="Path 1153" d="M36.94 104.485l-5.41-5.41 8.925-8.924-8.925-8.925 5.41-5.41 14.309 14.359z"/></g></g></g><path data-name="Path 1154" d="M110.671 96.771a21.659 21.659 0 01-1.65 4l4.268 8.18a29.964 29.964 0 01-4.907 4.906l-8.178-4.269a21.371 21.371 0 01-4 1.653l-2.768 8.811a29.313 29.313 0 01-3.465.221 29.9 29.9 0 01-3.464-.219l-2.765-8.813a21.569 21.569 0 01-4-1.651l-8.18 4.268a29.96 29.96 0 01-4.906-4.906l4.269-8.18a21.271 21.271 0 01-1.651-4l-8.813-2.768a29.332 29.332 0 01-.221-3.465 29.866 29.866 0 01.219-3.464l8.813-2.765a21.529 21.529 0 011.651-4l-4.268-8.18a29.956 29.956 0 014.906-4.906l8.18 4.269a21.273 21.273 0 014-1.653l2.759-8.811a29.35 29.35 0 013.465-.221 30.175 30.175 0 013.464.217l2.767 8.814a21.55 21.55 0 014 1.65l8.18-4.268a29.964 29.964 0 014.906 4.907l-4.269 8.18a21.271 21.271 0 011.653 4l8.811 2.768a29.315 29.315 0 01.221 3.465 30.191 30.191 0 01-.217 3.464zm-20.7-17.042a10.813 10.813 0 1010.813 10.813 10.814 10.814 0 00-10.813-10.813zm0 0"/><path data-name="Path 1155" d="M116.299 110.339a10.43 10.43 0 01-.977 2.365l1.5 3.152a13.71 13.71 0 01-2.33 2.33l-3.152-1.5a10.467 10.467 0 01-2.365.977l-1.171 3.293a12.425 12.425 0 01-3.29 0l-1.17-3.293a10.5 10.5 0 01-2.365-.977l-3.153 1.5a13.731 13.731 0 01-2.33-2.33l1.5-3.152a10.406 10.406 0 01-.977-2.364l-3.293-1.171a12.345 12.345 0 010-3.291l3.293-1.171a10.408 10.408 0 01.977-2.364l-1.5-3.151a13.642 13.642 0 012.33-2.329l3.153 1.5a10.489 10.489 0 012.365-.977l1.17-3.292a13.282 13.282 0 011.646-.112 13.571 13.571 0 011.645.11l1.171 3.293a10.429 10.429 0 012.365.977l3.152-1.5a13.733 13.733 0 012.33 2.329l-1.5 3.153a10.4 10.4 0 01.977 2.365l3.293 1.171a12.426 12.426 0 010 3.29zm-10.144-7.333a4.515 4.515 0 104.514 4.515 4.516 4.516 0 00-4.514-4.515zm0 0" fill="#4fa2ff"/></g></svg>