<svg data-name="Group 36485" xmlns="http://www.w3.org/2000/svg" width="45.001" height="53.554"><g data-name="Group 24"><path data-name="Path 202" d="M22.501 38.172a19.449 19.449 0 0117.977 11.98H4.523A19.45 19.45 0 0122.5 38.172m0-3.4A22.874 22.874 0 000 53.555h45a22.873 22.873 0 00-22.5-18.783z"/></g><g data-name="Group 27"><g data-name="Group 25"><path data-name="Path 203" d="M2.136 51.853a21.143 21.143 0 0120.365-15.381 21.143 21.143 0 0120.365 15.381z" fill="#fff"/></g><g data-name="Group 26"><path data-name="Path 204" d="M22.501 38.172a19.449 19.449 0 0117.977 11.98H4.523A19.45 19.45 0 0122.5 38.172m0-3.4A22.874 22.874 0 000 53.555h45a22.873 22.873 0 00-22.5-18.783z"/></g></g><g data-name="Group 31"><g data-name="Group 28"><path data-name="Path 205" d="M31.511 21.143a9.229 9.229 0 01-9.063 9.256 9.229 9.229 0 01-9.063-9.256c0-2.4-.611-8.244.911-9.865 1.653-1.761 5.545-2.861 8.151-2.861 2.5 0 6.311 1.014 7.951 2.654s1.113 7.564 1.113 10.072z" fill="#4fa2ff"/><path data-name="Path 206" d="M22.449 32.094a10.873 10.873 0 01-10.764-10.952c0-.435-.022-1.009-.048-1.674-.16-4.12-.163-7.669 1.42-9.355 2-2.127 6.343-3.4 9.391-3.4 2.95 0 7.18 1.179 9.154 3.152 1.734 1.734 1.77 5.445 1.643 9.758a54.567 54.567 0 00-.033 1.516 10.873 10.873 0 01-10.763 10.955zm0-21.982c-2.232 0-5.662.994-6.912 2.325-.737.806-.56 5.39-.5 6.9.027.7.051 1.3.051 1.805a7.56 7.56 0 007.362 7.555 7.561 7.561 0 007.362-7.555c0-.458.016-.995.034-1.617.047-1.587.189-6.415-.648-7.253-1.235-1.238-4.586-2.16-6.749-2.16z"/></g><g data-name="Group 29"><circle data-name="Ellipse 260" cx="3.12" cy="3.12" r="3.12" transform="translate(8.678 16.957)"/></g><g data-name="Group 30"><circle data-name="Ellipse 261" cx="3.12" cy="3.12" r="3.12" transform="translate(29.978 16.957)"/></g></g><g data-name="Group 34"><g data-name="Group 32"><path data-name="Path 207" d="M13.872 9.979v4.965a2.027 2.027 0 00.956 1.731c5.357 3.249 9.988 3.249 15.344 0a2.026 2.026 0 00.956-1.731V9.979zm0 0" fill="#fff"/><path data-name="Path 208" d="M22.501 20.82a16.374 16.374 0 01-8.555-2.691 3.732 3.732 0 01-1.774-3.185V8.278h20.657v6.666a3.735 3.735 0 01-1.776 3.186 16.369 16.369 0 01-8.552 2.69zm-6.928-9.141v3.265a.335.335 0 00.134.276c4.826 2.927 8.76 2.927 13.584 0a.331.331 0 00.137-.277v-3.264z"/></g><g data-name="Group 33"><path data-name="Path 209" d="M9.816 7.441L22.5 1.857 35.188 7.44 22.5 13.022zm0 0" fill="#fff"/><path data-name="Path 210" d="M22.5 14.881L5.591 7.441 22.5 0l16.91 7.441zm-8.465-7.44l8.465 3.724 8.465-3.724L22.5 3.716z"/></g></g></svg>