<svg xmlns="http://www.w3.org/2000/svg" width="44.882" height="53.045"><g data-name="Group 36652"><path data-name="Path 499" d="M25.805 28.479H19.27c-3.886-4.663-17.59 0-17.59 0v22.214s17.455-6.006 17.476.63h6.534c0-6.636 17.516-.821 17.516-.821V28.481s-13.516-4.665-17.401-.002z" fill="#4fa2ff"/><path data-name="Path 500" d="M0 53.045V27.277l1.138-.387c1.453-.495 13.867-4.535 18.838-.09h5.121c4.961-4.45 17.216-.4 18.655.092l1.131.39v25.545l-2.208-.733c-4.888-1.62-12.746-3.2-14.906-1.642a.929.929 0 00-.4.87v1.679h-9.887l-.005-1.674a.9.9 0 00-.394-.856c-2.155-1.533-9.985.134-14.857 1.809zm20.534-3.4h3.773a4.2 4.2 0 011.5-1.914c3.478-2.509 11.552-.688 15.72.5V29.715a44.507 44.507 0 00-5.858-1.327c-4.357-.651-7.4-.236-8.574 1.17l-.5.6h-8.108l-.5-.6c-2.178-2.615-10.138-1.182-14.621.153v18.688c4.163-1.235 12.192-3.133 15.67-.661a4.162 4.162 0 011.5 1.908z"/><path data-name="Path 501" d="M22.467 26.13h-.051a9.008 9.008 0 00-12.725-.614q-.322.292-.614.614v17.756a9.418 9.418 0 0113.269 1.148l.07.085h.051a9.419 9.419 0 0113.257-1.3l.083.069V26.132a9.008 9.008 0 00-12.724-.616q-.324.292-.616.614z" fill="#fff"/><path data-name="Rectangle 1195" d="M20.762 26.126h3.358v18.988h-3.358z"/><path data-name="Path 502" d="M24.363 26.416h-3.859a9.009 9.009 0 00-12.725-.614q-.322.293-.615.614v17.756a9.419 9.419 0 0113.271 1.149l.069.083h3.859a9.419 9.419 0 0113.257-1.3l.083.069V26.417a9.009 9.009 0 00-12.725-.614q-.322.287-.615.613z" fill="#fff"/><path data-name="Path 503" d="M39.383 47.596l-2.707-2.1a7.766 7.766 0 00-10.947.891l-.1.124-.5.569h-5.384l-.5-.569c-3.461-3.934-8.044-3.343-11.05-1.015l-2.708 2.1v-21.8l.4-.469c2.007-2.3 6.022-3.6 9.074-3.547a10.337 10.337 0 017.339 2.952h.278a10.337 10.337 0 017.339-2.952h-.155c3.052-.051 7.221 1.247 9.229 3.547l.4.469zm-18.149-3.873h2.4a10.926 10.926 0 0112.389-2.5V27.071c-1.357-1.274-4.407-1.966-6.267-1.931h.168a6.884 6.884 0 00-5.321 2.347l-.5.6h-3.337l-.5-.6a6.882 6.882 0 00-5.321-2.347h.013c-1.861-.035-4.756.657-6.112 1.931v14.153a10.925 10.925 0 0112.387 2.5z"/><path data-name="Rectangle 1196" d="M20.729 26.416h3.358v18.988h-3.358z"/><path data-name="Path 504" d="M13.73 10.033v5.014a2.047 2.047 0 00.965 1.749c5.405 3.28 10.086 3.28 15.494 0a2.049 2.049 0 00.965-1.749v-5.014z" fill="#fff"/><path data-name="Path 505" d="M22.442 20.942a16.5 16.5 0 01-8.618-2.711 3.729 3.729 0 01-1.774-3.184V8.354h20.779v6.689a3.733 3.733 0 01-1.775 3.185 16.5 16.5 0 01-8.612 2.714zm-7.034-9.23v3.331a.371.371 0 00.154.31c4.887 2.964 8.871 2.964 13.756 0a.375.375 0 00.157-.312v-3.329z"/><path data-name="Path 506" d="M9.631 7.471l12.812-5.637 12.812 5.637-12.812 5.636z" fill="#fff"/><path data-name="Path 507" d="M22.441 14.943L5.461 7.475 22.441.003l16.981 7.472zM13.8 7.475l8.641 3.8 8.642-3.8-8.642-3.8z"/></g></svg>