<svg data-name="Group 720" xmlns="http://www.w3.org/2000/svg" width="53.541" height="53.5"><g data-name="Group 707"><path data-name="Path 508" d="M19.21.009v18.289a16.2 16.2 0 016.469 10.242H53.54V.009z" fill="#fff"/></g><g data-name="Group 708"><path data-name="Path 509" d="M53.524 28.514h-22.27v-3.519h18.751V3.519h-30.8V0h34.314z"/></g><g data-name="Group 709"><path data-name="Path 510" d="M5.7 13.949a1.5 1.5 0 00.83-.25 4.444 4.444 0 004.314 3.726 4.444 4.444 0 004.314-3.726 1.5 1.5 0 00.831.25 1.507 1.507 0 001.507-1.508 1.507 1.507 0 00-1.507-1.507 1.5 1.5 0 00-.728.188c.007-1.212-.077-2.534-.576-3.033a6.349 6.349 0 00-3.841-1.282 6.252 6.252 0 00-3.937 1.382c-.456.485-.516 1.754-.5 2.924a1.5 1.5 0 00-.712-.179 1.508 1.508 0 00-1.508 1.507A1.508 1.508 0 005.7 13.949z"/></g><g data-name="Group 710"><path data-name="Path 511" d="M10.869 19.541A11.049 11.049 0 000 28.614h21.737a11.049 11.049 0 00-10.868-9.073z"/></g><g data-name="Group 711"><path data-name="Path 512" d="M37.502 38.836a1.5 1.5 0 00.831-.25 4.443 4.443 0 004.314 3.726 4.443 4.443 0 004.314-3.726 1.5 1.5 0 00.831.25 1.507 1.507 0 001.507-1.507 1.507 1.507 0 00-1.507-1.507 1.5 1.5 0 00-.728.188c.006-1.212-.077-2.534-.576-3.033a6.345 6.345 0 00-3.84-1.282 6.25 6.25 0 00-3.938 1.382c-.456.485-.516 1.754-.5 2.924a1.5 1.5 0 00-.712-.178 1.507 1.507 0 00-1.507 1.507 1.507 1.507 0 001.511 1.506z"/></g><g data-name="Group 712"><path data-name="Path 513" d="M21.665 38.836a1.5 1.5 0 00.831-.25 4.443 4.443 0 004.314 3.726 4.443 4.443 0 004.314-3.726 1.5 1.5 0 00.831.25 1.507 1.507 0 001.507-1.507 1.507 1.507 0 00-1.507-1.507 1.5 1.5 0 00-.728.188c.007-1.212-.076-2.534-.576-3.033a6.346 6.346 0 00-3.841-1.282 6.252 6.252 0 00-3.938 1.382c-.455.485-.515 1.754-.5 2.924a1.5 1.5 0 00-.712-.178 1.507 1.507 0 00-1.507 1.507 1.507 1.507 0 001.512 1.506z"/></g><g data-name="Group 713"><path data-name="Path 514" d="M26.836 44.426a11.049 11.049 0 00-10.869 9.073h21.737a11.049 11.049 0 00-10.868-9.073z"/></g><g data-name="Group 716"><g data-name="Group 714"><path data-name="Path 515" d="M6.356 5.755v3.016a1.838 1.838 0 00.876 1.568 6.915 6.915 0 003.612 1.12 6.913 6.913 0 003.611-1.12 1.84 1.84 0 00.876-1.568V5.755z" fill="#4fa2ff"/></g><g data-name="Group 715"><path data-name="Path 516" d="M10.843 2.397L3.212 5.755l7.631 3.358 7.632-3.358z" fill="#4fa2ff"/></g></g><g data-name="Group 717"><path data-name="Path 517" d="M5.7 38.836a1.5 1.5 0 00.83-.25 4.444 4.444 0 004.314 3.726 4.443 4.443 0 004.314-3.726 1.5 1.5 0 00.831.25 1.507 1.507 0 001.507-1.507 1.507 1.507 0 00-1.507-1.507 1.5 1.5 0 00-.728.188c.007-1.212-.077-2.534-.576-3.033a6.347 6.347 0 00-3.841-1.282 6.25 6.25 0 00-3.937 1.382c-.456.485-.516 1.754-.5 2.924a1.5 1.5 0 00-.712-.178 1.508 1.508 0 00-1.508 1.507A1.507 1.507 0 005.7 38.836z"/></g><g data-name="Group 718"><path data-name="Path 518" d="M10.869 44.426A11.049 11.049 0 000 53.499h13.591a13.433 13.433 0 013.66-7.042 10.992 10.992 0 00-6.382-2.031z"/></g><g data-name="Group 719"><path data-name="Path 519" d="M42.673 44.426a10.987 10.987 0 00-6.3 1.977 13.438 13.438 0 013.711 7.1h13.461a11.049 11.049 0 00-10.872-9.077z"/></g><g data-name="Group 756"><text data-name="Onlineschool" transform="translate(21.29 7.305)" font-size="6" font-family="Nexa-Black, Nexa" letter-spacing=".01em" font-weight="800"><tspan x=".806" y="6">ONLINE</tspan><tspan font-family="Nexa-Regular" font-weight="400"><tspan x="3.686" y="12">school</tspan></tspan></text></g></svg>