<svg xmlns="http://www.w3.org/2000/svg" width="96.609" height="43.983"><defs><clipPath id="a"><circle data-name="Ellipse 307" cx="20.645" cy="20.645" fill="none" r="20.645"/></clipPath></defs><g data-name="Group 1025"><g data-name="Group 1024"><g data-name="Group 1023"><g data-name="Group 1022" clip-path="url(#a)" transform="translate(55.319 2.692)"><path data-name="Rectangle 1272" fill="#fff" d="M-5.271 0h51.833v20.645H-5.271z"/><path data-name="Rectangle 1273" fill="#e12319" d="M-5.271 20.645h51.833V41.29H-5.271z"/></g></g><path data-name="Path 39626" d="M11.402 6.87a7.525 7.525 0 015.845 2.512 9.284 9.284 0 012.273 6.477 9.284 9.284 0 01-2.276 6.478 7.525 7.525 0 01-5.842 2.512 7.264 7.264 0 01-5.042-1.88v8.75H.002V7.212h5.52l.359 2a7.232 7.232 0 015.521-2.342zM7.246 18.577a3.276 3.276 0 002.512 1.03 3.263 3.263 0 002.512-1.034 3.829 3.829 0 00.957-2.709 3.829 3.829 0 00-.957-2.709 3.263 3.263 0 00-2.512-1.034 3.263 3.263 0 00-2.512 1.034 3.829 3.829 0 00-.957 2.709 3.86 3.86 0 00.957 2.713zm30.933 3.879a9.86 9.86 0 01-7.041 2.444 9.923 9.923 0 01-7.058-2.444 8.594 8.594 0 01-2.615-6.6 8.567 8.567 0 012.615-6.588 9.944 9.944 0 017.058-2.435 9.913 9.913 0 017.05 2.435 8.581 8.581 0 012.606 6.588 8.594 8.594 0 01-2.615 6.6zm-9.485-3.862a3.137 3.137 0 002.444 1.042 3.1 3.1 0 002.427-1.029 3.966 3.966 0 00.923-2.743 3.966 3.966 0 00-.923-2.743 3.1 3.1 0 00-2.427-1.034 3.111 3.111 0 00-2.436 1.038 3.95 3.95 0 00-.931 2.734 3.973 3.973 0 00.923 2.735zm14.971 5.913V0h6.357v24.507z"/></g></g></svg>