<svg id="Layer_12" data-name="Layer 12" xmlns="http://www.w3.org/2000/svg" viewBox="0 0 192 192"><defs><style>.cls-1{fill:#fff}.cls-2{fill:#4fa2ff}</style></defs><path class="cls-1" d="M64.83 110.27h-.15c-9.84-11.81-29.88-11.63-39.72 0v52.87c11.69-9.06 28.09-9.55 39.72 3.66h.15c11.63-13.21 28-12.72 39.72-3.66v-52.87c-9.84-11.63-29.88-11.81-39.72 0z"/><path d="M109.55 173.34l-8.06-6.25c-9-6.94-22.6-8.69-32.91 3l-1.49 1.69h-4.67l-1.49-1.69c-10.31-11.71-24-10-32.91-3L20 173.34v-64.9l1.19-1.4A30.86 30.86 0 0144.9 96.48h.1a31.18 31.18 0 0119.73 6.86 31.13 31.13 0 0119.72-6.86h.13A30.86 30.86 0 01108.36 107l1.19 1.4zm-66.36-21.78a32.79 32.79 0 0121.57 8.28 32.34 32.34 0 0134.79-5.47v-42.14a21.28 21.28 0 00-14.94-5.75h-.09a20.52 20.52 0 00-15.85 7l-1.5 1.8h-4.83l-1.5-1.8a20.52 20.52 0 00-15.85-7h-.09a21.23 21.23 0 00-14.9 5.75v42.14a33.09 33.09 0 0113.19-2.81z"/><path d="M59.68 110.27h10v56.53h-10z"/><path transform="rotate(-26.25 144.306 74.232)" d="M139.32 34.17h10v80.13h-10z"/><path transform="rotate(-45 142.427 129.805)" d="M114.66 124.8h55.51v10h-55.51z"/><path class="cls-1" transform="rotate(45 105.465 60.175)" d="M97.48 34.09h15.96v52.16H97.48z"/><path d="M92.67 91.32L74.31 73l44-44 18.36 18.36zM88.45 73l4.22 4.21 29.8-29.81-4.21-4.21z"/><path class="cls-2" d="M102.53 63.1a38.36 38.36 0 00-54.25 0l54.25 54.25a38.36 38.36 0 000-54.25z"/><path d="M102.53 124.42L41.21 63.1l3.54-3.53a43.35 43.35 0 0161.31 0 43.39 43.39 0 010 61.31zM55.62 63.36L102.26 110A33.39 33.39 0 0099 66.64a33.37 33.37 0 00-43.37-3.28z"/><circle class="cls-2" cx="126.61" cy="38.3" r="14.09"/><path d="M126.61 57.4a19.1 19.1 0 1119.09-19.1 19.12 19.12 0 01-19.09 19.1zm0-28.19a9.1 9.1 0 109.09 9.09 9.11 9.11 0 00-9.09-9.09z"/><circle class="cls-2" cx="162.04" cy="110.17" r="9.12"/><path d="M162 124.29a14.12 14.12 0 1114.12-14.12A14.14 14.14 0 01162 124.29zm0-18.24a4.12 4.12 0 104.12 4.12 4.13 4.13 0 00-4.12-4.12z"/><path class="cls-2" d="M119.2 166.88h47.79v-15.95H119.2"/><path d="M171.99 171.88H119.2v-10h42.79v-5.95H119.2v-10h52.79v25.95z"/></svg>