<svg xmlns="http://www.w3.org/2000/svg" width="953.729" height="827.522"><defs><linearGradient id="a" x1="-.115" y1="1.456" x2=".704" y2=".656" gradientUnits="objectBoundingBox"><stop offset="0" stop-color="#fff"/><stop offset="1" stop-color="#fff" stop-opacity="0"/></linearGradient></defs><g data-name="Group 36721"><g data-name="Group 1305"><path data-name="Path 796" d="M345.478 814.93c1.9.663 57.831 1.182 59.927-.1.559-.339.189-7.452-2.609-10.837-3.5-4.236-3.726 1.064-4.028-7.053l-18.651-.5s-30.492 9.06-32.639 10.716-3.896 7.111-2 7.774z" fill="#effaff" stroke="#000" stroke-miterlimit="10"/><g data-name="Group 1304"><g data-name="Group 1303"><path data-name="Path 797" d="M346.291 810.839c9.139-.1 46.017.343 55.06.936.075 0 .073.053 0 .056-9.057.3-45.93-.445-55.062-.841-.194-.011-.189-.149.002-.151z"/><path data-name="Path 798" d="M351.01 805.239a7.346 7.346 0 015.435 2.3 7.11 7.11 0 011.978 4.906c0 .056-.1.056-.111 0a8.482 8.482 0 00-7.3-7.092.058.058 0 01-.002-.114z"/><path data-name="Path 799" d="M367.062 797.301c3.658 0 7.882 1.344 10.114 4.367.087.116-.08.237-.189.179a50.542 50.542 0 00-9.993-4.1.23.23 0 01.068-.446z"/><path data-name="Path 800" d="M364.224 798.365c3.658 0 7.882 1.344 10.116 4.364.085.118-.082.239-.191.181a50.7 50.7 0 00-9.993-4.1.229.229 0 01.068-.445z"/><path data-name="Path 801" d="M361.387 799.426c3.658 0 7.88 1.344 10.114 4.367.087.116-.082.239-.189.181a50.515 50.515 0 00-10-4.1.23.23 0 01.075-.448z"/><path data-name="Path 802" d="M358.549 800.491c3.658 0 7.88 1.344 10.114 4.367.087.116-.082.237-.189.181a50.505 50.505 0 00-10-4.1.23.23 0 01.075-.448z"/><path data-name="Path 803" d="M385.963 802.925c4.1.068 4.006 6.444-.1 6.378s-4.011-6.443.1-6.378z" fill="#8bd3ff"/></g><path data-name="Path 804" d="M363.46 792.852c1.942 2.575 4.927 4.217 7.507 6.052a.444.444 0 00.66-.285.1.1 0 00.116-.1 19.187 19.187 0 00-3.2-9.4c-1.122-1.61-3.433-3.141-5.3-1.63-1.773 1.429-.913 3.862.217 5.363zm-.128-3.032c.416-3.973 3.965-.868 4.744.351a20.564 20.564 0 011.3 2.483 57.086 57.086 0 011.99 5.447c-1.214-.979-2.5-1.847-3.745-2.781-1.482-1.116-4.519-3.307-4.291-5.5z"/><path data-name="Path 805" d="M384.761 796.354c-.254-2.391-2.971-2.942-4.9-2.6a19.179 19.179 0 00-8.907 4.379.1.1 0 00.007.155.449.449 0 00.266.672c3.121.525 6.4 1.475 9.587 1.03 1.86-.258 4.189-1.373 3.947-3.636zm-8.639 2.44c-1.54-.222-3.063-.52-4.613-.684 1.741-.849 3.436-1.77 5.259-2.445a20.821 20.821 0 012.679-.834c1.412-.312 6.117 0 3.6 3.109-1.386 1.712-5.085 1.117-6.93.854z"/></g></g><g data-name="Group 1315"><g data-name="Group 1314"><g data-name="Group 1313"><g data-name="Group 1312"><g data-name="Group 1311"><g data-name="Group 1310"><g data-name="Group 1309"><g data-name="Group 1308"><g data-name="Group 1307"><g data-name="Group 1306"><path data-name="Path 806" d="M343.996 818.171l61.9-.106a18.54 18.54 0 00.793-4.991l-63.2.109a11.373 11.373 0 00.507 4.988z"/></g></g></g></g></g></g></g></g></g></g><path data-name="Path 37727" d="M1862.422 132.97c1.281-1.555 0 418.348 0 418.348L1204.04 596.2l-73.672-75.273s730.773-386.403 732.054-387.957z" transform="translate(-909.263 -132.965)" fill="url(#a)"/><path data-name="Path 972" d="M251.995 387.09l36.992 78.772h-29.942l-39.4-78.772z" fill="#f9fbff"/><g data-name="Group 1323" transform="translate(428.512 748.872)"><circle data-name="Ellipse 318" cx="34.153" cy="34.153" r="34.153" fill="#fff"/><g data-name="Group 1318" fill="#fff"><g data-name="Group 1317"><path data-name="Path 807" d="M26.217 58.775l-8.762-11.954-2.926 2.145-3.629-4.947 2.928-2.147-.612-.837c-3.7-5.051-1.294-9.875 2.263-12.479a10.867 10.867 0 013.808-1.789c.053-.012.955-.244 1.008-.256l2.362 5.119a6.055 6.055 0 00-2.672 1.175 2.32 2.32 0 00-.358 3.53l.612.837 4.461-3.269 3.627 4.949-4.461 3.269 8.762 11.954z"/><path data-name="Path 808" d="M46.327 44.04L33.911 27.103l-6.446 4.727 12.413 16.935z"/><path data-name="Path 809" d="M42.483 13.776l3.356 4.579 3.869-2.836 3.641 4.969-3.9 2.86 3.97 5.418a1.9 1.9 0 002.933.421 5.922 5.922 0 001.671-2.038l4.538 4.04a12.832 12.832 0 01-4 4.521c-3.417 2.5-7.633 3.182-11.487-2.3l-3.97-5.416-2.754 2.016-3.641-4.966 2.754-2.019-2.809-3.832z"/></g><path data-name="Path 810" d="M24.94 21.588a4.1 4.1 0 11-1.037 5.871 4.047 4.047 0 011.037-5.871z"/></g><g data-name="Group 1320" fill="#fff"><g data-name="Group 1319"><path data-name="Path 811" d="M26.217 58.775l-8.762-11.954-2.926 2.145-3.629-4.947 2.928-2.147-.612-.837c-3.7-5.051-1.294-9.875 2.263-12.479a10.867 10.867 0 013.808-1.789c.053-.012.955-.244 1.008-.256l2.362 5.119a6.055 6.055 0 00-2.672 1.175 2.32 2.32 0 00-.358 3.53l.612.837 4.461-3.269 3.627 4.949-4.461 3.269 8.762 11.954z"/><path data-name="Path 812" d="M46.327 44.04L33.911 27.103l-6.446 4.727 12.413 16.935z"/><path data-name="Path 813" d="M42.483 13.776l3.356 4.579 3.869-2.836 3.641 4.969-3.9 2.86 3.97 5.418a1.9 1.9 0 002.933.421 5.922 5.922 0 001.671-2.038l4.538 4.04a12.832 12.832 0 01-4 4.521c-3.417 2.5-7.633 3.182-11.487-2.3l-3.97-5.416-2.754 2.016-3.641-4.966 2.754-2.019-2.809-3.832z"/></g><path data-name="Path 814" d="M24.94 21.588a4.1 4.1 0 11-1.037 5.871 4.047 4.047 0 011.037-5.871z"/></g><g data-name="Group 1322" fill="#4fa2ff"><g data-name="Group 1321"><path data-name="Path 815" d="M26.217 58.775l-8.762-11.954-2.926 2.145-3.629-4.947 2.928-2.147-.612-.837c-3.7-5.051-1.294-9.875 2.263-12.479a10.867 10.867 0 013.808-1.789c.053-.012.955-.244 1.008-.256l2.362 5.119a6.055 6.055 0 00-2.672 1.175 2.32 2.32 0 00-.358 3.53l.612.837 4.461-3.269 3.627 4.949-4.461 3.269 8.762 11.954z"/><path data-name="Path 816" d="M46.327 44.04L33.911 27.103l-6.446 4.727 12.413 16.935z"/><path data-name="Path 817" d="M42.483 13.776l3.356 4.579 3.869-2.836 3.641 4.969-3.9 2.86 3.97 5.418a1.9 1.9 0 002.933.421 5.922 5.922 0 001.671-2.038l4.538 4.04a12.832 12.832 0 01-4 4.521c-3.417 2.5-7.633 3.182-11.487-2.3l-3.97-5.416-2.754 2.016-3.641-4.966 2.754-2.019-2.809-3.832z"/></g><path data-name="Path 818" d="M24.94 21.588a4.1 4.1 0 11-1.037 5.871 4.047 4.047 0 011.037-5.871z"/></g></g><g data-name="Group 1324"><path data-name="Path 821" d="M648.999 816.89s-30.883-118.824-32.09-123.144c-1.605-5.75-7.621-10.428-14.841-10.428s-49.619-.646-57.362 0c-3.936.326-14.836 133.573-14.836 133.573" fill="none" stroke="#000" stroke-miterlimit="10" stroke-width="2"/><path data-name="Path 822" d="M578.005 670.766h-52.946c-11.485 0-23.533 17.23 0 17.23s142.9 4.814 144.719 0 28.027-128.704 28.027-128.704-83.728-1.076-91.6-1.076c-13.502.001-28.2 112.55-28.2 112.55z" fill="#effaff"/><path data-name="Path 823" d="M705.294 816.89s-30.885-118.824-32.09-123.144c-1.6-5.75-7.621-10.428-14.841-10.428s-49.62-.646-57.359 0c-3.939.326-9.628 6.1-8.023 20.3s17.247 113.272 17.247 113.272" fill="none" stroke="#000" stroke-miterlimit="10" stroke-width="6"/><path data-name="Line 52" fill="none" stroke="#000" stroke-miterlimit="10" stroke-width="2" d="M682.029 571.402l-24.067 96.004"/><path data-name="Path 824" d="M529.871 694.13a11.1 11.1 0 010-22.2" fill="none" stroke="#000" stroke-miterlimit="10" stroke-width="2"/></g><g data-name="Group 1328"><g data-name="Group 1326" fill="none" stroke="#000" stroke-miterlimit="10"><path data-name="Line 53" d="M175.937 758.517v-19.578"/><path data-name="Line 54" d="M214.228 700.648h19.578"/><path data-name="Line 55" d="M204.439 672.146l12.418-12.418"/><path data-name="Line 56" d="M203.013 727.723l13.844 13.844"/><path data-name="Line 57" d="M101.045 585.648V566.07"/><path data-name="Line 58" d="M43.176 623.939h19.578"/><path data-name="Line 59" d="M60.125 664.859l13.844-13.844"/><path data-name="Line 60" d="M60.125 583.02l13.844 13.844"/><path data-name="Line 61" d="M175.937 508.813v-19.451"/><path data-name="Line 62" d="M214.228 547.231h19.578"/><path data-name="Line 63" d="M203.013 520.155l13.844-13.844"/><path data-name="Line 64" d="M203.013 574.306l13.844 13.844"/><g data-name="Group 1325"><path data-name="Line 65" d="M101.045 432.231v-19.578"/><path data-name="Line 66" d="M101.045 528.391v-19.578"/><path data-name="Line 67" d="M43.176 470.522h19.578"/><path data-name="Line 68" d="M128.322 443.244l13.642-13.642"/><path data-name="Line 69" d="M60.125 511.442l13.844-13.844"/><path data-name="Line 70" d="M60.125 429.602l13.844 13.844"/></g></g><path data-name="Line 71" fill="none" stroke="#000" stroke-miterlimit="10" stroke-width="6" d="M102.368 815.326h76.159"/><path data-name="Line 72" fill="none" stroke="#000" stroke-miterlimit="10" stroke-width="6" d="M127.367 811.989V469.152"/><path data-name="Line 73" fill="none" stroke="#000" stroke-miterlimit="10" stroke-width="2" d="M140.447 811.989V469.152"/><path data-name="Line 74" fill="none" stroke="#000" stroke-miterlimit="10" d="M151.25 811.989V469.152"/><g data-name="Group 1327" transform="translate(69.64 439.117)" fill="#e8f6ff"><circle data-name="Ellipse 319" cx="31.405" cy="31.405" r="31.405" transform="translate(74.892 230.126)"/><circle data-name="Ellipse 320" cx="31.405" cy="31.405" r="31.405" transform="translate(0 153.417)"/><circle data-name="Ellipse 321" cx="31.405" cy="31.405" r="31.405" transform="translate(74.892 76.709)"/><circle data-name="Ellipse 322" cx="31.405" cy="31.405" r="31.405"/><circle data-name="Ellipse 323" cx="19.197" cy="19.197" r="19.197" transform="translate(68.975 166.586)"/><circle data-name="Ellipse 324" cx="19.197" cy="19.197" r="19.197" transform="translate(68.975 12.207)"/></g></g><g data-name="Group 1334"><g data-name="Group 1331"><path data-name="Path 825" d="M705.397 352.777a11.5 11.5 0 018.455-15.349v-21.253a32.606 32.606 0 00-26.819 47.2z" fill="#d1edff"/></g><g data-name="Group 1332"><path data-name="Path 826" d="M718.425 337.428a11.472 11.472 0 016.518 3.883l18.378-10.61a32.57 32.57 0 00-24.9-14.527z" fill="#b9e5ff"/></g><g data-name="Group 1333"><path data-name="Path 827" d="M727.132 345.332a11.489 11.489 0 01-19.28 11.311l-18.47 10.663a32.6 32.6 0 0056.2-32.624z" fill="#e8f6ff"/></g></g><g data-name="Group 1350"><g data-name="Group 1339"><g data-name="Group 1338"><path data-name="Rectangle 1299" fill="#a2dcff" d="M511.367 381.204h14.227v12.391h-14.227z"/></g></g><g data-name="Group 1341"><g data-name="Group 1340"><path data-name="Rectangle 1300" fill="#b9e5ff" d="M525.479 371.566h14.227v22.029h-14.227z"/></g></g><g data-name="Group 1344"><g data-name="Group 1343"><g data-name="Group 1342"><path data-name="Rectangle 1301" fill="#d1edff" d="M539.591 361.393h14.227v32.202h-14.227z"/></g></g></g><g data-name="Group 1347"><g data-name="Group 1346"><g data-name="Group 1345"><path data-name="Rectangle 1302" fill="#e8f6ff" d="M553.704 351.488h14.227v42.107h-14.227z"/></g></g></g><g data-name="Group 1349"><g data-name="Group 1348"><path data-name="Rectangle 1303" fill="#fff" d="M567.816 341.506h14.227v52.089h-14.227z"/></g></g></g><path data-name="Path 828" d="M381.156 793.826L359.93 570.848l43.842 10.316-7.151 210.393" fill="none" stroke="#000" stroke-miterlimit="10" stroke-width="2"/><g data-name="Group 1352"><path data-name="Path 829" d="M442.594 736.725l-33.585-69.828 24.1-9.937 28.232 83.971" fill="none" stroke="#000" stroke-miterlimit="10" stroke-width="2"/></g><g data-name="Group 1353"><path data-name="Path 830" d="M467.321 558.364c-5.118-39.244-25.3-47.651-25.3-47.651-19.844 3.412-70.137 9.287-70.137 9.287l-2.292-34.068c-35.352 102.29-16.874 278.785-16.874 278.785l53.183-4.164 2.643-76.627 4.183-121.3-4.183 121.3 15.593 44.126 40.012-13.849-38.647-76.056s43.43-67.433 41.819-79.783z" fill="#d1edff"/><path data-name="Path 37734" d="M392.142 407.864c18.981 11.681-2.139 23.15 35.189 9.76s29.813 14.572 27.09 25.02-6.055 52.743 0 59.741 4.372 13.255-16.089 17.674-65.756 0-65.756 0l-6.159-59.296-11.731-13.944s18.475-50.636 37.456-38.955z" fill="#fff"/></g><path data-name="Path 832" d="M367.257 469.862l4.622 50.14 70.138-9.289 3.939-31.426" fill="none" stroke="#000" stroke-miterlimit="10" stroke-width="2"/><path data-name="Path 833" d="M358.939 526.172c-20.47 102.44-6.224 238.544-6.224 238.544" fill="none" stroke="#000" stroke-miterlimit="10" stroke-width="2"/><path data-name="Path 834" d="M360.28 764.717l45.722-4.009 2.691-78.066c-4.263-39.786-7.541-82.991-9.432-110.313-.817-5.559-1.272-8.75-1.272-8.75-15.856-8.54-24.8-15.554-28.083-18.888" fill="none" stroke="#000" stroke-miterlimit="10" stroke-width="6"/><path data-name="Path 835" d="M415.893 451.852l31.34 17.244s17.689-41.406-.377-49.4-30.963 32.156-30.963 32.156z" fill="none" stroke="#000" stroke-miterlimit="10" stroke-width="2"/><g data-name="Group 1355" stroke="#000" stroke-miterlimit="10" stroke-width="2"><g data-name="Group 1354"><path data-name="Path 836" d="M319.07 477.909c2.007-4.212 24.316-9.952 24.316-9.952l5.769 9.952z" fill="#fff"/><path data-name="Path 837" d="M353.894 447.324s-18.927 52.31 2.411 56.174c12.177 2.29 10.112-42.7 10.112-42.7z" fill="#fff"/><path data-name="Path 838" d="M432.451 416.122s-35.432 11.424-35.876-7.3c0 0-8.682-2.921-15.965-1.173s-20.622 22.767-24.251 32.015-2.332 7.464-2.332 7.464" fill="none"/></g><path data-name="Path 839" d="M420.17 454.152l-11.536 22.66-34.744-9.945s-7.145-2.754-10.155-3.653c-14.212-4.251-27.781 9-27.482 14.841 0 0 16.25.2 35.905 1 0 0 37.151 23.739 46.636 24.582s23.485-37.41 23.485-37.41z" fill="#fff"/></g><path data-name="Path 840" d="M411.123 567.612l-37.506 77.834s40.057 58.957 42.276 58.043 35.736-13.922 35.736-13.922l-26.127-51.418c.822-4.966 47.385-66.24 39.051-66.291s-53.43-4.246-53.43-4.246z" fill="#d1edff"/><g data-name="Group 1366"><g data-name="Group 1363"><g data-name="Group 1362"><path data-name="Path 841" d="M261.199 430.607c3.208 7.171 2.517 12.409-.916 12.133-3.022-.244-7.391-4.775-10.2-10.39-2.952-5.907-3.6-11.85-1.008-13.134 2.982-1.477 8.703 3.738 12.124 11.391z" fill="#4fa2ff"/><g data-name="Group 1357" fill="#fff"><g data-name="Group 1356"><path data-name="Path 842" d="M254.166 436.811l-2.273-4.625-.5.075-.962-1.946.491-.1-.164-.336c-1.011-2.055-.762-3.066-.143-3.25a1.052 1.052 0 01.73.109l.208.094.757 1.956a.671.671 0 00-.525-.116c-.181.044-.215.343.087.967l.169.346.815-.167 1 2.067-.827.126 2.309 4.753z"/><path data-name="Path 843" d="M258.06 436.649l-3.419-7.217-1.265.261 3.363 7.012z"/><path data-name="Path 844" d="M256.194 426.753l1 2.154.887-.184 1.069 2.336-.909.14 1.129 2.449c.261.542.515.73.745.711a.5.5 0 00.38-.283l1.233 2.14a1.045 1.045 0 01-.931.5c-.788.031-1.787-.607-2.848-2.928l-1.112-2.374-.585.089-1.032-2.193.578-.118-.817-1.743z"/></g><path data-name="Path 845" d="M252.357 426.104c.329-.1.907.3 1.381 1.3.459.972.343 1.54.007 1.615s-.9-.329-1.349-1.272c-.457-.963-.37-1.546-.039-1.643z"/></g><g data-name="Group 1359" fill="#fff"><g data-name="Group 1358"><path data-name="Path 846" d="M254.166 436.811l-2.273-4.625-.5.075-.962-1.946.491-.1-.164-.336c-1.011-2.055-.762-3.066-.143-3.25a1.052 1.052 0 01.73.109l.208.094.757 1.956a.671.671 0 00-.525-.116c-.181.044-.215.343.087.967l.169.346.815-.167 1 2.067-.827.126 2.309 4.753z"/><path data-name="Path 847" d="M258.06 436.649l-3.419-7.217-1.265.261 3.363 7.012z"/><path data-name="Path 848" d="M256.194 426.753l1 2.154.887-.184 1.069 2.336-.909.14 1.129 2.449c.261.542.515.73.745.711a.5.5 0 00.38-.283l1.233 2.14a1.045 1.045 0 01-.931.5c-.788.031-1.787-.607-2.848-2.928l-1.112-2.374-.585.089-1.032-2.193.578-.118-.817-1.743z"/></g><path data-name="Path 849" d="M252.357 426.104c.329-.1.907.3 1.381 1.3.459.972.343 1.54.007 1.615s-.9-.329-1.349-1.272c-.457-.963-.37-1.546-.039-1.643z"/></g><g data-name="Group 1361" fill="#fff"><g data-name="Group 1360"><path data-name="Path 850" d="M254.166 436.811l-2.273-4.625-.5.075-.962-1.946.491-.1-.164-.336c-1.011-2.055-.762-3.066-.143-3.25a1.052 1.052 0 01.73.109l.208.094.757 1.956a.671.671 0 00-.525-.116c-.181.044-.215.343.087.967l.169.346.815-.167 1 2.067-.827.126 2.309 4.753z"/><path data-name="Path 851" d="M258.06 436.649l-3.419-7.217-1.265.261 3.363 7.012z"/><path data-name="Path 852" d="M256.194 426.753l1 2.154.887-.184 1.069 2.336-.909.14 1.129 2.449c.261.542.515.73.745.711a.5.5 0 00.38-.283l1.233 2.14a1.045 1.045 0 01-.931.5c-.788.031-1.787-.607-2.848-2.928l-1.112-2.374-.585.089-1.032-2.193.578-.118-.817-1.743z"/></g><path data-name="Path 853" d="M252.357 426.104c.329-.1.907.3 1.381 1.3.459.972.343 1.54.007 1.615s-.9-.329-1.349-1.272c-.457-.963-.37-1.546-.039-1.643z"/></g></g><path data-name="Path 854" d="M294.157 477.532a6.6 6.6 0 116.6-6.6" fill="none" stroke="#000" stroke-miterlimit="10" stroke-width="2"/><path data-name="Path 855" d="M304.719 479.67l84.706 1.909-.27 2.552h-91.806" fill="none" stroke="#000" stroke-miterlimit="10" stroke-width="4"/><path data-name="Path 856" d="M252.772 388.786l36.816 76.984 4.295-2.047-38.338-76.983z" fill="none" stroke="#000" stroke-miterlimit="10" stroke-width="2"/><path data-name="Line 75" fill="none" stroke="#000" stroke-miterlimit="10" stroke-width="2" d="M255.544 386.74h-37.667"/><path data-name="Line 76" fill="none" stroke="#000" stroke-miterlimit="10" stroke-width="2" d="M284.196 477.532h-34.788"/><path data-name="Line 77" fill="none" stroke="#000" stroke-miterlimit="10" stroke-width="2" d="M217.877 386.74l43.321 84.195"/></g><g data-name="Group 1365" fill="none" stroke-miterlimit="10"><path data-name="Line 78" stroke="#fff" stroke-width="10" d="M387.161 490.743H204.08"/><g data-name="Group 1364" stroke="#000"><path data-name="Path 857" d="M360.148 820.783l-64.132-272.131c-2-8.482-14.4-7.394-14.884 1.306l-15.257 270.825" stroke-width="6"/><path data-name="Line 79" stroke-width="2" d="M278.579 497.926l-47.485 322.856"/></g></g></g><path data-name="Path 858" d="M419.987 713.67l-46.37-68.225 39.1-82.816" fill="none" stroke="#000" stroke-miterlimit="10" stroke-width="2"/><path data-name="Path 859" d="M424.132 728.053l40.018-13.847-38.648-76.057s41.9-60.921 41.819-79.785c-.16-39.576-25.305-45.047-25.305-45.047" fill="none" stroke="#000" stroke-miterlimit="10" stroke-width="6"/><g data-name="Group 1373"><g data-name="Group 1368"><g data-name="Group 1367"><path data-name="Path 860" d="M409.406 369.634c4.727-.1 4.8 6.071.418 6.166-4.311.091-4.383-6.082-.418-6.166z"/></g></g><g data-name="Group 1370"><g data-name="Group 1369"><path data-name="Path 861" d="M387.518 368.079c-4.519-.143-4.824 6.028-.636 6.161 4.12.131 4.424-6.04.636-6.161z"/></g></g><g data-name="Group 1371"><path data-name="Path 862" d="M401.229 385.356c-1.182-.111-3.516.679-4.918 1.081 1.332-8.334 1.937-8.518 2.887-18.175a.294.294 0 00-.563-.145c-3.443 9.674-3.165 10.2-4.553 20.17-.184 1.239 6.449-.845 7.147-2.931z"/></g><g data-name="Group 1372"><path data-name="Path 863" d="M399.312 393.708s-.844 2.159 2.188 3.518a6.082 6.082 0 003.67.522c2.723-.488 2.967-2 2.754-4.149a3.832 3.832 0 01.312-2.135s-2.991 1.827-8.924 2.244z"/></g></g><g data-name="Group 1377"><g data-name="Group 1376"><path data-name="Path 864" d="M425.649 334.684c-4.56-3.3-15.107-27.539 5.672-39.385 20.467-11.664 45.637 14.771 30.668 34.457-10.055 13.226-26.651 11.933-36.34 4.928z"/></g><path data-name="Path 865" d="M440.089 373.235c-7.858.537-8.533-11.864-8.533-11.864s-8.968-.28-10.474-14.635c0 0-3.774 8.944-15.76 11.429-2.536.527 5.648-6.615 5.648-6.615s-9.727 9.916-29.012 7.512c-1.364-.169.317-20.46 14.875-28.212s28.282-4.654 38.1 4.234c0 0 11.267 4.405 13.112 14.718s-4.902 23.225-7.956 23.433z"/></g><path data-name="Path 866" d="M385.624 382.194c1.378 10.8 10.186 17.517 15.639 22.554 2.091 2.8 8.5 2.34 12.438.31 2.161-1.112 8.054-3.01 13.639-9.159s7.645-15.042 7.645-15.042" fill="none" stroke="#000" stroke-miterlimit="10" stroke-width="2"/><path data-name="Line 81" fill="none" stroke="#000" stroke-miterlimit="10" stroke-width="2" d="M426.122 402.231l-2.054 11.669"/><g data-name="Group 1391"><g data-name="Group 1380"><path data-name="Path 867" d="M425.27 769.178c2.161-.167 46.355-21.275 47.078-23.091.194-.476-2.935-4.9-7.35-8.724-4.215-3.653-2.817-3.619-3.878-6.719l-16.705 6.867s-20.883 19.991-21.906 22.617c-1.031 2.657.572 9.219 2.761 9.05z" fill="#effaff" stroke="#000" stroke-miterlimit="10"/><g data-name="Group 1379"><g data-name="Group 1378"><path data-name="Path 868" d="M423.584 764.501c8.284-4.021 37.869-17.372 44.469-19.81.051-.019.077.027.029.051-6.134 3.257-35.845 16.405-44.411 19.916-.186.082-.268-.07-.087-.157z"/><path data-name="Path 869" d="M423.55 758.708a22.523 22.523 0 019.052-1.83c2.237.1 4.485.614 5.358 1.818.027.034-.114.094-.155.063-2.549-1.9-8.777-1.946-14.2.022-.105.04-.161-.027-.055-.073z"/><path data-name="Path 870" d="M434.264 742.665a12.07 12.07 0 0110.687.73c.133.082.068.254-.048.234a47.077 47.077 0 00-10.445-.5c-.254.015-.414-.372-.194-.464z"/><path data-name="Path 871" d="M432.445 744.704a12.228 12.228 0 0110.832.677.125.125 0 01-.053.239 47.529 47.529 0 00-10.583-.45c-.258.018-.42-.376-.196-.466z"/><path data-name="Path 872" d="M430.593 746.776a12.385 12.385 0 0110.979.626.126.126 0 01-.053.242 48.225 48.225 0 00-10.731-.4c-.26.023-.422-.371-.195-.468z"/><path data-name="Path 873" d="M428.71 748.887a12.548 12.548 0 0111.129.571.128.128 0 01-.056.244 49.068 49.068 0 00-10.878-.339c-.265.022-.427-.377-.195-.476z"/><path data-name="Path 874" d="M452.398 741.66c3.078-1.26 6.407 4.6 3.356 5.933-3.116 1.361-6.509-4.644-3.356-5.933z" fill="#8bd3ff"/></g><path data-name="Path 875" d="M428.676 739.554c3.122 1.857 6.572 2.432 9.739 3.322.326.09.464-.225.384-.5.053-.015.085-.065.039-.138a28.044 28.044 0 00-7.885-7.991c-1.85-1.2-4.7-1.951-5.491.123-.756 1.981 1.376 4.092 3.214 5.184zm-1.821-2.933c-1.869-4.023 2.943-2.14 4.284-1.211a29.848 29.848 0 012.483 1.975c1.661 1.434 3.143 3.032 4.679 4.58-1.547-.532-3.1-.933-4.671-1.414-1.886-.581-5.742-1.7-6.774-3.929z"/><path data-name="Path 876" d="M447.964 735.973a3.664 3.664 0 00-5.205-.892 13 13 0 00-4.78 7.06.126.126 0 00.092.145c.031.276.295.612.592.554 2.834-.559 5.967-.754 8.223-2.232 1.296-.849 2.476-2.623 1.078-4.635zm-5.425 5.053c-1.361.3-2.756.532-4.115.9a38.584 38.584 0 012.918-4.067 12.9 12.9 0 011.673-1.639c.943-.735 4.746-1.891 4.488 1.76-.146 2.033-3.359 2.686-4.964 3.046z"/></g></g><g data-name="Group 1390"><g data-name="Group 1389"><g data-name="Group 1388"><g data-name="Group 1387"><g data-name="Group 1386"><g data-name="Group 1385"><g data-name="Group 1384"><g data-name="Group 1383"><g data-name="Group 1382"><g data-name="Group 1381"><path data-name="Path 877" d="M425.826 773.31l48.517-24.532a25.086 25.086 0 00-2.055-4.635l-49.951 24.1a16.265 16.265 0 003.489 5.067z"/></g></g></g></g></g></g></g></g></g></g></g><g data-name="Group 1397"><g data-name="Group 1396"><g data-name="Group 1395"><g data-name="Group 1394"><g data-name="Group 1393"><g data-name="Group 1392"><path data-name="Path 878" d="M407.908 360.544s-2.747 0-2.043 2.585 6.436.392 9.877 5.377c0 0 2.263-5.813-7.834-7.962z"/></g></g></g></g></g></g><g data-name="Group 1403"><g data-name="Group 1402"><g data-name="Group 1401"><g data-name="Group 1400"><g data-name="Group 1399"><g data-name="Group 1398"><path data-name="Path 879" d="M394.519 359.084s2.626.808 1.187 3.071-6.265-1.531-11.025 2.215c0 0-.443-6.222 9.838-5.286z"/></g></g></g></g></g></g><g data-name="Group 1406"><g data-name="Group 1404"><path data-name="Path 880" d="M635.654 295.371l-17.408-30.827-20.482 23.116-1.229-1.089 22.009-24.835 17.421 30.851 23.3-25.695 15.631 8.336 19.66-14.579 1 1.306-20.5 15.218-15.432-8.23z" fill="#fff"/></g><g data-name="Group 1405"><path data-name="Path 881" d="M694.695 268.624l-1.592-.4 1.665-6.609-7.261.205-.047-1.641 9.429-.267z" fill="#fff"/></g></g><g data-name="Group 1420"><g data-name="Group 1410"><path data-name="Rectangle 1305" d="M337.312 201.032h9.927v86.367h-9.927z"/><path data-name="Path 39414" d="M367.128 291.522H96.198" fill="none" stroke="#fff" stroke-width="10"/><path data-name="Rectangle 1306" fill="none" stroke="#000" stroke-miterlimit="10" d="M184.898 208.703h8.326v78.696h-8.326z"/><path data-name="Rectangle 1307" fill="#fff" stroke="#000" stroke-miterlimit="10" d="M308.436 216.558h8.326v70.841h-8.326z"/><path data-name="Path 882" d="M217.233 263.8v23.6h12.29v-70.842h-12.29" fill="none" stroke="#000" stroke-miterlimit="10"/><path data-name="Path 883" d="M331.379 287.399v-61.261h-9.927v37.989" fill="none" stroke="#000" stroke-miterlimit="10"/><path data-name="Rectangle 1308" fill="#fff" stroke="#000" stroke-miterlimit="10" d="M290.899 208.703h12.29v78.696h-12.29z"/><path data-name="Rectangle 1309" fill="#fff" stroke="#000" stroke-miterlimit="10" d="M162.68 286.078l12.218-65.632 8.185 1.524-12.219 65.632z"/><path data-name="Rectangle 1310" fill="#fff" stroke="#000" stroke-miterlimit="10" stroke-width="4" d="M202.719 205.541h7.005v78.696h-7.005z"/><g data-name="Rectangle 1311" fill="#fff" stroke="#000" stroke-miterlimit="10" stroke-width="4"><path d="M231.663 279.646l45.565-64.137 12.423 8.825-45.565 64.138z" stroke="none"/><path fill="none" d="M234.451 279.174l43.249-60.877 9.163 6.51-43.249 60.877z" stroke-width="3.999"/></g><path data-name="Path 39415" d="M858.412 822.522H0" fill="none" stroke="#fff" stroke-width="10"/></g></g></g></svg>