<svg id="Layer_12" data-name="Layer 12" xmlns="http://www.w3.org/2000/svg" viewBox="0 0 192 192"><defs><style>.cls-1{fill:#fff}.cls-2{fill:#4fa2ff}</style></defs><path class="cls-1" d="M30.55 122.57a70 70 0 01-5.36-27 70.94 70.94 0 0160.4-70v40A31.72 31.72 0 0065 102.66z"/><path d="M80.59 31.61v30.57a36.74 36.74 0 00-21.1 37.9L33.2 115.26a65.77 65.77 0 0147.39-83.65m10-11.61A75.73 75.73 0 0028.3 129.64L71 105a26.7 26.7 0 0119.59-35.64V20z"/><path class="cls-2" d="M117.23 72.1a31.83 31.83 0 00-11-6.55v-40a70 70 0 0145.55 26.61z"/><path d="M111.21 31.59a64.93 64.93 0 0132.87 19.23L117.73 66a37.28 37.28 0 00-6.52-3.86V31.59m-10-11.59v49.36a26.7 26.7 0 0115.14 9L159 53.74A75.66 75.66 0 00101.21 20z"/><path class="cls-2" d="M95.9 166.23a70.81 70.81 0 01-54.75-26L76 120.15a31.32 31.32 0 0019.93 7.06 31.7 31.7 0 0031.24-37l34.77-20.07a70.75 70.75 0 01-66 96.11z"/><path d="M159.11 77.5A65.71 65.71 0 0149 141.51l26.66-15.39a36.7 36.7 0 0057-30.6c0-.88 0-1.77-.1-2.65l26.55-15.37m5.16-14.5l-42.85 24.72A26.68 26.68 0 0176.64 114l-42.89 24.76A75.72 75.72 0 00164.27 63z"/><circle class="cls-1" cx="133.21" cy="133.39" r="21.08"/><path d="M133.21 159.47a26.08 26.08 0 1126.08-26.08 26.11 26.11 0 01-26.08 26.08zm0-42.16a16.08 16.08 0 1016.08 16.08 16.1 16.1 0 00-16.08-16.08z"/><path transform="rotate(-45 157.737 157.543)" d="M152.73 143.2h10v28.7h-10z"/></svg>