<svg id="Layer_12" data-name="Layer 12" xmlns="http://www.w3.org/2000/svg" viewBox="0 0 192 192"><defs><style>.cls-1{fill:#fff}.cls-2{fill:#4fa2ff}</style></defs><path class="cls-1" d="M25.07 40.19h89.21v126.87H25.07z"/><path d="M119.29 172.07H20.07V35.19h99.22zm-89.22-10h79.22V45.19H30.07z"/><path class="cls-2" d="M25.09 35a10 10 0 0110-10h79.23v20H35.06a10 10 0 01-10-10zm0 0"/><path d="M119.29 50H35.06a15 15 0 010-29.95h84.23zM35.06 30a5 5 0 000 9.95h74.23V30z"/><path class="cls-2" d="M114.29 34.37h40v40h-40z"/><path d="M159.29 79.37h-50v-50h50zm-40-10h30v-30h-30z"/><path d="M130.47 50.13v-6.07h7.59v6.07h6.3v7h-6.3v6.12h-7.59v-6.08h-6.26v-7z"/><path class="cls-1" d="M114.29 74.37h40v40h-40z"/><path d="M159.29 119.37h-50v-50h50zm-40-10h30v-30h-30z"/><path d="M130.47 90.13v-6.07h7.59v6.07h6.3v7h-6.3v6.12h-7.59v-6.08h-6.26v-7z"/><path class="cls-1" d="M114.29 114.37h40v40h-40z"/><path d="M159.29 159.37h-50v-50h50zm-40-10h30v-30h-30z"/><path class="cls-2" d="M119.29 149.37c2.67-1.93 30-30 30-30v30z"/><path d="M39.99 60.03h49.33v10H39.99zm0 17.71h49.33v10H39.99zm0 17.71h49.33v10H39.99zm98.07 34.68v-6.07h-7.59v6.07h-6.26v7h6.26v1.34c2.72-2.73 5.6-5.65 8.28-8.38z"/><path d="M138.75 130.13h5.61v7h-6.3v6.12h-7.59v-4.78c-5.41 5.44-10.14 10.11-11.18 10.86h30v-30s-4.79 4.96-10.54 10.8z" fill="none"/><path d="M138.06 143.29v-6.12h6.3v-7h-5.61c-2.68 2.73-5.56 5.65-8.28 8.38v4.78z"/></svg>