<svg data-name="Group 36200" xmlns="http://www.w3.org/2000/svg" width="53.972" height="57.557"><g data-name="Group 36092"><path data-name="Path 37715" d="M27.806 28.085a24.6 24.6 0 00-24.2 20.2l4.865-3.658a20.954 20.954 0 0136.382-4.122h4.321a24.576 24.576 0 00-21.368-12.42z"/></g><g data-name="Group 36093"><path data-name="Path 37716" d="M37.263 21.856a9.373 9.373 0 11-18.742 0c0-2.48-.631-8.524.942-10.2 1.71-1.821 5.734-2.959 8.429-2.959 2.588 0 6.525 1.049 8.221 2.745s1.15 7.827 1.15 10.414z" fill="#4fa2ff"/></g><g data-name="Group 36094"><path data-name="Path 37717" d="M27.892 33.185a11.243 11.243 0 01-11.129-11.329c0-.449-.023-1.043-.05-1.73-.165-4.261-.169-7.929 1.469-9.673 2.064-2.2 6.558-3.514 9.71-3.514 3.05 0 7.424 1.219 9.465 3.26 1.794 1.793 1.83 5.631 1.7 10.09-.018.615-.034 1.146-.034 1.568a11.243 11.243 0 01-11.131 11.328zm0-22.729c-2.308 0-5.855 1.028-7.146 2.4-.762.833-.579 5.573-.519 7.131.028.723.052 1.349.052 1.866a7.615 7.615 0 1015.226 0c0-.473.017-1.028.035-1.672.049-1.641.2-6.634-.67-7.5-1.276-1.272-4.737-2.225-6.978-2.225z"/></g><g data-name="Group 36095"><circle data-name="Ellipse 375" cx="3.226" cy="3.226" r="3.226" transform="translate(13.653 17.533)"/></g><g data-name="Group 36096"><circle data-name="Ellipse 376" cx="3.226" cy="3.226" r="3.226" transform="translate(35.677 17.533)"/></g><g data-name="Group 36097"><path data-name="Path 37718" d="M19.025 10.318v5.134a2.1 2.1 0 00.988 1.79c5.539 3.359 10.327 3.359 15.867 0a2.1 2.1 0 00.989-1.79v-5.134zm0 0" fill="#fff"/></g><g data-name="Group 36098"><path data-name="Path 37719" d="M27.949 21.528a16.932 16.932 0 01-8.845-2.782 3.859 3.859 0 01-1.835-3.294V8.56h21.36v6.892a3.862 3.862 0 01-1.836 3.294 16.93 16.93 0 01-8.844 2.782zm-7.163-9.452v3.376a.346.346 0 00.139.285c4.99 3.027 9.058 3.027 14.046 0a.344.344 0 00.142-.287v-3.374z"/></g><g data-name="Group 36099"><path data-name="Path 37720" d="M14.827 7.694l13.118-5.773 13.119 5.773-13.117 5.772zm0 0" fill="#fff"/></g><g data-name="Group 36100"><path data-name="Path 37721" d="M27.945 15.387L10.461 7.694 27.945 0 45.43 7.694zm-8.753-7.693l8.753 3.851 8.753-3.851-8.753-3.852z"/></g><g data-name="Group 36101"><path data-name="Rectangle 1441" d="M0 54.04h53.972v3.517H0z"/></g><g data-name="Group 36102"><path data-name="Rectangle 1442" d="M39.292 44.186h8.11v4.055a4.055 4.055 0 01-4.055 4.055 4.055 4.055 0 01-4.055-4.055v-4.055z" fill="#4fa2ff"/><path data-name="Path 37722" d="M43.347 54.055a5.82 5.82 0 01-5.814-5.813v-5.814H49.16v5.814a5.82 5.82 0 01-5.813 5.813zm-2.3-8.111v2.3a2.3 2.3 0 004.594 0v-2.3z"/></g><g data-name="Group 36103"><path data-name="Rectangle 1443" fill="#fff" d="M2.394 27.687h31.114V51.48H2.394z"/><path data-name="Path 37723" d="M35.266 53.239H.636v-27.31h34.63zM4.152 49.722h27.6V29.446h-27.6z"/></g><g data-name="Group 36104"><path data-name="Path 37724" d="M53.904 49.686h-3.517v-1.82H47.4v-3.512h6.5z"/></g><g data-name="Group 36105" transform="translate(12.958 34.59)"><circle data-name="Ellipse 377" cx="3.235" cy="3.235" r="3.235" transform="translate(1.758 1.759)" fill="#4fa2ff"/><path data-name="Path 37725" d="M4.993 9.987a4.994 4.994 0 114.993-4.994 5 5 0 01-4.993 4.994zm0-6.47A1.477 1.477 0 106.47 4.994a1.479 1.479 0 00-1.477-1.477z"/></g></svg>