<svg data-name="Layer 12" xmlns="http://www.w3.org/2000/svg" viewBox="0 0 192 192"><path fill="#4fa2ff" d="M95.94 25.27h71.07v73H95.94z"/><path d="M172 103.27H90.94v-83H172zm-71.07-10H162v-63h-61.06z"/><path fill="#fff" d="M24.87 25.27h71.07v73H24.87z"/><path d="M100.94 103.27H19.87v-83h81.07zm-71.07-10h61.07v-63H29.87z"/><path d="M46.2 47.45h28.41v10H46.2zm0 18.63h28.41v10H46.2zm1.91 64.25a4.26 4.26 0 002.36-.71 12.39 12.39 0 0024.51 0 4.28 4.28 0 10.29-7.32c0-3.45-.21-7.2-1.63-8.62-2.25-2.25-7.48-3.64-10.92-3.64s-8.92 1.51-11.19 3.96c-1.29 1.38-1.46 5-1.4 8.31a4.28 4.28 0 10-2 8.06zm14.69 15.89A31.4 31.4 0 0031.91 172h61.77a31.39 31.39 0 00-30.88-25.78zm52.86-15.89a4.26 4.26 0 002.36-.71 12.39 12.39 0 0024.52 0 4.21 4.21 0 002.36.71 4.28 4.28 0 10-2.07-8c0-3.45-.22-7.2-1.64-8.62-2.25-2.25-7.48-3.64-10.91-3.64s-8.92 1.51-11.19 3.92c-1.3 1.38-1.47 5-1.41 8.31a4.28 4.28 0 10-2 8.06zm14.69 15.89A31.4 31.4 0 0099.46 172h61.77a31.39 31.39 0 00-30.88-25.78zM126.48 73l15-11.24-15-11.25zm5 8.75a20 20 0 1120-20 20 20 0 01-20.01 20.01z"/></svg>