<svg xmlns="http://www.w3.org/2000/svg" width="106.443" height="41.291"><defs><clipPath id="a"><circle data-name="Ellipse 305" cx="20.645" cy="20.645" fill="none" r="20.645"/></clipPath></defs><g data-name="Group 1021"><g data-name="Group 1020"><g data-name="Group 1019"><g data-name="Group 1018" clip-path="url(#a)" transform="translate(65.152)"><path data-name="Rectangle 1269" fill="#fd0c00" d="M-9.312 0h59.914v13.763H-9.312z"/><path data-name="Rectangle 1270" fill="#fed702" d="M-9.312 13.764h59.914v13.763H-9.312z"/><path data-name="Rectangle 1271" fill="#fd0c00" d="M-9.312 27.527h59.914V41.29H-9.312z"/></g></g><path data-name="Path 39625" d="M8.015 22.315A14.043 14.043 0 010 20.115l2.2-4.307a12.093 12.093 0 003 1.077 14.816 14.816 0 003.307.393q1.641 0 1.641-.837a.729.729 0 00-.487-.675 4.8 4.8 0 00-1.68-.291 9.1 9.1 0 01-5.246-1.66 4.754 4.754 0 01-2-3.965 4.993 4.993 0 012.136-4.235 9.671 9.671 0 015.845-1.572 15.367 15.367 0 013.931.5 12.025 12.025 0 013.179 1.272l-2.358 4.17a9.776 9.776 0 00-4.517-.953q-2 0-2 .889a.6.6 0 00.393.564 3.855 3.855 0 001.333.239 10.7 10.7 0 015.682 1.666 4.7 4.7 0 012.042 4.042 5.009 5.009 0 01-2.182 4.323 10.6 10.6 0 01-6.204 1.56zM30.471 4.183a7.525 7.525 0 015.845 2.512 9.284 9.284 0 012.273 6.477 9.284 9.284 0 01-2.273 6.473 7.525 7.525 0 01-5.844 2.512 7.264 7.264 0 01-5.042-1.88v8.75h-6.357V4.52h5.52l.359 2a7.232 7.232 0 015.52-2.342zm-4.152 11.702a3.276 3.276 0 002.512 1.03 3.263 3.263 0 002.512-1.034 3.829 3.829 0 00.957-2.709 3.829 3.829 0 00-.957-2.709 3.263 3.263 0 00-2.512-1.038 3.263 3.263 0 00-2.512 1.034 3.829 3.829 0 00-.957 2.709 3.86 3.86 0 00.957 2.717zM54.551 4.52h5.52v17.295h-5.52l-.359-2.034a7.27 7.27 0 01-5.541 2.376 7.525 7.525 0 01-5.841-2.512 9.284 9.284 0 01-2.273-6.477 9.284 9.284 0 012.273-6.477 7.525 7.525 0 015.841-2.513 7.251 7.251 0 015.541 2.337zm-6.75 11.365a3.276 3.276 0 002.512 1.03 3.236 3.236 0 002.5-1.034 3.85 3.85 0 00.948-2.709 3.85 3.85 0 00-.948-2.709 3.236 3.236 0 00-2.5-1.034 3.263 3.263 0 00-2.512 1.034 3.829 3.829 0 00-.957 2.709 3.86 3.86 0 00.957 2.713z"/></g></g></svg>