<svg id="Layer_12" data-name="Layer 12" xmlns="http://www.w3.org/2000/svg" viewBox="0 0 192 192"><defs><style>.cls-1{fill:#4fa2ff}</style></defs><path id="Path_513" data-name="Path 513" d="M126.36 130.39a4.3 4.3 0 002.36-.71 12.41 12.41 0 0024.56 0 4.29 4.29 0 102.36-7.87 4.18 4.18 0 00-2.07.54c0-3.45-.22-7.21-1.64-8.63a18.06 18.06 0 00-10.93-3.65 17.78 17.78 0 00-11.21 3.93c-1.29 1.38-1.46 5-1.42 8.32a4.29 4.29 0 10-2 8.07z"/><path id="Path_514" data-name="Path 514" d="M141.07 146.29a31.44 31.44 0 00-30.92 25.82H172a31.46 31.46 0 00-30.93-25.82z"/><path id="Path_510" data-name="Path 510" d="M36 53a4.3 4.3 0 002.36-.71 12.41 12.41 0 0024.55 0 4.29 4.29 0 006.65-3.58 4.29 4.29 0 00-6.36-3.76c0-3.44-.22-7.21-1.64-8.63a18.07 18.07 0 00-10.93-3.64 17.7 17.7 0 00-11.2 3.93c-1.3 1.38-1.47 5-1.42 8.32a4.22 4.22 0 00-2-.51A4.29 4.29 0 0036 53z"/><path id="Path_511" data-name="Path 511" d="M50.75 68.88A31.43 31.43 0 0019.82 94.7h61.85a31.43 31.43 0 00-30.92-25.82z"/><path id="Path_515" data-name="Path 515" class="cls-1" d="M37.9 29.65v8.58a5.27 5.27 0 002.5 4.47 19.65 19.65 0 0010.27 3.18A19.65 19.65 0 0061 42.7a5.26 5.26 0 002.49-4.47v-8.58z"/><path id="Path_516" data-name="Path 516" class="cls-1" d="M50.67 20.1L29 29.65l21.71 9.56 21.72-9.56z"/><path d="M144.93 86.54h-10V69a4.75 4.75 0 00-4.74-4.74h-23.36v-10h23.36A14.77 14.77 0 01144.93 69z"/><path d="M118.49 78l-15.23-15.24-3.47-3.53 18.7-18.7 7.07 7.07-11.67 11.66 11.67 11.67-7.07 7.07zm-33.32 59.74H61.81A14.77 14.77 0 0147.07 123v-17.54h10V123a4.75 4.75 0 004.74 4.74h23.36z"/><path d="M73.51 151.47l-7.07-7.07 11.67-11.66-11.67-11.67 7.07-7.07 18.71 18.77-18.71 18.7z"/></svg>