<svg id="Layer_12" data-name="Layer 12" xmlns="http://www.w3.org/2000/svg" viewBox="0 0 192 192"><defs><style>.cls-1{fill:#fff}</style></defs><circle cx="126.28" cy="65.71" r="45.54"/><path class="cls-1" d="M89 39.67a45.24 45.24 0 000 52.09 27.32 27.32 0 000-52.09zm74.58 0a27.32 27.32 0 000 52.09 45.28 45.28 0 000-52.09z"/><path class="cls-1" d="M135.39 65.71a36.44 36.44 0 0121.82-33.38 45.4 45.4 0 00-61.85 0 36.45 36.45 0 010 66.77 45.4 45.4 0 0061.85 0 36.45 36.45 0 01-21.82-33.39z"/><path d="M126.28 30.17a35.55 35.55 0 11-35.54 35.54 35.58 35.58 0 0135.54-35.54m0-10a45.55 45.55 0 1045.54 45.54 45.54 45.54 0 00-45.54-45.54z"/><circle cx="75.24" cy="116.76" r="55.06" fill="#4fa2ff"/><path d="M103.27 111.26h26.78A54.69 54.69 0 00121.56 87a33 33 0 00-18.29 24.26zM28.91 87a54.8 54.8 0 00-8.48 24.24H47.2A33 33 0 0028.91 87zm85.6-8.8A54.94 54.94 0 0080.74 62v49.31h11.41a44 44 0 0122.36-33.11zm-56.19 33.06h11.41V62A54.81 54.81 0 0036 78.2a44 44 0 0122.32 33.06zm33.83 11.01H80.74v49.3a54.76 54.76 0 0033.77-16.25 44 44 0 01-22.36-33.05zm-44.95 0H20.43a54.84 54.84 0 008.48 24.24 33.22 33.22 0 0018.29-24.24zm74.36 24.24a54.73 54.73 0 008.49-24.24h-26.78a33 33 0 0018.29 24.24zM36 155.32a54.88 54.88 0 0033.77 16.25v-49.3H58.32A44 44 0 0136 155.32z"/></svg>