<svg xmlns="http://www.w3.org/2000/svg" width="962.316" height="871.66"><defs><linearGradient id="a" x1="-.115" y1="1.456" x2=".704" y2=".656" gradientUnits="objectBoundingBox"><stop offset="0" stop-color="#fff"/><stop offset="1" stop-color="#fff" stop-opacity="0"/></linearGradient></defs><g data-name="Group 36721"><g data-name="Group 36433"><path data-name="Path 37728" d="M1863.988 342.833c1.281-1.555 4.211 312.641 4.211 312.641l-769.937-59.012-39.875-93.785s804.32-158.289 805.601-159.844z" transform="translate(-905.883 -342.827)" fill="url(#a)"/><g data-name="Group 35702"><g data-name="Group 1542"><g data-name="Group 1428"><g data-name="Group 1422"><path data-name="Path 898" d="M369.079 706.517h64.079l36.676-182.837-58.672-26.956z" fill="#a2dcff"/><path data-name="Path 899" d="M127.746 706.517h241.332l42.083-209.794H169.826z" fill="#d1edff"/></g><g data-name="Group 1423"><path data-name="Path 900" d="M615.448 706.517h64.079l36.676-182.837-58.672-26.956z" fill="#a2dcff"/><path data-name="Path 901" d="M374.115 706.517h241.332l42.083-209.794H416.2z" fill="#d1edff"/></g><path data-name="Rectangle 1312" fill="#a2dcff" d="M746.551 809.921h-98.205V608.419h98.205z"/><path data-name="Path 902" d="M80.69 809.918h26.828l39.979-201.5h-66.81z" fill="#a2dcff"/><path data-name="Rectangle 1313" fill="#d1edff" d="M648.346 809.921h-53.959V608.419h53.959z"/><path data-name="Rectangle 1314" fill="#d1edff" d="M80.69 809.921H26.731V608.419H80.69z"/><path data-name="Rectangle 1315" fill="#d1edff" d="M594.387 809.921H80.69V706.517h513.697z"/><path data-name="Rectangle 1316" fill="#d1edff" d="M594.387 706.937H80.69v-45.122h513.697z"/><path data-name="Path 906" d="M80.689 661.814c17.458.421 34.914.618 52.37.781l52.37.236 356.589-.233 26.185-.285 26.185-.5-26.185-.5-26.186-.282-356.589-.234-52.37.238c-17.455.163-34.911.36-52.369.779z" fill="#d1edff"/><g data-name="Group 1424"><path data-name="Path 907" d="M709.232 809.918l1.329 16.324 3.1 37.72h14.22l3.1-37.72 1.329-16.324z" fill="#f0f0f0"/><path data-name="Path 908" d="M732.31 809.918h-23.078l1.329 16.324h20.421z" fill="#c8c8c8"/></g><g data-name="Group 1425"><path data-name="Path 909" d="M609.827 809.918l1.329 16.324 3.1 37.72h14.22l3.1-37.72 1.329-16.324z" fill="#f0f0f0"/><path data-name="Path 910" d="M632.906 809.918h-23.079l1.329 16.324h20.421z" fill="#c8c8c8"/></g><g data-name="Group 1426"><path data-name="Path 911" d="M140.731 809.918l1.329 16.324 3.1 37.72h14.219l3.1-37.72 1.329-16.324z" fill="#f0f0f0"/><path data-name="Path 912" d="M156.736 826.241h5.746l1.329-16.324h-23.08l1.329 16.324h14.675" fill="#c8c8c8"/></g><g data-name="Group 1427"><path data-name="Path 913" d="M41.305 809.918l1.329 16.324 3.1 37.72h14.22l3.1-37.72 1.329-16.324z" fill="#f0f0f0"/><path data-name="Path 914" d="M41.305 809.918l1.329 16.324h20.421l1.329-16.324z" fill="#c8c8c8"/></g><path data-name="Line 118" fill="none" stroke="#a2dcff" stroke-width="2" d="M81.5 709.083h513"/><path data-name="Line 121" fill="none" stroke="#a2dcff" stroke-width="2" d="M81.5 661.083h513"/><path data-name="Line 119" fill="none" stroke="#a2dcff" stroke-width="2" d="M594.5 608.083v202"/><path data-name="Line 120" fill="none" stroke="#a2dcff" stroke-width="2" d="M80.5 608.083v202"/></g><path data-name="Path 915" d="M562.614 414.452l-14.3 105.7c-66.126 13.562-129.312-20.513-129.312-20.513l15.787-100.974a56.63 56.63 0 01-1.917-.915c-2.846-1.452-5.886-3.04-8.948-4.918-1.8-1.077-18.7-15.328-20.476-16.536-7.768-5.212-.37-63.993-7.177-69.808-2.765-25.433 23.218 8.474 33.547-1.875 6.812-6.822 11.03 13.525 15.593 9.486 4.6-3.76 9.734 4.92 14.557 4.937 10.067-.034 33.175 2.369 39.314 3.15l9.466 12.117c11.105 14.214 23.531 5.8 32.372-9.921.134-.241.27-.484.4-.73a3.905 3.905 0 01.7.165.517.517 0 01.445.032c7.435-3.731 10.775 9.113 15.68 10.767 4.234 1.435 10.811-1.35 16.5 6.358 4.485 6.085 12.492.713 14.17 1.428 10.76 4.59 10.281 9.456 13.506 11.453a12.878 12.878 0 013.177 2.26 27.912 27.912 0 013.943 4.648c10.269 14.574 7.284 30.813 10.086 48.666a233.322 233.322 0 01-26.365 5.358c-11.818 1.8-30.748-.335-30.748-.335z" fill="#fff"/><g data-name="Group 1435" transform="translate(753.713 197.457)"><circle data-name="Ellipse 327" cx="47.486" cy="47.486" r="47.486" fill="#fff"/><g data-name="Group 1430" fill="#fff"><g data-name="Group 1429"><path data-name="Path 916" d="M12.734 56.759l7.372-19.243-4.714-1.8 3.05-7.965 4.714 1.8.516-1.345c3.116-8.136 10.568-8.948 16.288-6.757a15.139 15.139 0 014.959 3.1c.054.053 1.007.932 1.06.985l-4.2 6.616a8.445 8.445 0 00-3.388-2.235c-1.625-.623-3.471-.173-4.395 2.24L33.48 33.5l7.18 2.751-3.05 7.965-7.18-2.748-7.372 19.243z"/><path data-name="Path 917" d="M45.107 69.154l10.441-27.265-10.378-3.977-10.444 27.265z"/><path data-name="Path 918" d="M77.573 41.87l-2.824 7.372 6.226 2.386-3.062 8-6.285-2.408-3.339 8.722a2.638 2.638 0 001.72 3.746 8.225 8.225 0 003.636.416l-1.3 8.347a17.809 17.809 0 01-8.294-1.267c-5.5-2.1-9.466-6.521-5.969-15.152l3.342-8.722-4.434-1.7 3.062-8 4.434 1.7 2.362-6.17z"/></g><path data-name="Path 919" d="M55.232 27.255a5.627 5.627 0 013.492 7.471c-1.345 3.51-4.825 4.222-7.569 3.172-2.8-1.073-4.913-3.928-3.568-7.438 1.367-3.565 4.848-4.275 7.645-3.205z"/></g><g data-name="Group 1432" fill="#fff"><g data-name="Group 1431"><path data-name="Path 920" d="M12.734 56.759l7.372-19.243-4.714-1.8 3.05-7.965 4.714 1.8.516-1.345c3.116-8.136 10.568-8.948 16.288-6.757a15.139 15.139 0 014.959 3.1c.054.053 1.007.932 1.06.985l-4.2 6.616a8.445 8.445 0 00-3.388-2.235c-1.625-.623-3.471-.173-4.395 2.24L33.48 33.5l7.18 2.751-3.05 7.965-7.18-2.748-7.372 19.243z"/><path data-name="Path 921" d="M45.107 69.154l10.441-27.265-10.378-3.977-10.444 27.265z"/><path data-name="Path 922" d="M77.573 41.87l-2.824 7.372 6.226 2.386-3.062 8-6.285-2.408-3.339 8.722a2.638 2.638 0 001.72 3.746 8.225 8.225 0 003.636.416l-1.3 8.347a17.809 17.809 0 01-8.294-1.267c-5.5-2.1-9.466-6.521-5.969-15.152l3.342-8.722-4.434-1.7 3.062-8 4.434 1.7 2.362-6.17z"/></g><path data-name="Path 923" d="M55.232 27.255a5.627 5.627 0 013.492 7.471c-1.345 3.51-4.825 4.222-7.569 3.172-2.8-1.073-4.913-3.928-3.568-7.438 1.367-3.565 4.848-4.275 7.645-3.205z"/></g><g data-name="Group 1434" fill="#4fa2ff"><g data-name="Group 1433"><path data-name="Path 924" d="M12.734 56.759l7.372-19.243-4.714-1.8 3.05-7.965 4.714 1.8.516-1.345c3.116-8.136 10.568-8.948 16.288-6.757a15.139 15.139 0 014.959 3.1c.054.053 1.007.932 1.06.985l-4.2 6.616a8.445 8.445 0 00-3.388-2.235c-1.625-.623-3.471-.173-4.395 2.24L33.48 33.5l7.18 2.751-3.05 7.965-7.18-2.748-7.372 19.243z"/><path data-name="Path 925" d="M45.107 69.154l10.441-27.265-10.378-3.977-10.444 27.265z"/><path data-name="Path 926" d="M77.573 41.87l-2.824 7.372 6.226 2.386-3.062 8-6.285-2.408-3.339 8.722a2.638 2.638 0 001.72 3.746 8.225 8.225 0 003.636.416l-1.3 8.347a17.809 17.809 0 01-8.294-1.267c-5.5-2.1-9.466-6.521-5.969-15.152l3.342-8.722-4.434-1.7 3.062-8 4.434 1.7 2.362-6.17z"/></g><path data-name="Path 927" d="M55.232 27.255a5.627 5.627 0 013.492 7.471c-1.345 3.51-4.825 4.222-7.569 3.172-2.8-1.073-4.913-3.928-3.568-7.438 1.367-3.565 4.848-4.275 7.645-3.205z"/></g></g><g data-name="Group 1440"><path data-name="Path 928" d="M526.696 256.511c-3.636-.238-9.95 5.859-9.95 5.859-4.285 4.509-7.856 6.241-13.705 8.362a1.621 1.621 0 00-.659 2.583 20.675 20.675 0 012.828 4.249c-2.882 2.551-2.726 6.268-6.226 7.873-4.091 1.875-3.659 5.675-1.405 7.169l10.047 6.558" fill="none" stroke="#000" stroke-miterlimit="10" stroke-width="2"/><path data-name="Path 929" d="M523.367 280.069c3.145-1.369 7.2-2.629 6.115-5.886a6.791 6.791 0 00-2.145-2.743c-4.145-3.7-3.125-11.341-5.935-16.13s-4.366-13.691.829-17.641c4.419-3.361 14.649-5.336 16.43-.078a7.98 7.98 0 0113.8 5.665c5.034-1.374 6.6-1.518 11.015 1.265s6.329 9.962 3.429 14.3c14.257 0 19.367 10.344 14.892 18.677a23.1 23.1 0 01-18.451 12.025c3.658-.416 6.484 4.062 5.431 7.591s-4.731 5.723-8.372 6.278-3.2-.19-6.844-.679a79.756 79.756 0 00-21.873.1 9.517 9.517 0 011.982-6.652s.547.854 3.247-3.383c.766-1.2.294-6.693-.859-7.53-4.789-3.468-7.7-2.342-12.419 1.311-2.726-3.331.625-4.442-.272-6.49z"/><path data-name="Path 930" d="M543.515 300.424a23.576 23.576 0 00-6.149 23.726" fill="none" stroke="#000" stroke-miterlimit="10" stroke-width="2"/><path data-name="Path 931" d="M506.384 304.607c-4.7 5.986-2.057 19.543-2.057 19.543" fill="none" stroke="#000" stroke-miterlimit="10" stroke-width="2"/></g><path data-name="Line 84" fill="none" stroke="#000" stroke-miterlimit="10" stroke-width="2" d="M542.051 432.209l2.924 83.927"/><path data-name="Path 933" d="M469.072 608.88l65.953 66.756c21.989 23.1 40.4 26.209 60.775 13.022" fill="none" stroke="#000" stroke-miterlimit="10" stroke-width="2"/><path data-name="Path 934" d="M718.273 334.61l4.164 9.46-92.44 60.549-68.779 1.175" fill="none" stroke="#000" stroke-miterlimit="10" stroke-width="2"/><path data-name="Line 85" fill="none" stroke="#000" stroke-miterlimit="10" stroke-width="4" d="M639.603 358.936l75.662-31.158"/><path data-name="Line 86" fill="none" stroke="#000" stroke-miterlimit="10" stroke-width="2" d="M323.11 327.264l36.273 20.523"/><path data-name="Line 87" fill="none" stroke="#000" stroke-miterlimit="10" stroke-width="4" d="M392.153 327.777l-77.477-23.17"/><path data-name="Path 936" d="M747.026 622.577l24.185-13.067-20.548-16.2-13.567 10.457" fill="#fff" stroke="#000" stroke-miterlimit="10"/><path data-name="Path 937" d="M485.761 805.307l-5.8 35.171 23.8 10.867s4.2-37.306 5.277-46.038" fill="#fff" stroke="#000" stroke-miterlimit="10"/><path data-name="Path 938" d="M437.437 421.418q9.026 72.349 25.151 143.577" fill="none" stroke="#000" stroke-miterlimit="10" stroke-width="4"/><path data-name="Path 939" d="M496.989 512.894c13.576 2.466 27.116 8.175 35.95 18.774s11.8 26.761 4.509 38.48" fill="none" stroke="#000" stroke-miterlimit="10" stroke-width="6"/><path data-name="Path 940" d="M392.152 362.033c-4.633 3.417-11.062 6.817-16.809 6.467s-10.68-5-12.154-10.565" fill="none" stroke="#000" stroke-miterlimit="10"/><path data-name="Path 941" d="M626.743 410.066c3.5-.338 7.856-1.578 10.5-4.638s3.31-8.187 1.965-12.122" fill="none" stroke="#000" stroke-miterlimit="10"/><path data-name="Path 942" d="M531.604 327.261a86.225 86.225 0 0137 19.791" fill="none" stroke="#000" stroke-miterlimit="10" stroke-width="2"/><g data-name="Group 1443"><path data-name="Path 943" d="M234.824 245.584l-62.709-.24-33.49-85.526 62.346 16.353z" fill="#fff"/><g data-name="Group 1442" fill="none" stroke="#000" stroke-miterlimit="10"><g data-name="Group 1441"><path data-name="Path 944" d="M185.697 258.12a6.638 6.638 0 117.068-6.178" stroke-width="2.001"/><path data-name="Path 945" d="M196.426 259.26l84.446 11.905h0l-92.413-6.21" stroke-width="4.001"/><path data-name="Path 946" d="M146.379 156.795l35.528 89.214 4.45-1.765-36.238-86.928z" stroke-width="2.001"/></g><path data-name="Path 947" d="M160.445 161.285l58.158 19.405 18.571 68.372" stroke-width="2.001"/><path data-name="Path 948" d="M242.3 253.591c23.845 3.271 42.555 6.197 66.4 9.47a5.633 5.633 0 013.446 1.302l-1.544 11.62" stroke-width="2.001"/></g></g><path data-name="Path 949" d="M487.871 378.365c-5.365 1.471-21.7 6.234-40.921 4.409-2.337-.187-4.721-.455-7.143-.7-18.112-1.878-37.859-14.18-53.165-16.724" fill="none" stroke="#000" stroke-miterlimit="10" stroke-width="2"/><path data-name="Path 950" d="M409.888 324.731c13.326.917 28.058 1.783 40.53 2.493 5.691.3 10.9.6 15.318.825 2.449.153 27.175.54 27.175.54" fill="none" stroke="#000" stroke-miterlimit="10" stroke-width="2"/><path data-name="Path 951" d="M310.445 304.055a2.727 2.727 0 00-.377-.263c-11.9-5.806-18.618-15.953-28.714-23.976-.418-.331-.958-.671-1.447-.455a1.177 1.177 0 00-.542.6c-1.413 2.982 3.047 5.314 3.206 8-2.245-.136-4.568-2.043-6.759-2.775-4.079-1.364-34.846-16.094-39.051-16.923a1.717 1.717 0 00-1.576.207c-.567.572-.09 1.523.4 2.16 9.006 11.7 55.155 37 56.22 37.135 2.323 1.506 24.864 15.277 31.3 19.5" fill="none" stroke="#000" stroke-miterlimit="10" stroke-width="2"/><path data-name="Path 952" d="M715.265 327.778c4.341-2.452 4.838-3.172 7.632-4.684a2.627 2.627 0 01.348-.3c11.213-7.046 18.188-16.473 27.367-25.528.379-.375.883-.773 1.389-.611a1.189 1.189 0 01.606.545c1.724 2.812-7.853 11.388-7.727 14.073 2.218-.375 4.325-2.52 6.426-3.483 3.911-1.792 26.608-17.115 30.7-18.39a1.729 1.729 0 011.593.036c.622.508.251 1.506-.17 2.191-7.7 12.6-51.338 40.051-52.384 40.294-2.15 1.746-6.871 5.587-12.823 10.475" fill="none" stroke="#000" stroke-miterlimit="10" stroke-width="2"/><path data-name="Path 953" d="M566.98 351.376c20.413 6.822 35.483-3.587 63.015 11.385" fill="none" stroke="#000" stroke-miterlimit="10" stroke-width="2"/><path data-name="Path 954" d="M521.843 562.788c22.108 21.678 31.069 29.665 55.135 49.145" fill="none" stroke="#000" stroke-miterlimit="10" stroke-width="2"/><g data-name="Group 1451"><g data-name="Group 1450"><g data-name="Group 1449"><g data-name="Group 1448"><g data-name="Group 1447"><g data-name="Group 1446"><path data-name="Path 955" d="M439.004 860.189l70.261 1.223a13.249 13.249 0 00.983-4.589c.552-7.219-4.444-18.545-3.653-26.535.141-1.44.958-6.042.965-6.9.044-6.954-4.75-5.84-4.75-5.84-7.659 9.675-17.025-5.4-22.031-.5 0 0-.2.2-.652.674a81.181 81.181 0 00-1.895 2.1c-1.231 1.4-2.94 3.41-5.222 6.217-5.465 6.73-12.789 11.276-20.8 15.513a46.286 46.286 0 00-2.795 1.6c-.649.4-1.255.805-1.822 1.206-6.19 4.356-9.965 8.2-9.947 11.193a8.456 8.456 0 001.358 4.638z" fill="#effaff" stroke="#000" stroke-miterlimit="10"/></g></g></g></g></g></g><path data-name="Path 956" d="M511.594 831.942c-5.971-6.608-18.433-2.177-21.571 5.562-5.154 12.713 1.612 20.306 1.612 20.306" fill="none" stroke="#8bd3ff" stroke-miterlimit="10"/><g data-name="Group 1461"><g data-name="Group 1460"><g data-name="Group 1459"><g data-name="Group 1458"><g data-name="Group 1457"><g data-name="Group 1456"><g data-name="Group 1455"><g data-name="Group 1454"><g data-name="Group 1453"><g data-name="Group 1452"><path data-name="Path 957" d="M438.594 861.125l71.139 1.233a19.851 19.851 0 001-5.528l-73.661-1.3a13.723 13.723 0 001.522 5.595z"/></g></g></g></g></g></g></g></g></g></g><path data-name="Path 958" d="M449.605 839.186c8.3-2.928 22.9-9.179 30.551-16.626" fill="none" stroke="#8bd3ff" stroke-miterlimit="10"/><g data-name="Group 1537" transform="translate(735.546 568.285)"><g data-name="Group 1468"><g data-name="Group 1467"><g data-name="Group 1466"><g data-name="Group 1465"><g data-name="Group 1464"><g data-name="Group 1463"><g data-name="Group 1462"><path data-name="Path 959" d="M94.157 22.184L13.181 1.16a13.679 13.679 0 00-2.337 4.624c-2.447 7.335-1.328 8.274-2 16.086-.2 2.354-6.08.233-8.1 3.157-3.308 4.8 5.514 6.017 5.514 6.017 10.356.012 11.891 24.961 18.426 22.06 0 0 7.092-1.814 8.279-2.444 1.707-.9 6.9-3.2 10.191-5.086 8.063-4.636 20.078-5.956 30.49-7.783a65.21 65.21 0 003.731-.759c.88-.2 1.719-.426 2.515-.652 8.773-2.5 12.3-6.153 13.661-9.123a7.642 7.642 0 00.606-5.073z" fill="#effaff" stroke="#000" stroke-miterlimit="10"/></g></g></g></g></g></g></g><g data-name="Group 1526"><g data-name="Group 1478"><g data-name="Group 1477"><g data-name="Group 1476"><g data-name="Group 1475"><g data-name="Group 1474"><g data-name="Group 1473"><g data-name="Group 1472"><g data-name="Group 1471"><g data-name="Group 1470"><g data-name="Group 1469"><path data-name="Path 960" d="M43.132 40.013a1.405 1.405 0 00-1.581.769 1.514 1.514 0 00.516 2.016l4.7 2.68a1.374 1.374 0 001.892-.64 1.514 1.514 0 00-.516-2.016l-4.7-2.68a1.3 1.3 0 00-.311-.129z"/></g></g></g></g></g></g></g></g></g></g><g data-name="Group 1488"><g data-name="Group 1487"><g data-name="Group 1486"><g data-name="Group 1485"><g data-name="Group 1484"><g data-name="Group 1483"><g data-name="Group 1482"><g data-name="Group 1481"><g data-name="Group 1480"><g data-name="Group 1479"><path data-name="Path 961" d="M36.913 43.298a1.407 1.407 0 00-1.581.768 1.514 1.514 0 00.516 2.014l4.7 2.683a1.376 1.376 0 001.892-.642 1.515 1.515 0 00-.518-2.014l-4.7-2.683a1.266 1.266 0 00-.309-.126z"/></g></g></g></g></g></g></g></g></g></g><g data-name="Group 1498"><g data-name="Group 1497"><g data-name="Group 1496"><g data-name="Group 1495"><g data-name="Group 1494"><g data-name="Group 1493"><g data-name="Group 1492"><g data-name="Group 1491"><g data-name="Group 1490"><g data-name="Group 1489"><path data-name="Path 962" d="M49.021 38.126a1.409 1.409 0 00-1.581.769 1.515 1.515 0 00.518 2.014l4.7 2.683a1.375 1.375 0 001.892-.642 1.516 1.516 0 00-.516-2.014l-4.7-2.683a1.181 1.181 0 00-.313-.127z"/></g></g></g></g></g></g></g></g></g></g><g data-name="Group 1505"><g data-name="Group 1504"><g data-name="Group 1503"><g data-name="Group 1502"><g data-name="Group 1501"><g data-name="Group 1500"><g data-name="Group 1499"><path data-name="Path 963" d="M54.879 36.355a1.408 1.408 0 00-1.581.769 1.515 1.515 0 00.516 2.014l4.7 2.683a1.373 1.373 0 001.892-.642 1.517 1.517 0 00-.516-2.014l-4.7-2.683a1.266 1.266 0 00-.311-.127z"/></g></g></g></g></g></g></g><g data-name="Group 1515"><g data-name="Group 1514"><g data-name="Group 1513"><g data-name="Group 1512"><g data-name="Group 1511"><g data-name="Group 1510"><g data-name="Group 1509"><g data-name="Group 1508"><g data-name="Group 1507"><g data-name="Group 1506"><path data-name="Path 964" d="M61.136 34.939a1.405 1.405 0 00-1.581.766 1.519 1.519 0 00.516 2.016l4.7 2.68a1.376 1.376 0 001.892-.64 1.517 1.517 0 00-.518-2.016l-4.7-2.68a1.216 1.216 0 00-.309-.126z"/></g></g></g></g></g></g></g></g></g></g><g data-name="Group 1525"><g data-name="Group 1524"><g data-name="Group 1523"><g data-name="Group 1522"><g data-name="Group 1521"><g data-name="Group 1520"><g data-name="Group 1519"><g data-name="Group 1518"><g data-name="Group 1517"><g data-name="Group 1516"><path data-name="Path 965" d="M67.746 34.061a1.408 1.408 0 00-1.581.769 1.514 1.514 0 00.518 2.014l4.7 2.683a1.375 1.375 0 001.892-.642 1.512 1.512 0 00-.516-2.014l-4.7-2.683a1.27 1.27 0 00-.313-.127z"/></g></g></g></g></g></g></g></g></g></g></g><circle data-name="Ellipse 330" cx="4.706" cy="4.706" r="4.706" transform="translate(26.087 22.722)" fill="#8bd3ff"/><path data-name="Path 966" d="M12.003 27.428c2.313.282 10.264 1.81 13.416-4.794 2.045-4.283 1.895-8.615-2.522-15.289l-2.313-3.529" fill="none" stroke="#8bd3ff" stroke-miterlimit="10"/><path data-name="Path 967" d="M32.23 48.576s-4.706-9.425 2.921-10.843c4.665-.866 35.208-9.6 35.208-9.6l13 11.261" fill="none" stroke="#8bd3ff" stroke-miterlimit="10"/><g data-name="Group 1536"><g data-name="Group 1535"><g data-name="Group 1534"><g data-name="Group 1533"><g data-name="Group 1532"><g data-name="Group 1531"><g data-name="Group 1530"><g data-name="Group 1529"><g data-name="Group 1528"><g data-name="Group 1527"><path data-name="Path 968" d="M95.072 21.34L12.886.001a20.5 20.5 0 00-2.6 5.64l83.915 21.787a12.585 12.585 0 00.871-6.088z"/></g></g></g></g></g></g></g></g></g></g></g><path data-name="Path 969" d="M571.552 684.385l176.167-55.774-10.345-27.893-145.879 25.488" fill="none" stroke="#000" stroke-miterlimit="10" stroke-width="6"/><path data-name="Path 932" d="M484.49 638.352l-4.661 166.51h35.089l14.048-126.476" fill="none" stroke="#000" stroke-miterlimit="10" stroke-width="6"/></g></g><g data-name="Group 35727"><path data-name="Path 37481" d="M516.312 262.355l2.997 8.009s2.126-1.161 1.149-5.107-4.146-2.902-4.146-2.902z"/><g data-name="Group 35725" transform="rotate(48 1282.746 -610.867)"><circle data-name="Ellipse 358" cx="2.056" cy="2.056" r="2.056" transform="translate(1421.107 547.096)"/><path data-name="Line 102" fill="none" stroke="#000" stroke-miterlimit="10" d="M1420.463 551.807l4.535 1.879"/></g></g><g data-name="Group 35724" fill="none" stroke="#000" stroke-miterlimit="10" stroke-width="1.001"><path data-name="Path 37482" d="M530.496 285.025s7.938 1.577 5.165 6.138-6.51 6.322-8.539 4.625-1.582-2.466-1.582-2.466"/><path data-name="Path 37483" d="M528.097 289.267a2.838 2.838 0 011.492.438c.843.493 1.491 1.353.554 2.344l-1.526 1.624"/><path data-name="Path 37484" d="M533.718 289.262c-1.332-.804-2.716-1.185-4.128.442"/></g><g data-name="Group 35726"><path data-name="Line 103" fill="none" stroke="#000" stroke-miterlimit="10" d="M501.5 283.084l3 3"/><path data-name="Path 37485" d="M504.02 277.827c2.108-.418 1.59 2.546 2.435 3.707.604.828 2.528 3.443 4.655 2.688 0 0-3.952 2.936-6.574.44s-2.119-4.057-1.873-4.483z"/></g></g><path data-name="Path 39415" d="M865.792 866.66H0" fill="none" stroke="#fff" stroke-width="10"/></g></svg>