<svg xmlns="http://www.w3.org/2000/svg" width="1213" height="967.097"><g data-name="Group 1831"><g data-name="Group 1724"><g data-name="Group 1718"><g data-name="Group 1717"><g data-name="Group 1716"><g data-name="Group 1715"><g data-name="Group 1714"><path data-name="Rectangle 1325" d="M400.201 950.64h412.6a1.633 1.633 0 011.633 1.633v12.824h0-415.866 0v-12.824a1.633 1.633 0 011.633-1.633z" fill="#fff" stroke="#000" stroke-miterlimit="10" stroke-width="4"/></g></g></g></g></g><g data-name="Group 1723"><g data-name="Group 1722"><g data-name="Group 1721"><g data-name="Group 1720"><g data-name="Group 1719"><path data-name="Path 1029" d="M742.767 950.64H465.924l22.284-177.73h232.278z" fill="#fff" stroke="#000" stroke-miterlimit="10" stroke-width="4"/></g></g></g></g></g></g><g data-name="Group 1725"><path data-name="Path 1030" d="M1211 38.987v722.046a36.991 36.991 0 01-36.991 36.987H38.987A36.99 36.99 0 012 761.033V38.987A36.99 36.99 0 0138.987 2h1135.02c.557 0 1.1.009 1.642.036.406.018.8.036 1.2.073h.046c.287.018.574.046.857.082.484.036.953.1 1.432.169.315.037.616.082.93.146.146.018.3.046.443.073a8.78 8.78 0 01.9.178A37 37 0 011211 38.987z" fill="#fff" stroke="#000" stroke-miterlimit="10" stroke-width="4"/></g><g data-name="Group 1727"><g data-name="Group 1726"><path data-name="Path 1031" d="M1181.461 2.757a8.78 8.78 0 00-.9-.178 8.007 8.007 0 00-.443-.073 11.016 11.016 0 00-.93-.146 22.097 22.097 0 00-1.432-.169c-.283-.036-.57-.064-.857-.082h-.046c-.4-.036-.794-.055-1.2-.073a32.94 32.94 0 00-1.642-.036H38.987A36.99 36.99 0 002 38.987v645.436h1209V38.987a37 37 0 00-29.539-36.23zm-18.416 617.2a10.057 10.057 0 01-10.061 10.061H60.016a10.054 10.054 0 01-10.061-10.061V60.016a10.051 10.051 0 0110.061-10.061h1092.968a10.054 10.054 0 0110.061 10.061z"/></g></g><g data-name="Group 1728"><rect data-name="Rectangle 1326" width="1113.091" height="580.061" rx="2.206" fill="#e1e2e1" transform="translate(49.954 49.953)"/></g><g data-name="Group 1776"><g data-name="Group 1772" transform="translate(1125.984 678.553)"><circle data-name="Ellipse 337" cx="32.466" cy="32.466" fill="#fff" stroke="#f0f0f0" stroke-miterlimit="10" stroke-width=".1" r="32.466"/><path data-name="Path 1045" d="M14.135 36.18l4.433-9.755-2.39-1.086 1.833-4.041 2.39 1.085.31-.679c1.874-4.127 5.769-4.314 8.67-3a7.9 7.9 0 012.477 1.77l.52.543-2.39 3.3a4.427 4.427 0 00-1.687-1.268 1.681 1.681 0 00-2.353 1.026l-.31.684 3.639 1.651-1.833 4.041-3.644-1.656-4.433 9.76z" fill="#fff"/><path data-name="Path 1046" d="M30.549 43.642l6.28-13.828-5.263-2.39-6.28 13.823z" fill="#fff"/><path data-name="Path 1047" d="M48.262 30.502l-1.7 3.735 3.156 1.437-1.843 4.054-3.183-1.446-2.011 4.419a1.375 1.375 0 00.775 2 4.291 4.291 0 001.874.328l-.939 4.292a9.272 9.272 0 01-4.269-.917c-2.787-1.268-4.707-3.685-2.618-8.054l2.007-4.424-2.243-1.022 1.842-4.055 2.244 1.022 1.423-3.129z" fill="#fff"/><path data-name="Path 1048" d="M37.125 22.206a2.968 2.968 0 11-4.068 1.428 2.93 2.93 0 014.068-1.428z" fill="#fff"/><path data-name="Path 1049" d="M14.135 36.18l4.433-9.755-2.39-1.086 1.833-4.041 2.39 1.085.31-.679c1.874-4.127 5.769-4.314 8.67-3a7.9 7.9 0 012.477 1.77l.52.543-2.39 3.3a4.427 4.427 0 00-1.687-1.268 1.681 1.681 0 00-2.353 1.026l-.31.684 3.639 1.651-1.833 4.041-3.644-1.656-4.433 9.76z" fill="#fff"/><path data-name="Path 1050" d="M30.549 43.642l6.28-13.828-5.263-2.39-6.28 13.823z" fill="#fff"/><path data-name="Path 1051" d="M48.262 30.502l-1.7 3.735 3.156 1.437-1.843 4.054-3.183-1.446-2.011 4.419a1.375 1.375 0 00.775 2 4.291 4.291 0 001.874.328l-.939 4.292a9.272 9.272 0 01-4.269-.917c-2.787-1.268-4.707-3.685-2.618-8.054l2.007-4.424-2.243-1.022 1.842-4.055 2.244 1.022 1.423-3.129z" fill="#fff"/><path data-name="Path 1052" d="M37.125 22.206a2.968 2.968 0 11-4.068 1.428 2.93 2.93 0 014.068-1.428z" fill="#fff"/><circle data-name="Ellipse 338" cx="24.698" cy="24.698" transform="translate(7.768 7.768)" fill="#434bbe" r="24.698"/><path data-name="Path 1053" d="M14.135 36.18l4.433-9.755-2.39-1.086 1.833-4.041 2.39 1.085.31-.679c1.874-4.127 5.769-4.314 8.67-3a7.9 7.9 0 012.477 1.77l.52.543-2.39 3.3a4.427 4.427 0 00-1.687-1.268 1.681 1.681 0 00-2.353 1.026l-.31.684 3.639 1.651-1.833 4.041-3.644-1.656-4.433 9.76z" fill="#fff"/><path data-name="Path 1054" d="M30.549 43.642l6.28-13.828-5.263-2.39-6.28 13.823z" fill="#fff"/><path data-name="Path 1055" d="M48.262 30.502l-1.7 3.735 3.156 1.437-1.843 4.054-3.183-1.446-2.011 4.419a1.375 1.375 0 00.775 2 4.291 4.291 0 001.874.328l-.939 4.292a9.272 9.272 0 01-4.269-.917c-2.787-1.268-4.707-3.685-2.618-8.054l2.007-4.424-2.243-1.022 1.842-4.055 2.244 1.022 1.423-3.129z" fill="#fff"/><path data-name="Path 1056" d="M37.125 22.206a2.968 2.968 0 11-4.068 1.428 2.93 2.93 0 014.068-1.428z" fill="#fff"/></g><g data-name="Group 1773" transform="translate(1126.511 718.679)"><circle data-name="Ellipse 339" cx="32.466" cy="32.466" fill="#fff" stroke="#f0f0f0" stroke-miterlimit="10" stroke-width=".1" r="32.466"/><circle data-name="Ellipse 340" cx="25.332" cy="25.332" transform="translate(7.134 7.134)" fill="#36d399" r="25.332"/><path data-name="Path 1057" d="M23.377 49.364l-4.789-9.9-2.422 1.177-1.984-4.1 2.422-1.176-.333-.689c-2.025-4.182.379-7.379 3.32-8.8a8.052 8.052 0 013.019-.794c.041 0 .73-.055.771-.055l1.035 4.05a4.528 4.528 0 00-2.107.5 1.724 1.724 0 00-.734 2.526l.338.693 3.689-1.788 1.984 4.1-3.689 1.788 4.789 9.9z" fill="#fff"/><path data-name="Path 1058" d="M40.018 41.305l-6.786-14.019-5.34 2.586 6.786 14.019z" fill="#fff"/><path data-name="Path 1059" d="M41.273 18.716l1.833 3.79 3.2-1.551 1.993 4.114-3.234 1.564 2.171 4.483a1.411 1.411 0 002.085.7 4.356 4.356 0 001.491-1.263l2.768 3.553a9.393 9.393 0 01-3.521 2.764c-2.828 1.368-5.993 1.3-8.072-3.215l-2.171-4.483-2.276 1.1-1.993-4.109 2.281-1.1-1.537-3.174z" fill="#fff"/><path data-name="Path 1060" d="M27.431 22.064a3.044 3.044 0 11-1.546 4.146 3.007 3.007 0 011.546-4.146z" fill="#fff"/></g><g data-name="Group 1774" transform="translate(1068.814 703.257)"><circle data-name="Ellipse 341" cx="32.466" cy="32.466" fill="#fff" stroke="#f0f0f0" stroke-miterlimit="10" stroke-width=".1" r="32.466"/><circle data-name="Ellipse 342" cx="24.698" cy="24.698" transform="translate(7.768 7.768)" fill="#68b985" r="24.698"/><path data-name="Path 1061" d="M14.251 36.724l4.141-9.888-2.417-1.012 1.714-4.091 2.418 1.012.292-.689c1.751-4.182 5.637-4.483 8.579-3.252a7.939 7.939 0 012.526 1.7l.534.529-2.289 3.37a4.422 4.422 0 00-1.724-1.218 1.681 1.681 0 00-2.326 1.095l-.287.689 3.69 1.546-1.715 4.1-3.69-1.546-4.146 9.883z" fill="#fff"/><path data-name="Path 1062" d="M30.88 43.692l5.869-14.006-5.331-2.235-5.87 14.006z" fill="#fff"/><path data-name="Path 1063" d="M48.201 30.034l-1.592 3.79 3.2 1.341-1.724 4.1-3.224-1.35-1.879 4.478a1.373 1.373 0 00.83 1.975 4.26 4.26 0 001.888.274l-.816 4.319a9.24 9.24 0 01-4.287-.793c-2.828-1.181-4.816-3.544-2.859-7.972l1.879-4.478-2.28-.958 1.724-4.1 2.276.953 1.327-3.17z" fill="#fff"/><path data-name="Path 1064" d="M36.822 22.075a2.969 2.969 0 11-4.027 1.546 2.923 2.923 0 014.027-1.546z" fill="#fff"/><path data-name="Path 1065" d="M14.251 36.724l4.141-9.888-2.417-1.012 1.714-4.091 2.418 1.012.292-.689c1.751-4.182 5.637-4.483 8.579-3.252a7.939 7.939 0 012.526 1.7l.534.529-2.289 3.37a4.422 4.422 0 00-1.724-1.218 1.681 1.681 0 00-2.326 1.095l-.287.689 3.69 1.546-1.715 4.1-3.69-1.546-4.146 9.883z" fill="#fff"/><path data-name="Path 1066" d="M30.88 43.692l5.869-14.006-5.331-2.235-5.87 14.006z" fill="#fff"/><path data-name="Path 1067" d="M48.201 30.034l-1.592 3.79 3.2 1.341-1.724 4.1-3.224-1.35-1.879 4.478a1.373 1.373 0 00.83 1.975 4.26 4.26 0 001.888.274l-.816 4.319a9.24 9.24 0 01-4.287-.793c-2.828-1.181-4.816-3.544-2.859-7.972l1.879-4.478-2.28-.958 1.724-4.1 2.276.953 1.327-3.17z" fill="#fff"/><path data-name="Path 1068" d="M36.822 22.075a2.969 2.969 0 11-4.027 1.546 2.923 2.923 0 014.027-1.546z" fill="#fff"/><circle data-name="Ellipse 343" cx="24.698" cy="24.698" transform="translate(7.768 7.768)" fill="#389ee1" r="24.698"/><path data-name="Path 1069" d="M14.251 36.724l4.141-9.888-2.417-1.012 1.714-4.091 2.418 1.012.292-.689c1.751-4.182 5.637-4.483 8.579-3.252a7.939 7.939 0 012.526 1.7l.534.529-2.289 3.37a4.422 4.422 0 00-1.724-1.218 1.681 1.681 0 00-2.326 1.095l-.287.689 3.69 1.546-1.715 4.1-3.69-1.546-4.146 9.883z" fill="#fff"/><path data-name="Path 1070" d="M30.88 43.692l5.869-14.006-5.331-2.235-5.87 14.006z" fill="#fff"/><path data-name="Path 1071" d="M48.201 30.034l-1.592 3.79 3.2 1.341-1.724 4.1-3.224-1.35-1.879 4.478a1.373 1.373 0 00.83 1.975 4.26 4.26 0 001.888.274l-.816 4.319a9.24 9.24 0 01-4.287-.793c-2.828-1.181-4.816-3.544-2.859-7.972l1.879-4.478-2.28-.958 1.724-4.1 2.276.953 1.327-3.17z" fill="#fff"/><path data-name="Path 1072" d="M36.822 22.075a2.969 2.969 0 11-4.027 1.546 2.923 2.923 0 014.027-1.546z" fill="#fff"/></g><g data-name="Group 1775" transform="translate(1033.061 667.702)"><circle data-name="Ellipse 344" cx="32.466" cy="32.466" fill="#fff" stroke="#f0f0f0" stroke-miterlimit="10" stroke-width=".1" r="32.466"/><circle data-name="Ellipse 345" cx="24.698" cy="24.698" transform="translate(7.768 7.768)" fill="#68b985" r="24.698"/><path data-name="Path 1073" d="M19.097 45.549l-1.61-10.594-2.6.392-.666-4.387 2.6-.392-.11-.743c-.679-4.479 2.481-6.759 5.633-7.238a7.869 7.869 0 013.037.132l.734.173-.2 4.073a4.389 4.389 0 00-2.107-.146 1.683 1.683 0 00-1.414 2.144l.114.743 3.954-.6.666 4.387-3.954.6 1.605 10.594z" fill="#fff"/><path data-name="Path 1074" d="M36.915 42.845l-2.276-15.014-5.715.866L31.2 43.711z" fill="#fff"/><path data-name="Path 1075" d="M44.6 22.167l.616 4.059 3.43-.52.67 4.406-3.462.525.73 4.8a1.373 1.373 0 001.738 1.254 4.294 4.294 0 001.751-.748l1.555 4.109a9.3 9.3 0 01-4.077 1.56c-3.028.456-5.956-.52-6.59-5.322l-.73-4.8-2.44.369-.666-4.4 2.44-.374-.516-3.393z" fill="#fff"/><path data-name="Path 1076" d="M30.743 21.296a2.968 2.968 0 11-2.636 3.411 2.923 2.923 0 012.636-3.411z" fill="#fff"/><path data-name="Path 1077" d="M19.097 45.549l-1.61-10.594-2.6.392-.666-4.387 2.6-.392-.11-.743c-.679-4.479 2.481-6.759 5.633-7.238a7.869 7.869 0 013.037.132l.734.173-.2 4.073a4.389 4.389 0 00-2.107-.146 1.683 1.683 0 00-1.414 2.144l.114.743 3.954-.6.666 4.387-3.954.6 1.605 10.594z" fill="#fff"/><path data-name="Path 1078" d="M36.915 42.845l-2.276-15.014-5.715.866L31.2 43.711z" fill="#fff"/><path data-name="Path 1079" d="M44.6 22.167l.616 4.059 3.43-.52.67 4.406-3.462.525.73 4.8a1.373 1.373 0 001.738 1.254 4.294 4.294 0 001.751-.748l1.555 4.109a9.3 9.3 0 01-4.077 1.56c-3.028.456-5.956-.52-6.59-5.322l-.73-4.8-2.44.369-.666-4.4 2.44-.374-.516-3.393z" fill="#fff"/><path data-name="Path 1080" d="M30.743 21.296a2.968 2.968 0 11-2.636 3.411 2.923 2.923 0 012.636-3.411z" fill="#fff"/><circle data-name="Ellipse 346" cx="24.698" cy="24.698" transform="translate(7.768 7.768)" fill="#e54d3a" r="24.698"/><path data-name="Path 1081" d="M19.097 45.549l-1.61-10.594-2.6.392-.666-4.387 2.6-.392-.11-.743c-.679-4.479 2.481-6.759 5.633-7.238a7.869 7.869 0 013.037.132l.734.173-.2 4.073a4.389 4.389 0 00-2.107-.146 1.683 1.683 0 00-1.414 2.144l.114.743 3.954-.6.666 4.387-3.954.6 1.605 10.594z" fill="#fff"/><path data-name="Path 1082" d="M36.915 42.845l-2.276-15.014-5.715.866L31.2 43.711z" fill="#fff"/><path data-name="Path 1083" d="M44.6 22.167l.616 4.059 3.43-.52.67 4.406-3.462.525.73 4.8a1.373 1.373 0 001.738 1.254 4.294 4.294 0 001.751-.748l1.555 4.109a9.3 9.3 0 01-4.077 1.56c-3.028.456-5.956-.52-6.59-5.322l-.73-4.8-2.44.369-.666-4.4 2.44-.374-.516-3.393z" fill="#fff"/><path data-name="Path 1084" d="M30.743 21.296a2.968 2.968 0 11-2.636 3.411 2.923 2.923 0 012.636-3.411z" fill="#fff"/></g></g><g data-name="Group 1777" transform="translate(57.371 669.937)"><path data-name="Path 1085" d="M143.597.074a36.08 36.08 0 00-25.031 12.432l-15.055-9.363-3.835 5.765c-.611-.018-1.222 0-1.824.036a22.252 22.252 0 00-14.134 5.993 17.154 17.154 0 00-12.565-4.091c-2.075.132-34.734 2.271-37.753 2.463a19.955 19.955 0 00-7.817 2.112l-.721-11.288L-.003 5.72l3.224 50.5 76.71-4.9a17.361 17.361 0 004.584 7.247c2.841 2.668 8.045 5.733 16.737 5.181 6.522-.42 11.848-2.663 15.451-6.212A36.182 36.182 0 10143.593.067z" fill="#fff" stroke="#f0f0f0" stroke-miterlimit="10" stroke-width=".1"/><path data-name="Path 1086" d="M17.435 12.58l2.212 34.626-8.989.575-2.212-34.624z" fill="#3a3936"/><path data-name="Path 1087" d="M73.591 43.761l-.862-13.486c-.192-3.015-1.989-3.94-3.667-3.836-2.175.141-4.1 1.751-3.9 4.962l.821 12.843-8.989.575-1.56-24.4 8.05-.515.565 2.641a9.949 9.949 0 017.5-3.753c5.14-.278 9.71 2.162 10.266 10.854l.867 13.531z" fill="#3a3936"/><path data-name="Path 1088" d="M41.552 21.304l-.278 2.645c-1.409-1.893-3.908-2.923-7.366-2.7-7.11.456-11.5 6.294-11.041 13.5.456 7.115 4.78 11.944 11.972 11.931a10.07 10.07 0 007.858-3.576l.561 2.6 8.4-.538-1.56-24.4zm-4.415 17.891c-2.714.173-5.012-1.614-5.231-5.026s1.833-5.523 4.547-5.7c3.211-.205 5.177 1.8 5.382 5.062a5.076 5.076 0 01-4.698 5.665z" fill="#3a3936"/><path data-name="Path 1089" d="M108.621 37.011a10.3 10.3 0 003.931-8.387 9.174 9.174 0 00-2.741-6.422l2.919-3.959-6.868-4.273c-.725 1.09-1.633 2.385-2.4 3.525a15.022 15.022 0 00-5.1-.616c-7.557.483-13.276 5.71-12.784 13.367.479 7.557 6.166 11.953 14.366 11.434 3.252-.21 4.451 1.149 4.6 2.882a3.558 3.558 0 01-3.033 3.749c-2.8.442-5.952.246-6.12-4.21l-8.547.547c-.018 7.489 5.167 11.721 13.91 11.164 6.964-.447 13.641-3.849 13.135-11.753-.092-1.329-.607-4.767-5.268-7.048zm-9.158-2.841a4.585 4.585 0 01-5.049-4.488c-.205-3.261 1.756-5.172 4.419-5.34a4.764 4.764 0 014.916 4.743 4.412 4.412 0 01-4.286 5.085z" fill="#3a3936"/><circle data-name="Ellipse 347" cx="28.236" cy="28.236" transform="translate(117.667 7.956)" fill="#68b985" r="28.236"/><path data-name="Path 1090" d="M129.413 49.808l-.78-12.227-3 .192-.324-5.062 3-.192-.055-.857c-.333-5.167 3.493-7.452 7.133-7.685a9.037 9.037 0 013.448.451l.816.269-.634 4.615a5.023 5.023 0 00-2.385-.369 1.921 1.921 0 00-1.82 2.3l.055.853 4.561-.292.324 5.063-4.561.292.78 12.227z" fill="#fff"/><path data-name="Path 1091" d="M149.982 48.495l-1.1-17.326-6.6.424 1.108 17.321z" fill="#fff"/><path data-name="Path 1092" d="M160.776 25.705l.3 4.684 3.959-.251.324 5.081-4 .255.356 5.541a1.568 1.568 0 001.856 1.6 4.959 4.959 0 002.071-.675l1.363 4.834a10.651 10.651 0 01-4.8 1.368c-3.493.224-6.736-1.181-6.983-6.713l-.351-5.541-2.818.178-.324-5.08 2.819-.178-.251-3.922z" fill="#fff"/><path data-name="Path 1093" d="M145.083 23.339a3.393 3.393 0 11-3.338 3.626 3.339 3.339 0 013.338-3.626z" fill="#fff"/><path data-name="Path 1094" d="M17.435 12.58l2.212 34.626-8.989.575-2.212-34.624z" fill="#3a3936"/><path data-name="Path 1095" d="M73.591 43.761l-.862-13.486c-.192-3.015-1.989-3.94-3.667-3.836-2.175.141-4.1 1.751-3.9 4.962l.821 12.843-8.989.575-1.56-24.4 8.05-.515.565 2.641a9.949 9.949 0 017.5-3.753c5.14-.278 9.71 2.162 10.266 10.854l.867 13.531z" fill="#3a3936"/><path data-name="Path 1096" d="M41.552 21.304l-.278 2.645c-1.409-1.893-3.908-2.923-7.366-2.7-7.11.456-11.5 6.294-11.041 13.5.456 7.115 4.78 11.944 11.972 11.931a10.07 10.07 0 007.858-3.576l.561 2.6 8.4-.538-1.56-24.4zm-4.415 17.891c-2.714.173-5.012-1.614-5.231-5.026s1.833-5.523 4.547-5.7c3.211-.205 5.177 1.8 5.382 5.062a5.076 5.076 0 01-4.698 5.665z" fill="#3a3936"/><path data-name="Path 1097" d="M108.621 37.011a10.3 10.3 0 003.931-8.387 9.174 9.174 0 00-2.741-6.422l2.919-3.959-6.868-4.273c-.725 1.09-1.633 2.385-2.4 3.525a15.022 15.022 0 00-5.1-.616c-7.557.483-13.276 5.71-12.784 13.367.479 7.557 6.166 11.953 14.366 11.434 3.252-.21 4.451 1.149 4.6 2.882a3.558 3.558 0 01-3.033 3.749c-2.8.442-5.952.246-6.12-4.21l-8.547.547c-.018 7.489 5.167 11.721 13.91 11.164 6.964-.447 13.641-3.849 13.135-11.753-.092-1.329-.607-4.767-5.268-7.048zm-9.158-2.841a4.585 4.585 0 01-5.049-4.488c-.205-3.261 1.756-5.172 4.419-5.34a4.764 4.764 0 014.916 4.743 4.412 4.412 0 01-4.286 5.085z" fill="#3a3936"/><circle data-name="Ellipse 348" cx="28.236" cy="28.236" transform="translate(117.667 7.956)" fill="#68b985" r="28.236"/><path data-name="Path 1098" d="M129.413 49.808l-.78-12.227-3 .192-.324-5.062 3-.192-.055-.857c-.333-5.167 3.493-7.452 7.133-7.685a9.037 9.037 0 013.448.451l.816.269-.634 4.615a5.023 5.023 0 00-2.385-.369 1.921 1.921 0 00-1.82 2.3l.055.853 4.561-.292.324 5.063-4.561.292.78 12.227z" fill="#fff"/><path data-name="Path 1099" d="M149.982 48.495l-1.1-17.326-6.6.424 1.108 17.321z" fill="#fff"/><path data-name="Path 1100" d="M160.776 25.705l.3 4.684 3.959-.251.324 5.081-4 .255.356 5.541a1.568 1.568 0 001.856 1.6 4.959 4.959 0 002.071-.675l1.363 4.834a10.651 10.651 0 01-4.8 1.368c-3.493.224-6.736-1.181-6.983-6.713l-.351-5.541-2.818.178-.324-5.08 2.819-.178-.251-3.922z" fill="#fff"/><path data-name="Path 1101" d="M145.083 23.339a3.393 3.393 0 11-3.338 3.626 3.339 3.339 0 013.338-3.626z" fill="#fff"/><path data-name="Path 1102" d="M17.435 12.58l2.212 34.626-8.989.575-2.212-34.624z" fill="#3a3936"/><path data-name="Path 1103" d="M73.591 43.761l-.862-13.486c-.192-3.015-1.989-3.94-3.667-3.836-2.175.141-4.1 1.751-3.9 4.962l.821 12.843-8.989.575-1.56-24.4 8.05-.515.565 2.641a9.949 9.949 0 017.5-3.753c5.14-.278 9.71 2.162 10.266 10.854l.867 13.531z" fill="#3a3936"/><path data-name="Path 1104" d="M41.552 21.304l-.278 2.645c-1.409-1.893-3.908-2.923-7.366-2.7-7.11.456-11.5 6.294-11.041 13.5.456 7.115 4.78 11.944 11.972 11.931a10.07 10.07 0 007.858-3.576l.561 2.6 8.4-.538-1.56-24.4zm-4.415 17.891c-2.714.173-5.012-1.614-5.231-5.026s1.833-5.523 4.547-5.7c3.211-.205 5.177 1.8 5.382 5.062a5.076 5.076 0 01-4.698 5.665z" fill="#3a3936"/><path data-name="Path 1105" d="M108.621 37.011a10.3 10.3 0 003.931-8.387 9.174 9.174 0 00-2.741-6.422l2.919-3.959-6.868-4.273c-.725 1.09-1.633 2.385-2.4 3.525a15.022 15.022 0 00-5.1-.616c-7.557.483-13.276 5.71-12.784 13.367.479 7.557 6.166 11.953 14.366 11.434 3.252-.21 4.451 1.149 4.6 2.882a3.558 3.558 0 01-3.033 3.749c-2.8.442-5.952.246-6.12-4.21l-8.547.547c-.018 7.489 5.167 11.721 13.91 11.164 6.964-.447 13.641-3.849 13.135-11.753-.092-1.329-.607-4.767-5.268-7.048zm-9.158-2.841a4.585 4.585 0 01-5.049-4.488c-.205-3.261 1.756-5.172 4.419-5.34a4.764 4.764 0 014.916 4.743 4.412 4.412 0 01-4.286 5.085z" fill="#3a3936"/><circle data-name="Ellipse 349" cx="28.236" cy="28.236" transform="translate(117.667 7.956)" fill="#36d399" r="28.236"/><path data-name="Path 1106" d="M129.413 49.808l-.78-12.227-3 .192-.324-5.062 3-.192-.055-.857c-.333-5.167 3.493-7.452 7.133-7.685a9.037 9.037 0 013.448.451l.816.269-.634 4.615a5.023 5.023 0 00-2.385-.369 1.921 1.921 0 00-1.82 2.3l.055.853 4.561-.292.324 5.063-4.561.292.78 12.227z" fill="#fff"/><path data-name="Path 1107" d="M149.982 48.495l-1.1-17.326-6.6.424 1.108 17.321z" fill="#fff"/><path data-name="Path 1108" d="M160.776 25.705l.3 4.684 3.959-.251.324 5.081-4 .255.356 5.541a1.568 1.568 0 001.856 1.6 4.959 4.959 0 002.071-.675l1.363 4.834a10.651 10.651 0 01-4.8 1.368c-3.493.224-6.736-1.181-6.983-6.713l-.351-5.541-2.818.178-.324-5.08 2.819-.178-.251-3.922z" fill="#fff"/><path data-name="Path 1109" d="M145.083 23.339a3.393 3.393 0 11-3.338 3.626 3.339 3.339 0 013.338-3.626z" fill="#fff"/></g><g data-name="Group 1830"><path data-name="Path 1134" d="M664.187 745.106a24.99 24.99 0 00-3.881-19.146 21.037 21.037 0 001.042-12.085 22.37 22.37 0 00-11.157-14.978 22.609 22.609 0 00-15.843-14.794 26.268 26.268 0 00-1.45-.342 23.029 23.029 0 00-13.075 1.122 21.8 21.8 0 00-10.969-6.025l-.237-.05h-.041a21.569 21.569 0 00-19.552 5.792 24.484 24.484 0 00-14.567 5.714 22.6 22.6 0 00-7.853 15.638 25.35 25.35 0 00-11.876 16.592 25 25 0 003.881 19.141 21.042 21.042 0 00-1.044 12.086 22.376 22.376 0 0011.165 14.982 22.82 22.82 0 0017.171 15.123c.123.023.246.046.369.064.543.1 1.1.187 1.7.255.178.018.342.032.492.046.593.059 1.2.091 1.774.1h.219a23.055 23.055 0 008.629-1.578 21.747 21.747 0 0011.009 6.029h.046l.187.036a21.619 21.619 0 0015.73-2.723 20.435 20.435 0 003.84-3.047 24.006 24.006 0 0014.567-5.728 22.636 22.636 0 007.849-15.638 25.373 25.373 0 0011.875-16.586z" fill="#fff" stroke="#f0f0f0" stroke-miterlimit="10" stroke-width=".1"/><path data-name="Path 1135" d="M653.999 743.027a16.791 16.791 0 00-5.5-15.967 12.8 12.8 0 002.8-10.932 13.761 13.761 0 00-9.892-10.374 13.475 13.475 0 00-10.152-12.118 14.129 14.129 0 00-6.061-.292 13.408 13.408 0 00-6.659 3.174 1.506 1.506 0 01-2.367-.511 12.519 12.519 0 00-8.926-7.3l-.146-.027a12.349 12.349 0 00-13.271 5.874 15.45 15.45 0 00-12.5 3.393 14.033 14.033 0 00-4.57 13.951 16.982 16.982 0 00-11.835 12.711 16.8 16.8 0 005.5 15.971 12.772 12.772 0 00-2.8 10.928 13.767 13.767 0 009.892 10.38 13.513 13.513 0 0010.941 12.314l.109.018c.379.073.762.128 1.14.173l.3.027c.374.036.748.059 1.122.064h.1a13.688 13.688 0 009.057-3.27 1.629 1.629 0 012.54.584 11.96 11.96 0 001.044 1.884 12.554 12.554 0 007.822 5.245l.146.032a12.574 12.574 0 009.144-1.587 11.729 11.729 0 004.128-4.292 15.39 15.39 0 0012.5-3.393 14.025 14.025 0 004.569-13.947 17 17 0 0011.825-12.713z" fill="#36d399"/><path data-name="Path 1136" d="M595.417 740.115l1.715-8.433-2.153-.438.711-3.494 2.153.442.119-.593c.725-3.562 3.854-4.387 6.471-3.854a5.733 5.733 0 013.548 2.1l-1.993 2.44a2.663 2.663 0 00-1.6-.94 1.374 1.374 0 00-1.715 1.213l-.119.588 3.279.666-.712 3.493-3.279-.67-1.715 8.433z" fill="#3a3936"/><path data-name="Path 1137" d="M611.416 725.09a2.349 2.349 0 11-3.129 1.742 2.449 2.449 0 013.129-1.742zm-1.213 18.035l2.431-11.949-4.738-.967-2.435 11.949z" fill="#3a3936"/><path data-name="Path 1138" d="M621.96 729.282l-.716 3.516 2.846.579-.707 3.466-2.868-.584-.812 3.981a1.129 1.129 0 001.017 1.437 2.824 2.824 0 001.468-.137l.347 3.553a7.653 7.653 0 01-3.8.068c-2.513-.511-4.542-2.075-3.694-5.87l.812-3.981-2.025-.415.707-3.466 2.025.415.616-3.024z" fill="#3a3936"/><path data-name="Path 1139" d="M656.785 743.593a19.242 19.242 0 00-4.634-16.788 15.349 15.349 0 001.93-11.169 16.456 16.456 0 00-10.064-11.871 16.273 16.273 0 00-12.04-12.756 16.955 16.955 0 00-7.329-.351 16.323 16.323 0 00-6.663 2.736 15.424 15.424 0 00-10.143-7.338l-.205-.046a15.4 15.4 0 00-15.287 5.646 18.352 18.352 0 00-12.934 4.241 16.69 16.69 0 00-5.81 14.22 19.513 19.513 0 00-11.474 13.928 19.24 19.24 0 004.633 16.788 15.352 15.352 0 00-1.929 11.169 16.446 16.446 0 0010.061 11.871 16.393 16.393 0 0013.011 13l.2.032c.411.077.84.146 1.323.2.114.014.233.023.342.032.456.046.912.068 1.327.073h.141a16.606 16.606 0 009.682-2.969c.178.305.365.607.561.9a15.445 15.445 0 009.623 6.444l.178.036a15.468 15.468 0 0011.242-1.947 14.649 14.649 0 004.05-3.69 18.038 18.038 0 0012.93-4.251 16.7 16.7 0 005.805-14.22 19.5 19.5 0 0011.473-13.92zm-15.511 9.541l-2.449.739.57 2.431a11.423 11.423 0 01-3.708 11.333 12.591 12.591 0 01-10.152 2.755l-1.856-.31a1.43 1.43 0 01-.251-.246 1.279 1.279 0 01-.256-.967 1.328 1.328 0 011.533-1.072 1.491 1.491 0 01.424.137l2.613-4.807a7.35 7.35 0 00-2.216-.721 6.872 6.872 0 00-7.967 5.587 6.578 6.578 0 001.318 5.035 7.083 7.083 0 001.432 1.4 9.488 9.488 0 01-.894.634 9.714 9.714 0 01-7.046 1.222l-.114-.027a9.664 9.664 0 01-6.024-4.036 9.3 9.3 0 01-.807-1.46 4.517 4.517 0 00-3.147-2.554l-.087-.018a4.494 4.494 0 00-3.831.981 10.846 10.846 0 01-7.146 2.581h-.1c-.287 0-.584-.023-.912-.05l-.21-.023c-.333-.037-.63-.082-.93-.141l-.141-.027a10.65 10.65 0 01-8.574-9.723l-.068-1.245a2.623 2.623 0 011.113-1.683 2.842 2.842 0 011.956-.5 2.035 2.035 0 011.4.766l4.57-3.17a7.821 7.821 0 00-5.345-3.015 8.576 8.576 0 00-5.952 1.473 8.1 8.1 0 00-2.846 3.457 10.728 10.728 0 01-4.775-6.855 10.167 10.167 0 012.225-8.688l1.683-1.984-1.989-1.76a13.92 13.92 0 013.325-23.314c.133.164.265.328.406.488a10.627 10.627 0 005.811 3.316 11.784 11.784 0 001.336.187 10.471 10.471 0 007.544-2.344 9.747 9.747 0 00.967-14.124 10.635 10.635 0 00-2.248-1.888l-3.046 4.561a4.763 4.763 0 011.026.862 4.433 4.433 0 01-.438 6.421 4.755 4.755 0 01-3.434 1.067 4.854 4.854 0 01-3.247-1.592 10.485 10.485 0 01-.866-1.282A11.411 11.411 0 01583.225 700a12.617 12.617 0 0110.166-2.75l1.989.324.944-1.692a9.57 9.57 0 0110.225-4.529l.109.023a9.635 9.635 0 016.877 5.623 4.331 4.331 0 003.056 2.513 4.416 4.416 0 003.885-.976 10.577 10.577 0 015.254-2.5 11.1 11.1 0 014.811.237 10.58 10.58 0 018.023 9.577l.109 1.975 1.975.552a10.917 10.917 0 017.863 8.246 10.139 10.139 0 01-.739 6.33 9.43 9.43 0 00-3.046-1.049 9.2 9.2 0 00-6.764 1.5 8.431 8.431 0 00-3.406 9.223l5.491-1.3a3.169 3.169 0 011.286-3.471 3.467 3.467 0 012.544-.565 3.62 3.62 0 011.2.433l1.514 1.336a14.033 14.033 0 014.62 13.4 14.21 14.21 0 01-9.937 10.674z" fill="#2a2927"/></g></g></svg>