<svg xmlns="http://www.w3.org/2000/svg" width="600.305" height="252.427" viewBox="0 0 600.305 252.427">
  <g id="Group_36160" data-name="Group 36160" transform="translate(-1042.695 -4926.403)">
    <g id="Group_36116" data-name="Group 36116">
      <g id="Group_35819" data-name="Group 35819" transform="translate(1047 1031)">
        <path id="Path_37540" data-name="Path 37540" d="M600.3,0H0" transform="translate(-4.305 4142.83)" fill="none" stroke="#4fa2ff" stroke-width="10"/>
        <g id="Group_35790" data-name="Group 35790" transform="translate(-154.004 3729.939)">
          <g id="Group_35779" data-name="Group 35779" transform="translate(530.686 353.455)">
            <path id="Path_37514" data-name="Path 37514" d="M422.764,341.832l100.28,14.758L519.4,376.044,432.917,372.7" transform="translate(-422.764 -341.832)" fill="none" stroke="#000" stroke-miterlimit="10" stroke-width="1"/>
            <path id="Path_37515" data-name="Path 37515" d="M489.459,355.3l14.163,1.015,24.892-7.2,7.228-4.169,1.247,3.71-35.657,27.88-5.114-5.978-6.265-1.82" transform="translate(-389.943 -340.299)" fill="none" stroke="#000" stroke-miterlimit="10" stroke-width="1"/>
          </g>
          <g id="Group_35786" data-name="Group 35786" transform="translate(611.401 318.212)">
            <circle id="Ellipse_361" data-name="Ellipse 361" cx="46.512" cy="46.512" r="46.512" fill="#4fa2ff"/>
            <g id="Group_35781" data-name="Group 35781" transform="translate(13.156 23.721)">
              <g id="Group_35780" data-name="Group 35780">
                <path id="Path_37516" data-name="Path 37516" d="M488.532,374.531l2.062-20.078-4.918-.506.853-8.311,4.918.5.143-1.4c.871-8.487,7.711-11.156,13.683-10.543a14.793,14.793,0,0,1,5.479,1.671c.066.036,1.191.624,1.255.66l-2.287,7.329a8.256,8.256,0,0,0-3.774-1.252c-1.7-.173-3.327.724-3.586,3.241l-.143,1.4,7.492.77-.854,8.311-7.492-.768L499.3,375.637Z" transform="translate(-485.676 -334.11)" fill="#fff"/>
                <path id="Path_37517" data-name="Path 37517" d="M513.8,373.273l2.92-28.447-10.828-1.112-2.92,28.447Z" transform="translate(-477.166 -329.383)" fill="#fff"/>
                <path id="Path_37518" data-name="Path 37518" d="M531.741,340.681l-.789,7.693,6.5.667-.857,8.344-6.556-.673-.934,9.1a2.583,2.583,0,0,0,2.58,3.1,8.084,8.084,0,0,0,3.547-.533l.9,8.224a17.43,17.43,0,0,1-8.166.918c-5.737-.588-10.616-3.753-9.509-12.807l.934-9.1-4.625-.476.856-8.342,4.626.474.661-6.437Z" transform="translate(-471.365 -330.876)" fill="#fff"/>
              </g>
              <path id="Path_37519" data-name="Path 37519" d="M511.607,335.25a5.509,5.509,0,0,1,5.209,6.177c-.374,3.66-3.484,5.224-6.349,4.93-2.919-.3-5.646-2.462-5.27-6.122C505.579,336.511,508.69,334.95,511.607,335.25Z" transform="translate(-476.087 -333.566)" fill="#fff"/>
            </g>
            <g id="Group_35783" data-name="Group 35783" transform="translate(13.156 23.721)">
              <g id="Group_35782" data-name="Group 35782">
                <path id="Path_37520" data-name="Path 37520" d="M488.532,374.531l2.062-20.078-4.918-.506.853-8.311,4.918.5.143-1.4c.871-8.487,7.711-11.156,13.683-10.543a14.793,14.793,0,0,1,5.479,1.671c.066.036,1.191.624,1.255.66l-2.287,7.329a8.256,8.256,0,0,0-3.774-1.252c-1.7-.173-3.327.724-3.586,3.241l-.143,1.4,7.492.77-.854,8.311-7.492-.768L499.3,375.637Z" transform="translate(-485.676 -334.11)" fill="#fff"/>
                <path id="Path_37521" data-name="Path 37521" d="M513.8,373.273l2.92-28.447-10.828-1.112-2.92,28.447Z" transform="translate(-477.166 -329.383)" fill="#fff"/>
                <path id="Path_37522" data-name="Path 37522" d="M531.741,340.681l-.789,7.693,6.5.667-.857,8.344-6.556-.673-.934,9.1a2.583,2.583,0,0,0,2.58,3.1,8.084,8.084,0,0,0,3.547-.533l.9,8.224a17.43,17.43,0,0,1-8.166.918c-5.737-.588-10.616-3.753-9.509-12.807l.934-9.1-4.625-.476.856-8.342,4.626.474.661-6.437Z" transform="translate(-471.365 -330.876)" fill="#fff"/>
              </g>
              <path id="Path_37523" data-name="Path 37523" d="M511.607,335.25a5.509,5.509,0,0,1,5.209,6.177c-.374,3.66-3.484,5.224-6.349,4.93-2.919-.3-5.646-2.462-5.27-6.122C505.579,336.511,508.69,334.95,511.607,335.25Z" transform="translate(-476.087 -333.566)" fill="#fff"/>
            </g>
            <g id="Group_35785" data-name="Group 35785" transform="translate(13.156 23.721)">
              <g id="Group_35784" data-name="Group 35784">
                <path id="Path_37524" data-name="Path 37524" d="M488.532,374.531l2.062-20.078-4.918-.506.853-8.311,4.918.5.143-1.4c.871-8.487,7.711-11.156,13.683-10.543a14.793,14.793,0,0,1,5.479,1.671c.066.036,1.191.624,1.255.66l-2.287,7.329a8.256,8.256,0,0,0-3.774-1.252c-1.7-.173-3.327.724-3.586,3.241l-.143,1.4,7.492.77-.854,8.311-7.492-.768L499.3,375.637Z" transform="translate(-485.676 -334.11)" fill="#fff"/>
                <path id="Path_37525" data-name="Path 37525" d="M513.8,373.273l2.92-28.447-10.828-1.112-2.92,28.447Z" transform="translate(-477.166 -329.383)" fill="#fff"/>
                <path id="Path_37526" data-name="Path 37526" d="M531.741,340.681l-.789,7.693,6.5.667-.857,8.344-6.556-.673-.934,9.1a2.583,2.583,0,0,0,2.58,3.1,8.084,8.084,0,0,0,3.547-.533l.9,8.224a17.43,17.43,0,0,1-8.166.918c-5.737-.588-10.616-3.753-9.509-12.807l.934-9.1-4.625-.476.856-8.342,4.626.474.661-6.437Z" transform="translate(-471.365 -330.876)" fill="#fff"/>
              </g>
              <path id="Path_37527" data-name="Path 37527" d="M511.607,335.25a5.509,5.509,0,0,1,5.209,6.177c-.374,3.66-3.484,5.224-6.349,4.93-2.919-.3-5.646-2.462-5.27-6.122C505.579,336.511,508.69,334.95,511.607,335.25Z" transform="translate(-476.087 -333.566)" fill="#fff"/>
            </g>
          </g>
          <path id="Path_37528" data-name="Path 37528" d="M356.064,354.726c-32.838-.248-110.237-9.126-115.276,15.29-1.711,8.295-.819,13.58,6.435,17.953,6.852,4.13,48.4,3.894,62.633,4.487,14.554.6,45.587-5.037,60.89-4.241,20.015,1.041,35.312,3.6,49.877,3.747,25.812.266,80.225-5.81,80.225-5.81" transform="translate(18.004 17.096)" fill="none" stroke="#000" stroke-miterlimit="10" stroke-width="4"/>
          <g id="Group_35787" data-name="Group 35787" transform="translate(203.459 371.574)">
            <path id="Path_37529" data-name="Path 37529" d="M214.572,362.163c1.058-1.97,6.283-3.271,6.283-3.271a21.044,21.044,0,0,0,9.39-4.543.994.994,0,0,1,1.558.5,17.994,17.994,0,0,0,1.425,3.435c2.265-.67,7.327-1.856,9.535-2.692a1.674,1.674,0,0,1,2.222,1.92l-1.74,8.157" transform="translate(-197.99 -353.893)" fill="none" stroke="#000" stroke-miterlimit="10" stroke-width="1"/>
            <path id="Path_37530" data-name="Path 37530" d="M233.379,368.174c-1.737,1.191-7.656,4.412-9,2.79a4.183,4.183,0,0,1-.73-2.008c-.574-3.359-.937-6.838-2.514-9.857s-4.764-5.515-8.142-5.073-5.882,4.888-3.726,7.525a4.9,4.9,0,0,0-1.54,9.018c-2.353,2.173-4.282,5.093-4.27,8.293s2.58,6.483,5.779,6.386c-1.325,2.707-2.155,1.958-2.668,4.927a6.187,6.187,0,0,0-.01,2.8c.624,2.1,5.6,2.243,7.781,2.414,4.693.369,12.259-.992,14.438-.394s7.162.9,8.635-.816,2.432,1.067,3.365-.991c1.852-4.087-1.17-9.863,1.723-13.292a5.837,5.837,0,0,0-4.1-1.132,7.886,7.886,0,0,1-7.32,4.27,1.694,1.694,0,0,1-1.71-1.537c-.246-3.618,1.828-8.195,5.263-9.461A7.255,7.255,0,0,0,233.379,368.174Z" transform="translate(-203.459 -353.975)"/>
            <path id="Path_37531" data-name="Path 37531" d="M226.215,375.049c5.337-.825,10.181.289,18.29.828" transform="translate(-192.261 -343.749)" fill="none" stroke="#000" stroke-miterlimit="10" stroke-width="1"/>
            <path id="Path_37533" data-name="Path 37533" d="M234.172,362.923c1.434-.2,2.526-.327,3.345-.4a1.2,1.2,0,0,1,1.164,1.761l-.546,1.025" transform="translate(-188.345 -349.771)" fill="none" stroke="#000" stroke-miterlimit="10" stroke-width="1"/>
            <g id="Group_36113" data-name="Group 36113" transform="translate(44.615 -3.444) rotate(76)">
              <path id="Path_37731" data-name="Path 37731" d="M0,1.955,6.528,0s.46,1.471-2.482,2.666S0,1.955,0,1.955Z" transform="translate(4.358 19.934)"/>
              <g id="Group_36109" data-name="Group 36109" transform="translate(5.377 15.013)">
                <ellipse id="Ellipse_358" data-name="Ellipse 358" cx="1.284" cy="1.283" rx="1.284" ry="1.283" transform="translate(0.402 2.276)"/>
                <line id="Line_102" data-name="Line 102" y1="1.902" x2="2.37" fill="none" stroke="#000" stroke-miterlimit="10" stroke-width="1"/>
              </g>
              <g id="Group_36110" data-name="Group 36110" transform="matrix(0.978, 0.208, -0.208, 0.978, 5.462, 6.312)">
                <line id="Line_103" data-name="Line 103" y1="0.095" x2="1.849" transform="translate(0.184 0)" fill="none" stroke="#000" stroke-miterlimit="10" stroke-width="1"/>
                <path id="Path_37485" data-name="Path 37485" d="M.887,3.526c1.2.884,1.082-.8,2.058-1.166.7-.259,2.907-1.073,4,0,0,0-1.453-2.822-4.069-2.291S0,1.6,0,1.906Z" transform="translate(0 0.401)"/>
              </g>
            </g>
          </g>
          <line id="Line_106" data-name="Line 106" x2="51.488" y2="1.794" transform="translate(357.682 363.391)" fill="none" stroke="#000" stroke-miterlimit="10" stroke-width="1"/>
          <line id="Line_122" data-name="Line 122" y1="66" x2="25" transform="translate(261.504 314.561)" fill="none" stroke="#000" stroke-miterlimit="10" stroke-width="1"/>
          <path id="Path_37534" data-name="Path 37534" d="M329.3,343.714l95.205,5.8c10.566-6.183,20.715,2.665,32.416,2.665" transform="translate(61.928 12.549)" fill="none" stroke="#000" stroke-miterlimit="10" stroke-width="4"/>
          <g id="Group_35788" data-name="Group 35788" transform="translate(275.066 398.073) rotate(-83)">
            <path id="Path_37535" data-name="Path 37535" d="M339.41,363.5l50.14,2.431-.267,10.917-79.676,7.462-61.067,2.709" transform="translate(-248.54 -363.499)" fill="none" stroke="#000" stroke-miterlimit="10" stroke-width="1"/>
          </g>
          <g id="Group_36115" data-name="Group 36115" transform="translate(255.423 387.444) rotate(-45)">
            <path id="Path_37535-2" data-name="Path 37535" d="M328.163,362.03l61.387,3.9-.267,10.917-60.166,7.572-31.459,3.993" transform="translate(-248.54 -363.499)" fill="none" stroke="#000" stroke-miterlimit="10" stroke-width="1"/>
          </g>
          <g id="Group_35789" data-name="Group 35789" transform="translate(518.852 358.54)">
            <path id="Path_37537" data-name="Path 37537" d="M492.1,366.53l13.985-2.457,22.4-13.034,6-5.8,2.111,3.3-27.814,35.708-6.413-4.556-10.137-.378" transform="translate(-376.809 -345.24)" fill="#f5f5f6"/>
            <path id="Path_37538" data-name="Path 37538" d="M492.1,366.53l13.985-2.457,22.4-13.034,6-5.8,2.111,3.3-27.814,35.708-6.413-4.556-10.137-.378" transform="translate(-376.809 -345.24)" fill="none" stroke="#000" stroke-miterlimit="10" stroke-width="1"/>
            <path id="Path_37539" data-name="Path 37539" d="M421.551,350.319l108.221,13.564-2.03,18.932-112.91,4.633" transform="translate(-414.833 -342.741)" fill="none" stroke="#000" stroke-miterlimit="10" stroke-width="4"/>
          </g>
        </g>
      </g>
    </g>
    <g id="Group_36122" data-name="Group 36122" transform="translate(-15 -6)">
      <g id="Group_36121" data-name="Group 36121" transform="matrix(0.978, 0.208, -0.208, 0.978, 1172.965, 4914.581)">
        <g id="Group_1443" data-name="Group 1443" transform="matrix(-0.985, 0.174, -0.174, -0.985, 102.107, 48.982)">
          <path id="Path_943" data-name="Path 943" d="M54.9,5.344,23.963,0,0,39.254l32.165-2.633Z" transform="translate(0 8.246)" fill="#6ab3f9"/>
          <g id="Group_1442" data-name="Group 1442" transform="translate(3.558 0)">
            <g id="Group_1441" data-name="Group 1441" transform="translate(0 0)">
              <path id="Path_944" data-name="Path 944" d="M3.681.02A3.323,3.323,0,1,0,6.628,3.681" transform="translate(24.533 3.111)" fill="none" stroke="#000" stroke-miterlimit="10" stroke-width="1"/>
              <path id="Path_945" data-name="Path 945" d="M3.432,3.5,46.107,4.988h0L0,0" transform="translate(30.171)" fill="none" stroke="#000" stroke-miterlimit="10" stroke-width="4"/>
              <path id="Path_946" data-name="Path 946" d="M0,40.894,25.288,0l2.04,1.258L1.89,40.963Z" transform="translate(0 8.774)" fill="none" stroke="#000" stroke-miterlimit="10" stroke-width="1"/>
            </g>
            <path id="Path_947" data-name="Path 947" d="M0,36.6l30.366-4.5L45.478,0" transform="translate(7.328 12.081)" fill="none" stroke="#000" stroke-miterlimit="10" stroke-width="1"/>
            <path id="Path_948" data-name="Path 948" d="M0,5.092c12.042.464,34.607.772,34.6.748.073,0,1.282-3.818,1.251-3.784L22.212-1.138" transform="translate(55.728 5.202)" fill="none" stroke="#000" stroke-miterlimit="10" stroke-width="1"/>
          </g>
        </g>
      </g>
      <path id="Path_951" data-name="Path 951" d="M38.6,6.355a1.545,1.545,0,0,1-.193.2C32.327,10.948,25.087,23.729,19.926,29.8c-.214.25-.49.508-.74.344a.859.859,0,0,1-.277-.456c-.722-2.257,2.891-8.239,2.972-10.27-1.148.1-2.335,1.546-3.455,2.1C16.341,22.552,3.087,32.814.937,33.442c-.277.083-.607.142-.806-.156-.29-.433-.046-1.152.205-1.634,4.6-8.857,28.193-28,28.738-28.1C30.262,2.409,30.164,3.2,33.456,0" transform="translate(1233.009 5002.36) rotate(129)" fill="none" stroke="#000" stroke-miterlimit="10" stroke-width="1"/>
      <path id="Path_37733" data-name="Path 37733" d="M38.6,27.154a1.545,1.545,0,0,0-.193-.2c-6.083-4.394-15.308-16.931-20.469-23-.214-.25-.49-.508-.74-.344a.859.859,0,0,0-.277.456C16.2,6.321,21.845,14.1,21.881,14.09c-.007-.011-2.335-1.546-3.455-2.1C16.341,10.957,3.087.695.937.067.66-.016.33-.075.131.224-.158.656.085,1.376.337,1.858c4.6,8.857,28.193,28,28.738,28.1,1.187,1.139,1.09.353,4.382,3.548" transform="translate(1301.823 5029.7) rotate(97)" fill="none" stroke="#000" stroke-miterlimit="10" stroke-width="1"/>
      <path id="Path_37732" data-name="Path 37732" d="M1205.119,4992.514c-7.19-4.008-8.225-.74-6.96,0s6.96,4.082,6.96,4.082Z" fill="none" stroke="#000" stroke-width="1"/>
    </g>
  </g>
</svg>
