<svg xmlns="http://www.w3.org/2000/svg" width="558.742" height="210.454" viewBox="0 0 558.742 210.454">
  <g id="Group_36117" data-name="Group 36117" transform="translate(-277 -4472.376)">
    <g id="Group_36114" data-name="Group 36114" transform="translate(80)">
      <g id="Group_35816" data-name="Group 35816" transform="translate(19 -169)">
        <path id="Path_37542" data-name="Path 37542" d="M144.5,318.231a4.248,4.248,0,1,1,4.247-4.248" transform="translate(87.499 4518.37)" fill="none" stroke="#000" stroke-miterlimit="10" stroke-width="1"/>
        <path id="Path_37543" data-name="Path 37543" d="M149.14,314.231l54.442,4.1,2.011,1.643H144.3" transform="translate(89.752 4520.873)" fill="none" stroke="#000" stroke-miterlimit="10" stroke-width="4"/>
        <path id="Path_37544" data-name="Path 37544" d="M124.352,275.88l26.053,54.214,2.765-1.318L126.3,274.829Z" transform="translate(78.647 4498.935)" fill="none" stroke="#000" stroke-miterlimit="10" stroke-width="1"/>
        <path id="Path_37573" data-name="Path 37573" d="M558.742,0H0" transform="translate(178 4846.83)" fill="none" stroke="#4fa2ff" stroke-width="10"/>
        <g id="Group_35803" data-name="Group 35803" transform="translate(122.058 4460.848)">
          <g id="Group_35793" data-name="Group 35793" transform="translate(487.905 236.926)">
            <path id="Path_37545" data-name="Path 37545" d="M406.142,330.385l48.75-86.3-17.213-8.851-54.651,65.9" transform="translate(-383.029 -211.812)" fill="none" stroke="#000" stroke-miterlimit="10" stroke-width="1"/>
            <path id="Path_37546" data-name="Path 37546" d="M435.011,251.9l7.711-11.547,20.491-14.9,7.555-3.081-2.118-3.188L425.733,230l1.55,7.535-2.352,5.93" transform="translate(-363.794 -219.182)" fill="none" stroke="#000" stroke-miterlimit="10" stroke-width="1"/>
          </g>
          <g id="Group_35800" data-name="Group 35800" transform="translate(523.723 180.528)">
            <circle id="Ellipse_363" data-name="Ellipse 363" cx="45.481" cy="45.481" r="45.481" fill="#4fa2ff"/>
            <g id="Group_35795" data-name="Group 35795" transform="translate(16.176 13.332)">
              <g id="Group_35794" data-name="Group 35794">
                <path id="Path_37547" data-name="Path 37547" d="M429.762,234.268l18.563-6.7-2.5-6.928,7.685-2.775,2.5,6.928,1.3-.468c2.327-.84,2.793-2.6,2.227-4.168a8.081,8.081,0,0,0-2.079-3.284l6.412-3.9c.05.051.874.98.924,1.034a14.482,14.482,0,0,1,2.882,4.8c1.993,5.521,1.077,12.641-6.77,15.475l-1.3.47,1.643,4.545-7.685,2.775-1.641-4.546-18.563,6.7Z" transform="translate(-413.57 -178.97)" fill="#fff"/>
                <path id="Path_37548" data-name="Path 37548" d="M428.114,225.988l26.3-9.5L450.8,206.479l-26.3,9.5Z" transform="translate(-415.986 -181.948)" fill="#fff"/>
                <path id="Path_37549" data-name="Path 37549" d="M456.316,203.429l-5.951,2.149,1.544,4.275-7.713,2.785-1.545-4.275-8.413,3.038c-8.328,3.191-12.485-.692-14.4-6a17.05,17.05,0,0,1-1.058-7.966l8.014-1.093a7.9,7.9,0,0,0,.333,3.49,2.527,2.527,0,0,0,3.556,1.716l8.413-3.039-2.189-6.061,7.713-2.787,2.17,6.008L453.9,193.1Z" transform="translate(-418.664 -189.666)" fill="#fff"/>
              </g>
              <path id="Path_37550" data-name="Path 37550" d="M455.477,208.083a5.389,5.389,0,0,0-7.094-3.481c-3.384,1.223-4.132,4.542-3.175,7.19.973,2.7,3.671,4.775,7.054,3.553C455.706,214.1,456.451,210.782,455.477,208.083Z" transform="translate(-406.656 -182.98)" fill="#fff"/>
            </g>
            <g id="Group_35797" data-name="Group 35797" transform="translate(16.176 13.332)">
              <g id="Group_35796" data-name="Group 35796">
                <path id="Path_37551" data-name="Path 37551" d="M429.762,234.268l18.563-6.7-2.5-6.928,7.685-2.775,2.5,6.928,1.3-.468c2.327-.84,2.793-2.6,2.227-4.168a8.081,8.081,0,0,0-2.079-3.284l6.412-3.9c.05.051.874.98.924,1.034a14.482,14.482,0,0,1,2.882,4.8c1.993,5.521,1.077,12.641-6.77,15.475l-1.3.47,1.643,4.545-7.685,2.775-1.641-4.546-18.563,6.7Z" transform="translate(-413.57 -178.97)" fill="#fff"/>
                <path id="Path_37552" data-name="Path 37552" d="M428.114,225.988l26.3-9.5L450.8,206.479l-26.3,9.5Z" transform="translate(-415.986 -181.948)" fill="#fff"/>
                <path id="Path_37553" data-name="Path 37553" d="M456.316,203.429l-5.951,2.149,1.544,4.275-7.713,2.785-1.545-4.275-8.413,3.038c-8.328,3.191-12.485-.692-14.4-6a17.05,17.05,0,0,1-1.058-7.966l8.014-1.093a7.9,7.9,0,0,0,.333,3.49,2.527,2.527,0,0,0,3.556,1.716l8.413-3.039-2.189-6.061,7.713-2.787,2.17,6.008L453.9,193.1Z" transform="translate(-418.664 -189.666)" fill="#fff"/>
              </g>
              <path id="Path_37554" data-name="Path 37554" d="M455.477,208.083a5.389,5.389,0,0,0-7.094-3.481c-3.384,1.223-4.132,4.542-3.175,7.19.973,2.7,3.671,4.775,7.054,3.553C455.706,214.1,456.451,210.782,455.477,208.083Z" transform="translate(-406.656 -182.98)" fill="#fff"/>
            </g>
            <g id="Group_35799" data-name="Group 35799" transform="translate(16.176 13.332)">
              <g id="Group_35798" data-name="Group 35798">
                <path id="Path_37555" data-name="Path 37555" d="M429.762,234.268l18.563-6.7-2.5-6.928,7.685-2.775,2.5,6.928,1.3-.468c2.327-.84,2.793-2.6,2.227-4.168a8.081,8.081,0,0,0-2.079-3.284l6.412-3.9c.05.051.874.98.924,1.034a14.482,14.482,0,0,1,2.882,4.8c1.993,5.521,1.077,12.641-6.77,15.475l-1.3.47,1.643,4.545-7.685,2.775-1.641-4.546-18.563,6.7Z" transform="translate(-413.57 -178.97)" fill="#fff"/>
                <path id="Path_37556" data-name="Path 37556" d="M428.114,225.988l26.3-9.5L450.8,206.479l-26.3,9.5Z" transform="translate(-415.986 -181.948)" fill="#fff"/>
                <path id="Path_37557" data-name="Path 37557" d="M456.316,203.429l-5.951,2.149,1.544,4.275-7.713,2.785-1.545-4.275-8.413,3.038c-8.328,3.191-12.485-.692-14.4-6a17.05,17.05,0,0,1-1.058-7.966l8.014-1.093a7.9,7.9,0,0,0,.333,3.49,2.527,2.527,0,0,0,3.556,1.716l8.413-3.039-2.189-6.061,7.713-2.787,2.17,6.008L453.9,193.1Z" transform="translate(-418.664 -189.666)" fill="#fff"/>
              </g>
              <path id="Path_37558" data-name="Path 37558" d="M455.477,208.083a5.389,5.389,0,0,0-7.094-3.481c-3.384,1.223-4.132,4.542-3.175,7.19.973,2.7,3.671,4.775,7.054,3.553C455.706,214.1,456.451,210.782,455.477,208.083Z" transform="translate(-406.656 -182.98)" fill="#fff"/>
            </g>
          </g>
          <path id="Path_37559" data-name="Path 37559" d="M308.007,290.139c9.9-10.24,25-8.448,36.781-.441,14.892,10.124,55.654,5.073,66.567,19.605" transform="translate(70.438 47.069)" fill="none" stroke="#000" stroke-miterlimit="10" stroke-width="4"/>
          <g id="Group_35801" data-name="Group 35801" transform="translate(242.866 255.078)">
            <path id="Path_37560" data-name="Path 37560" d="M222.524,249.391c-1.21,1.821.077,6.926.077,6.926a20.587,20.587,0,0,1,.413,10.191.971.971,0,0,0,1.147,1.115,17.546,17.546,0,0,1,3.62-.356c.467,2.262,2.316,7.312,2.615,9.6a1.635,1.635,0,0,0,2.679,1.03l6.232-5.263" transform="translate(-211.906 -223.467)" fill="none" stroke="#000" stroke-miterlimit="10" stroke-width="1"/>
            <path id="Path_37561" data-name="Path 37561" d="M236.966,266.313c.226-2.046.274-8.635-1.742-9.045a4.081,4.081,0,0,0-2.069.3c-3.16,1.053-6.328,2.346-9.659,2.378s-6.952-1.566-8.13-4.682,1.5-7.326,4.771-6.682a4.787,4.787,0,0,1,7.066-5.487c.786-3.03,2.415-6.04,5.181-7.505s6.779-.766,8.172,2.038c1.722-2.393.693-2.76,3.017-4.574a6.055,6.055,0,0,1,2.41-1.3c2.1-.432,12.163-.032,13.754,5.366,1.3,4.415-1.85,10.145.3,10.651,6.116,1.443,2.011,7.972,1.212,10.031s2.041,1.606.7,3.359c-2.669,3.481-9.043,3.54-10.666,7.616a5.709,5.709,0,0,1-2.87-3.017,7.71,7.71,0,0,0,.306-8.282,1.657,1.657,0,0,0-2.113-.766c-3.235,1.456-6.224,5.355-5.731,8.9A7.1,7.1,0,0,1,236.966,266.313Z" transform="translate(-215.083 -231.623)"/>
            <path id="Path_37562" data-name="Path 37562" d="M241.462,252.379c1.751,4.983,4.945,8.645,9.15,15.39" transform="translate(-202.974 -222.095)" fill="none" stroke="#000" stroke-miterlimit="10" stroke-width="1"/>
            <path id="Path_37564" data-name="Path 37564" d="M234.489,265.132c.486,1.331.884,2.329,1.2,3.068a1.172,1.172,0,0,0,2.054.191l.633-.943" transform="translate(-205.175 -214.241)" fill="none" stroke="#000" stroke-miterlimit="10" stroke-width="1"/>
          </g>
          <g id="Group_35802" data-name="Group 35802" transform="translate(467.979 211.442)">
            <path id="Path_37565" data-name="Path 37565" d="M418.463,234.437l7.711-11.547,20.491-14.9,7.555-3.081-2.118-3.188-42.918,10.815,1.55,7.535-3.657,9.22" transform="translate(-352.063 -201.716)" fill="#f5f5f6"/>
            <path id="Path_37566" data-name="Path 37566" d="M418.463,234.437l7.711-11.547,20.491-14.9,7.555-3.081-2.118-3.188-42.918,10.815,1.55,7.535-3.657,9.22" transform="translate(-352.063 -201.716)" fill="none" stroke="#000" stroke-miterlimit="10" stroke-width="1"/>
            <path id="Path_37567" data-name="Path 37567" d="M396.7,356.993l39.069-130.819-17.742-5.646-48.652,99.213" transform="translate(-369.372 -193.081)" fill="none" stroke="#000" stroke-miterlimit="10" stroke-width="4"/>
          </g>
          <line id="Line_107" data-name="Line 107" x2="122.491" transform="translate(356.293 380.298)" fill="none" stroke="#000" stroke-miterlimit="10" stroke-width="4"/>
          <line id="Line_108" data-name="Line 108" x2="62.19" y2="29.766" transform="translate(283.683 339.549)" fill="none" stroke="#000" stroke-miterlimit="10" stroke-width="1"/>
          <path id="Path_37568" data-name="Path 37568" d="M224.185,313.679l-48.594,6.938,1.255,10.6H248.48L287.226,290.2" transform="translate(9.654 50.341)" fill="none" stroke="#000" stroke-miterlimit="10" stroke-width="1"/>
          <path id="Path_37569" data-name="Path 37569" d="M227.816,325.57h17.12L266.311,295.3" transform="translate(33.627 52.684)" fill="none" stroke="#000" stroke-miterlimit="10" stroke-width="1"/>
          <path id="Path_37570" data-name="Path 37570" d="M184.3,313.628l2,8.657-8.042,0-6.512-5.355-11.258-.49-5.325-.392a.743.743,0,0,1-.108-1.431c4.983-1.727,15.441-5.362,16.528-5.811C173.017,308.213,184.3,313.628,184.3,313.628Z" transform="translate(0 58.864)" fill="none" stroke="#000" stroke-miterlimit="10" stroke-width="1"/>
          <path id="Path_37571" data-name="Path 37571" d="M167.343,311.869a68.328,68.328,0,0,0-7.886,2.981c-1.512.947-.938,2.091,1.338,2.262,2.054.155,6.98-2.552,8.605-1.609" transform="translate(1.862 60.291)" fill="#fff" stroke="#000" stroke-miterlimit="10" stroke-width="1"/>
          <path id="Path_37572" data-name="Path 37572" d="M214.006,326.947c24.846-29.138,42.175-59.152,47.146-63.048,6.827-5.352,12.027-4.275,19.564-.842,30.832,14.046,31.317,28.569,64.554,39.843" transform="translate(27.288 36.565)" fill="none" stroke="#000" stroke-miterlimit="10" stroke-width="4"/>
        </g>
      </g>
      <g id="Group_36112" data-name="Group 36112" transform="translate(396.084 4578.937) rotate(-16)">
        <path id="Path_37731" data-name="Path 37731" d="M0,1.105,6.528,3.06S6.988,1.589,4.046.394,0,1.105,0,1.105Z" transform="translate(0 0)"/>
        <g id="Group_36109" data-name="Group 36109" transform="translate(1.019 3.137)">
          <ellipse id="Ellipse_358" data-name="Ellipse 358" cx="1.284" cy="1.283" rx="1.284" ry="1.283" transform="translate(0.402)"/>
          <line id="Line_102" data-name="Line 102" x2="2.371" y2="1.902" transform="translate(0 2.941)" fill="none" stroke="#000" stroke-miterlimit="10" stroke-width="1"/>
        </g>
        <g id="Group_36110" data-name="Group 36110" transform="matrix(0.978, -0.208, 0.208, 0.978, 0.22, 12.519)">
          <line id="Line_103" data-name="Line 103" x2="1.849" y2="0.095" transform="translate(0.184 4.156)" fill="none" stroke="#000" stroke-miterlimit="10" stroke-width="1"/>
          <path id="Path_37485" data-name="Path 37485" d="M0,.245c1.2-.884,1.97.881,2.946,1.244.7.259,2.907,1.073,4,0,0,0-1.453,2.822-4.069,2.291S0,2.25,0,1.943Z" transform="translate(0 0)"/>
        </g>
      </g>
    </g>
  </g>
</svg>
