<svg xmlns="http://www.w3.org/2000/svg" width="121.095" height="121" viewBox="0 0 121.095 121">
  <g id="Group_720" data-name="Group 720" transform="translate(0)">
    <g id="Group_707" data-name="Group 707" transform="translate(43.449 0.02)">
      <path id="Path_508" data-name="Path 508" d="M-281.28,20V61.364a36.631,36.631,0,0,1,14.631,23.165h63.015V20Z" transform="translate(281.28 -20)" fill="#fff"/>
    </g>
    <g id="Group_708" data-name="Group 708" transform="translate(43.448 0)">
      <path id="Path_509" data-name="Path 509" d="M-203.671,84.464h-50.368V76.5h42.409V27.934h-69.65V19.974h77.609Z" transform="translate(281.28 -19.974)"/>
    </g>
    <g id="Group_709" data-name="Group 709" transform="translate(9.48 15.394)">
      <path id="Path_510" data-name="Path 510" d="M-320.548,55.47a3.389,3.389,0,0,0,1.878-.566,10.052,10.052,0,0,0,9.757,8.427,10.05,10.05,0,0,0,9.756-8.427,3.394,3.394,0,0,0,1.878.566,3.409,3.409,0,0,0,3.409-3.41,3.409,3.409,0,0,0-3.409-3.409,3.392,3.392,0,0,0-1.646.424c.015-2.741-.173-5.731-1.3-6.86-1.792-1.792-5.953-2.9-8.687-2.9-2.848,0-7.1,1.2-8.906,3.126-1.031,1.1-1.166,3.967-1.12,6.614a3.4,3.4,0,0,0-1.609-.4,3.41,3.41,0,0,0-3.41,3.409A3.41,3.41,0,0,0-320.548,55.47Z" transform="translate(323.958 -39.315)"/>
    </g>
    <g id="Group_710" data-name="Group 710" transform="translate(0 44.192)">
      <path id="Path_511" data-name="Path 511" d="M-311.287,75.5a24.99,24.99,0,0,0-24.582,20.52H-286.7A24.99,24.99,0,0,0-311.287,75.5Z" transform="translate(335.869 -75.498)"/>
    </g>
    <g id="Group_711" data-name="Group 711" transform="translate(81.412 71.682)">
      <path id="Path_512" data-name="Path 512" d="M-230.174,126.19a3.391,3.391,0,0,0,1.878-.565,10.05,10.05,0,0,0,9.757,8.426,10.049,10.049,0,0,0,9.756-8.426,3.391,3.391,0,0,0,1.878.565,3.409,3.409,0,0,0,3.409-3.409,3.409,3.409,0,0,0-3.409-3.409,3.389,3.389,0,0,0-1.646.424c.014-2.741-.174-5.731-1.3-6.86-1.792-1.792-5.952-2.9-8.686-2.9-2.848,0-7.1,1.2-8.906,3.126-1.031,1.1-1.166,3.966-1.121,6.613a3.393,3.393,0,0,0-1.609-.4,3.409,3.409,0,0,0-3.409,3.409A3.409,3.409,0,0,0-230.174,126.19Z" transform="translate(233.583 -110.036)"/>
    </g>
    <g id="Group_712" data-name="Group 712" transform="translate(45.593 71.682)">
      <path id="Path_513" data-name="Path 513" d="M-275.177,126.19a3.392,3.392,0,0,0,1.878-.565,10.049,10.049,0,0,0,9.756,8.426,10.049,10.049,0,0,0,9.757-8.426,3.391,3.391,0,0,0,1.878.565,3.409,3.409,0,0,0,3.409-3.409,3.409,3.409,0,0,0-3.409-3.409,3.394,3.394,0,0,0-1.647.424c.015-2.741-.173-5.731-1.3-6.86-1.792-1.792-5.952-2.9-8.687-2.9-2.847,0-7.1,1.2-8.906,3.126-1.03,1.1-1.165,3.966-1.12,6.613a3.393,3.393,0,0,0-1.609-.4,3.409,3.409,0,0,0-3.409,3.409A3.409,3.409,0,0,0-275.177,126.19Z" transform="translate(278.586 -110.036)"/>
    </g>
    <g id="Group_713" data-name="Group 713" transform="translate(36.113 100.48)">
      <path id="Path_514" data-name="Path 514" d="M-265.915,146.218a24.99,24.99,0,0,0-24.582,20.52h49.163A24.99,24.99,0,0,0-265.915,146.218Z" transform="translate(290.497 -146.218)"/>
    </g>
    <g id="Group_716" data-name="Group 716" transform="translate(7.264 5.422)">
      <g id="Group_714" data-name="Group 714" transform="translate(7.111 7.595)">
        <path id="Path_515" data-name="Path 515" d="M-317.808,36.328v6.82a4.157,4.157,0,0,0,1.98,3.547,15.64,15.64,0,0,0,8.17,2.534A15.637,15.637,0,0,0-299.49,46.7a4.162,4.162,0,0,0,1.982-3.547v-6.82Z" transform="translate(317.808 -36.328)" fill="#4fa2ff"/>
      </g>
      <g id="Group_715" data-name="Group 715">
        <path id="Path_516" data-name="Path 516" d="M-309.482,26.786l-17.26,7.6,17.26,7.594,17.261-7.594Z" transform="translate(326.742 -26.786)" fill="#4fa2ff"/>
      </g>
    </g>
    <g id="Group_717" data-name="Group 717" transform="translate(9.48 71.682)">
      <path id="Path_517" data-name="Path 517" d="M-320.548,126.19a3.388,3.388,0,0,0,1.878-.565,10.051,10.051,0,0,0,9.757,8.426,10.049,10.049,0,0,0,9.756-8.426,3.393,3.393,0,0,0,1.878.565,3.408,3.408,0,0,0,3.409-3.409,3.409,3.409,0,0,0-3.409-3.409,3.391,3.391,0,0,0-1.646.424c.015-2.741-.173-5.731-1.3-6.86-1.792-1.792-5.953-2.9-8.687-2.9-2.848,0-7.1,1.2-8.906,3.126-1.031,1.1-1.166,3.966-1.12,6.613a3.4,3.4,0,0,0-1.609-.4,3.41,3.41,0,0,0-3.41,3.409A3.409,3.409,0,0,0-320.548,126.19Z" transform="translate(323.958 -110.036)"/>
    </g>
    <g id="Group_718" data-name="Group 718" transform="translate(0 100.48)">
      <path id="Path_518" data-name="Path 518" d="M-311.287,146.218a24.99,24.99,0,0,0-24.582,20.52h30.738a30.383,30.383,0,0,1,8.278-15.928A24.86,24.86,0,0,0-311.287,146.218Z" transform="translate(335.869 -146.218)"/>
    </g>
    <g id="Group_719" data-name="Group 719" transform="translate(82.256 100.48)">
      <path id="Path_519" data-name="Path 519" d="M-218.265,146.218a24.85,24.85,0,0,0-14.257,4.472,30.392,30.392,0,0,1,8.394,16.049h30.445A24.99,24.99,0,0,0-218.265,146.218Z" transform="translate(232.522 -146.218)"/>
    </g>
    <g id="Group_756" data-name="Group 756" transform="translate(55.749 16.001)">
      <text id="Online_school" data-name="Online

school" transform="translate(22.062 10.999)" font-size="11" font-family="Nexa-Black, Nexa" letter-spacing="0.01em" font-weight="800"><tspan x="-22.356" y="0">ONLINE</tspan><tspan x="0" y="6"></tspan><tspan font-family="Nexa-Regular" font-weight="400"><tspan x="-17.076" y="12">school</tspan></tspan></text>
    </g>
  </g>
</svg>
