<svg xmlns="http://www.w3.org/2000/svg" width="114.454" height="136.208" viewBox="0 0 114.454 136.208">
  <g id="Group_35947" data-name="Group 35947" transform="translate(-625.376 -606.994)">
    <g id="Group_35936" data-name="Group 35936" transform="translate(625.376 695.43)">
      <path id="Path_37616" data-name="Path 37616" d="M682.6,675.277a49.468,49.468,0,0,1,45.723,30.472H636.879A49.468,49.468,0,0,1,682.6,675.277m0-8.649A58.176,58.176,0,0,0,625.376,714.4H739.83A58.176,58.176,0,0,0,682.6,666.628Z" transform="translate(-625.376 -666.628)"/>
    </g>
    <g id="Group_35939" data-name="Group 35939" transform="translate(625.376 695.43)">
      <g id="Group_35937" data-name="Group 35937" transform="translate(5.432 4.324)">
        <path id="Path_37617" data-name="Path 37617" d="M629.039,708.665a53.848,53.848,0,0,1,103.591,0Z" transform="translate(-629.039 -669.544)" fill="#fff"/>
      </g>
      <g id="Group_35938" data-name="Group 35938">
        <path id="Path_37618" data-name="Path 37618" d="M682.6,675.277a49.468,49.468,0,0,1,45.723,30.472H636.879A49.468,49.468,0,0,1,682.6,675.277m0-8.649A58.176,58.176,0,0,0,625.376,714.4H739.83A58.176,58.176,0,0,0,682.6,666.628Z" transform="translate(-625.376 -666.628)"/>
      </g>
    </g>
    <g id="Group_35943" data-name="Group 35943" transform="translate(647.447 624.062)">
      <g id="Group_35940" data-name="Group 35940" transform="translate(7.351)">
        <path id="Path_37619" data-name="Path 37619" d="M694.532,653.787c0,12.73-10.32,23.541-23.05,23.541s-23.05-10.811-23.05-23.541c0-6.1-1.553-20.968,2.318-25.09,4.206-4.48,14.1-7.277,20.732-7.277,6.365,0,16.052,2.579,20.222,6.751S694.532,647.422,694.532,653.787Z" transform="translate(-643.811 -617.094)" fill="#4fa2ff"/>
        <path id="Path_37620" data-name="Path 37620" d="M672.887,683.062c-15.1,0-27.376-12.5-27.376-27.865,0-1.106-.056-2.567-.122-4.258-.406-10.48-.415-19.5,3.611-23.793,5.079-5.41,16.133-8.643,23.886-8.643,7.5,0,18.263,3,23.281,8.019,4.41,4.41,4.5,13.85,4.176,24.819-.043,1.513-.082,2.818-.082,3.856C700.263,670.562,687.981,683.062,672.887,683.062Zm0-55.908c-5.678,0-14.4,2.529-17.579,5.913-1.874,2.049-1.424,13.707-1.274,17.538.068,1.781.128,3.319.128,4.593,0,10.415,8.575,19.215,18.726,19.215s18.726-8.8,18.726-19.215c0-1.166.04-2.53.086-4.111.12-4.037.482-16.319-1.648-18.448C686.911,629.5,678.4,627.153,672.887,627.153Z" transform="translate(-645.216 -618.503)"/>
      </g>
      <g id="Group_35941" data-name="Group 35941" transform="translate(0 26.06)">
        <circle id="Ellipse_367" data-name="Ellipse 367" cx="7.936" cy="7.936" r="7.936"/>
      </g>
      <g id="Group_35942" data-name="Group 35942" transform="translate(54.173 26.06)">
        <circle id="Ellipse_368" data-name="Ellipse 368" cx="7.936" cy="7.936" r="7.936"/>
      </g>
    </g>
    <g id="Group_35946" data-name="Group 35946" transform="translate(639.596 606.994)">
      <g id="Group_35944" data-name="Group 35944" transform="translate(16.738 21.054)">
        <path id="Path_37621" data-name="Path 37621" d="M649.169,624.107v12.629a5.155,5.155,0,0,0,2.431,4.4c13.626,8.263,25.4,8.263,39.028,0a5.156,5.156,0,0,0,2.431-4.4V624.107Zm0,0" transform="translate(-644.843 -619.783)" fill="#fff"/>
        <path id="Path_37622" data-name="Path 37622" d="M672.523,653.09c-7.117,0-14.232-2.281-21.757-6.844a9.493,9.493,0,0,1-4.514-8.1V621.191h52.541v16.953a9.505,9.505,0,0,1-4.516,8.1C686.755,650.808,679.638,653.09,672.523,653.09ZM654.9,629.841v8.3a.852.852,0,0,0,.343.7c12.275,7.443,22.28,7.443,34.548,0a.847.847,0,0,0,.35-.706v-8.3Z" transform="translate(-646.252 -621.191)"/>
      </g>
      <g id="Group_35945" data-name="Group 35945">
        <path id="Path_37623" data-name="Path 37623" d="M642.206,624.38l32.268-14.2,32.268,14.2-32.268,14.2Zm0,0" transform="translate(-631.468 -605.455)" fill="#fff"/>
        <path id="Path_37624" data-name="Path 37624" d="M677.97,644.843,634.965,625.92l43.005-18.926,43.009,18.926Zm-21.528-18.924,21.528,9.473,21.531-9.473-21.531-9.473Z" transform="translate(-634.965 -606.994)"/>
      </g>
    </g>
  </g>
</svg>
