<svg xmlns="http://www.w3.org/2000/svg" width="116.565" height="121.336" viewBox="0 0 116.565 121.336">
  <g id="Group_35931" data-name="Group 35931" transform="translate(-1316 -5888)">
    <g id="Group_35894" data-name="Group 35894" transform="translate(1316 5960.684)">
      <path id="Path_37595" data-name="Path 37595" d="M683.658,675.436a50.381,50.381,0,0,1,46.567,31.034H637.092a50.381,50.381,0,0,1,46.567-31.034m0-8.808a59.249,59.249,0,0,0-58.282,48.652H741.941a59.249,59.249,0,0,0-58.282-48.652Z" transform="translate(-625.376 -666.628)"/>
    </g>
    <g id="Group_35897" data-name="Group 35897" transform="translate(1316 5960.684)">
      <g id="Group_35895" data-name="Group 35895" transform="translate(5.532 4.404)">
        <path id="Path_37596" data-name="Path 37596" d="M629.039,709.387a54.842,54.842,0,0,1,105.5,0Z" transform="translate(-629.039 -669.544)" fill="#fff"/>
      </g>
      <g id="Group_35896" data-name="Group 35896">
        <path id="Path_37597" data-name="Path 37597" d="M683.658,675.436a50.381,50.381,0,0,1,46.567,31.034H637.092a50.381,50.381,0,0,1,46.567-31.034m0-8.808a59.249,59.249,0,0,0-58.282,48.652H741.941a59.249,59.249,0,0,0-58.282-48.652Z" transform="translate(-625.376 -666.628)"/>
      </g>
    </g>
    <g id="Group_35901" data-name="Group 35901" transform="translate(1338.478 5888)">
      <g id="Group_35898" data-name="Group 35898" transform="translate(7.487)">
        <path id="Path_37598" data-name="Path 37598" d="M695.388,654.385c0,12.965-10.51,23.975-23.475,23.975s-23.475-11.01-23.475-23.975c0-6.215-1.581-21.355,2.361-25.553,4.283-4.563,14.363-7.411,21.114-7.411,6.482,0,16.348,2.626,20.595,6.875S695.388,647.9,695.388,654.385Z" transform="translate(-643.732 -617.014)" fill="#4fa2ff"/>
        <path id="Path_37599" data-name="Path 37599" d="M673.4,684.252c-15.374,0-27.881-12.731-27.881-28.379,0-1.127-.057-2.614-.124-4.336-.414-10.673-.423-19.864,3.678-24.232,5.173-5.51,16.431-8.8,24.327-8.8,7.641,0,18.6,3.055,23.711,8.166,4.492,4.492,4.584,14.105,4.253,25.277-.044,1.541-.083,2.87-.083,3.927C701.278,671.522,688.769,684.252,673.4,684.252Zm0-56.94c-5.783,0-14.667,2.575-17.9,6.022-1.909,2.087-1.45,13.96-1.3,17.861.07,1.814.13,3.38.13,4.677,0,10.607,8.733,19.569,19.071,19.569s19.071-8.962,19.071-19.569c0-1.187.041-2.577.088-4.187.122-4.111.491-16.62-1.678-18.789C687.681,629.7,679.013,627.313,673.4,627.313Z" transform="translate(-645.216 -618.503)"/>
      </g>
      <g id="Group_35899" data-name="Group 35899" transform="translate(0 26.54)">
        <circle id="Ellipse_365" data-name="Ellipse 365" cx="8.083" cy="8.083" r="8.083"/>
      </g>
      <g id="Group_35900" data-name="Group 35900" transform="translate(55.172 26.54)">
        <circle id="Ellipse_366" data-name="Ellipse 366" cx="8.083" cy="8.083" r="8.083"/>
      </g>
    </g>
  </g>
</svg>
