<svg xmlns="http://www.w3.org/2000/svg" xmlns:xlink="http://www.w3.org/1999/xlink" width="107.932" height="41.291" viewBox="0 0 107.932 41.291">
  <defs>
    <clipPath id="clip-path">
      <ellipse id="Ellipse_303" data-name="Ellipse 303" cx="20.645" cy="20.645" rx="20.645" ry="20.645" fill="none"/>
    </clipPath>
  </defs>
  <g id="Group_1017" data-name="Group 1017" transform="translate(-1.024 -12.644)">
    <g id="Group_1016" data-name="Group 1016" transform="translate(67.665 12.644)">
      <g id="Group_1015" data-name="Group 1015" clip-path="url(#clip-path)">
        <g id="Group_1014" data-name="Group 1014" transform="translate(-35.941 -19.692)">
          <rect id="Rectangle_1260" data-name="Rectangle 1260" width="141.584" height="74.151" transform="translate(0.003 0.28)" fill="#fff"/>
          <rect id="Rectangle_1261" data-name="Rectangle 1261" width="141.466" height="5.866" transform="translate(0.004 0.001)" fill="#cf1c31"/>
          <rect id="Rectangle_1262" data-name="Rectangle 1262" width="141.466" height="5.866" transform="translate(0.004 11.474)" fill="#cf1c31"/>
          <rect id="Rectangle_1263" data-name="Rectangle 1263" width="141.466" height="5.866" transform="translate(0.004 22.948)" fill="#cf1c31"/>
          <rect id="Rectangle_1264" data-name="Rectangle 1264" width="141.466" height="5.866" transform="translate(0.004 34.421)" fill="#cf1c31"/>
          <rect id="Rectangle_1265" data-name="Rectangle 1265" width="141.466" height="5.866" transform="translate(0.004 45.894)" fill="#cf1c31"/>
          <rect id="Rectangle_1266" data-name="Rectangle 1266" width="141.466" height="5.866" transform="translate(0.004 57.368)" fill="#cf1c31"/>
          <rect id="Rectangle_1267" data-name="Rectangle 1267" width="141.466" height="5.866" transform="translate(0.004 68.841)" fill="#cf1c31"/>
          <rect id="Rectangle_1268" data-name="Rectangle 1268" width="56.501" height="40.288" fill="#3a3870"/>
          <g id="Group_1013" data-name="Group 1013" transform="translate(2.566 1.543)">
            <path id="Path_734" data-name="Path 734" d="M-1486.508,553.231l.529,1.645h1.711l-1.384,1.016.529,1.645-1.385-1.016-1.384,1.016.529-1.645-1.384-1.016h1.711Z" transform="translate(1488.748 -553.231)" fill="#fff"/>
            <path id="Path_735" data-name="Path 735" d="M-1480.147,558.878l.529,1.645h1.711l-1.384,1.016.529,1.645-1.384-1.016-1.384,1.016.529-1.645-1.384-1.016h1.711Z" transform="translate(1487.043 -554.744)" fill="#fff"/>
            <path id="Path_736" data-name="Path 736" d="M-1480.147,569.912l.529,1.645h1.711l-1.384,1.016.529,1.645-1.384-1.016-1.384,1.016.529-1.645-1.384-1.016h1.711Z" transform="translate(1487.043 -557.701)" fill="#fff"/>
            <path id="Path_737" data-name="Path 737" d="M-1480.147,580.945l.529,1.645h1.711l-1.384,1.016.529,1.645-1.384-1.016-1.384,1.016.529-1.645-1.384-1.016h1.711Z" transform="translate(1487.043 -560.657)" fill="#fff"/>
            <path id="Path_738" data-name="Path 738" d="M-1480.147,591.979l.529,1.645h1.711l-1.384,1.016.529,1.645-1.384-1.016-1.384,1.016.529-1.645-1.384-1.016h1.711Z" transform="translate(1487.043 -563.614)" fill="#fff"/>
            <path id="Path_739" data-name="Path 739" d="M-1467.252,558.878l.529,1.645h1.711l-1.384,1.016.529,1.645-1.384-1.016-1.384,1.016.529-1.645-1.384-1.016h1.711Z" transform="translate(1483.588 -554.744)" fill="#fff"/>
            <path id="Path_740" data-name="Path 740" d="M-1467.252,569.912l.529,1.645h1.711l-1.384,1.016.529,1.645-1.384-1.016-1.384,1.016.529-1.645-1.384-1.016h1.711Z" transform="translate(1483.588 -557.701)" fill="#fff"/>
            <path id="Path_741" data-name="Path 741" d="M-1467.252,580.945l.529,1.645h1.711l-1.384,1.016.529,1.645-1.384-1.016-1.384,1.016.529-1.645-1.384-1.016h1.711Z" transform="translate(1483.588 -560.657)" fill="#fff"/>
            <path id="Path_742" data-name="Path 742" d="M-1467.252,591.979l.529,1.645h1.711l-1.384,1.016.529,1.645-1.384-1.016-1.384,1.016.529-1.645-1.384-1.016h1.711Z" transform="translate(1483.588 -563.614)" fill="#fff"/>
            <path id="Path_743" data-name="Path 743" d="M-1454.357,558.878l.529,1.645h1.711l-1.384,1.016.529,1.645-1.384-1.016-1.385,1.016.529-1.645-1.384-1.016h1.711Z" transform="translate(1480.132 -554.744)" fill="#fff"/>
            <path id="Path_744" data-name="Path 744" d="M-1454.357,569.912l.529,1.645h1.711l-1.384,1.016.529,1.645-1.384-1.016-1.385,1.016.529-1.645-1.384-1.016h1.711Z" transform="translate(1480.132 -557.701)" fill="#fff"/>
            <path id="Path_745" data-name="Path 745" d="M-1454.357,580.945l.529,1.645h1.711l-1.384,1.016.529,1.645-1.384-1.016-1.385,1.016.529-1.645-1.384-1.016h1.711Z" transform="translate(1480.132 -560.657)" fill="#fff"/>
            <path id="Path_746" data-name="Path 746" d="M-1454.357,591.979l.529,1.645h1.711l-1.384,1.016.529,1.645-1.384-1.016-1.385,1.016.529-1.645-1.384-1.016h1.711Z" transform="translate(1480.132 -563.614)" fill="#fff"/>
            <path id="Path_747" data-name="Path 747" d="M-1441.462,558.878l.529,1.645h1.711l-1.384,1.016.529,1.645-1.384-1.016-1.384,1.016.529-1.645-1.385-1.016h1.711Z" transform="translate(1476.677 -554.744)" fill="#fff"/>
            <path id="Path_748" data-name="Path 748" d="M-1441.462,569.912l.529,1.645h1.711l-1.384,1.016.529,1.645-1.384-1.016-1.384,1.016.529-1.645-1.385-1.016h1.711Z" transform="translate(1476.677 -557.701)" fill="#fff"/>
            <path id="Path_749" data-name="Path 749" d="M-1441.462,580.945l.529,1.645h1.711l-1.384,1.016.529,1.645-1.384-1.016-1.384,1.016.529-1.645-1.385-1.016h1.711Z" transform="translate(1476.677 -560.657)" fill="#fff"/>
            <path id="Path_750" data-name="Path 750" d="M-1441.462,591.979l.529,1.645h1.711l-1.384,1.016.529,1.645-1.384-1.016-1.384,1.016.529-1.645-1.385-1.016h1.711Z" transform="translate(1476.677 -563.614)" fill="#fff"/>
            <path id="Path_751" data-name="Path 751" d="M-1428.568,558.878l.529,1.645h1.711l-1.384,1.016.529,1.645-1.384-1.016-1.384,1.016.529-1.645-1.384-1.016h1.711Z" transform="translate(1473.222 -554.744)" fill="#fff"/>
            <path id="Path_752" data-name="Path 752" d="M-1428.568,569.912l.529,1.645h1.711l-1.384,1.016.529,1.645-1.384-1.016-1.384,1.016.529-1.645-1.384-1.016h1.711Z" transform="translate(1473.222 -557.701)" fill="#fff"/>
            <path id="Path_753" data-name="Path 753" d="M-1428.568,580.945l.529,1.645h1.711l-1.384,1.016.529,1.645-1.384-1.016-1.384,1.016.529-1.645-1.384-1.016h1.711Z" transform="translate(1473.222 -560.657)" fill="#fff"/>
            <path id="Path_754" data-name="Path 754" d="M-1428.568,591.979l.529,1.645h1.711l-1.384,1.016.529,1.645-1.384-1.016-1.384,1.016.529-1.645-1.384-1.016h1.711Z" transform="translate(1473.222 -563.614)" fill="#fff"/>
            <path id="Path_755" data-name="Path 755" d="M-1486.508,564.265l.529,1.645h1.711l-1.384,1.016.529,1.645-1.385-1.016-1.384,1.016.529-1.645-1.384-1.016h1.711Z" transform="translate(1488.748 -556.188)" fill="#fff"/>
            <path id="Path_756" data-name="Path 756" d="M-1486.508,575.3l.529,1.645h1.711l-1.384,1.016.529,1.645-1.385-1.016-1.384,1.016.529-1.645-1.384-1.016h1.711Z" transform="translate(1488.748 -559.144)" fill="#fff"/>
            <path id="Path_757" data-name="Path 757" d="M-1486.508,586.332l.529,1.645h1.711l-1.384,1.016.529,1.645-1.385-1.016-1.384,1.016.529-1.645-1.384-1.016h1.711Z" transform="translate(1488.748 -562.101)" fill="#fff"/>
            <path id="Path_758" data-name="Path 758" d="M-1486.508,597.365l.529,1.645h1.711l-1.384,1.016.529,1.645-1.385-1.016-1.384,1.016.529-1.645-1.384-1.016h1.711Z" transform="translate(1488.748 -565.057)" fill="#fff"/>
            <path id="Path_759" data-name="Path 759" d="M-1473.785,553.231l.529,1.645h1.711l-1.385,1.016.529,1.645-1.384-1.016-1.384,1.016.529-1.645-1.384-1.016h1.711Z" transform="translate(1485.339 -553.231)" fill="#fff"/>
            <path id="Path_760" data-name="Path 760" d="M-1473.785,564.265l.529,1.645h1.711l-1.385,1.016.529,1.645-1.384-1.016-1.384,1.016.529-1.645-1.384-1.016h1.711Z" transform="translate(1485.339 -556.188)" fill="#fff"/>
            <path id="Path_761" data-name="Path 761" d="M-1473.785,575.3l.529,1.645h1.711l-1.385,1.016.529,1.645-1.384-1.016-1.384,1.016.529-1.645-1.384-1.016h1.711Z" transform="translate(1485.339 -559.144)" fill="#fff"/>
            <path id="Path_762" data-name="Path 762" d="M-1473.785,586.332l.529,1.645h1.711l-1.385,1.016.529,1.645-1.384-1.016-1.384,1.016.529-1.645-1.384-1.016h1.711Z" transform="translate(1485.339 -562.101)" fill="#fff"/>
            <path id="Path_763" data-name="Path 763" d="M-1473.785,597.365l.529,1.645h1.711l-1.385,1.016.529,1.645-1.384-1.016-1.384,1.016.529-1.645-1.384-1.016h1.711Z" transform="translate(1485.339 -565.057)" fill="#fff"/>
            <path id="Path_764" data-name="Path 764" d="M-1460.719,553.231l.529,1.645h1.711l-1.384,1.016.529,1.645-1.384-1.016-1.384,1.016.529-1.645-1.384-1.016h1.711Z" transform="translate(1481.837 -553.231)" fill="#fff"/>
            <path id="Path_765" data-name="Path 765" d="M-1460.719,564.265l.529,1.645h1.711l-1.384,1.016.529,1.645-1.384-1.016-1.384,1.016.529-1.645-1.384-1.016h1.711Z" transform="translate(1481.837 -556.188)" fill="#fff"/>
            <path id="Path_766" data-name="Path 766" d="M-1460.719,575.3l.529,1.645h1.711l-1.384,1.016.529,1.645-1.384-1.016-1.384,1.016.529-1.645-1.384-1.016h1.711Z" transform="translate(1481.837 -559.144)" fill="#fff"/>
            <path id="Path_767" data-name="Path 767" d="M-1460.719,586.332l.529,1.645h1.711l-1.384,1.016.529,1.645-1.384-1.016-1.384,1.016.529-1.645-1.384-1.016h1.711Z" transform="translate(1481.837 -562.101)" fill="#fff"/>
            <path id="Path_768" data-name="Path 768" d="M-1460.719,597.365l.529,1.645h1.711l-1.384,1.016.529,1.645-1.384-1.016-1.384,1.016.529-1.645-1.384-1.016h1.711Z" transform="translate(1481.837 -565.057)" fill="#fff"/>
            <path id="Path_769" data-name="Path 769" d="M-1447.91,553.231l.529,1.645h1.711l-1.384,1.016.529,1.645-1.384-1.016-1.384,1.016.529-1.645-1.384-1.016h1.711Z" transform="translate(1478.405 -553.231)" fill="#fff"/>
            <path id="Path_770" data-name="Path 770" d="M-1447.91,564.265l.529,1.645h1.711l-1.384,1.016.529,1.645-1.384-1.016-1.384,1.016.529-1.645-1.384-1.016h1.711Z" transform="translate(1478.405 -556.188)" fill="#fff"/>
            <path id="Path_771" data-name="Path 771" d="M-1447.91,575.3l.529,1.645h1.711l-1.384,1.016.529,1.645-1.384-1.016-1.384,1.016.529-1.645-1.384-1.016h1.711Z" transform="translate(1478.405 -559.144)" fill="#fff"/>
            <path id="Path_772" data-name="Path 772" d="M-1447.91,586.332l.529,1.645h1.711l-1.384,1.016.529,1.645-1.384-1.016-1.384,1.016.529-1.645-1.384-1.016h1.711Z" transform="translate(1478.405 -562.101)" fill="#fff"/>
            <path id="Path_773" data-name="Path 773" d="M-1447.91,597.365l.529,1.645h1.711l-1.384,1.016.529,1.645-1.384-1.016-1.384,1.016.529-1.645-1.384-1.016h1.711Z" transform="translate(1478.405 -565.057)" fill="#fff"/>
            <path id="Path_774" data-name="Path 774" d="M-1435.1,553.231l.529,1.645h1.711l-1.385,1.016.529,1.645-1.384-1.016-1.384,1.016.529-1.645-1.384-1.016h1.711Z" transform="translate(1474.972 -553.231)" fill="#fff"/>
            <path id="Path_775" data-name="Path 775" d="M-1435.1,564.265l.529,1.645h1.711l-1.385,1.016.529,1.645-1.384-1.016-1.384,1.016.529-1.645-1.384-1.016h1.711Z" transform="translate(1474.972 -556.188)" fill="#fff"/>
            <path id="Path_776" data-name="Path 776" d="M-1435.1,575.3l.529,1.645h1.711l-1.385,1.016.529,1.645-1.384-1.016-1.384,1.016.529-1.645-1.384-1.016h1.711Z" transform="translate(1474.972 -559.144)" fill="#fff"/>
            <path id="Path_777" data-name="Path 777" d="M-1435.1,586.332l.529,1.645h1.711l-1.385,1.016.529,1.645-1.384-1.016-1.384,1.016.529-1.645-1.384-1.016h1.711Z" transform="translate(1474.972 -562.101)" fill="#fff"/>
            <path id="Path_778" data-name="Path 778" d="M-1435.1,597.365l.529,1.645h1.711l-1.385,1.016.529,1.645-1.384-1.016-1.384,1.016.529-1.645-1.384-1.016h1.711Z" transform="translate(1474.972 -565.057)" fill="#fff"/>
            <path id="Path_779" data-name="Path 779" d="M-1422.034,553.231l.529,1.645h1.711l-1.384,1.016.529,1.645-1.384-1.016-1.384,1.016.529-1.645-1.384-1.016h1.711Z" transform="translate(1471.471 -553.231)" fill="#fff"/>
            <path id="Path_780" data-name="Path 780" d="M-1422.034,564.265l.529,1.645h1.711l-1.384,1.016.529,1.645-1.384-1.016-1.384,1.016.529-1.645-1.384-1.016h1.711Z" transform="translate(1471.471 -556.188)" fill="#fff"/>
            <path id="Path_781" data-name="Path 781" d="M-1422.034,575.3l.529,1.645h1.711l-1.384,1.016.529,1.645-1.384-1.016-1.384,1.016.529-1.645-1.384-1.016h1.711Z" transform="translate(1471.471 -559.144)" fill="#fff"/>
            <path id="Path_782" data-name="Path 782" d="M-1422.034,586.332l.529,1.645h1.711l-1.384,1.016.529,1.645-1.384-1.016-1.384,1.016.529-1.645-1.384-1.016h1.711Z" transform="translate(1471.471 -562.101)" fill="#fff"/>
            <path id="Path_783" data-name="Path 783" d="M-1422.034,597.365l.529,1.645h1.711l-1.384,1.016.529,1.645-1.384-1.016-1.384,1.016.529-1.645-1.384-1.016h1.711Z" transform="translate(1471.471 -565.057)" fill="#fff"/>
          </g>
        </g>
      </g>
    </g>
    <path id="Path_39624" data-name="Path 39624" d="M-53.457-17.671A10.6,10.6,0,0,1-47.9-16.3a7.436,7.436,0,0,1,3.221,3.837,9.926,9.926,0,0,1,.3,5.571H-56.533A2.81,2.81,0,0,0-55.217-5.2a4.933,4.933,0,0,0,2.649.649,7.789,7.789,0,0,0,4.478-1.333l3.11,3.5A11.87,11.87,0,0,1-52.927.393a10.648,10.648,0,0,1-7.366-2.4,8.37,8.37,0,0,1-2.683-6.571,8.68,8.68,0,0,1,2.632-6.58A9.561,9.561,0,0,1-53.457-17.671Zm.222,4.819a3.494,3.494,0,0,0-2.333.743,2.66,2.66,0,0,0-.931,2.025h6.306a2.737,2.737,0,0,0-.829-2.034A3.136,3.136,0,0,0-53.235-12.852Zm23.191-4.819a6.4,6.4,0,0,1,5,2.034,8.242,8.242,0,0,1,1.837,5.725V0h-6.375V-9.553a3.076,3.076,0,0,0-.675-2.1,2.339,2.339,0,0,0-1.854-.769,2.658,2.658,0,0,0-2.111.914,3.555,3.555,0,0,0-.795,2.418V0h-6.357V-17.295h5.52l.359,2.034A6.77,6.77,0,0,1-30.044-17.671ZM-4.614-3.179A6.439,6.439,0,0,1-2.094-.889a6,6,0,0,1,.88,3.23A6.357,6.357,0,0,1-3.871,7.69a11.56,11.56,0,0,1-7.118,2,10.321,10.321,0,0,1-7.195-2.341,6.644,6.644,0,0,1-2.1-6.118h6.05q-.1,3.281,3.247,3.281a3.679,3.679,0,0,0,2.307-.684,2.157,2.157,0,0,0,.889-1.794A2.006,2.006,0,0,0-8.588.316,3.848,3.848,0,0,0-10.9-.273a9.987,9.987,0,0,1-7.015-2.4,8.277,8.277,0,0,1-2.623-6.417,8.09,8.09,0,0,1,2.692-6.272A9.936,9.936,0,0,1-10.9-17.808a9.114,9.114,0,0,1,3.521.7l1.9-2.461,4.648,3.333-2.239,2.649A6.487,6.487,0,0,1-1.453-9.092,6.759,6.759,0,0,1-2.29-5.811,7.99,7.99,0,0,1-4.614-3.179Zm-8.75-3.384a3.162,3.162,0,0,0,2.41.957,3.19,3.19,0,0,0,2.418-.957,3.509,3.509,0,0,0,.914-2.529,3.539,3.539,0,0,0-.914-2.538,3.175,3.175,0,0,0-2.418-.966,3.148,3.148,0,0,0-2.41.966,3.559,3.559,0,0,0-.906,2.538A3.528,3.528,0,0,0-13.364-6.562Z" transform="translate(64 34.945)"/>
  </g>
</svg>
