<svg xmlns="http://www.w3.org/2000/svg" xmlns:xlink="http://www.w3.org/1999/xlink" width="108.956" height="53.99" viewBox="0 0 108.956 53.99">
  <defs>
    <clipPath id="clip-path">
      <ellipse id="Ellipse_303" data-name="Ellipse 303" cx="20.645" cy="20.645" rx="20.645" ry="20.645" fill="none"/>
    </clipPath>
  </defs>
  <g id="Group_1017" data-name="Group 1017" transform="translate(0 0.055)">
    <g id="Group_1016" data-name="Group 1016" transform="translate(67.665 12.644)">
      <g id="Group_1015" data-name="Group 1015" clip-path="url(#clip-path)">
        <g id="Group_1014" data-name="Group 1014" transform="translate(-35.941 -19.692)">
          <rect id="Rectangle_1260" data-name="Rectangle 1260" width="141.584" height="74.151" transform="translate(0.003 0.28)" fill="#fff"/>
          <rect id="Rectangle_1261" data-name="Rectangle 1261" width="141.466" height="5.866" transform="translate(0.004 0.001)" fill="#cf1c31"/>
          <rect id="Rectangle_1262" data-name="Rectangle 1262" width="141.466" height="5.866" transform="translate(0.004 11.474)" fill="#cf1c31"/>
          <rect id="Rectangle_1263" data-name="Rectangle 1263" width="141.466" height="5.866" transform="translate(0.004 22.948)" fill="#cf1c31"/>
          <rect id="Rectangle_1264" data-name="Rectangle 1264" width="141.466" height="5.866" transform="translate(0.004 34.421)" fill="#cf1c31"/>
          <rect id="Rectangle_1265" data-name="Rectangle 1265" width="141.466" height="5.866" transform="translate(0.004 45.894)" fill="#cf1c31"/>
          <rect id="Rectangle_1266" data-name="Rectangle 1266" width="141.466" height="5.866" transform="translate(0.004 57.368)" fill="#cf1c31"/>
          <rect id="Rectangle_1267" data-name="Rectangle 1267" width="141.466" height="5.866" transform="translate(0.004 68.841)" fill="#cf1c31"/>
          <rect id="Rectangle_1268" data-name="Rectangle 1268" width="56.501" height="40.288" fill="#3a3870"/>
          <g id="Group_1013" data-name="Group 1013" transform="translate(2.566 1.543)">
            <path id="Path_734" data-name="Path 734" d="M-1486.508,553.231l.529,1.645h1.711l-1.384,1.016.529,1.645-1.385-1.016-1.384,1.016.529-1.645-1.384-1.016h1.711Z" transform="translate(1488.748 -553.231)" fill="#fff"/>
            <path id="Path_735" data-name="Path 735" d="M-1480.147,558.878l.529,1.645h1.711l-1.384,1.016.529,1.645-1.384-1.016-1.384,1.016.529-1.645-1.384-1.016h1.711Z" transform="translate(1487.043 -554.744)" fill="#fff"/>
            <path id="Path_736" data-name="Path 736" d="M-1480.147,569.912l.529,1.645h1.711l-1.384,1.016.529,1.645-1.384-1.016-1.384,1.016.529-1.645-1.384-1.016h1.711Z" transform="translate(1487.043 -557.701)" fill="#fff"/>
            <path id="Path_737" data-name="Path 737" d="M-1480.147,580.945l.529,1.645h1.711l-1.384,1.016.529,1.645-1.384-1.016-1.384,1.016.529-1.645-1.384-1.016h1.711Z" transform="translate(1487.043 -560.657)" fill="#fff"/>
            <path id="Path_738" data-name="Path 738" d="M-1480.147,591.979l.529,1.645h1.711l-1.384,1.016.529,1.645-1.384-1.016-1.384,1.016.529-1.645-1.384-1.016h1.711Z" transform="translate(1487.043 -563.614)" fill="#fff"/>
            <path id="Path_739" data-name="Path 739" d="M-1467.252,558.878l.529,1.645h1.711l-1.384,1.016.529,1.645-1.384-1.016-1.384,1.016.529-1.645-1.384-1.016h1.711Z" transform="translate(1483.588 -554.744)" fill="#fff"/>
            <path id="Path_740" data-name="Path 740" d="M-1467.252,569.912l.529,1.645h1.711l-1.384,1.016.529,1.645-1.384-1.016-1.384,1.016.529-1.645-1.384-1.016h1.711Z" transform="translate(1483.588 -557.701)" fill="#fff"/>
            <path id="Path_741" data-name="Path 741" d="M-1467.252,580.945l.529,1.645h1.711l-1.384,1.016.529,1.645-1.384-1.016-1.384,1.016.529-1.645-1.384-1.016h1.711Z" transform="translate(1483.588 -560.657)" fill="#fff"/>
            <path id="Path_742" data-name="Path 742" d="M-1467.252,591.979l.529,1.645h1.711l-1.384,1.016.529,1.645-1.384-1.016-1.384,1.016.529-1.645-1.384-1.016h1.711Z" transform="translate(1483.588 -563.614)" fill="#fff"/>
            <path id="Path_743" data-name="Path 743" d="M-1454.357,558.878l.529,1.645h1.711l-1.384,1.016.529,1.645-1.384-1.016-1.385,1.016.529-1.645-1.384-1.016h1.711Z" transform="translate(1480.132 -554.744)" fill="#fff"/>
            <path id="Path_744" data-name="Path 744" d="M-1454.357,569.912l.529,1.645h1.711l-1.384,1.016.529,1.645-1.384-1.016-1.385,1.016.529-1.645-1.384-1.016h1.711Z" transform="translate(1480.132 -557.701)" fill="#fff"/>
            <path id="Path_745" data-name="Path 745" d="M-1454.357,580.945l.529,1.645h1.711l-1.384,1.016.529,1.645-1.384-1.016-1.385,1.016.529-1.645-1.384-1.016h1.711Z" transform="translate(1480.132 -560.657)" fill="#fff"/>
            <path id="Path_746" data-name="Path 746" d="M-1454.357,591.979l.529,1.645h1.711l-1.384,1.016.529,1.645-1.384-1.016-1.385,1.016.529-1.645-1.384-1.016h1.711Z" transform="translate(1480.132 -563.614)" fill="#fff"/>
            <path id="Path_747" data-name="Path 747" d="M-1441.462,558.878l.529,1.645h1.711l-1.384,1.016.529,1.645-1.384-1.016-1.384,1.016.529-1.645-1.385-1.016h1.711Z" transform="translate(1476.677 -554.744)" fill="#fff"/>
            <path id="Path_748" data-name="Path 748" d="M-1441.462,569.912l.529,1.645h1.711l-1.384,1.016.529,1.645-1.384-1.016-1.384,1.016.529-1.645-1.385-1.016h1.711Z" transform="translate(1476.677 -557.701)" fill="#fff"/>
            <path id="Path_749" data-name="Path 749" d="M-1441.462,580.945l.529,1.645h1.711l-1.384,1.016.529,1.645-1.384-1.016-1.384,1.016.529-1.645-1.385-1.016h1.711Z" transform="translate(1476.677 -560.657)" fill="#fff"/>
            <path id="Path_750" data-name="Path 750" d="M-1441.462,591.979l.529,1.645h1.711l-1.384,1.016.529,1.645-1.384-1.016-1.384,1.016.529-1.645-1.385-1.016h1.711Z" transform="translate(1476.677 -563.614)" fill="#fff"/>
            <path id="Path_751" data-name="Path 751" d="M-1428.568,558.878l.529,1.645h1.711l-1.384,1.016.529,1.645-1.384-1.016-1.384,1.016.529-1.645-1.384-1.016h1.711Z" transform="translate(1473.222 -554.744)" fill="#fff"/>
            <path id="Path_752" data-name="Path 752" d="M-1428.568,569.912l.529,1.645h1.711l-1.384,1.016.529,1.645-1.384-1.016-1.384,1.016.529-1.645-1.384-1.016h1.711Z" transform="translate(1473.222 -557.701)" fill="#fff"/>
            <path id="Path_753" data-name="Path 753" d="M-1428.568,580.945l.529,1.645h1.711l-1.384,1.016.529,1.645-1.384-1.016-1.384,1.016.529-1.645-1.384-1.016h1.711Z" transform="translate(1473.222 -560.657)" fill="#fff"/>
            <path id="Path_754" data-name="Path 754" d="M-1428.568,591.979l.529,1.645h1.711l-1.384,1.016.529,1.645-1.384-1.016-1.384,1.016.529-1.645-1.384-1.016h1.711Z" transform="translate(1473.222 -563.614)" fill="#fff"/>
            <path id="Path_755" data-name="Path 755" d="M-1486.508,564.265l.529,1.645h1.711l-1.384,1.016.529,1.645-1.385-1.016-1.384,1.016.529-1.645-1.384-1.016h1.711Z" transform="translate(1488.748 -556.188)" fill="#fff"/>
            <path id="Path_756" data-name="Path 756" d="M-1486.508,575.3l.529,1.645h1.711l-1.384,1.016.529,1.645-1.385-1.016-1.384,1.016.529-1.645-1.384-1.016h1.711Z" transform="translate(1488.748 -559.144)" fill="#fff"/>
            <path id="Path_757" data-name="Path 757" d="M-1486.508,586.332l.529,1.645h1.711l-1.384,1.016.529,1.645-1.385-1.016-1.384,1.016.529-1.645-1.384-1.016h1.711Z" transform="translate(1488.748 -562.101)" fill="#fff"/>
            <path id="Path_758" data-name="Path 758" d="M-1486.508,597.365l.529,1.645h1.711l-1.384,1.016.529,1.645-1.385-1.016-1.384,1.016.529-1.645-1.384-1.016h1.711Z" transform="translate(1488.748 -565.057)" fill="#fff"/>
            <path id="Path_759" data-name="Path 759" d="M-1473.785,553.231l.529,1.645h1.711l-1.385,1.016.529,1.645-1.384-1.016-1.384,1.016.529-1.645-1.384-1.016h1.711Z" transform="translate(1485.339 -553.231)" fill="#fff"/>
            <path id="Path_760" data-name="Path 760" d="M-1473.785,564.265l.529,1.645h1.711l-1.385,1.016.529,1.645-1.384-1.016-1.384,1.016.529-1.645-1.384-1.016h1.711Z" transform="translate(1485.339 -556.188)" fill="#fff"/>
            <path id="Path_761" data-name="Path 761" d="M-1473.785,575.3l.529,1.645h1.711l-1.385,1.016.529,1.645-1.384-1.016-1.384,1.016.529-1.645-1.384-1.016h1.711Z" transform="translate(1485.339 -559.144)" fill="#fff"/>
            <path id="Path_762" data-name="Path 762" d="M-1473.785,586.332l.529,1.645h1.711l-1.385,1.016.529,1.645-1.384-1.016-1.384,1.016.529-1.645-1.384-1.016h1.711Z" transform="translate(1485.339 -562.101)" fill="#fff"/>
            <path id="Path_763" data-name="Path 763" d="M-1473.785,597.365l.529,1.645h1.711l-1.385,1.016.529,1.645-1.384-1.016-1.384,1.016.529-1.645-1.384-1.016h1.711Z" transform="translate(1485.339 -565.057)" fill="#fff"/>
            <path id="Path_764" data-name="Path 764" d="M-1460.719,553.231l.529,1.645h1.711l-1.384,1.016.529,1.645-1.384-1.016-1.384,1.016.529-1.645-1.384-1.016h1.711Z" transform="translate(1481.837 -553.231)" fill="#fff"/>
            <path id="Path_765" data-name="Path 765" d="M-1460.719,564.265l.529,1.645h1.711l-1.384,1.016.529,1.645-1.384-1.016-1.384,1.016.529-1.645-1.384-1.016h1.711Z" transform="translate(1481.837 -556.188)" fill="#fff"/>
            <path id="Path_766" data-name="Path 766" d="M-1460.719,575.3l.529,1.645h1.711l-1.384,1.016.529,1.645-1.384-1.016-1.384,1.016.529-1.645-1.384-1.016h1.711Z" transform="translate(1481.837 -559.144)" fill="#fff"/>
            <path id="Path_767" data-name="Path 767" d="M-1460.719,586.332l.529,1.645h1.711l-1.384,1.016.529,1.645-1.384-1.016-1.384,1.016.529-1.645-1.384-1.016h1.711Z" transform="translate(1481.837 -562.101)" fill="#fff"/>
            <path id="Path_768" data-name="Path 768" d="M-1460.719,597.365l.529,1.645h1.711l-1.384,1.016.529,1.645-1.384-1.016-1.384,1.016.529-1.645-1.384-1.016h1.711Z" transform="translate(1481.837 -565.057)" fill="#fff"/>
            <path id="Path_769" data-name="Path 769" d="M-1447.91,553.231l.529,1.645h1.711l-1.384,1.016.529,1.645-1.384-1.016-1.384,1.016.529-1.645-1.384-1.016h1.711Z" transform="translate(1478.405 -553.231)" fill="#fff"/>
            <path id="Path_770" data-name="Path 770" d="M-1447.91,564.265l.529,1.645h1.711l-1.384,1.016.529,1.645-1.384-1.016-1.384,1.016.529-1.645-1.384-1.016h1.711Z" transform="translate(1478.405 -556.188)" fill="#fff"/>
            <path id="Path_771" data-name="Path 771" d="M-1447.91,575.3l.529,1.645h1.711l-1.384,1.016.529,1.645-1.384-1.016-1.384,1.016.529-1.645-1.384-1.016h1.711Z" transform="translate(1478.405 -559.144)" fill="#fff"/>
            <path id="Path_772" data-name="Path 772" d="M-1447.91,586.332l.529,1.645h1.711l-1.384,1.016.529,1.645-1.384-1.016-1.384,1.016.529-1.645-1.384-1.016h1.711Z" transform="translate(1478.405 -562.101)" fill="#fff"/>
            <path id="Path_773" data-name="Path 773" d="M-1447.91,597.365l.529,1.645h1.711l-1.384,1.016.529,1.645-1.384-1.016-1.384,1.016.529-1.645-1.384-1.016h1.711Z" transform="translate(1478.405 -565.057)" fill="#fff"/>
            <path id="Path_774" data-name="Path 774" d="M-1435.1,553.231l.529,1.645h1.711l-1.385,1.016.529,1.645-1.384-1.016-1.384,1.016.529-1.645-1.384-1.016h1.711Z" transform="translate(1474.972 -553.231)" fill="#fff"/>
            <path id="Path_775" data-name="Path 775" d="M-1435.1,564.265l.529,1.645h1.711l-1.385,1.016.529,1.645-1.384-1.016-1.384,1.016.529-1.645-1.384-1.016h1.711Z" transform="translate(1474.972 -556.188)" fill="#fff"/>
            <path id="Path_776" data-name="Path 776" d="M-1435.1,575.3l.529,1.645h1.711l-1.385,1.016.529,1.645-1.384-1.016-1.384,1.016.529-1.645-1.384-1.016h1.711Z" transform="translate(1474.972 -559.144)" fill="#fff"/>
            <path id="Path_777" data-name="Path 777" d="M-1435.1,586.332l.529,1.645h1.711l-1.385,1.016.529,1.645-1.384-1.016-1.384,1.016.529-1.645-1.384-1.016h1.711Z" transform="translate(1474.972 -562.101)" fill="#fff"/>
            <path id="Path_778" data-name="Path 778" d="M-1435.1,597.365l.529,1.645h1.711l-1.385,1.016.529,1.645-1.384-1.016-1.384,1.016.529-1.645-1.384-1.016h1.711Z" transform="translate(1474.972 -565.057)" fill="#fff"/>
            <path id="Path_779" data-name="Path 779" d="M-1422.034,553.231l.529,1.645h1.711l-1.384,1.016.529,1.645-1.384-1.016-1.384,1.016.529-1.645-1.384-1.016h1.711Z" transform="translate(1471.471 -553.231)" fill="#fff"/>
            <path id="Path_780" data-name="Path 780" d="M-1422.034,564.265l.529,1.645h1.711l-1.384,1.016.529,1.645-1.384-1.016-1.384,1.016.529-1.645-1.384-1.016h1.711Z" transform="translate(1471.471 -556.188)" fill="#fff"/>
            <path id="Path_781" data-name="Path 781" d="M-1422.034,575.3l.529,1.645h1.711l-1.384,1.016.529,1.645-1.384-1.016-1.384,1.016.529-1.645-1.384-1.016h1.711Z" transform="translate(1471.471 -559.144)" fill="#fff"/>
            <path id="Path_782" data-name="Path 782" d="M-1422.034,586.332l.529,1.645h1.711l-1.384,1.016.529,1.645-1.384-1.016-1.384,1.016.529-1.645-1.384-1.016h1.711Z" transform="translate(1471.471 -562.101)" fill="#fff"/>
            <path id="Path_783" data-name="Path 783" d="M-1422.034,597.365l.529,1.645h1.711l-1.384,1.016.529,1.645-1.384-1.016-1.384,1.016.529-1.645-1.384-1.016h1.711Z" transform="translate(1471.471 -565.057)" fill="#fff"/>
          </g>
        </g>
      </g>
    </g>
    <text id="eng" transform="translate(64 34.945)" font-size="35" font-family="Nexa-Black, Nexa" font-weight="800"><tspan x="-63.95" y="0">eng</tspan></text>
  </g>
</svg>
