<svg xmlns="http://www.w3.org/2000/svg" width="119.703" height="121.065" viewBox="0 0 119.703 121.065">
  <g id="_3" data-name="3" transform="translate(-15 -14.898)">
    <g id="Group_1918" data-name="Group 1918" transform="translate(15 14.898)">
      <g id="Group_1915" data-name="Group 1915" transform="translate(3.894 3.903)">
        <path id="Path_1147" data-name="Path 1147" d="M46.38,20A26.214,26.214,0,1,1,20.09,45.99,26.279,26.279,0,0,1,46.38,20Zm-3.5,37.905,15.962-15.9-5.281-5.373L42.772,47.794l-4.844-5.221L32.715,47.7Z" transform="translate(-20.09 -20)" fill="#4fa2ff"/>
        <path id="Path_1148" data-name="Path 1148" d="M46.754,63.014l-10.162-10.2,5.214-5.13L46.65,52.9l10.785-11.16,5.281,5.373Z" transform="translate(-23.967 -25.109)"/>
      </g>
      <g id="Group_1917" data-name="Group 1917">
        <g id="Group_1916" data-name="Group 1916">
          <path id="Path_1149" data-name="Path 1149" d="M45.118,75.133A30.117,30.117,0,1,1,75.235,45.015,30.152,30.152,0,0,1,45.118,75.133Zm0-52.585A22.467,22.467,0,1,0,67.584,45.015,22.492,22.492,0,0,0,45.118,22.548Z" transform="translate(-15 -14.898)"/>
        </g>
      </g>
    </g>
    <g id="Group_1923" data-name="Group 1923" transform="translate(87.656 34.506)">
      <g id="Group_1920" data-name="Group 1920" transform="translate(5.384 10.509)">
        <g id="Group_1919" data-name="Group 1919">
          <path id="Path_1150" data-name="Path 1150" d="M146.156,78.954h-7.65V65.542a3.63,3.63,0,0,0-3.626-3.626H117.008v-7.65H134.88a11.289,11.289,0,0,1,11.277,11.277Z" transform="translate(-117.008 -54.265)"/>
        </g>
      </g>
      <g id="Group_1922" data-name="Group 1922">
        <g id="Group_1921" data-name="Group 1921">
          <path id="Path_1151" data-name="Path 1151" d="M124.277,69.2,112.624,57.54l-2.653-2.7,14.307-14.307,5.41,5.41-8.924,8.925,8.924,8.924Z" transform="translate(-109.971 -40.529)"/>
        </g>
      </g>
    </g>
    <g id="Group_1928" data-name="Group 1928" transform="translate(31.714 84.185)">
      <g id="Group_1925" data-name="Group 1925">
        <g id="Group_1924" data-name="Group 1924">
          <path id="Path_1152" data-name="Path 1152" d="M66,130.154H48.124a11.288,11.288,0,0,1-11.277-11.276V105.465H44.5v13.413a3.63,3.63,0,0,0,3.626,3.625H66Z" transform="translate(-36.847 -105.465)"/>
        </g>
      </g>
      <g id="Group_1927" data-name="Group 1927" transform="translate(14.816 6.53)">
        <g id="Group_1926" data-name="Group 1926">
          <path id="Path_1153" data-name="Path 1153" d="M61.623,142.669l-5.41-5.41,8.925-8.924-8.925-8.925,5.41-5.41,14.309,14.359Z" transform="translate(-56.213 -114.001)"/>
        </g>
      </g>
    </g>
    <path id="Path_1154" data-name="Path 1154" d="M144.171,164.573a21.659,21.659,0,0,1-1.65,4l4.268,8.18a29.964,29.964,0,0,1-4.907,4.906l-8.178-4.269a21.371,21.371,0,0,1-4,1.653l-2.768,8.811a29.313,29.313,0,0,1-3.465.221,29.9,29.9,0,0,1-3.464-.219l-2.765-8.813a21.569,21.569,0,0,1-4-1.651l-8.18,4.268a29.96,29.96,0,0,1-4.906-4.906l4.269-8.18a21.271,21.271,0,0,1-1.651-4l-8.813-2.768a29.332,29.332,0,0,1-.221-3.465,29.866,29.866,0,0,1,.219-3.464l8.813-2.765a21.529,21.529,0,0,1,1.651-4l-4.268-8.18a29.956,29.956,0,0,1,4.906-4.906l8.18,4.269a21.273,21.273,0,0,1,4-1.653L120,128.831a29.35,29.35,0,0,1,3.465-.221,30.175,30.175,0,0,1,3.464.217l2.767,8.814a21.55,21.55,0,0,1,4,1.65l8.18-4.268a29.964,29.964,0,0,1,4.906,4.907l-4.269,8.18a21.271,21.271,0,0,1,1.653,4l8.811,2.768a29.315,29.315,0,0,1,.221,3.465,30.191,30.191,0,0,1-.217,3.464Zm-20.7-17.042a10.813,10.813,0,1,0,10.813,10.813,10.814,10.814,0,0,0-10.813-10.813Zm0,0" transform="translate(-18.5 -52.904)"/>
    <path id="Path_1155" data-name="Path 1155" d="M159.744,154.1a10.43,10.43,0,0,1-.977,2.365l1.5,3.152a13.71,13.71,0,0,1-2.33,2.33l-3.152-1.5a10.467,10.467,0,0,1-2.365.977l-1.171,3.293a12.425,12.425,0,0,1-3.29,0l-1.17-3.293a10.5,10.5,0,0,1-2.365-.977l-3.153,1.5a13.731,13.731,0,0,1-2.33-2.33l1.5-3.152a10.406,10.406,0,0,1-.977-2.364l-3.293-1.171a12.345,12.345,0,0,1,0-3.291l3.293-1.171a10.408,10.408,0,0,1,.977-2.364l-1.5-3.151a13.642,13.642,0,0,1,2.33-2.329l3.153,1.5a10.489,10.489,0,0,1,2.365-.977l1.17-3.292a13.282,13.282,0,0,1,1.646-.112,13.571,13.571,0,0,1,1.645.11l1.171,3.293a10.429,10.429,0,0,1,2.365.977l3.152-1.5a13.733,13.733,0,0,1,2.33,2.329l-1.5,3.153a10.4,10.4,0,0,1,.977,2.365l3.293,1.171a12.426,12.426,0,0,1,0,3.29ZM149.6,146.767a4.515,4.515,0,1,0,4.514,4.515,4.516,4.516,0,0,0-4.514-4.515Zm0,0" transform="translate(-28.445 -28.863)" fill="#4fa2ff"/>
  </g>
</svg>
