<svg xmlns="http://www.w3.org/2000/svg" width="120.999" height="121.064" viewBox="0 0 120.999 121.064">
  <g id="_1" data-name="1" transform="translate(363.999 -403.611)">
    <circle id="Ellipse_263" data-name="Ellipse 263" cx="10.59" cy="10.59" r="10.59" transform="translate(-268.163 407.594)" fill="#4fa2ff"/>
    <path id="Path_226" data-name="Path 226" d="M-234.135,432.757a14.59,14.59,0,0,1-14.573-14.573,14.59,14.59,0,0,1,14.573-14.573,14.589,14.589,0,0,1,14.573,14.573A14.589,14.589,0,0,1-234.135,432.757Zm0-21.18a6.613,6.613,0,0,0-6.606,6.606,6.614,6.614,0,0,0,6.606,6.606,6.613,6.613,0,0,0,6.606-6.606A6.613,6.613,0,0,0-234.135,411.578Z" transform="translate(-23.439)"/>
    <path id="Path_227" data-name="Path 227" d="M-341.663,534.122-347,528.787l-13.432,13.432h10.67Z" transform="translate(-0.726 -25.448)"/>
    <path id="Path_228" data-name="Path 228" d="M-317.6,518.992l-21.15,9.159-3.918-3.919,9.159-21.15" transform="translate(-4.337 -20.222)" fill="#4fa2ff"/>
    <path id="Path_229" data-name="Path 229" d="M-340.855,532.478l-7.748-7.748,10.235-23.635,7.311,3.167-8.083,18.665.089.089,18.666-8.083,3.166,7.31Z" transform="translate(-3.13 -19.818)"/>
    <rect id="Rectangle_1114" data-name="Rectangle 1114" width="28.64" height="89.982" transform="translate(-275.025 415.701) rotate(45)" fill="#fff"/>
    <path id="Path_230" data-name="Path 230" d="M-313.37,506.86l-25.884-25.885,69.26-69.26L-244.11,437.6Zm-14.618-25.885,14.618,14.618,57.993-57.993-14.618-14.618Z" transform="translate(-5.031 -1.647)"/>
    <g id="Group_372" data-name="Group 372" transform="translate(-363.999 516.708)">
      <rect id="Rectangle_1115" data-name="Rectangle 1115" width="82.811" height="7.967" fill="#4fa2ff"/>
    </g>
  </g>
</svg>
