<svg xmlns="http://www.w3.org/2000/svg" width="121.856" height="122.064" viewBox="0 0 121.856 122.064">
  <g id="_2" data-name="2" transform="translate(-266.857 -19.899)">
    <path id="Path_39604" data-name="Path 39604" d="M348.909,54.926c0,11.81-9.573,21.839-21.383,21.839s-21.384-10.029-21.384-21.839c0-5.661-1.44-19.451,2.151-23.276,3.9-4.155,13.084-6.751,19.233-6.751,5.9,0,14.891,2.394,18.76,6.263S348.909,49.022,348.909,54.926Z" transform="translate(-7.704 -0.988)" fill="#4fa2ff"/>
    <path id="Path_39605" data-name="Path 39605" d="M326.541,79.789a25.655,25.655,0,0,1-25.4-25.85c0-1.026-.052-2.381-.113-3.95-.376-9.722-.384-18.093,3.351-22.072,4.71-5.018,14.965-8.017,22.158-8.017,6.96,0,16.941,2.782,21.6,7.439,4.093,4.091,4.177,12.848,3.876,23.023-.041,1.4-.077,2.615-.077,3.577A25.655,25.655,0,0,1,326.541,79.789Zm0-51.865c-5.268,0-13.361,2.346-16.308,5.485-1.74,1.9-1.321,12.717-1.184,16.271.065,1.651.12,3.078.12,4.259,0,9.662,7.955,17.826,17.372,17.826s17.371-8.163,17.371-17.826c0-1.08.038-2.347.081-3.814.111-3.743.447-15.137-1.529-17.113C339.552,30.1,331.655,27.924,326.541,27.924Z" transform="translate(-6.719)"/>
    <circle id="Ellipse_853" data-name="Ellipse 853" cx="7.362" cy="7.362" r="7.362" transform="translate(287.331 44.074)"/>
    <circle id="Ellipse_854" data-name="Ellipse 854" cx="7.362" cy="7.362" r="7.362" transform="translate(337.587 44.074)"/>
    <path id="Path_39606" data-name="Path 39606" d="M273.136,143.7a49.954,49.954,0,0,1,96.1,0Z" transform="translate(-1.24 -17.286)" fill="#fff"/>
    <path id="Path_39607" data-name="Path 39607" d="M319.945,110.429A45.891,45.891,0,0,1,362.363,138.7H277.529a45.891,45.891,0,0,1,42.416-28.267m0-8.025a53.97,53.97,0,0,0-53.088,44.317H373.035A53.971,53.971,0,0,0,319.945,102.4Z" transform="translate(0 -16.298)"/>
    <circle id="Ellipse_855" data-name="Ellipse 855" cx="33.401" cy="33.401" r="33.401" transform="translate(317.899 71.149)" fill="#fff"/>
    <path id="Path_39608" data-name="Path 39608" d="M362.877,153.591a37.413,37.413,0,1,1,37.413-37.413A37.456,37.456,0,0,1,362.877,153.591Zm0-66.8a29.389,29.389,0,1,0,29.388,29.389A29.422,29.422,0,0,0,362.877,86.79Z" transform="translate(-11.577 -11.628)"/>
    <path id="Path_39609" data-name="Path 39609" d="M388.942,120.41a22.358,22.358,0,1,1-22.357-22.357,22.357,22.357,0,0,1,22.357,22.357Zm-7.364,0" transform="translate(-15.283 -15.439)" fill="#4fa2ff"/>
    <path id="Path_39610" data-name="Path 39610" d="M358.578,137.124l-5.621-5.727,11.34-11.131V105.852h8.025v17.783Z" transform="translate(-17.008 -16.979)"/>
  </g>
</svg>
