<svg xmlns="http://www.w3.org/2000/svg" width="44.882" height="53.045" viewBox="0 0 44.882 53.045">
  <g id="Group_36652" data-name="Group 36652" transform="translate(-533.051 486.475)">
    <path id="Path_499" data-name="Path 499" d="M562.16-406.014h-6.535c-3.886-4.663-17.59,0-17.59,0V-383.8s17.455-6.006,17.476.63h6.534c0-6.636,17.516-.821,17.516-.821v-22.021S566.045-410.677,562.16-406.014Z" transform="translate(-3.304 -51.982)" fill="#4fa2ff"/>
    <path id="Path_500" data-name="Path 500" d="M533.051-384.744v-25.768l1.138-.387c1.453-.495,13.867-4.535,18.838-.09h5.121c4.961-4.45,17.216-.4,18.655.092l1.131.39v25.545l-2.208-.733c-4.888-1.62-12.746-3.2-14.906-1.642a.929.929,0,0,0-.4.87v1.679h-9.887l-.005-1.674a.9.9,0,0,0-.394-.856c-2.155-1.533-9.985.134-14.857,1.809Zm20.534-3.4h3.773a4.2,4.2,0,0,1,1.5-1.914c3.478-2.509,11.552-.688,15.72.5v-18.516a44.507,44.507,0,0,0-5.858-1.327c-4.357-.651-7.4-.236-8.574,1.17l-.5.6h-8.108l-.5-.6c-2.178-2.615-10.138-1.182-14.621.153v18.688c4.163-1.235,12.192-3.133,15.67-.661a4.162,4.162,0,0,1,1.5,1.908Z" transform="translate(0 -48.686)"/>
    <path id="Path_501" data-name="Path 501" d="M573.384-414.721h-.051a9.008,9.008,0,0,0-12.725-.614q-.322.292-.614.614v17.756a9.418,9.418,0,0,1,13.269,1.148l.07.085h.051a9.419,9.419,0,0,1,13.257-1.3l.083.069v-17.756A9.008,9.008,0,0,0,574-415.335Q573.676-415.043,573.384-414.721Z" transform="translate(-17.866 -45.624)" fill="#fff"/>
    <rect id="Rectangle_1195" data-name="Rectangle 1195" width="3.358" height="18.988" transform="translate(553.813 -460.349)"/>
    <path id="Path_502" data-name="Path 502" d="M571.519-413.874H567.66a9.009,9.009,0,0,0-12.725-.614q-.322.293-.615.614v17.756a9.419,9.419,0,0,1,13.271,1.149l.069.083h3.859a9.419,9.419,0,0,1,13.257-1.3l.083.069v-17.756a9.009,9.009,0,0,0-12.725-.614Q571.812-414.2,571.519-413.874Z" transform="translate(-14.105 -46.185)" fill="#fff"/>
    <path id="Path_503" data-name="Path 503" d="M583.238-396l-2.707-2.1a7.766,7.766,0,0,0-10.947.891l-.1.124-.5.569H563.6l-.5-.569c-3.461-3.934-8.044-3.343-11.05-1.015l-2.708,2.1v-21.8l.4-.469c2.007-2.3,6.022-3.6,9.074-3.547h0a10.337,10.337,0,0,1,7.339,2.952h.278a10.337,10.337,0,0,1,7.339-2.952h-.155c3.052-.051,7.221,1.247,9.229,3.547l.4.469Zm-18.149-3.873h2.4a10.926,10.926,0,0,1,12.389-2.5v-14.152c-1.357-1.274-4.407-1.966-6.267-1.931h.168a6.884,6.884,0,0,0-5.321,2.347l-.5.6h-3.337l-.5-.6a6.882,6.882,0,0,0-5.321-2.347h.013c-1.861-.035-4.756.657-6.112,1.931v14.153a10.925,10.925,0,0,1,12.387,2.5Z" transform="translate(-10.804 -42.879)"/>
    <rect id="Rectangle_1196" data-name="Rectangle 1196" width="3.358" height="18.988" transform="translate(553.78 -460.059)"/>
    <path id="Path_504" data-name="Path 504" d="M573.807-456.691v5.014a2.047,2.047,0,0,0,.965,1.749c5.405,3.28,10.086,3.28,15.494,0a2.049,2.049,0,0,0,.965-1.749v-5.014Z" transform="translate(-27.026 -19.751)" fill="#fff"/>
    <path id="Path_505" data-name="Path 505" d="M579.213-449.089a16.5,16.5,0,0,1-8.618-2.711,3.729,3.729,0,0,1-1.774-3.184v-6.693H589.6v6.689a3.733,3.733,0,0,1-1.775,3.185A16.5,16.5,0,0,1,579.213-449.089Zm-7.034-9.23v3.331a.371.371,0,0,0,.154.31c4.887,2.964,8.871,2.964,13.756,0a.375.375,0,0,0,.157-.312v-3.329Z" transform="translate(-23.72 -16.444)"/>
    <path id="Path_506" data-name="Path 506" d="M561.639-475.395l12.812-5.637,12.812,5.637-12.812,5.636Z" transform="translate(-18.957 -3.609)" fill="#fff"/>
    <path id="Path_507" data-name="Path 507" d="M566.241-471.532,549.261-479l16.98-7.472L583.222-479ZM557.6-479l8.641,3.8,8.642-3.8-8.642-3.8Z" transform="translate(-10.749 0)"/>
  </g>
</svg>
