<svg id="Group_720" data-name="Group 720" xmlns="http://www.w3.org/2000/svg" width="53.541" height="53.5" viewBox="0 0 53.541 53.5">
  <g id="Group_707" data-name="Group 707" transform="translate(19.21 0.009)">
    <path id="Path_508" data-name="Path 508" d="M-281.28,20V38.289a16.2,16.2,0,0,1,6.469,10.242h27.861V20Z" transform="translate(281.28 -20)" fill="#fff"/>
  </g>
  <g id="Group_708" data-name="Group 708" transform="translate(19.21 0)">
    <path id="Path_509" data-name="Path 509" d="M-246.966,48.488h-22.27V44.969h18.751V23.493h-30.8V19.974h34.314Z" transform="translate(281.28 -19.974)"/>
  </g>
  <g id="Group_709" data-name="Group 709" transform="translate(4.192 6.806)">
    <path id="Path_510" data-name="Path 510" d="M-322.45,46.458a1.5,1.5,0,0,0,.83-.25,4.444,4.444,0,0,0,4.314,3.726,4.444,4.444,0,0,0,4.314-3.726,1.5,1.5,0,0,0,.831.25,1.507,1.507,0,0,0,1.507-1.508,1.507,1.507,0,0,0-1.507-1.507,1.5,1.5,0,0,0-.728.188c.007-1.212-.077-2.534-.576-3.033a6.349,6.349,0,0,0-3.841-1.282,6.252,6.252,0,0,0-3.937,1.382c-.456.485-.516,1.754-.5,2.924a1.5,1.5,0,0,0-.712-.179,1.508,1.508,0,0,0-1.508,1.507A1.508,1.508,0,0,0-322.45,46.458Z" transform="translate(323.958 -39.315)"/>
  </g>
  <g id="Group_710" data-name="Group 710" transform="translate(0 19.539)">
    <path id="Path_511" data-name="Path 511" d="M-325,75.5a11.049,11.049,0,0,0-10.869,9.073h21.737A11.049,11.049,0,0,0-325,75.5Z" transform="translate(335.869 -75.498)"/>
  </g>
  <g id="Group_711" data-name="Group 711" transform="translate(35.995 31.694)">
    <path id="Path_512" data-name="Path 512" d="M-232.076,117.178a1.5,1.5,0,0,0,.831-.25,4.443,4.443,0,0,0,4.314,3.726,4.443,4.443,0,0,0,4.314-3.726,1.5,1.5,0,0,0,.831.25,1.507,1.507,0,0,0,1.507-1.507,1.507,1.507,0,0,0-1.507-1.507,1.5,1.5,0,0,0-.728.188c.006-1.212-.077-2.534-.576-3.033a6.345,6.345,0,0,0-3.84-1.282,6.25,6.25,0,0,0-3.938,1.382c-.456.485-.516,1.754-.5,2.924a1.5,1.5,0,0,0-.712-.178,1.507,1.507,0,0,0-1.507,1.507A1.507,1.507,0,0,0-232.076,117.178Z" transform="translate(233.583 -110.036)"/>
  </g>
  <g id="Group_712" data-name="Group 712" transform="translate(20.158 31.694)">
    <path id="Path_513" data-name="Path 513" d="M-277.079,117.178a1.5,1.5,0,0,0,.831-.25,4.443,4.443,0,0,0,4.314,3.726,4.443,4.443,0,0,0,4.314-3.726,1.5,1.5,0,0,0,.831.25,1.507,1.507,0,0,0,1.507-1.507,1.507,1.507,0,0,0-1.507-1.507,1.5,1.5,0,0,0-.728.188c.007-1.212-.076-2.534-.576-3.033a6.346,6.346,0,0,0-3.841-1.282,6.252,6.252,0,0,0-3.938,1.382c-.455.485-.515,1.754-.5,2.924a1.5,1.5,0,0,0-.712-.178,1.507,1.507,0,0,0-1.507,1.507A1.507,1.507,0,0,0-277.079,117.178Z" transform="translate(278.586 -110.036)"/>
  </g>
  <g id="Group_713" data-name="Group 713" transform="translate(15.967 44.426)">
    <path id="Path_514" data-name="Path 514" d="M-279.628,146.218a11.049,11.049,0,0,0-10.869,9.073h21.737A11.049,11.049,0,0,0-279.628,146.218Z" transform="translate(290.497 -146.218)"/>
  </g>
  <g id="Group_716" data-name="Group 716" transform="translate(3.212 2.397)">
    <g id="Group_714" data-name="Group 714" transform="translate(3.144 3.358)">
      <path id="Path_515" data-name="Path 515" d="M-317.808,36.328v3.016a1.838,1.838,0,0,0,.876,1.568,6.915,6.915,0,0,0,3.612,1.12,6.913,6.913,0,0,0,3.611-1.12,1.84,1.84,0,0,0,.876-1.568V36.328Z" transform="translate(317.808 -36.328)" fill="#4fa2ff"/>
    </g>
    <g id="Group_715" data-name="Group 715">
      <path id="Path_516" data-name="Path 516" d="M-319.111,26.786l-7.631,3.358,7.631,3.358,7.632-3.358Z" transform="translate(326.742 -26.786)" fill="#4fa2ff"/>
    </g>
  </g>
  <g id="Group_717" data-name="Group 717" transform="translate(4.192 31.694)">
    <path id="Path_517" data-name="Path 517" d="M-322.45,117.178a1.5,1.5,0,0,0,.83-.25,4.444,4.444,0,0,0,4.314,3.726,4.443,4.443,0,0,0,4.314-3.726,1.5,1.5,0,0,0,.831.25,1.507,1.507,0,0,0,1.507-1.507,1.507,1.507,0,0,0-1.507-1.507,1.5,1.5,0,0,0-.728.188c.007-1.212-.077-2.534-.576-3.033a6.347,6.347,0,0,0-3.841-1.282,6.25,6.25,0,0,0-3.937,1.382c-.456.485-.516,1.754-.5,2.924a1.5,1.5,0,0,0-.712-.178,1.508,1.508,0,0,0-1.508,1.507A1.507,1.507,0,0,0-322.45,117.178Z" transform="translate(323.958 -110.036)"/>
  </g>
  <g id="Group_718" data-name="Group 718" transform="translate(0 44.426)">
    <path id="Path_518" data-name="Path 518" d="M-325,146.218a11.049,11.049,0,0,0-10.869,9.073h13.591a13.433,13.433,0,0,1,3.66-7.042A10.992,10.992,0,0,0-325,146.218Z" transform="translate(335.869 -146.218)"/>
  </g>
  <g id="Group_719" data-name="Group 719" transform="translate(36.369 44.426)">
    <path id="Path_519" data-name="Path 519" d="M-226.218,146.218a10.987,10.987,0,0,0-6.3,1.977,13.438,13.438,0,0,1,3.711,7.1h13.461A11.049,11.049,0,0,0-226.218,146.218Z" transform="translate(232.522 -146.218)"/>
  </g>
  <g id="Group_756" data-name="Group 756" transform="translate(19.21 3.627)">
    <text id="Online_school" data-name="Online

school" transform="translate(2.08 3.678)" font-size="6" font-family="Nexa-Black, Nexa" letter-spacing="0.01em" font-weight="800"><tspan x="0.806" y="6">ONLINE</tspan><tspan x="13" y="9"></tspan><tspan font-family="Nexa-Regular" font-weight="400"><tspan x="3.686" y="12">school</tspan></tspan></text>
  </g>
</svg>
