<svg id="Group_36485" data-name="Group 36485" xmlns="http://www.w3.org/2000/svg" width="45.001" height="53.554" viewBox="0 0 45.001 53.554">
  <g id="Group_24" data-name="Group 24" transform="translate(0 34.771)">
    <path id="Path_202" data-name="Path 202" d="M-331.656,120.175a19.449,19.449,0,0,1,17.977,11.98h-35.955a19.45,19.45,0,0,1,17.977-11.98m0-3.4a22.874,22.874,0,0,0-22.5,18.783h45a22.873,22.873,0,0,0-22.5-18.783Z" transform="translate(354.157 -116.774)"/>
  </g>
  <g id="Group_27" data-name="Group 27" transform="translate(0 34.771)">
    <g id="Group_25" data-name="Group 25" transform="translate(2.136 1.701)">
      <path id="Path_203" data-name="Path 203" d="M-347.878,137.155a21.143,21.143,0,0,1,20.365-15.381,21.143,21.143,0,0,1,20.365,15.381Z" transform="translate(347.878 -121.774)" fill="#fff"/>
    </g>
    <g id="Group_26" data-name="Group 26">
      <path id="Path_204" data-name="Path 204" d="M-331.656,120.175a19.449,19.449,0,0,1,17.977,11.98h-35.955a19.45,19.45,0,0,1,17.977-11.98m0-3.4a22.874,22.874,0,0,0-22.5,18.783h45a22.873,22.873,0,0,0-22.5-18.783Z" transform="translate(354.157 -116.774)"/>
    </g>
  </g>
  <g id="Group_31" data-name="Group 31" transform="translate(8.678 6.711)">
    <g id="Group_28" data-name="Group 28" transform="translate(2.891)">
      <path id="Path_205" data-name="Path 205" d="M-296.91,52a9.229,9.229,0,0,1-9.063,9.256A9.229,9.229,0,0,1-315.036,52c0-2.4-.611-8.244.911-9.865,1.653-1.761,5.545-2.861,8.151-2.861,2.5,0,6.311,1.014,7.951,2.654S-296.91,49.492-296.91,52Z" transform="translate(316.852 -37.568)" fill="#4fa2ff"/>
      <path id="Path_206" data-name="Path 206" d="M-309.263,59.652A10.873,10.873,0,0,1-320.027,48.7c0-.435-.022-1.009-.048-1.674-.16-4.12-.163-7.669,1.42-9.355,2-2.127,6.343-3.4,9.391-3.4,2.95,0,7.18,1.179,9.154,3.152,1.734,1.734,1.77,5.445,1.643,9.758-.018.595-.033,1.108-.033,1.516A10.873,10.873,0,0,1-309.263,59.652Zm0-21.982c-2.232,0-5.662.994-6.912,2.325-.737.806-.56,5.39-.5,6.9.027.7.051,1.3.051,1.805a7.56,7.56,0,0,0,7.362,7.555A7.561,7.561,0,0,0-301.9,48.7c0-.458.016-.995.034-1.617.047-1.587.189-6.415-.648-7.253C-303.749,38.592-307.1,37.67-309.263,37.67Z" transform="translate(320.143 -34.269)"/>
    </g>
    <g id="Group_29" data-name="Group 29" transform="translate(0 10.246)">
      <ellipse id="Ellipse_260" data-name="Ellipse 260" cx="3.12" cy="3.12" rx="3.12" ry="3.12"/>
    </g>
    <g id="Group_30" data-name="Group 30" transform="translate(21.3 10.246)">
      <ellipse id="Ellipse_261" data-name="Ellipse 261" cx="3.12" cy="3.12" rx="3.12" ry="3.12"/>
    </g>
  </g>
  <g id="Group_34" data-name="Group 34" transform="translate(5.591 0)">
    <g id="Group_32" data-name="Group 32" transform="translate(6.581 8.278)">
      <path id="Path_207" data-name="Path 207" d="M-313.367,43.876v4.965a2.027,2.027,0,0,0,.956,1.731c5.357,3.249,9.988,3.249,15.344,0a2.026,2.026,0,0,0,.956-1.731V43.876Zm0,0" transform="translate(315.067 -42.175)" fill="#fff"/>
      <path id="Path_208" data-name="Path 208" d="M-308.037,51.418a16.374,16.374,0,0,1-8.555-2.691,3.732,3.732,0,0,1-1.774-3.185V38.876h20.657v6.666a3.735,3.735,0,0,1-1.776,3.186A16.369,16.369,0,0,1-308.037,51.418Zm-6.928-9.141v3.265a.335.335,0,0,0,.134.276c4.826,2.927,8.76,2.927,13.584,0a.331.331,0,0,0,.137-.277V42.277Z" transform="translate(318.366 -38.876)"/>
    </g>
    <g id="Group_33" data-name="Group 33">
      <path id="Path_209" data-name="Path 209" d="M-325.3,25.584-312.616,20l12.688,5.583-12.688,5.582Zm0,0" transform="translate(329.525 -18.143)" fill="#fff"/>
      <path id="Path_210" data-name="Path 210" d="M-320.808,29.418l-16.909-7.44,16.909-7.441,16.91,7.441Zm-8.465-7.44,8.465,3.724,8.465-3.724-8.465-3.725Z" transform="translate(337.717 -14.537)"/>
    </g>
  </g>
</svg>
