<svg xmlns="http://www.w3.org/2000/svg" xmlns:xlink="http://www.w3.org/1999/xlink" width="96.609" height="43.983" viewBox="0 0 96.609 43.983">
  <defs>
    <clipPath id="clip-path">
      <ellipse id="Ellipse_307" data-name="Ellipse 307" cx="20.645" cy="20.645" rx="20.645" ry="20.645" fill="none"/>
    </clipPath>
  </defs>
  <g id="Group_1025" data-name="Group 1025" transform="translate(-2.098 -10.493)">
    <g id="Group_1024" data-name="Group 1024" transform="translate(0)">
      <g id="Group_1023" data-name="Group 1023" transform="translate(57.417 13.185)">
        <g id="Group_1022" data-name="Group 1022" clip-path="url(#clip-path)">
          <rect id="Rectangle_1272" data-name="Rectangle 1272" width="51.833" height="20.645" transform="translate(-5.271)" fill="#fff"/>
          <rect id="Rectangle_1273" data-name="Rectangle 1273" width="51.833" height="20.645" transform="translate(-5.271 20.645)" fill="#e12319"/>
        </g>
      </g>
      <path id="Path_39626" data-name="Path 39626" d="M-40.5-17.637a7.525,7.525,0,0,1,5.845,2.512,9.284,9.284,0,0,1,2.273,6.477A9.284,9.284,0,0,1-34.658-2.17,7.525,7.525,0,0,1-40.5.342a7.264,7.264,0,0,1-5.042-1.88v8.75H-51.9V-17.295h5.52l.359,2A7.232,7.232,0,0,1-40.5-17.637ZM-44.656-5.93A3.276,3.276,0,0,0-42.144-4.9a3.263,3.263,0,0,0,2.512-1.034,3.829,3.829,0,0,0,.957-2.709,3.829,3.829,0,0,0-.957-2.709,3.263,3.263,0,0,0-2.512-1.034,3.263,3.263,0,0,0-2.512,1.034,3.829,3.829,0,0,0-.957,2.709A3.86,3.86,0,0,0-44.656-5.93Zm30.933,3.879A9.86,9.86,0,0,1-20.764.393a9.923,9.923,0,0,1-7.058-2.444,8.594,8.594,0,0,1-2.615-6.6,8.567,8.567,0,0,1,2.615-6.588,9.944,9.944,0,0,1,7.058-2.435,9.913,9.913,0,0,1,7.05,2.435,8.581,8.581,0,0,1,2.606,6.588A8.594,8.594,0,0,1-13.723-2.051Zm-9.485-3.862a3.137,3.137,0,0,0,2.444,1.042A3.1,3.1,0,0,0-18.337-5.9a3.966,3.966,0,0,0,.923-2.743,3.966,3.966,0,0,0-.923-2.743,3.1,3.1,0,0,0-2.427-1.034A3.111,3.111,0,0,0-23.2-11.382a3.95,3.95,0,0,0-.931,2.734A3.973,3.973,0,0,0-23.208-5.913ZM-8.237,0V-24.507H-1.88V0Z" transform="translate(54 35)"/>
    </g>
  </g>
</svg>
