<svg id="Layer_12" data-name="Layer 12" xmlns="http://www.w3.org/2000/svg" viewBox="0 0 192 192"><defs><style>.cls-1{fill:#fff;}.cls-2{fill:#4fa2ff;}</style></defs><title>ICON_FOR_LANDING_ARGENTINIAN_BLUE</title><path class="cls-1" d="M30.55,122.57a70,70,0,0,1-5.36-27,70.94,70.94,0,0,1,60.4-70v40A31.72,31.72,0,0,0,65,102.66Z"/><path d="M80.59,31.61V62.18a36.74,36.74,0,0,0-21.1,37.9L33.2,115.26A65.77,65.77,0,0,1,80.59,31.61M90.59,20A75.73,75.73,0,0,0,28.3,129.64L71,105A26.7,26.7,0,0,1,90.59,69.36V20Z"/><path class="cls-2" d="M117.23,72.1a31.83,31.83,0,0,0-11-6.55v-40a70,70,0,0,1,45.55,26.61Z"/><path d="M111.21,31.59a64.93,64.93,0,0,1,32.87,19.23L117.73,66a37.28,37.28,0,0,0-6.52-3.86V31.59M101.21,20V69.36a26.7,26.7,0,0,1,15.14,9L159,53.74A75.66,75.66,0,0,0,101.21,20Z"/><path class="cls-2" d="M95.9,166.23a70.81,70.81,0,0,1-54.75-26L76,120.15a31.32,31.32,0,0,0,19.93,7.06,31.7,31.7,0,0,0,31.24-37l34.77-20.07a70.75,70.75,0,0,1-66,96.11Z"/><path d="M159.11,77.5A65.71,65.71,0,0,1,49,141.51l26.66-15.39a36.7,36.7,0,0,0,57-30.6c0-.88,0-1.77-.1-2.65L159.11,77.5M164.27,63,121.42,87.72A26.68,26.68,0,0,1,76.64,114L33.75,138.76A75.72,75.72,0,0,0,164.27,63Z"/><circle class="cls-1" cx="133.21" cy="133.39" r="21.08"/><path d="M133.21,159.47a26.08,26.08,0,1,1,26.08-26.08A26.11,26.11,0,0,1,133.21,159.47Zm0-42.16a16.08,16.08,0,1,0,16.08,16.08A16.1,16.1,0,0,0,133.21,117.31Z"/><rect x="152.73" y="143.2" width="10" height="28.7" transform="translate(-65.2 157.68) rotate(-45)"/></svg>