<svg id="Layer_12" data-name="Layer 12" xmlns="http://www.w3.org/2000/svg" viewBox="0 0 192 192"><defs><style>.cls-1{fill:#fff;}.cls-2{fill:#4fa2ff;}.cls-3{fill:none;}</style></defs><title>ICON_FOR_LANDING_ARGENTINIAN_BLUE</title><rect class="cls-1" x="25.07" y="40.19" width="89.21" height="126.87"/><path d="M119.29,172.07H20.07V35.19h99.22Zm-89.22-10h79.22V45.19H30.07Z"/><path class="cls-2" d="M25.09,35a10,10,0,0,1,10-10h79.23V45H35.06a10,10,0,0,1-10-10Zm0,0"/><path d="M119.29,50H35.06a15,15,0,0,1,0-29.95h84.23ZM35.06,30a5,5,0,0,0,0,9.95h74.23V30Z"/><rect class="cls-2" x="114.29" y="34.37" width="40" height="40"/><path d="M159.29,79.37h-50v-50h50Zm-40-10h30v-30h-30Z"/><path d="M130.47,50.13V44.06h7.59v6.07h6.3v7h-6.3v6.12h-7.59V57.17h-6.26v-7Z"/><rect class="cls-1" x="114.29" y="74.37" width="40" height="40"/><path d="M159.29,119.37h-50v-50h50Zm-40-10h30v-30h-30Z"/><path d="M130.47,90.13V84.06h7.59v6.07h6.3v7h-6.3v6.12h-7.59V97.17h-6.26v-7Z"/><rect class="cls-1" x="114.29" y="114.37" width="40" height="40"/><path d="M159.29,159.37h-50v-50h50Zm-40-10h30v-30h-30Z"/><path class="cls-2" d="M119.29,149.37c2.67-1.93,30-30,30-30v30Z"/><rect x="39.99" y="60.03" width="49.33" height="10"/><rect x="39.99" y="77.74" width="49.33" height="10"/><rect x="39.99" y="95.45" width="49.33" height="10"/><path d="M138.06,130.13v-6.07h-7.59v6.07h-6.26v7h6.26v1.34c2.72-2.73,5.6-5.65,8.28-8.38Z"/><path class="cls-3" d="M138.75,130.13h5.61v7h-6.3v6.12h-7.59v-4.78c-5.41,5.44-10.14,10.11-11.18,10.86h30v-30S144.5,124.29,138.75,130.13Z"/><path d="M138.06,143.29v-6.12h6.3v-7h-5.61c-2.68,2.73-5.56,5.65-8.28,8.38v4.78Z"/></svg>