<svg id="Group_36200" data-name="Group 36200" xmlns="http://www.w3.org/2000/svg" width="53.972" height="57.557" viewBox="0 0 53.972 57.557">
  <g id="Group_36092" data-name="Group 36092" transform="translate(3.605 28.085)">
    <path id="Path_37715" data-name="Path 37715" d="M449.271,453.246a24.6,24.6,0,0,0-24.2,20.2l4.865-3.658a20.954,20.954,0,0,1,36.382-4.122h4.321A24.576,24.576,0,0,0,449.271,453.246Z" transform="translate(-425.07 -453.246)"/>
  </g>
  <g id="Group_36093" data-name="Group 36093" transform="translate(18.395 8.697)">
    <path id="Path_37716" data-name="Path 37716" d="M485.994,411.274a9.373,9.373,0,1,1-18.742,0c0-2.48-.631-8.524.942-10.2,1.71-1.821,5.734-2.959,8.429-2.959,2.588,0,6.525,1.049,8.221,2.745S485.994,408.687,485.994,411.274Z" transform="translate(-467.126 -398.115)" fill="#4fa2ff"/>
  </g>
  <g id="Group_36094" data-name="Group 36094" transform="translate(16.642 6.939)">
    <path id="Path_37717" data-name="Path 37717" d="M473.39,419.361a11.243,11.243,0,0,1-11.129-11.329c0-.449-.023-1.043-.05-1.73-.165-4.261-.169-7.929,1.469-9.673,2.064-2.2,6.558-3.514,9.71-3.514,3.05,0,7.424,1.219,9.465,3.26,1.794,1.793,1.83,5.631,1.7,10.09-.018.615-.034,1.146-.034,1.568A11.243,11.243,0,0,1,473.39,419.361Zm0-22.729c-2.308,0-5.855,1.028-7.146,2.4-.762.833-.579,5.573-.519,7.131.028.723.052,1.349.052,1.866a7.615,7.615,0,1,0,15.226,0c0-.473.017-1.028.035-1.672.049-1.641.2-6.634-.67-7.5C479.092,397.585,475.631,396.632,473.39,396.632Z" transform="translate(-462.14 -393.115)"/>
  </g>
  <g id="Group_36095" data-name="Group 36095" transform="translate(13.653 17.533)">
    <circle id="Ellipse_375" data-name="Ellipse 375" cx="3.226" cy="3.226" r="3.226" transform="translate(0 0)"/>
  </g>
  <g id="Group_36096" data-name="Group 36096" transform="translate(35.677 17.533)">
    <circle id="Ellipse_376" data-name="Ellipse 376" cx="3.226" cy="3.226" r="3.226" transform="translate(0 0)"/>
  </g>
  <g id="Group_36097" data-name="Group 36097" transform="translate(19.025 10.318)">
    <path id="Path_37718" data-name="Path 37718" d="M468.917,402.723v5.134a2.1,2.1,0,0,0,.988,1.79c5.539,3.359,10.327,3.359,15.867,0a2.1,2.1,0,0,0,.989-1.79v-5.134Zm0,0" transform="translate(-468.917 -402.723)" fill="#fff"/>
  </g>
  <g id="Group_36098" data-name="Group 36098" transform="translate(17.266 8.559)">
    <path id="Path_37719" data-name="Path 37719" d="M474.6,410.692a16.932,16.932,0,0,1-8.845-2.782,3.859,3.859,0,0,1-1.835-3.294v-6.892h21.36v6.892a3.862,3.862,0,0,1-1.836,3.294A16.93,16.93,0,0,1,474.6,410.692Zm-7.163-9.452v3.376a.346.346,0,0,0,.139.285c4.99,3.027,9.058,3.027,14.046,0a.344.344,0,0,0,.142-.287V401.24Z" transform="translate(-463.917 -397.723)"/>
  </g>
  <g id="Group_36099" data-name="Group 36099" transform="translate(14.827 1.921)">
    <path id="Path_37720" data-name="Path 37720" d="M456.98,384.62l13.118-5.773,13.119,5.773L470.1,390.392Zm0,0" transform="translate(-456.98 -378.847)" fill="#fff"/>
  </g>
  <g id="Group_36100" data-name="Group 36100" transform="translate(10.461 0)">
    <path id="Path_37721" data-name="Path 37721" d="M462.05,388.771l-17.484-7.693,17.484-7.694,17.485,7.694Zm-8.753-7.693,8.753,3.851,8.753-3.851-8.753-3.852Z" transform="translate(-444.566 -373.384)"/>
  </g>
  <g id="Group_36101" data-name="Group 36101" transform="translate(0 54.04)">
    <rect id="Rectangle_1441" data-name="Rectangle 1441" width="53.972" height="3.517" transform="translate(0 0)"/>
  </g>
  <g id="Group_36102" data-name="Group 36102" transform="translate(37.533 42.428)">
    <path id="Rectangle_1442" data-name="Rectangle 1442" d="M0,0H8.11a0,0,0,0,1,0,0V4.055A4.055,4.055,0,0,1,4.055,8.11h0A4.055,4.055,0,0,1,0,4.055V0A0,0,0,0,1,0,0Z" transform="translate(1.759 1.758)" fill="#4fa2ff"/>
    <path id="Path_37722" data-name="Path 37722" d="M527.359,505.657a5.82,5.82,0,0,1-5.814-5.813V494.03h11.627v5.814A5.82,5.82,0,0,1,527.359,505.657Zm-2.3-8.111v2.3a2.3,2.3,0,0,0,4.594,0v-2.3Z" transform="translate(-521.545 -494.03)"/>
  </g>
  <g id="Group_36103" data-name="Group 36103" transform="translate(0.636 25.929)">
    <rect id="Rectangle_1443" data-name="Rectangle 1443" width="31.114" height="23.793" transform="translate(1.758 1.758)" fill="#fff"/>
    <path id="Path_37723" data-name="Path 37723" d="M451.258,474.425h-34.63v-27.31h34.63Zm-31.114-3.517h27.6V450.632h-27.6Z" transform="translate(-416.628 -447.115)"/>
  </g>
  <g id="Group_36104" data-name="Group 36104" transform="translate(47.401 44.349)">
    <path id="Path_37724" data-name="Path 37724" d="M556.111,504.832h-3.517v-1.82h-2.987V499.5h6.5Z" transform="translate(-549.608 -499.495)"/>
  </g>
  <g id="Group_36105" data-name="Group 36105" transform="translate(12.958 34.59)">
    <circle id="Ellipse_377" data-name="Ellipse 377" cx="3.235" cy="3.235" r="3.235" transform="translate(1.758 1.759)" fill="#4fa2ff"/>
    <path id="Path_37725" data-name="Path 37725" d="M456.659,481.731a4.994,4.994,0,1,1,4.993-4.994A5,5,0,0,1,456.659,481.731Zm0-6.47a1.477,1.477,0,1,0,1.477,1.477A1.479,1.479,0,0,0,456.659,475.261Z" transform="translate(-451.666 -471.744)"/>
  </g>
</svg>
