<svg id="Layer_12" data-name="Layer 12" xmlns="http://www.w3.org/2000/svg" viewBox="0 0 192 192"><defs><style>.cls-1{fill:#4fa2ff;}.cls-2{fill:#fff;}</style></defs><title>ICON_FOR_LANDING_ARGENTINIAN_BLUE</title><rect class="cls-1" x="95.94" y="25.27" width="71.07" height="73"/><path d="M172,103.27H90.94v-83H172Zm-71.07-10H162v-63H100.94Z"/><rect class="cls-2" x="24.87" y="25.27" width="71.07" height="73"/><path d="M100.94,103.27H19.87v-83h81.07Zm-71.07-10H90.94v-63H29.87Z"/><rect x="46.2" y="47.45" width="28.41" height="10"/><rect x="46.2" y="66.08" width="28.41" height="10"/><path d="M48.11,130.33a4.26,4.26,0,0,0,2.36-.71,12.39,12.39,0,0,0,24.51,0,4.28,4.28,0,1,0,.29-7.32c0-3.45-.21-7.2-1.63-8.62-2.25-2.25-7.48-3.64-10.92-3.64S53.8,111.55,51.53,114c-1.29,1.38-1.46,5-1.4,8.31a4.28,4.28,0,1,0-2,8.06Z"/><path d="M62.8,146.22A31.4,31.4,0,0,0,31.91,172H93.68A31.39,31.39,0,0,0,62.8,146.22Z"/><path d="M115.66,130.33a4.26,4.26,0,0,0,2.36-.71,12.39,12.39,0,0,0,24.52,0,4.21,4.21,0,0,0,2.36.71,4.28,4.28,0,1,0-2.07-8c0-3.45-.22-7.2-1.64-8.62-2.25-2.25-7.48-3.64-10.91-3.64s-8.92,1.51-11.19,3.92c-1.3,1.38-1.47,5-1.41,8.31a4.28,4.28,0,1,0-2,8.06Z"/><path d="M130.35,146.22A31.4,31.4,0,0,0,99.46,172h61.77A31.39,31.39,0,0,0,130.35,146.22Z"/><path d="M126.48,73l15-11.24-15-11.25Zm5,8.75a20,20,0,1,1,20-20A20,20,0,0,1,131.47,81.76Z"/></svg>