<svg id="Layer_12" data-name="Layer 12" xmlns="http://www.w3.org/2000/svg" viewBox="0 0 192 192"><defs><style>.cls-1{fill:#fff;}.cls-2{fill:#4fa2ff;}</style></defs><title>ICON_FOR_LANDING_ARGENTINIAN_BLUE</title><path class="cls-1" d="M64.83,110.27h-.15c-9.84-11.81-29.88-11.63-39.72,0v52.87c11.69-9.06,28.09-9.55,39.72,3.66h.15c11.63-13.21,28-12.72,39.72-3.66V110.27C94.71,98.64,74.67,98.46,64.83,110.27Z"/><path d="M109.55,173.34l-8.06-6.25c-9-6.94-22.6-8.69-32.91,3l-1.49,1.69H62.42l-1.49-1.69c-10.31-11.71-24-10-32.91-3L20,173.34v-64.9l1.19-1.4A30.86,30.86,0,0,1,44.9,96.48H45a31.18,31.18,0,0,1,19.73,6.86,31.13,31.13,0,0,1,19.72-6.86h.13A30.86,30.86,0,0,1,108.36,107l1.19,1.4ZM43.19,151.56a32.79,32.79,0,0,1,21.57,8.28,32.34,32.34,0,0,1,34.79-5.47V112.23a21.28,21.28,0,0,0-14.94-5.75h-.09a20.52,20.52,0,0,0-15.85,7l-1.5,1.8H62.34l-1.5-1.8a20.52,20.52,0,0,0-15.85-7H44.9A21.23,21.23,0,0,0,30,112.23v42.14A33.09,33.09,0,0,1,43.19,151.56Z"/><rect x="59.68" y="110.27" width="10" height="56.53"/><rect x="139.32" y="34.17" width="10" height="80.13" transform="translate(-17.95 71.48) rotate(-26.25)"/><rect x="114.66" y="124.8" width="55.51" height="10" transform="translate(-50.07 138.73) rotate(-45)"/><rect class="cls-1" x="97.48" y="34.09" width="15.96" height="52.16" transform="translate(73.44 -56.95) rotate(45)"/><path d="M92.67,91.32,74.31,73l44-44,18.36,18.36ZM88.45,73l4.22,4.21,29.8-29.81-4.21-4.21Z"/><path class="cls-2" d="M102.53,63.1a38.36,38.36,0,0,0-54.25,0l54.25,54.25A38.36,38.36,0,0,0,102.53,63.1Z"/><path d="M102.53,124.42,41.21,63.1l3.54-3.53a43.35,43.35,0,0,1,61.31,0h0a43.39,43.39,0,0,1,0,61.31ZM55.62,63.36,102.26,110A33.39,33.39,0,0,0,99,66.64h0a33.37,33.37,0,0,0-43.37-3.28Z"/><circle class="cls-2" cx="126.61" cy="38.3" r="14.09"/><path d="M126.61,57.4A19.1,19.1,0,1,1,145.7,38.3,19.12,19.12,0,0,1,126.61,57.4Zm0-28.19a9.1,9.1,0,1,0,9.09,9.09A9.11,9.11,0,0,0,126.61,29.21Z"/><circle class="cls-2" cx="162.04" cy="110.17" r="9.12"/><path d="M162,124.29a14.12,14.12,0,1,1,14.12-14.12A14.14,14.14,0,0,1,162,124.29Zm0-18.24a4.12,4.12,0,1,0,4.12,4.12A4.13,4.13,0,0,0,162,106.05Z"/><polyline class="cls-2" points="119.2 166.88 166.99 166.88 166.99 150.93 119.2 150.93"/><polygon points="171.99 171.88 119.2 171.88 119.2 161.88 161.99 161.88 161.99 155.93 119.2 155.93 119.2 145.93 171.99 145.93 171.99 171.88"/></svg>