<svg xmlns="http://www.w3.org/2000/svg" xmlns:xlink="http://www.w3.org/1999/xlink" width="953.729" height="827.522" viewBox="0 0 953.729 827.522">
  <defs>
    <linearGradient id="linear-gradient" x1="-0.115" y1="1.456" x2="0.704" y2="0.656" gradientUnits="objectBoundingBox">
      <stop offset="0" stop-color="#fff"/>
      <stop offset="1" stop-color="#fff" stop-opacity="0"/>
    </linearGradient>
  </defs>
  <g id="Group_36721" data-name="Group 36721" transform="translate(-1028 -186.554)">
    <g id="Group_1305" data-name="Group 1305" transform="translate(1372.67 973.424)">
      <path id="Path_796" data-name="Path 796" d="M492.343,406.315c1.9.663,57.831,1.182,59.927-.1.559-.339.189-7.452-2.609-10.837-3.5-4.236-3.726,1.064-4.028-7.053l-18.651-.5s-30.492,9.06-32.639,10.716S490.447,405.652,492.343,406.315Z" transform="translate(-491.535 -378.255)" fill="#effaff" stroke="#000" stroke-miterlimit="10" stroke-width="1"/>
      <g id="Group_1304" data-name="Group 1304" transform="translate(1.474)">
        <g id="Group_1303" data-name="Group 1303" transform="translate(0 10.431)">
          <path id="Path_797" data-name="Path 797" d="M492.291,393.788c9.139-.1,46.017.343,55.06.936.075,0,.073.053,0,.056-9.057.3-45.93-.445-55.062-.841C492.095,393.928,492.1,393.79,492.291,393.788Z" transform="translate(-492.144 -380.25)"/>
          <path id="Path_798" data-name="Path 798" d="M494.19,391.464a7.346,7.346,0,0,1,5.435,2.3,7.11,7.11,0,0,1,1.978,4.906c0,.056-.1.056-.111,0a8.482,8.482,0,0,0-7.3-7.092A.058.058,0,0,1,494.19,391.464Z" transform="translate(-489.324 -383.526)"/>
          <path id="Path_799" data-name="Path 799" d="M500.931,388.18c3.658,0,7.882,1.344,10.114,4.367.087.116-.08.237-.189.179a50.542,50.542,0,0,0-9.993-4.1A.23.23,0,0,1,500.931,388.18Z" transform="translate(-480.013 -388.18)"/>
          <path id="Path_800" data-name="Path 800" d="M499.757,388.62c3.658,0,7.882,1.344,10.116,4.364.085.118-.082.239-.191.181a50.7,50.7,0,0,0-9.993-4.1A.229.229,0,0,1,499.757,388.62Z" transform="translate(-481.677 -387.556)"/>
          <path id="Path_801" data-name="Path 801" d="M498.584,389.059c3.658,0,7.88,1.344,10.114,4.367.087.116-.082.239-.189.181a50.515,50.515,0,0,0-10-4.1A.23.23,0,0,1,498.584,389.059Z" transform="translate(-483.341 -386.934)"/>
          <path id="Path_802" data-name="Path 802" d="M497.411,389.5c3.658,0,7.88,1.344,10.114,4.367.087.116-.082.237-.189.181a50.505,50.505,0,0,0-10-4.1A.23.23,0,0,1,497.411,389.5Z" transform="translate(-485.006 -386.31)"/>
          <path id="Path_803" data-name="Path 803" d="M510.45,390.506c4.1.068,4.006,6.444-.1,6.378S506.339,390.441,510.45,390.506Z" transform="translate(-470.631 -384.882)" fill="#8bd3ff"/>
        </g>
        <path id="Path_804" data-name="Path 804" d="M500.03,389.848c1.942,2.575,4.927,4.217,7.507,6.052a.444.444,0,0,0,.66-.285.1.1,0,0,0,.116-.1,19.187,19.187,0,0,0-3.2-9.4c-1.122-1.61-3.433-3.141-5.3-1.63C498.04,385.914,498.9,388.347,500.03,389.848Zm-.128-3.032c.416-3.973,3.965-.868,4.744.351a20.564,20.564,0,0,1,1.3,2.483,57.086,57.086,0,0,1,1.99,5.447c-1.214-.979-2.5-1.847-3.745-2.781C502.709,391.2,499.672,389.009,499.9,386.816Z" transform="translate(-482.714 -383.866)"/>
        <path id="Path_805" data-name="Path 805" d="M516.244,389.366c-.254-2.391-2.971-2.942-4.9-2.6a19.179,19.179,0,0,0-8.907,4.379.1.1,0,0,0,.007.155.449.449,0,0,0,.266.672c3.121.525,6.4,1.475,9.587,1.03C514.157,392.744,516.486,391.629,516.244,389.366Zm-8.639,2.44c-1.54-.222-3.063-.52-4.613-.684,1.741-.849,3.436-1.77,5.259-2.445a20.821,20.821,0,0,1,2.679-.834c1.412-.312,6.117,0,3.6,3.109C513.144,392.664,509.445,392.069,507.6,391.806Z" transform="translate(-477.627 -379.882)"/>
      </g>
    </g>
    <g id="Group_1315" data-name="Group 1315" transform="translate(1371.387 999.629)">
      <g id="Group_1314" data-name="Group 1314">
        <g id="Group_1313" data-name="Group 1313">
          <g id="Group_1312" data-name="Group 1312">
            <g id="Group_1311" data-name="Group 1311">
              <g id="Group_1310" data-name="Group 1310">
                <g id="Group_1309" data-name="Group 1309">
                  <g id="Group_1308" data-name="Group 1308">
                    <g id="Group_1307" data-name="Group 1307">
                      <g id="Group_1306" data-name="Group 1306">
                        <path id="Path_806" data-name="Path 806" d="M491.613,399.8l61.9-.106a18.54,18.54,0,0,0,.793-4.991l-63.2.109A11.373,11.373,0,0,0,491.613,399.8Z" transform="translate(-491.004 -394.704)"/>
                      </g>
                    </g>
                  </g>
                </g>
              </g>
            </g>
          </g>
        </g>
      </g>
    </g>
    <path id="Path_819" data-name="Path 819" d="M528.781,387.57" transform="translate(933.945 592.81)" fill="none" stroke="#000" stroke-miterlimit="10" stroke-width="1"/>
    <path id="Path_820" data-name="Path 820" d="M506.4,386.908" transform="translate(902.216 591.871)" fill="none" stroke="#000" stroke-miterlimit="10" stroke-width="1"/>
    <path id="Path_37727" data-name="Path 37727" d="M1862.422,132.97c1.281-1.555,0,418.348,0,418.348L1204.04,596.2l-73.672-75.273S1861.141,134.524,1862.422,132.97Z" transform="translate(118.737 53.589)" fill="url(#linear-gradient)"/>
    <path id="Path_972" data-name="Path 972" d="M458.263,649.6l36.992,78.772H465.313l-39.4-78.772Z" transform="translate(821.732 -75.956)" fill="#f9fbff"/>
    <g id="Group_1323" data-name="Group 1323" transform="translate(1456.512 935.426)">
      <circle id="Ellipse_318" data-name="Ellipse 318" cx="34.153" cy="34.153" r="34.153" fill="#fff"/>
      <g id="Group_1318" data-name="Group 1318" transform="translate(10.9 13.776)">
        <g id="Group_1317" data-name="Group 1317">
          <path id="Path_807" data-name="Path 807" d="M546.036,411.379l-8.762-11.954-2.926,2.145-3.629-4.947,2.928-2.147-.612-.837c-3.7-5.051-1.294-9.875,2.263-12.479a10.867,10.867,0,0,1,3.808-1.789c.053-.012.955-.244,1.008-.256l2.362,5.119a6.055,6.055,0,0,0-2.672,1.175,2.32,2.32,0,0,0-.358,3.53l.612.837,4.461-3.269,3.627,4.949-4.461,3.269,8.762,11.954Z" transform="translate(-530.719 -366.38)" fill="#fff"/>
          <path id="Path_808" data-name="Path 808" d="M556.432,396.3l-12.416-16.937-6.446,4.727,12.413,16.935Z" transform="translate(-521.005 -366.036)" fill="#fff"/>
          <path id="Path_809" data-name="Path 809" d="M547.2,373.848l3.356,4.579,3.869-2.836,3.641,4.969-3.9,2.86,3.97,5.418a1.9,1.9,0,0,0,2.933.421,5.922,5.922,0,0,0,1.671-2.038l4.538,4.04a12.832,12.832,0,0,1-4,4.521c-3.417,2.5-7.633,3.182-11.487-2.3l-3.97-5.416-2.754,2.016-3.641-4.966,2.754-2.019-2.809-3.832Z" transform="translate(-515.617 -373.848)" fill="#fff"/>
        </g>
        <path id="Path_810" data-name="Path 810" d="M537.629,377.613a4.1,4.1,0,1,1-1.037,5.871A4.047,4.047,0,0,1,537.629,377.613Z" transform="translate(-523.589 -369.801)" fill="#fff"/>
      </g>
      <g id="Group_1320" data-name="Group 1320" transform="translate(10.9 13.776)">
        <g id="Group_1319" data-name="Group 1319">
          <path id="Path_811" data-name="Path 811" d="M546.036,411.379l-8.762-11.954-2.926,2.145-3.629-4.947,2.928-2.147-.612-.837c-3.7-5.051-1.294-9.875,2.263-12.479a10.867,10.867,0,0,1,3.808-1.789c.053-.012.955-.244,1.008-.256l2.362,5.119a6.055,6.055,0,0,0-2.672,1.175,2.32,2.32,0,0,0-.358,3.53l.612.837,4.461-3.269,3.627,4.949-4.461,3.269,8.762,11.954Z" transform="translate(-530.719 -366.38)" fill="#fff"/>
          <path id="Path_812" data-name="Path 812" d="M556.432,396.3l-12.416-16.937-6.446,4.727,12.413,16.935Z" transform="translate(-521.005 -366.036)" fill="#fff"/>
          <path id="Path_813" data-name="Path 813" d="M547.2,373.848l3.356,4.579,3.869-2.836,3.641,4.969-3.9,2.86,3.97,5.418a1.9,1.9,0,0,0,2.933.421,5.922,5.922,0,0,0,1.671-2.038l4.538,4.04a12.832,12.832,0,0,1-4,4.521c-3.417,2.5-7.633,3.182-11.487-2.3l-3.97-5.416-2.754,2.016-3.641-4.966,2.754-2.019-2.809-3.832Z" transform="translate(-515.617 -373.848)" fill="#fff"/>
        </g>
        <path id="Path_814" data-name="Path 814" d="M537.629,377.613a4.1,4.1,0,1,1-1.037,5.871A4.047,4.047,0,0,1,537.629,377.613Z" transform="translate(-523.589 -369.801)" fill="#fff"/>
      </g>
      <g id="Group_1322" data-name="Group 1322" transform="translate(10.9 13.776)">
        <g id="Group_1321" data-name="Group 1321">
          <path id="Path_815" data-name="Path 815" d="M546.036,411.379l-8.762-11.954-2.926,2.145-3.629-4.947,2.928-2.147-.612-.837c-3.7-5.051-1.294-9.875,2.263-12.479a10.867,10.867,0,0,1,3.808-1.789c.053-.012.955-.244,1.008-.256l2.362,5.119a6.055,6.055,0,0,0-2.672,1.175,2.32,2.32,0,0,0-.358,3.53l.612.837,4.461-3.269,3.627,4.949-4.461,3.269,8.762,11.954Z" transform="translate(-530.719 -366.38)" fill="#4fa2ff"/>
          <path id="Path_816" data-name="Path 816" d="M556.432,396.3l-12.416-16.937-6.446,4.727,12.413,16.935Z" transform="translate(-521.005 -366.036)" fill="#4fa2ff"/>
          <path id="Path_817" data-name="Path 817" d="M547.2,373.848l3.356,4.579,3.869-2.836,3.641,4.969-3.9,2.86,3.97,5.418a1.9,1.9,0,0,0,2.933.421,5.922,5.922,0,0,0,1.671-2.038l4.538,4.04a12.832,12.832,0,0,1-4,4.521c-3.417,2.5-7.633,3.182-11.487-2.3l-3.97-5.416-2.754,2.016-3.641-4.966,2.754-2.019-2.809-3.832Z" transform="translate(-515.617 -373.848)" fill="#4fa2ff"/>
        </g>
        <path id="Path_818" data-name="Path 818" d="M537.629,377.613a4.1,4.1,0,1,1-1.037,5.871A4.047,4.047,0,0,1,537.629,377.613Z" transform="translate(-523.589 -369.801)" fill="#4fa2ff"/>
      </g>
    </g>
    <g id="Group_1324" data-name="Group 1324" transform="translate(1539.559 744.771)">
      <path id="Path_821" data-name="Path 821" d="M701.735,475.606s-30.883-118.824-32.09-123.144c-1.605-5.75-7.621-10.428-14.841-10.428s-49.619-.646-57.362,0c-3.936.326-14.836,133.573-14.836,133.573" transform="translate(-564.295 -216.933)" fill="none" stroke="#000" stroke-miterlimit="10" stroke-width="2"/>
      <path id="Path_822" data-name="Path 822" d="M641.48,402.674H588.534c-11.485,0-23.533,17.23,0,17.23s142.9,4.814,144.719,0S761.28,291.2,761.28,291.2s-83.728-1.076-91.6-1.076C656.178,290.125,641.48,402.674,641.48,402.674Z" transform="translate(-575.034 -290.125)" fill="#effaff"/>
      <path id="Path_823" data-name="Path 823" d="M721.185,475.606S690.3,356.782,689.095,352.462c-1.6-5.75-7.621-10.428-14.841-10.428s-49.62-.646-57.359,0c-3.939.326-9.628,6.1-8.023,20.3s17.247,113.272,17.247,113.272" transform="translate(-527.45 -216.933)" fill="none" stroke="#000" stroke-miterlimit="10" stroke-width="6"/>
      <line id="Line_52" data-name="Line 52" x1="24.067" y2="96.004" transform="translate(146.403 13.185)" fill="none" stroke="#000" stroke-miterlimit="10" stroke-width="2"/>
      <path id="Path_824" data-name="Path 824" d="M589.115,359.354a11.1,11.1,0,0,1,0-22.2" transform="translate(-570.803 -223.441)" fill="none" stroke="#000" stroke-miterlimit="10" stroke-width="2"/>
    </g>
    <g id="Group_1328" data-name="Group 1328" transform="translate(1071.176 599.207)">
      <g id="Group_1326" data-name="Group 1326">
        <line id="Line_53" data-name="Line 53" y1="19.578" transform="translate(132.761 326.286)" fill="none" stroke="#000" stroke-miterlimit="10" stroke-width="1"/>
        <line id="Line_54" data-name="Line 54" x2="19.578" transform="translate(171.052 287.995)" fill="none" stroke="#000" stroke-miterlimit="10" stroke-width="1"/>
        <line id="Line_55" data-name="Line 55" y1="12.418" x2="12.418" transform="translate(161.263 247.075)" fill="none" stroke="#000" stroke-miterlimit="10" stroke-width="1"/>
        <line id="Line_56" data-name="Line 56" x2="13.844" y2="13.844" transform="translate(159.837 315.07)" fill="none" stroke="#000" stroke-miterlimit="10" stroke-width="1"/>
        <line id="Line_57" data-name="Line 57" y1="19.578" transform="translate(57.869 153.417)" fill="none" stroke="#000" stroke-miterlimit="10" stroke-width="1"/>
        <line id="Line_58" data-name="Line 58" x2="19.578" transform="translate(0 211.286)" fill="none" stroke="#000" stroke-miterlimit="10" stroke-width="1"/>
        <line id="Line_59" data-name="Line 59" y1="13.844" x2="13.844" transform="translate(16.949 238.362)" fill="none" stroke="#000" stroke-miterlimit="10" stroke-width="1"/>
        <line id="Line_60" data-name="Line 60" x2="13.844" y2="13.844" transform="translate(16.949 170.367)" fill="none" stroke="#000" stroke-miterlimit="10" stroke-width="1"/>
        <line id="Line_61" data-name="Line 61" y1="19.451" transform="translate(132.761 76.709)" fill="none" stroke="#000" stroke-miterlimit="10" stroke-width="1"/>
        <line id="Line_62" data-name="Line 62" x2="19.578" transform="translate(171.052 134.578)" fill="none" stroke="#000" stroke-miterlimit="10" stroke-width="1"/>
        <line id="Line_63" data-name="Line 63" y1="13.844" x2="13.844" transform="translate(159.837 93.658)" fill="none" stroke="#000" stroke-miterlimit="10" stroke-width="1"/>
        <line id="Line_64" data-name="Line 64" x2="13.844" y2="13.844" transform="translate(159.837 161.653)" fill="none" stroke="#000" stroke-miterlimit="10" stroke-width="1"/>
        <g id="Group_1325" data-name="Group 1325">
          <line id="Line_65" data-name="Line 65" y1="19.578" transform="translate(57.869)" fill="none" stroke="#000" stroke-miterlimit="10" stroke-width="1"/>
          <line id="Line_66" data-name="Line 66" y1="19.578" transform="translate(57.869 96.16)" fill="none" stroke="#000" stroke-miterlimit="10" stroke-width="1"/>
          <line id="Line_67" data-name="Line 67" x2="19.578" transform="translate(0 57.869)" fill="none" stroke="#000" stroke-miterlimit="10" stroke-width="1"/>
          <line id="Line_68" data-name="Line 68" y1="13.642" x2="13.642" transform="translate(85.146 16.949)" fill="none" stroke="#000" stroke-miterlimit="10" stroke-width="1"/>
          <line id="Line_69" data-name="Line 69" y1="13.844" x2="13.844" transform="translate(16.949 84.945)" fill="none" stroke="#000" stroke-miterlimit="10" stroke-width="1"/>
          <line id="Line_70" data-name="Line 70" x2="13.844" y2="13.844" transform="translate(16.949 16.949)" fill="none" stroke="#000" stroke-miterlimit="10" stroke-width="1"/>
        </g>
      </g>
      <line id="Line_71" data-name="Line 71" x2="76.159" transform="translate(59.192 402.673)" fill="none" stroke="#000" stroke-miterlimit="10" stroke-width="6"/>
      <line id="Line_72" data-name="Line 72" y1="342.837" transform="translate(84.191 56.499)" fill="none" stroke="#000" stroke-miterlimit="10" stroke-width="6"/>
      <line id="Line_73" data-name="Line 73" y1="342.837" transform="translate(97.271 56.499)" fill="none" stroke="#000" stroke-miterlimit="10" stroke-width="2"/>
      <line id="Line_74" data-name="Line 74" y1="342.837" transform="translate(108.074 56.499)" fill="none" stroke="#000" stroke-miterlimit="10" stroke-width="1"/>
      <g id="Group_1327" data-name="Group 1327" transform="translate(26.464 26.464)">
        <circle id="Ellipse_319" data-name="Ellipse 319" cx="31.405" cy="31.405" r="31.405" transform="translate(74.892 230.126)" fill="#e8f6ff"/>
        <circle id="Ellipse_320" data-name="Ellipse 320" cx="31.405" cy="31.405" r="31.405" transform="translate(0 153.417)" fill="#e8f6ff"/>
        <circle id="Ellipse_321" data-name="Ellipse 321" cx="31.405" cy="31.405" r="31.405" transform="translate(74.892 76.709)" fill="#e8f6ff"/>
        <circle id="Ellipse_322" data-name="Ellipse 322" cx="31.405" cy="31.405" r="31.405" fill="#e8f6ff"/>
        <circle id="Ellipse_323" data-name="Ellipse 323" cx="19.197" cy="19.197" r="19.197" transform="translate(68.975 166.586)" fill="#e8f6ff"/>
        <circle id="Ellipse_324" data-name="Ellipse 324" cx="19.197" cy="19.197" r="19.197" transform="translate(68.975 12.207)" fill="#e8f6ff"/>
      </g>
    </g>
    <g id="Group_1334" data-name="Group 1334" transform="translate(1711.542 502.729)">
      <g id="Group_1331" data-name="Group 1331">
        <path id="Path_825" data-name="Path 825" d="M618.388,265.912a11.5,11.5,0,0,1,8.455-15.349V229.31a32.606,32.606,0,0,0-26.819,47.2Z" transform="translate(-596.533 -229.31)" fill="#d1edff"/>
      </g>
      <g id="Group_1332" data-name="Group 1332" transform="translate(34.883)">
        <path id="Path_826" data-name="Path 826" d="M610.96,250.563a11.472,11.472,0,0,1,6.518,3.883l18.378-10.61a32.57,32.57,0,0,0-24.9-14.527Z" transform="translate(-610.96 -229.31)" fill="#b9e5ff"/>
      </g>
      <g id="Group_1333" data-name="Group 1333" transform="translate(5.837 18.506)">
        <path id="Path_827" data-name="Path 827" d="M636.7,247.615a11.489,11.489,0,0,1-19.28,11.311l-18.47,10.663a32.6,32.6,0,0,0,56.2-32.624Z" transform="translate(-598.947 -236.964)" fill="#e8f6ff"/>
      </g>
    </g>
    <g id="Group_1350" data-name="Group 1350" transform="translate(1539.367 528.06)">
      <g id="Group_1339" data-name="Group 1339" transform="translate(0 39.698)">
        <g id="Group_1338" data-name="Group 1338">
          <rect id="Rectangle_1299" data-name="Rectangle 1299" width="14.227" height="12.391" fill="#a2dcff"/>
        </g>
      </g>
      <g id="Group_1341" data-name="Group 1341" transform="translate(14.112 30.06)">
        <g id="Group_1340" data-name="Group 1340">
          <rect id="Rectangle_1300" data-name="Rectangle 1300" width="14.227" height="22.029" fill="#b9e5ff"/>
        </g>
      </g>
      <g id="Group_1344" data-name="Group 1344" transform="translate(28.224 19.887)">
        <g id="Group_1343" data-name="Group 1343">
          <g id="Group_1342" data-name="Group 1342">
            <rect id="Rectangle_1301" data-name="Rectangle 1301" width="14.227" height="32.202" fill="#d1edff"/>
          </g>
        </g>
      </g>
      <g id="Group_1347" data-name="Group 1347" transform="translate(42.337 9.982)">
        <g id="Group_1346" data-name="Group 1346">
          <g id="Group_1345" data-name="Group 1345">
            <rect id="Rectangle_1302" data-name="Rectangle 1302" width="14.227" height="42.107" fill="#e8f6ff"/>
          </g>
        </g>
      </g>
      <g id="Group_1349" data-name="Group 1349" transform="translate(56.449)">
        <g id="Group_1348" data-name="Group 1348">
          <rect id="Rectangle_1303" data-name="Rectangle 1303" width="14.227" height="52.089" fill="#fff"/>
        </g>
      </g>
    </g>
    <path id="Path_828" data-name="Path 828" d="M519.072,518.327,497.846,295.349l43.842,10.316-7.151,210.393" transform="translate(890.084 462.053)" fill="none" stroke="#000" stroke-miterlimit="10" stroke-width="2"/>
    <g id="Group_1352" data-name="Group 1352" transform="translate(1437.009 843.515)">
      <path id="Path_829" data-name="Path 829" d="M551.73,410.728,518.145,340.9l24.1-9.937,28.232,83.971" transform="translate(-518.145 -330.964)" fill="none" stroke="#000" stroke-miterlimit="10" stroke-width="2"/>
    </g>
    <g id="Group_1353" data-name="Group 1353" transform="translate(1375.886 672.486)">
      <path id="Path_830" data-name="Path 830" d="M612.3,332.661C607.182,293.417,587,285.01,587,285.01c-19.844,3.412-70.137,9.287-70.137,9.287l-2.292-34.068c-35.352,102.29-16.874,278.785-16.874,278.785l53.183-4.164,2.643-76.627,4.183-121.3-4.183,121.3,15.593,44.126L609.128,488.5l-38.647-76.056S613.911,345.011,612.3,332.661Z" transform="translate(-492.865 -260.229)" fill="#d1edff"/>
      <path id="Path_831" data-name="Path 831" d="M517.95,342.117" transform="translate(-457.297 -144.123)" fill="#fff"/>
      <path id="Path_37734" data-name="Path 37734" d="M44.256-78.068c18.981,11.681-2.139,23.15,35.189,9.76s29.813,14.572,27.09,25.02-6.055,52.743,0,59.741,4.372,13.255-16.089,17.674-65.756,0-65.756,0L18.531-25.169,6.8-39.113S25.275-89.749,44.256-78.068Z" fill="#fff"/>
    </g>
    <path id="Path_832" data-name="Path 832" d="M500.725,257.369l4.622,50.14,70.138-9.289,3.939-31.426" transform="translate(894.532 399.047)" fill="none" stroke="#000" stroke-miterlimit="10" stroke-width="2"/>
    <path id="Path_833" data-name="Path 833" d="M503.915,276.872c-20.47,102.44-6.224,238.544-6.224,238.544" transform="translate(883.024 435.854)" fill="none" stroke="#000" stroke-miterlimit="10" stroke-width="2"/>
    <path id="Path_834" data-name="Path 834" d="M497.991,504.557l45.722-4.009,2.691-78.066c-4.263-39.786-7.541-82.991-9.432-110.313-.817-5.559-1.272-8.75-1.272-8.75-15.856-8.54-24.8-15.554-28.083-18.888" transform="translate(890.289 446.714)" fill="none" stroke="#000" stroke-miterlimit="10" stroke-width="6"/>
    <path id="Path_835" data-name="Path 835" d="M520.992,265.611l31.34,17.244s17.689-41.406-.377-49.4S520.992,265.611,520.992,265.611Z" transform="translate(922.901 372.795)" fill="none" stroke="#000" stroke-miterlimit="10" stroke-width="2"/>
    <g id="Group_1355" data-name="Group 1355" transform="translate(1347.07 593.643)">
      <g id="Group_1354" data-name="Group 1354">
        <path id="Path_836" data-name="Path 836" d="M480.947,260.265c2.007-4.212,24.316-9.952,24.316-9.952l5.769,9.952Z" transform="translate(-480.947 -189.445)" fill="#fff" stroke="#000" stroke-miterlimit="10" stroke-width="2"/>
        <path id="Path_837" data-name="Path 837" d="M499.889,244.261s-18.927,52.31,2.411,56.174c12.177,2.29,10.112-42.7,10.112-42.7Z" transform="translate(-465.065 -204.026)" fill="#fff" stroke="#000" stroke-miterlimit="10" stroke-width="2"/>
        <path id="Path_838" data-name="Path 838" d="M575.937,236.653s-35.432,11.424-35.876-7.3c0,0-8.682-2.921-15.965-1.173s-20.622,22.767-24.251,32.015-2.332,7.464-2.332,7.464" transform="translate(-462.556 -227.62)" fill="none" stroke="#000" stroke-miterlimit="10" stroke-width="2"/>
      </g>
      <path id="Path_839" data-name="Path 839" d="M572.291,247.085l-11.536,22.66L526.011,259.8s-7.145-2.754-10.155-3.653c-14.212-4.251-27.781,9-27.482,14.841,0,0,16.25.2,35.905,1,0,0,37.151,23.739,46.636,24.582S594.4,259.16,594.4,259.16Z" transform="translate(-471.191 -200.022)" fill="#fff" stroke="#000" stroke-miterlimit="10" stroke-width="2"/>
    </g>
    <path id="Path_840" data-name="Path 840" d="M541.013,294.011l-37.506,77.834s40.057,58.957,42.276,58.043,35.736-13.922,35.736-13.922l-26.127-51.418c.822-4.966,47.385-66.24,39.051-66.291S541.013,294.011,541.013,294.011Z" transform="translate(898.11 460.155)" fill="#d1edff"/>
    <g id="Group_1366" data-name="Group 1366" transform="translate(1232.08 570.294)">
      <g id="Group_1363" data-name="Group 1363" transform="translate(13.797 3)">
        <g id="Group_1362" data-name="Group 1362" transform="translate(29.579 32.225)">
          <path id="Path_841" data-name="Path 841" d="M465.071,242.933c3.208,7.171,2.517,12.409-.916,12.133-3.022-.244-7.391-4.775-10.2-10.39-2.952-5.907-3.6-11.85-1.008-13.134C455.929,230.065,461.65,235.28,465.071,242.933Z" transform="translate(-451.328 -231.291)" fill="#4fa2ff"/>
          <g id="Group_1357" data-name="Group 1357" transform="translate(2.622 7.125)">
            <g id="Group_1356" data-name="Group 1356" transform="translate(0 0.51)">
              <path id="Path_842" data-name="Path 842" d="M456.5,244.66l-2.273-4.625-.5.075-.962-1.946.491-.1-.164-.336c-1.011-2.055-.762-3.066-.143-3.25a1.052,1.052,0,0,1,.73.109l.208.094.757,1.956a.671.671,0,0,0-.525-.116c-.181.044-.215.343.087.967l.169.346.815-.167,1,2.067-.827.126,2.309,4.753Z" transform="translate(-452.412 -234.449)" fill="#fff"/>
              <path id="Path_843" data-name="Path 843" d="M458.46,242.837l-3.419-7.217-1.265.261,3.363,7.012Z" transform="translate(-450.478 -232.788)" fill="#fff"/>
              <path id="Path_844" data-name="Path 844" d="M455.657,234.512l1,2.154.887-.184,1.069,2.336-.909.14,1.129,2.449c.261.542.515.73.745.711a.5.5,0,0,0,.38-.283l1.233,2.14a1.045,1.045,0,0,1-.931.5c-.788.031-1.787-.607-2.848-2.928l-1.112-2.374-.585.089-1.032-2.193.578-.118-.817-1.743Z" transform="translate(-449.541 -234.359)" fill="#fff"/>
            </g>
            <path id="Path_845" data-name="Path 845" d="M453.518,234.252c.329-.1.907.3,1.381,1.3.459.972.343,1.54.007,1.615s-.9-.329-1.349-1.272C453.1,234.932,453.187,234.349,453.518,234.252Z" transform="translate(-451.239 -234.238)" fill="#fff"/>
          </g>
          <g id="Group_1359" data-name="Group 1359" transform="translate(2.622 7.125)">
            <g id="Group_1358" data-name="Group 1358" transform="translate(0 0.51)">
              <path id="Path_846" data-name="Path 846" d="M456.5,244.66l-2.273-4.625-.5.075-.962-1.946.491-.1-.164-.336c-1.011-2.055-.762-3.066-.143-3.25a1.052,1.052,0,0,1,.73.109l.208.094.757,1.956a.671.671,0,0,0-.525-.116c-.181.044-.215.343.087.967l.169.346.815-.167,1,2.067-.827.126,2.309,4.753Z" transform="translate(-452.412 -234.449)" fill="#fff"/>
              <path id="Path_847" data-name="Path 847" d="M458.46,242.837l-3.419-7.217-1.265.261,3.363,7.012Z" transform="translate(-450.478 -232.788)" fill="#fff"/>
              <path id="Path_848" data-name="Path 848" d="M455.657,234.512l1,2.154.887-.184,1.069,2.336-.909.14,1.129,2.449c.261.542.515.73.745.711a.5.5,0,0,0,.38-.283l1.233,2.14a1.045,1.045,0,0,1-.931.5c-.788.031-1.787-.607-2.848-2.928l-1.112-2.374-.585.089-1.032-2.193.578-.118-.817-1.743Z" transform="translate(-449.541 -234.359)" fill="#fff"/>
            </g>
            <path id="Path_849" data-name="Path 849" d="M453.518,234.252c.329-.1.907.3,1.381,1.3.459.972.343,1.54.007,1.615s-.9-.329-1.349-1.272C453.1,234.932,453.187,234.349,453.518,234.252Z" transform="translate(-451.239 -234.238)" fill="#fff"/>
          </g>
          <g id="Group_1361" data-name="Group 1361" transform="translate(2.622 7.125)">
            <g id="Group_1360" data-name="Group 1360" transform="translate(0 0.51)">
              <path id="Path_850" data-name="Path 850" d="M456.5,244.66l-2.273-4.625-.5.075-.962-1.946.491-.1-.164-.336c-1.011-2.055-.762-3.066-.143-3.25a1.052,1.052,0,0,1,.73.109l.208.094.757,1.956a.671.671,0,0,0-.525-.116c-.181.044-.215.343.087.967l.169.346.815-.167,1,2.067-.827.126,2.309,4.753Z" transform="translate(-452.412 -234.449)" fill="#fff"/>
              <path id="Path_851" data-name="Path 851" d="M458.46,242.837l-3.419-7.217-1.265.261,3.363,7.012Z" transform="translate(-450.478 -232.788)" fill="#fff"/>
              <path id="Path_852" data-name="Path 852" d="M455.657,234.512l1,2.154.887-.184,1.069,2.336-.909.14,1.129,2.449c.261.542.515.73.745.711a.5.5,0,0,0,.38-.283l1.233,2.14a1.045,1.045,0,0,1-.931.5c-.788.031-1.787-.607-2.848-2.928l-1.112-2.374-.585.089-1.032-2.193.578-.118-.817-1.743Z" transform="translate(-449.541 -234.359)" fill="#fff"/>
            </g>
            <path id="Path_853" data-name="Path 853" d="M453.518,234.252c.329-.1.907.3,1.381,1.3.459.972.343,1.54.007,1.615s-.9-.329-1.349-1.272C453.1,234.932,453.187,234.349,453.518,234.252Z" transform="translate(-451.239 -234.238)" fill="#fff"/>
          </g>
        </g>
        <path id="Path_854" data-name="Path 854" d="M474.512,263.25a6.6,6.6,0,1,1,6.6-6.6" transform="translate(-398.232 -172.458)" fill="none" stroke="#000" stroke-miterlimit="10" stroke-width="2"/>
        <path id="Path_855" data-name="Path 855" d="M479.333,256.4l84.706,1.909-.27,2.552H471.963" transform="translate(-392.491 -163.47)" fill="none" stroke="#000" stroke-miterlimit="10" stroke-width="4"/>
        <path id="Path_856" data-name="Path 856" d="M453.527,220.01l36.816,76.984,4.295-2.047L456.3,217.964Z" transform="translate(-418.632 -217.964)" fill="none" stroke="#000" stroke-miterlimit="10" stroke-width="2"/>
        <line id="Line_75" data-name="Line 75" x1="37.667" fill="none" stroke="#000" stroke-miterlimit="10" stroke-width="2"/>
        <line id="Line_76" data-name="Line 76" x1="34.788" transform="translate(31.531 90.792)" fill="none" stroke="#000" stroke-miterlimit="10" stroke-width="2"/>
        <line id="Line_77" data-name="Line 77" x2="43.321" y2="84.195" fill="none" stroke="#000" stroke-miterlimit="10" stroke-width="2"/>
      </g>
      <g id="Group_1365" data-name="Group 1365" transform="translate(0 107.003)">
        <line id="Line_78" data-name="Line 78" x1="183.081" fill="none" stroke="#fff" stroke-miterlimit="10" stroke-width="10"/>
        <g id="Group_1364" data-name="Group 1364" transform="translate(27.014 7.183)">
          <path id="Path_857" data-name="Path 857" d="M553.219,561.714,489.087,289.583c-2-8.482-14.4-7.394-14.884,1.306L458.946,561.714" transform="translate(-424.165 -238.857)" fill="none" stroke="#000" stroke-miterlimit="10" stroke-width="6"/>
          <line id="Line_79" data-name="Line 79" x1="47.485" y2="322.856" fill="none" stroke="#000" stroke-miterlimit="10" stroke-width="2"/>
        </g>
      </g>
    </g>
    <path id="Path_858" data-name="Path 858" d="M549.877,442.991l-46.37-68.225,39.1-82.816" transform="translate(898.11 457.233)" fill="none" stroke="#000" stroke-miterlimit="10" stroke-width="2"/>
    <path id="Path_859" data-name="Path 859" d="M524.4,486.291l40.018-13.847L525.77,396.387s41.9-60.921,41.819-79.785c-.16-39.576-25.305-45.047-25.305-45.047" transform="translate(927.732 428.316)" fill="none" stroke="#000" stroke-miterlimit="10" stroke-width="6"/>
    <g id="Group_1373" data-name="Group 1373" transform="translate(1411.925 554.489)">
      <g id="Group_1368" data-name="Group 1368" transform="translate(22.584 1.698)">
        <g id="Group_1367" data-name="Group 1367">
          <path id="Path_860" data-name="Path 860" d="M520.008,212.131c4.727-.1,4.8,6.071.418,6.166C516.115,218.388,516.043,212.215,520.008,212.131Z" transform="translate(-517.111 -212.13)"/>
        </g>
      </g>
      <g id="Group_1370" data-name="Group 1370" transform="translate(0 0.142)">
        <g id="Group_1369" data-name="Group 1369">
          <path id="Path_861" data-name="Path 861" d="M511.363,211.488c-4.519-.143-4.824,6.028-.636,6.161C514.847,217.78,515.151,211.609,511.363,211.488Z" transform="translate(-507.77 -211.486)"/>
        </g>
      </g>
      <g id="Group_1371" data-name="Group 1371" transform="translate(10.153)">
        <path id="Path_862" data-name="Path 862" d="M519.12,228.848c-1.182-.111-3.516.679-4.918,1.081,1.332-8.334,1.937-8.518,2.887-18.175a.294.294,0,0,0-.563-.145c-3.443,9.674-3.165,10.2-4.553,20.17C511.789,233.018,518.422,230.934,519.12,228.848Z" transform="translate(-511.969 -211.427)"/>
      </g>
      <g id="Group_1372" data-name="Group 1372" transform="translate(15.274 23.533)">
        <path id="Path_863" data-name="Path 863" d="M514.2,223.4s-.844,2.159,2.188,3.518a6.082,6.082,0,0,0,3.67.522c2.723-.488,2.967-2,2.754-4.149a3.832,3.832,0,0,1,.312-2.135S520.133,222.983,514.2,223.4Z" transform="translate(-514.087 -221.16)"/>
      </g>
    </g>
    <g id="Group_1377" data-name="Group 1377" transform="translate(1409.575 478.988)">
      <g id="Group_1376" data-name="Group 1376" transform="translate(37.324)">
        <path id="Path_864" data-name="Path 864" d="M528.985,222.451c-4.56-3.3-15.107-27.539,5.672-39.385,20.467-11.664,45.637,14.771,30.668,34.457C555.27,230.749,538.674,229.456,528.985,222.451Z" transform="translate(-522.235 -180.201)"/>
      </g>
      <path id="Path_865" data-name="Path 865" d="M565.312,241.066c-7.858.537-8.533-11.864-8.533-11.864s-8.968-.28-10.474-14.635c0,0-3.774,8.944-15.76,11.429-2.536.527,5.648-6.615,5.648-6.615s-9.727,9.916-29.012,7.512c-1.364-.169.317-20.46,14.875-28.212s28.282-4.654,38.1,4.234c0,0,11.267,4.405,13.112,14.718S568.366,240.858,565.312,241.066Z" transform="translate(-506.798 -160.265)"/>
    </g>
    <path id="Path_866" data-name="Path 866" d="M508.473,218.108c1.378,10.8,10.186,17.517,15.639,22.554,2.091,2.8,8.5,2.34,12.438.31,2.161-1.112,8.054-3.01,13.639-9.159s7.645-15.042,7.645-15.042" transform="translate(905.151 350.64)" fill="none" stroke="#000" stroke-miterlimit="10" stroke-width="2"/>
    <line id="Line_81" data-name="Line 81" x1="2.054" y2="11.669" transform="translate(1452.068 588.785)" fill="none" stroke="#000" stroke-miterlimit="10" stroke-width="2"/>
    <g id="Group_1391" data-name="Group 1391" transform="translate(1450.189 917.198)">
      <g id="Group_1380" data-name="Group 1380">
        <path id="Path_867" data-name="Path 867" d="M526.677,399.973c2.161-.167,46.355-21.275,47.078-23.091.194-.476-2.935-4.9-7.35-8.724-4.215-3.653-2.817-3.619-3.878-6.719l-16.705,6.867s-20.883,19.991-21.906,22.617C522.885,393.58,524.488,400.142,526.677,399.973Z" transform="translate(-523.596 -361.439)" fill="#effaff" stroke="#000" stroke-miterlimit="10" stroke-width="1"/>
        <g id="Group_1379" data-name="Group 1379" transform="translate(1.294 2.424)">
          <g id="Group_1378" data-name="Group 1378" transform="translate(0 8.413)">
            <path id="Path_868" data-name="Path 868" d="M524.232,387.061c8.284-4.021,37.869-17.372,44.469-19.81.051-.019.077.027.029.051-6.134,3.257-35.845,16.405-44.411,19.916C524.133,387.3,524.051,387.148,524.232,387.061Z" transform="translate(-524.131 -364.041)"/>
            <path id="Path_869" data-name="Path 869" d="M524.192,374.127a22.523,22.523,0,0,1,9.052-1.83c2.237.1,4.485.614,5.358,1.818.027.034-.114.094-.155.063-2.549-1.9-8.777-1.946-14.2.022C524.142,374.24,524.086,374.173,524.192,374.127Z" transform="translate(-524.125 -356.9)"/>
            <path id="Path_870" data-name="Path 870" d="M528.651,366.944a12.07,12.07,0,0,1,10.687.73c.133.082.068.254-.048.234a47.077,47.077,0,0,0-10.445-.5C528.591,367.423,528.431,367.036,528.651,366.944Z" transform="translate(-517.87 -365.76)"/>
            <path id="Path_871" data-name="Path 871" d="M527.9,367.81a12.228,12.228,0,0,1,10.832.677.125.125,0,0,1-.053.239,47.529,47.529,0,0,0-10.583-.45C527.838,368.294,527.676,367.9,527.9,367.81Z" transform="translate(-518.938 -364.587)"/>
            <path id="Path_872" data-name="Path 872" d="M527.135,368.69a12.385,12.385,0,0,1,10.979.626.126.126,0,0,1-.053.242,48.225,48.225,0,0,0-10.731-.4C527.07,369.181,526.908,368.787,527.135,368.69Z" transform="translate(-520.025 -363.395)"/>
            <path id="Path_873" data-name="Path 873" d="M526.358,369.588a12.548,12.548,0,0,1,11.129.571.128.128,0,0,1-.056.244,49.068,49.068,0,0,0-10.878-.339C526.288,370.086,526.126,369.687,526.358,369.588Z" transform="translate(-521.131 -362.182)"/>
            <path id="Path_874" data-name="Path 874" d="M536.828,366.1c3.078-1.26,6.407,4.6,3.356,5.933C537.068,373.394,533.675,367.389,536.828,366.1Z" transform="translate(-507.913 -365.921)" fill="#8bd3ff"/>
          </g>
          <path id="Path_875" data-name="Path 875" d="M528.255,368.927c3.122,1.857,6.572,2.432,9.739,3.322.326.09.464-.225.384-.5.053-.015.085-.065.039-.138a28.044,28.044,0,0,0-7.885-7.991c-1.85-1.2-4.7-1.951-5.491.123C524.285,365.724,526.417,367.835,528.255,368.927Zm-1.821-2.933c-1.869-4.023,2.943-2.14,4.284-1.211a29.848,29.848,0,0,1,2.483,1.975c1.661,1.434,3.143,3.032,4.679,4.58-1.547-.532-3.1-.933-4.671-1.414C531.323,369.343,527.467,368.224,526.435,365.995Z" transform="translate(-523.062 -362.441)"/>
          <path id="Path_876" data-name="Path 876" d="M540.114,364.58a3.664,3.664,0,0,0-5.205-.892,13,13,0,0,0-4.78,7.06.126.126,0,0,0,.092.145c.031.276.295.612.592.554,2.834-.559,5.967-.754,8.223-2.232C540.332,368.366,541.512,366.592,540.114,364.58Zm-5.425,5.053c-1.361.3-2.756.532-4.115.9a38.584,38.584,0,0,1,2.918-4.067,12.9,12.9,0,0,1,1.673-1.639c.943-.735,4.746-1.891,4.488,1.76C539.507,368.62,536.294,369.273,534.689,369.633Z" transform="translate(-515.633 -361.675)"/>
        </g>
      </g>
      <g id="Group_1390" data-name="Group 1390" transform="translate(0.148 13.499)">
        <g id="Group_1389" data-name="Group 1389">
          <g id="Group_1388" data-name="Group 1388">
            <g id="Group_1387" data-name="Group 1387">
              <g id="Group_1386" data-name="Group 1386">
                <g id="Group_1385" data-name="Group 1385">
                  <g id="Group_1384" data-name="Group 1384">
                    <g id="Group_1383" data-name="Group 1383">
                      <g id="Group_1382" data-name="Group 1382">
                        <g id="Group_1381" data-name="Group 1381">
                          <path id="Path_877" data-name="Path 877" d="M527.146,396.189l48.517-24.532a25.086,25.086,0,0,0-2.055-4.635l-49.951,24.1A16.265,16.265,0,0,0,527.146,396.189Z" transform="translate(-523.657 -367.022)"/>
                        </g>
                      </g>
                    </g>
                  </g>
                </g>
              </g>
            </g>
          </g>
        </g>
      </g>
    </g>
    <g id="Group_1397" data-name="Group 1397" transform="translate(1433.749 547.098)">
      <g id="Group_1396" data-name="Group 1396">
        <g id="Group_1395" data-name="Group 1395">
          <g id="Group_1394" data-name="Group 1394">
            <g id="Group_1393" data-name="Group 1393">
              <g id="Group_1392" data-name="Group 1392">
                <path id="Path_878" data-name="Path 878" d="M518.955,208.37s-2.747,0-2.043,2.585,6.436.392,9.877,5.377C526.789,216.332,529.052,210.519,518.955,208.37Z" transform="translate(-516.796 -208.37)"/>
              </g>
            </g>
          </g>
        </g>
      </g>
    </g>
    <g id="Group_1403" data-name="Group 1403" transform="translate(1412.678 545.542)">
      <g id="Group_1402" data-name="Group 1402">
        <g id="Group_1401" data-name="Group 1401">
          <g id="Group_1400" data-name="Group 1400">
            <g id="Group_1399" data-name="Group 1399">
              <g id="Group_1398" data-name="Group 1398">
                <path id="Path_879" data-name="Path 879" d="M517.923,207.822s2.626.808,1.187,3.071-6.265-1.531-11.025,2.215C508.085,213.108,507.642,206.886,517.923,207.822Z" transform="translate(-508.082 -207.726)"/>
              </g>
            </g>
          </g>
        </g>
      </g>
    </g>
    <g id="Group_1406" data-name="Group 1406" transform="translate(1624.535 446.466)">
      <g id="Group_1404" data-name="Group 1404" transform="translate(0 0.734)">
        <path id="Path_880" data-name="Path 880" d="M550.45,142.635l-17.408-30.827L512.56,134.924l-1.229-1.089L533.34,109l17.421,30.851,23.3-25.695,15.631,8.336,19.66-14.579,1,1.306-20.5,15.218-15.432-8.23Z" transform="translate(-511.331 -107.91)" fill="#fff"/>
      </g>
      <g id="Group_1405" data-name="Group 1405" transform="translate(90.925)">
        <path id="Path_881" data-name="Path 881" d="M556.172,116.319l-1.592-.4,1.665-6.609-7.261.205-.047-1.641,9.429-.267Z" transform="translate(-548.937 -107.607)" fill="#fff"/>
      </g>
    </g>
    <g id="Group_1420" data-name="Group 1420" transform="translate(1121.497 331.831)">
      <g id="Group_1410" data-name="Group 1410" transform="translate(2.701 55.755)">
        <rect id="Rectangle_1305" data-name="Rectangle 1305" width="9.927" height="86.367" transform="translate(241.114)"/>
        <path id="Path_39414" data-name="Path 39414" d="M270.93,0H0" transform="translate(0 90.49)" fill="none" stroke="#fff" stroke-width="10"/>
        <rect id="Rectangle_1306" data-name="Rectangle 1306" width="8.326" height="78.696" transform="translate(88.7 7.671)" fill="none" stroke="#000" stroke-miterlimit="10" stroke-width="1"/>
        <rect id="Rectangle_1307" data-name="Rectangle 1307" width="8.326" height="70.841" transform="translate(212.238 15.526)" fill="#fff" stroke="#000" stroke-miterlimit="10" stroke-width="1"/>
        <path id="Path_882" data-name="Path 882" d="M609.64,215.5v23.6h12.29V168.258H609.64" transform="translate(-488.605 -152.732)" fill="none" stroke="#000" stroke-miterlimit="10" stroke-width="1"/>
        <path id="Path_883" data-name="Path 883" d="M662.671,233.481V172.22h-9.927v37.989" transform="translate(-427.49 -147.114)" fill="none" stroke="#000" stroke-miterlimit="10" stroke-width="1"/>
        <rect id="Rectangle_1308" data-name="Rectangle 1308" width="12.29" height="78.696" transform="translate(194.701 7.671)" fill="#fff" stroke="#000" stroke-miterlimit="10" stroke-width="1"/>
        <rect id="Rectangle_1309" data-name="Rectangle 1309" width="66.767" height="8.326" transform="matrix(0.183, -0.983, 0.983, 0.183, 66.482, 85.046)" fill="#fff" stroke="#000" stroke-miterlimit="10" stroke-width="1"/>
        <rect id="Rectangle_1310" data-name="Rectangle 1310" width="7.005" height="78.696" transform="translate(106.521 4.509)" fill="#fff" stroke="#000" stroke-miterlimit="10" stroke-width="4"/>
        <g id="Rectangle_1311" data-name="Rectangle 1311" transform="matrix(0.579, -0.815, 0.815, 0.579, 135.465, 78.614)" fill="#fff" stroke="#000" stroke-miterlimit="10" stroke-width="4">
          <rect width="78.696" height="15.243" stroke="none"/>
          <rect x="2" y="2" width="74.696" height="11.243" fill="none"/>
        </g>
        <path id="Path_39415" data-name="Path 39415" d="M858.412,0H0" transform="translate(-96.198 621.49)" fill="none" stroke="#fff" stroke-width="10"/>
      </g>
    </g>
  </g>
</svg>
