<svg xmlns="http://www.w3.org/2000/svg" xmlns:xlink="http://www.w3.org/1999/xlink" width="106.443" height="41.291" viewBox="0 0 106.443 41.291">
  <defs>
    <clipPath id="clip-path">
      <ellipse id="Ellipse_305" data-name="Ellipse 305" cx="20.645" cy="20.645" rx="20.645" ry="20.645" fill="none"/>
    </clipPath>
  </defs>
  <g id="Group_1021" data-name="Group 1021" transform="translate(-1.049 -13.185)">
    <g id="Group_1020" data-name="Group 1020" transform="translate(0 0)">
      <g id="Group_1019" data-name="Group 1019" transform="translate(66.201 13.185)">
        <g id="Group_1018" data-name="Group 1018" clip-path="url(#clip-path)">
          <rect id="Rectangle_1269" data-name="Rectangle 1269" width="59.914" height="13.763" transform="translate(-9.312)" fill="#fd0c00"/>
          <rect id="Rectangle_1270" data-name="Rectangle 1270" width="59.914" height="13.763" transform="translate(-9.312 13.764)" fill="#fed702"/>
          <rect id="Rectangle_1271" data-name="Rectangle 1271" width="59.914" height="13.763" transform="translate(-9.312 27.527)" fill="#fd0c00"/>
        </g>
      </g>
      <path id="Path_39625" data-name="Path 39625" d="M-53.936.5a14.043,14.043,0,0,1-8.015-2.2l2.2-4.307a12.093,12.093,0,0,0,3,1.077,14.816,14.816,0,0,0,3.307.393q1.641,0,1.641-.837a.729.729,0,0,0-.487-.675A4.8,4.8,0,0,0-53.97-6.34,9.1,9.1,0,0,1-59.216-8a4.754,4.754,0,0,1-2-3.965A4.993,4.993,0,0,1-59.08-16.2a9.671,9.671,0,0,1,5.845-1.572,15.367,15.367,0,0,1,3.931.5A12.025,12.025,0,0,1-46.125-16l-2.358,4.17A9.776,9.776,0,0,0-53-12.783q-2,0-2,.889a.6.6,0,0,0,.393.564,3.855,3.855,0,0,0,1.333.239,10.7,10.7,0,0,1,5.682,1.666,4.7,4.7,0,0,1,2.042,4.042A5.009,5.009,0,0,1-47.732-1.06,10.6,10.6,0,0,1-53.936.5Zm22.456-18.132a7.525,7.525,0,0,1,5.845,2.512,9.284,9.284,0,0,1,2.273,6.477A9.284,9.284,0,0,1-25.635-2.17,7.525,7.525,0,0,1-31.479.342a7.264,7.264,0,0,1-5.042-1.88v8.75h-6.357V-17.295h5.52l.359,2A7.232,7.232,0,0,1-31.479-17.637ZM-35.632-5.93A3.276,3.276,0,0,0-33.12-4.9a3.263,3.263,0,0,0,2.512-1.034,3.829,3.829,0,0,0,.957-2.709,3.829,3.829,0,0,0-.957-2.709A3.263,3.263,0,0,0-33.12-12.39a3.263,3.263,0,0,0-2.512,1.034,3.829,3.829,0,0,0-.957,2.709A3.86,3.86,0,0,0-35.632-5.93ZM-7.4-17.295h5.52V0H-7.4l-.359-2.034A7.27,7.27,0,0,1-13.3.342,7.525,7.525,0,0,1-19.141-2.17a9.284,9.284,0,0,1-2.273-6.477,9.284,9.284,0,0,1,2.273-6.477A7.525,7.525,0,0,1-13.3-17.637,7.251,7.251,0,0,1-7.759-15.3ZM-14.15-5.93A3.276,3.276,0,0,0-11.638-4.9a3.236,3.236,0,0,0,2.5-1.034,3.85,3.85,0,0,0,.948-2.709,3.85,3.85,0,0,0-.948-2.709,3.236,3.236,0,0,0-2.5-1.034,3.263,3.263,0,0,0-2.512,1.034,3.829,3.829,0,0,0-.957,2.709A3.86,3.86,0,0,0-14.15-5.93Z" transform="translate(63 35)"/>
    </g>
  </g>
</svg>
