<svg id="Layer_12" data-name="Layer 12" xmlns="http://www.w3.org/2000/svg" viewBox="0 0 192 192"><defs><style>.cls-1{fill:#4fa2ff;}</style></defs><title>ICON_FOR_LANDING_ARGENTINIAN_BLUE</title><path id="Path_513" data-name="Path 513" d="M126.36,130.39a4.3,4.3,0,0,0,2.36-.71,12.41,12.41,0,0,0,24.56,0,4.29,4.29,0,1,0,2.36-7.87,4.18,4.18,0,0,0-2.07.54c0-3.45-.22-7.21-1.64-8.63A18.06,18.06,0,0,0,141,110.07,17.78,17.78,0,0,0,129.79,114c-1.29,1.38-1.46,5-1.42,8.32a4.29,4.29,0,1,0-2,8.07Z"/><path id="Path_514" data-name="Path 514" d="M141.07,146.29a31.44,31.44,0,0,0-30.92,25.82H172A31.46,31.46,0,0,0,141.07,146.29Z"/><path id="Path_510" data-name="Path 510" d="M36,53a4.3,4.3,0,0,0,2.36-.71,12.41,12.41,0,0,0,24.55,0,4.29,4.29,0,0,0,6.65-3.58h0a4.29,4.29,0,0,0-6.36-3.76c0-3.44-.22-7.21-1.64-8.63a18.07,18.07,0,0,0-10.93-3.64,17.7,17.7,0,0,0-11.2,3.93c-1.3,1.38-1.47,5-1.42,8.32a4.22,4.22,0,0,0-2-.51A4.29,4.29,0,0,0,36,53Z"/><path id="Path_511" data-name="Path 511" d="M50.75,68.88A31.43,31.43,0,0,0,19.82,94.7H81.67A31.43,31.43,0,0,0,50.75,68.88Z"/><path id="Path_515" data-name="Path 515" class="cls-1" d="M37.9,29.65v8.58a5.27,5.27,0,0,0,2.5,4.47,19.65,19.65,0,0,0,10.27,3.18A19.65,19.65,0,0,0,61,42.7a5.26,5.26,0,0,0,2.49-4.47V29.65Z"/><path id="Path_516" data-name="Path 516" class="cls-1" d="M50.67,20.1,29,29.65l21.71,9.56,21.72-9.56Z"/><path d="M144.93,86.54h-10V69a4.75,4.75,0,0,0-4.74-4.74H106.83v-10h23.36A14.77,14.77,0,0,1,144.93,69Z"/><polygon points="118.49 78 103.26 62.76 99.79 59.23 118.49 40.53 125.56 47.6 113.89 59.26 125.56 70.93 118.49 78"/><path d="M85.17,137.74H61.81A14.77,14.77,0,0,1,47.07,123V105.46h10V123a4.75,4.75,0,0,0,4.74,4.74H85.17Z"/><polygon points="73.51 151.47 66.44 144.4 78.11 132.74 66.44 121.07 73.51 114 92.22 132.77 73.51 151.47"/></svg>