<svg id="Layer_12" data-name="Layer 12" xmlns="http://www.w3.org/2000/svg" viewBox="0 0 192 192"><defs><style>.cls-1{fill:#fff;}.cls-2{fill:#4fa2ff;}</style></defs><title>ICON_FOR_LANDING_ARGENTINIAN_BLUE</title><circle cx="126.28" cy="65.71" r="45.54"/><path class="cls-1" d="M89,39.67a45.24,45.24,0,0,0,0,52.09,27.32,27.32,0,0,0,0-52.09Z"/><path class="cls-1" d="M163.58,39.67a27.32,27.32,0,0,0,0,52.09,45.28,45.28,0,0,0,0-52.09Z"/><path class="cls-1" d="M135.39,65.71a36.44,36.44,0,0,1,21.82-33.38,45.4,45.4,0,0,0-61.85,0,36.45,36.45,0,0,1,0,66.77,45.4,45.4,0,0,0,61.85,0A36.45,36.45,0,0,1,135.39,65.71Z"/><path d="M126.28,30.17A35.55,35.55,0,1,1,90.74,65.71a35.58,35.58,0,0,1,35.54-35.54m0-10a45.55,45.55,0,1,0,45.54,45.54,45.54,45.54,0,0,0-45.54-45.54Z"/><circle class="cls-2" cx="75.24" cy="116.76" r="55.06"/><path d="M103.27,111.26h26.78A54.69,54.69,0,0,0,121.56,87,33,33,0,0,0,103.27,111.26Z"/><path d="M28.91,87a54.8,54.8,0,0,0-8.48,24.24H47.2A33,33,0,0,0,28.91,87Z"/><path d="M114.51,78.2A54.94,54.94,0,0,0,80.74,62v49.31H92.15A44,44,0,0,1,114.51,78.2Z"/><path d="M58.32,111.26H69.73V62A54.81,54.81,0,0,0,36,78.2,44,44,0,0,1,58.32,111.26Z"/><path d="M92.15,122.27H80.74v49.3a54.76,54.76,0,0,0,33.77-16.25A44,44,0,0,1,92.15,122.27Z"/><path d="M47.2,122.27H20.43a54.84,54.84,0,0,0,8.48,24.24A33.22,33.22,0,0,0,47.2,122.27Z"/><path d="M121.56,146.51a54.73,54.73,0,0,0,8.49-24.24H103.27A33,33,0,0,0,121.56,146.51Z"/><path d="M36,155.32a54.88,54.88,0,0,0,33.77,16.25v-49.3H58.32A44,44,0,0,1,36,155.32Z"/></svg>