<svg xmlns="http://www.w3.org/2000/svg" width="1213" height="967.097" viewBox="0 0 1213 967.097">
  <g id="Group_1831" data-name="Group 1831" transform="translate(2 2)">
    <g id="Group_1724" data-name="Group 1724" transform="translate(396.568 770.91)">
      <g id="Group_1718" data-name="Group 1718" transform="translate(0 177.73)">
        <g id="Group_1717" data-name="Group 1717">
          <g id="Group_1716" data-name="Group 1716">
            <g id="Group_1715" data-name="Group 1715">
              <g id="Group_1714" data-name="Group 1714">
                <path id="Rectangle_1325" data-name="Rectangle 1325" d="M1.633,0h412.6a1.633,1.633,0,0,1,1.633,1.633V14.457a0,0,0,0,1,0,0H0a0,0,0,0,1,0,0V1.633A1.633,1.633,0,0,1,1.633,0Z" fill="#fff" stroke="#000" stroke-miterlimit="10" stroke-width="4"/>
              </g>
            </g>
          </g>
        </g>
      </g>
      <g id="Group_1723" data-name="Group 1723" transform="translate(67.356)">
        <g id="Group_1722" data-name="Group 1722">
          <g id="Group_1721" data-name="Group 1721">
            <g id="Group_1720" data-name="Group 1720">
              <g id="Group_1719" data-name="Group 1719">
                <path id="Path_1029" data-name="Path 1029" d="M776.359,450.924H499.516L521.8,273.194H754.078Z" transform="translate(-499.516 -273.194)" fill="#fff" stroke="#000" stroke-miterlimit="10" stroke-width="4"/>
              </g>
            </g>
          </g>
        </g>
      </g>
    </g>
    <g id="Group_1725" data-name="Group 1725" transform="translate(0 0)">
      <path id="Path_1030" data-name="Path 1030" d="M1606.793,141.146V863.192a36.991,36.991,0,0,1-36.991,36.987H434.78a36.99,36.99,0,0,1-36.987-36.987V141.146a36.99,36.99,0,0,1,36.987-36.987H1569.8c.557,0,1.1.009,1.642.036.406.018.8.036,1.2.073h.046c.287.018.574.046.857.082.484.036.953.1,1.432.169.315.037.616.082.93.146.146.018.3.046.443.073a8.78,8.78,0,0,1,.9.178A37,37,0,0,1,1606.793,141.146Z" transform="translate(-397.793 -104.159)" fill="#fff" stroke="#000" stroke-miterlimit="10" stroke-width="4"/>
    </g>
    <g id="Group_1727" data-name="Group 1727" transform="translate(0 0)">
      <g id="Group_1726" data-name="Group 1726">
        <path id="Path_1031" data-name="Path 1031" d="M1577.254,104.916a8.78,8.78,0,0,0-.9-.178c-.146-.027-.3-.055-.443-.073-.314-.064-.615-.109-.93-.146-.479-.068-.948-.132-1.432-.169-.283-.036-.57-.064-.857-.082h-.046c-.4-.036-.794-.055-1.2-.073-.543-.027-1.085-.036-1.642-.036H434.78a36.99,36.99,0,0,0-36.987,36.987V786.582h1209V141.146A37,37,0,0,0,1577.254,104.916Zm-18.416,617.2a10.057,10.057,0,0,1-10.061,10.061H455.809a10.054,10.054,0,0,1-10.061-10.061V162.175a10.051,10.051,0,0,1,10.061-10.061H1548.777a10.054,10.054,0,0,1,10.061,10.061Z" transform="translate(-397.793 -104.159)"/>
      </g>
    </g>
    <g id="Group_1728" data-name="Group 1728" transform="translate(47.954 47.953)">
      <rect id="Rectangle_1326" data-name="Rectangle 1326" width="1113.091" height="580.061" rx="2.206" fill="#e1e2e1"/>
    </g>
    <g id="Group_1776" data-name="Group 1776" transform="translate(1031.061 665.702)">
      <g id="Group_1772" data-name="Group 1772" transform="translate(92.923 10.851)">
        <ellipse id="Ellipse_337" data-name="Ellipse 337" cx="32.466" cy="32.466" rx="32.466" ry="32.466" fill="#fff" stroke="#f0f0f0" stroke-miterlimit="10" stroke-width="0.1"/>
        <path id="Path_1045" data-name="Path 1045" d="M647.345,274.646l4.433-9.755-2.39-1.086,1.833-4.041,2.39,1.085.31-.679c1.874-4.127,5.769-4.314,8.67-3a7.9,7.9,0,0,1,2.477,1.77c.027.027.492.515.52.543l-2.39,3.3a4.427,4.427,0,0,0-1.687-1.268,1.681,1.681,0,0,0-2.353,1.026l-.31.684,3.639,1.651-1.833,4.041-3.644-1.656-4.433,9.76Z" transform="translate(-633.21 -238.466)" fill="#fff"/>
        <path id="Path_1046" data-name="Path 1046" d="M655.053,274.736l6.28-13.828-5.263-2.39-6.28,13.823Z" transform="translate(-624.504 -231.094)" fill="#fff"/>
        <path id="Path_1047" data-name="Path 1047" d="M663.913,260.564l-1.7,3.735,3.156,1.437-1.843,4.054-3.183-1.446-2.011,4.419a1.375,1.375,0,0,0,.775,2,4.291,4.291,0,0,0,1.874.328l-.939,4.292a9.272,9.272,0,0,1-4.269-.917c-2.787-1.268-4.707-3.685-2.618-8.054l2.007-4.424-2.243-1.022,1.842-4.055,2.244,1.022,1.423-3.129Z" transform="translate(-615.651 -230.062)" fill="#fff"/>
        <path id="Path_1048" data-name="Path 1048" d="M655.786,257.623a2.968,2.968,0,1,1-4.068,1.428A2.93,2.93,0,0,1,655.786,257.623Z" transform="translate(-618.661 -235.417)" fill="#fff"/>
        <path id="Path_1049" data-name="Path 1049" d="M647.345,274.646l4.433-9.755-2.39-1.086,1.833-4.041,2.39,1.085.31-.679c1.874-4.127,5.769-4.314,8.67-3a7.9,7.9,0,0,1,2.477,1.77c.027.027.492.515.52.543l-2.39,3.3a4.427,4.427,0,0,0-1.687-1.268,1.681,1.681,0,0,0-2.353,1.026l-.31.684,3.639,1.651-1.833,4.041-3.644-1.656-4.433,9.76Z" transform="translate(-633.21 -238.466)" fill="#fff"/>
        <path id="Path_1050" data-name="Path 1050" d="M655.053,274.736l6.28-13.828-5.263-2.39-6.28,13.823Z" transform="translate(-624.504 -231.094)" fill="#fff"/>
        <path id="Path_1051" data-name="Path 1051" d="M663.913,260.564l-1.7,3.735,3.156,1.437-1.843,4.054-3.183-1.446-2.011,4.419a1.375,1.375,0,0,0,.775,2,4.291,4.291,0,0,0,1.874.328l-.939,4.292a9.272,9.272,0,0,1-4.269-.917c-2.787-1.268-4.707-3.685-2.618-8.054l2.007-4.424-2.243-1.022,1.842-4.055,2.244,1.022,1.423-3.129Z" transform="translate(-615.651 -230.062)" fill="#fff"/>
        <path id="Path_1052" data-name="Path 1052" d="M655.786,257.623a2.968,2.968,0,1,1-4.068,1.428A2.93,2.93,0,0,1,655.786,257.623Z" transform="translate(-618.661 -235.417)" fill="#fff"/>
        <ellipse id="Ellipse_338" data-name="Ellipse 338" cx="24.698" cy="24.698" rx="24.698" ry="24.698" transform="translate(7.768 7.768)" fill="#434bbe"/>
        <path id="Path_1053" data-name="Path 1053" d="M647.345,274.646l4.433-9.755-2.39-1.086,1.833-4.041,2.39,1.085.31-.679c1.874-4.127,5.769-4.314,8.67-3a7.9,7.9,0,0,1,2.477,1.77c.027.027.492.515.52.543l-2.39,3.3a4.427,4.427,0,0,0-1.687-1.268,1.681,1.681,0,0,0-2.353,1.026l-.31.684,3.639,1.651-1.833,4.041-3.644-1.656-4.433,9.76Z" transform="translate(-633.21 -238.466)" fill="#fff"/>
        <path id="Path_1054" data-name="Path 1054" d="M655.053,274.736l6.28-13.828-5.263-2.39-6.28,13.823Z" transform="translate(-624.504 -231.094)" fill="#fff"/>
        <path id="Path_1055" data-name="Path 1055" d="M663.913,260.564l-1.7,3.735,3.156,1.437-1.843,4.054-3.183-1.446-2.011,4.419a1.375,1.375,0,0,0,.775,2,4.291,4.291,0,0,0,1.874.328l-.939,4.292a9.272,9.272,0,0,1-4.269-.917c-2.787-1.268-4.707-3.685-2.618-8.054l2.007-4.424-2.243-1.022,1.842-4.055,2.244,1.022,1.423-3.129Z" transform="translate(-615.651 -230.062)" fill="#fff"/>
        <path id="Path_1056" data-name="Path 1056" d="M655.786,257.623a2.968,2.968,0,1,1-4.068,1.428A2.93,2.93,0,0,1,655.786,257.623Z" transform="translate(-618.661 -235.417)" fill="#fff"/>
      </g>
      <g id="Group_1773" data-name="Group 1773" transform="translate(93.45 50.977)">
        <ellipse id="Ellipse_339" data-name="Ellipse 339" cx="32.466" cy="32.466" rx="32.466" ry="32.466" fill="#fff" stroke="#f0f0f0" stroke-miterlimit="10" stroke-width="0.1"/>
        <ellipse id="Ellipse_340" data-name="Ellipse 340" cx="25.332" cy="25.332" rx="25.332" ry="25.332" transform="translate(7.134 7.134)" fill="#36d399"/>
        <path id="Path_1057" data-name="Path 1057" d="M656.665,291.123l-4.789-9.9-2.422,1.177-1.984-4.1,2.422-1.176-.333-.689c-2.025-4.182.379-7.379,3.32-8.8a8.052,8.052,0,0,1,3.019-.794c.041,0,.73-.055.771-.055l1.035,4.05a4.528,4.528,0,0,0-2.107.5,1.724,1.724,0,0,0-.734,2.526l.338.693,3.689-1.788,1.984,4.1-3.689,1.788,4.789,9.9Z" transform="translate(-633.288 -241.759)" fill="#fff"/>
        <path id="Path_1058" data-name="Path 1058" d="M662.6,281.305l-6.786-14.019-5.34,2.586,6.786,14.019Z" transform="translate(-622.582 -240)" fill="#fff"/>
        <path id="Path_1059" data-name="Path 1059" d="M657.88,265.407l1.833,3.79,3.2-1.551,1.993,4.114-3.234,1.564,2.171,4.483a1.411,1.411,0,0,0,2.085.7,4.356,4.356,0,0,0,1.491-1.263l2.768,3.553a9.393,9.393,0,0,1-3.521,2.764c-2.828,1.368-5.993,1.3-8.072-3.215l-2.171-4.483-2.276,1.1-1.993-4.109,2.281-1.1-1.537-3.174Z" transform="translate(-616.607 -246.691)" fill="#fff"/>
        <path id="Path_1060" data-name="Path 1060" d="M651.846,266.417a3.044,3.044,0,1,1-1.546,4.146A3.007,3.007,0,0,1,651.846,266.417Z" transform="translate(-624.415 -244.353)" fill="#fff"/>
      </g>
      <g id="Group_1774" data-name="Group 1774" transform="translate(35.753 35.555)">
        <ellipse id="Ellipse_341" data-name="Ellipse 341" cx="32.466" cy="32.466" rx="32.466" ry="32.466" fill="#fff" stroke="#f0f0f0" stroke-miterlimit="10" stroke-width="0.1"/>
        <ellipse id="Ellipse_342" data-name="Ellipse 342" cx="24.698" cy="24.698" rx="24.698" ry="24.698" transform="translate(7.768 7.768)" fill="#68b985"/>
        <path id="Path_1061" data-name="Path 1061" d="M634.835,280.459l4.141-9.888-2.417-1.012,1.714-4.091,2.418,1.012.292-.689c1.751-4.182,5.637-4.483,8.579-3.252a7.939,7.939,0,0,1,2.526,1.7l.534.529-2.289,3.37a4.422,4.422,0,0,0-1.724-1.218,1.681,1.681,0,0,0-2.326,1.095l-.287.689,3.69,1.546-1.715,4.1-3.69-1.546-4.146,9.883Z" transform="translate(-620.584 -243.735)" fill="#fff"/>
        <path id="Path_1062" data-name="Path 1062" d="M642.644,280.181l5.869-14.006-5.331-2.235-5.87,14.006Z" transform="translate(-611.764 -236.489)" fill="#fff"/>
        <path id="Path_1063" data-name="Path 1063" d="M651.059,265.75l-1.592,3.79,3.2,1.341-1.724,4.1-3.224-1.35-1.879,4.478a1.373,1.373,0,0,0,.83,1.975,4.26,4.26,0,0,0,1.888.274l-.816,4.319a9.24,9.24,0,0,1-4.287-.793c-2.828-1.181-4.816-3.544-2.859-7.972l1.879-4.478-2.28-.958,1.724-4.1,2.276.953,1.327-3.17Z" transform="translate(-602.858 -235.716)" fill="#fff"/>
        <path id="Path_1064" data-name="Path 1064" d="M643.125,262.979a2.969,2.969,0,1,1-4.027,1.546A2.923,2.923,0,0,1,643.125,262.979Z" transform="translate(-606.303 -240.904)" fill="#fff"/>
        <path id="Path_1065" data-name="Path 1065" d="M634.835,280.459l4.141-9.888-2.417-1.012,1.714-4.091,2.418,1.012.292-.689c1.751-4.182,5.637-4.483,8.579-3.252a7.939,7.939,0,0,1,2.526,1.7l.534.529-2.289,3.37a4.422,4.422,0,0,0-1.724-1.218,1.681,1.681,0,0,0-2.326,1.095l-.287.689,3.69,1.546-1.715,4.1-3.69-1.546-4.146,9.883Z" transform="translate(-620.584 -243.735)" fill="#fff"/>
        <path id="Path_1066" data-name="Path 1066" d="M642.644,280.181l5.869-14.006-5.331-2.235-5.87,14.006Z" transform="translate(-611.764 -236.489)" fill="#fff"/>
        <path id="Path_1067" data-name="Path 1067" d="M651.059,265.75l-1.592,3.79,3.2,1.341-1.724,4.1-3.224-1.35-1.879,4.478a1.373,1.373,0,0,0,.83,1.975,4.26,4.26,0,0,0,1.888.274l-.816,4.319a9.24,9.24,0,0,1-4.287-.793c-2.828-1.181-4.816-3.544-2.859-7.972l1.879-4.478-2.28-.958,1.724-4.1,2.276.953,1.327-3.17Z" transform="translate(-602.858 -235.716)" fill="#fff"/>
        <path id="Path_1068" data-name="Path 1068" d="M643.125,262.979a2.969,2.969,0,1,1-4.027,1.546A2.923,2.923,0,0,1,643.125,262.979Z" transform="translate(-606.303 -240.904)" fill="#fff"/>
        <ellipse id="Ellipse_343" data-name="Ellipse 343" cx="24.698" cy="24.698" rx="24.698" ry="24.698" transform="translate(7.768 7.768)" fill="#389ee1"/>
        <path id="Path_1069" data-name="Path 1069" d="M634.835,280.459l4.141-9.888-2.417-1.012,1.714-4.091,2.418,1.012.292-.689c1.751-4.182,5.637-4.483,8.579-3.252a7.939,7.939,0,0,1,2.526,1.7l.534.529-2.289,3.37a4.422,4.422,0,0,0-1.724-1.218,1.681,1.681,0,0,0-2.326,1.095l-.287.689,3.69,1.546-1.715,4.1-3.69-1.546-4.146,9.883Z" transform="translate(-620.584 -243.735)" fill="#fff"/>
        <path id="Path_1070" data-name="Path 1070" d="M642.644,280.181l5.869-14.006-5.331-2.235-5.87,14.006Z" transform="translate(-611.764 -236.489)" fill="#fff"/>
        <path id="Path_1071" data-name="Path 1071" d="M651.059,265.75l-1.592,3.79,3.2,1.341-1.724,4.1-3.224-1.35-1.879,4.478a1.373,1.373,0,0,0,.83,1.975,4.26,4.26,0,0,0,1.888.274l-.816,4.319a9.24,9.24,0,0,1-4.287-.793c-2.828-1.181-4.816-3.544-2.859-7.972l1.879-4.478-2.28-.958,1.724-4.1,2.276.953,1.327-3.17Z" transform="translate(-602.858 -235.716)" fill="#fff"/>
        <path id="Path_1072" data-name="Path 1072" d="M643.125,262.979a2.969,2.969,0,1,1-4.027,1.546A2.923,2.923,0,0,1,643.125,262.979Z" transform="translate(-606.303 -240.904)" fill="#fff"/>
      </g>
      <g id="Group_1775" data-name="Group 1775">
        <ellipse id="Ellipse_344" data-name="Ellipse 344" cx="32.466" cy="32.466" rx="32.466" ry="32.466" fill="#fff" stroke="#f0f0f0" stroke-miterlimit="10" stroke-width="0.1"/>
        <ellipse id="Ellipse_345" data-name="Ellipse 345" cx="24.698" cy="24.698" rx="24.698" ry="24.698" transform="translate(7.768 7.768)" fill="#68b985"/>
        <path id="Path_1073" data-name="Path 1073" d="M631.861,278.11l-1.61-10.594-2.6.392-.666-4.387,2.6-.392-.11-.743c-.679-4.479,2.481-6.759,5.633-7.238a7.869,7.869,0,0,1,3.037.132l.734.173-.2,4.073a4.389,4.389,0,0,0-2.107-.146,1.683,1.683,0,0,0-1.414,2.144l.114.743,3.954-.6.666,4.387-3.954.6,1.605,10.594Z" transform="translate(-612.764 -232.561)" fill="#fff"/>
        <path id="Path_1074" data-name="Path 1074" d="M638.2,271.242l-2.276-15.014-5.715.866,2.276,15.014Z" transform="translate(-601.285 -228.397)" fill="#fff"/>
        <path id="Path_1075" data-name="Path 1075" d="M639.486,254.986l.616,4.059,3.43-.52.67,4.406-3.462.525.73,4.8a1.373,1.373,0,0,0,1.738,1.254,4.294,4.294,0,0,0,1.751-.748l1.555,4.109a9.3,9.3,0,0,1-4.077,1.56c-3.028.456-5.956-.52-6.59-5.322l-.73-4.8-2.44.369-.666-4.4,2.44-.374-.516-3.393Z" transform="translate(-594.886 -232.819)" fill="#fff"/>
        <path id="Path_1076" data-name="Path 1076" d="M632.7,254.827a2.968,2.968,0,1,1-2.636,3.411A2.923,2.923,0,0,1,632.7,254.827Z" transform="translate(-601.957 -233.531)" fill="#fff"/>
        <path id="Path_1077" data-name="Path 1077" d="M631.861,278.11l-1.61-10.594-2.6.392-.666-4.387,2.6-.392-.11-.743c-.679-4.479,2.481-6.759,5.633-7.238a7.869,7.869,0,0,1,3.037.132l.734.173-.2,4.073a4.389,4.389,0,0,0-2.107-.146,1.683,1.683,0,0,0-1.414,2.144l.114.743,3.954-.6.666,4.387-3.954.6,1.605,10.594Z" transform="translate(-612.764 -232.561)" fill="#fff"/>
        <path id="Path_1078" data-name="Path 1078" d="M638.2,271.242l-2.276-15.014-5.715.866,2.276,15.014Z" transform="translate(-601.285 -228.397)" fill="#fff"/>
        <path id="Path_1079" data-name="Path 1079" d="M639.486,254.986l.616,4.059,3.43-.52.67,4.406-3.462.525.73,4.8a1.373,1.373,0,0,0,1.738,1.254,4.294,4.294,0,0,0,1.751-.748l1.555,4.109a9.3,9.3,0,0,1-4.077,1.56c-3.028.456-5.956-.52-6.59-5.322l-.73-4.8-2.44.369-.666-4.4,2.44-.374-.516-3.393Z" transform="translate(-594.886 -232.819)" fill="#fff"/>
        <path id="Path_1080" data-name="Path 1080" d="M632.7,254.827a2.968,2.968,0,1,1-2.636,3.411A2.923,2.923,0,0,1,632.7,254.827Z" transform="translate(-601.957 -233.531)" fill="#fff"/>
        <ellipse id="Ellipse_346" data-name="Ellipse 346" cx="24.698" cy="24.698" rx="24.698" ry="24.698" transform="translate(7.768 7.768)" fill="#e54d3a"/>
        <path id="Path_1081" data-name="Path 1081" d="M631.861,278.11l-1.61-10.594-2.6.392-.666-4.387,2.6-.392-.11-.743c-.679-4.479,2.481-6.759,5.633-7.238a7.869,7.869,0,0,1,3.037.132l.734.173-.2,4.073a4.389,4.389,0,0,0-2.107-.146,1.683,1.683,0,0,0-1.414,2.144l.114.743,3.954-.6.666,4.387-3.954.6,1.605,10.594Z" transform="translate(-612.764 -232.561)" fill="#fff"/>
        <path id="Path_1082" data-name="Path 1082" d="M638.2,271.242l-2.276-15.014-5.715.866,2.276,15.014Z" transform="translate(-601.285 -228.397)" fill="#fff"/>
        <path id="Path_1083" data-name="Path 1083" d="M639.486,254.986l.616,4.059,3.43-.52.67,4.406-3.462.525.73,4.8a1.373,1.373,0,0,0,1.738,1.254,4.294,4.294,0,0,0,1.751-.748l1.555,4.109a9.3,9.3,0,0,1-4.077,1.56c-3.028.456-5.956-.52-6.59-5.322l-.73-4.8-2.44.369-.666-4.4,2.44-.374-.516-3.393Z" transform="translate(-594.886 -232.819)" fill="#fff"/>
        <path id="Path_1084" data-name="Path 1084" d="M632.7,254.827a2.968,2.968,0,1,1-2.636,3.411A2.923,2.923,0,0,1,632.7,254.827Z" transform="translate(-601.957 -233.531)" fill="#fff"/>
      </g>
    </g>
    <g id="Group_1777" data-name="Group 1777" transform="translate(55.371 667.937)">
      <path id="Path_1085" data-name="Path 1085" d="M553.531,250.69A36.08,36.08,0,0,0,528.5,263.122l-15.055-9.363-3.835,5.765c-.611-.018-1.222,0-1.824.036a22.252,22.252,0,0,0-14.134,5.993,17.154,17.154,0,0,0-12.565-4.091c-2.075.132-34.734,2.271-37.753,2.463a19.955,19.955,0,0,0-7.817,2.112l-.721-11.288-24.865,1.587,3.224,50.5,76.71-4.9a17.361,17.361,0,0,0,4.584,7.247c2.841,2.668,8.045,5.733,16.737,5.181,6.522-.42,11.848-2.663,15.451-6.212a36.182,36.182,0,1,0,26.89-57.469Z" transform="translate(-409.934 -250.616)" fill="#fff" stroke="#f0f0f0" stroke-miterlimit="10" stroke-width="0.1"/>
      <path id="Path_1086" data-name="Path 1086" d="M420.775,253.374,422.987,288l-8.989.575-2.212-34.624Z" transform="translate(-403.34 -240.794)" fill="#3a3936"/>
      <path id="Path_1087" data-name="Path 1087" d="M440.245,279.722l-.862-13.486c-.192-3.015-1.989-3.94-3.667-3.836-2.175.141-4.1,1.751-3.9,4.962l.821,12.843-8.989.575-1.56-24.4,8.05-.515.565,2.641a9.949,9.949,0,0,1,7.5-3.753c5.14-.278,9.71,2.162,10.266,10.854l.867,13.531Z" transform="translate(-366.654 -235.961)" fill="#3a3936"/>
      <path id="Path_1088" data-name="Path 1088" d="M433.659,255.714l-.278,2.645c-1.409-1.893-3.908-2.923-7.366-2.7-7.11.456-11.5,6.294-11.041,13.5.456,7.115,4.78,11.944,11.972,11.931a10.07,10.07,0,0,0,7.858-3.576l.561,2.6,8.4-.538-1.56-24.4Zm-4.415,17.891c-2.714.173-5.012-1.614-5.231-5.026s1.833-5.523,4.547-5.7c3.211-.205,5.177,1.8,5.382,5.062A5.076,5.076,0,0,1,429.244,273.606Z" transform="translate(-392.107 -234.41)" fill="#3a3936"/>
      <path id="Path_1089" data-name="Path 1089" d="M451.766,276.719a10.3,10.3,0,0,0,3.931-8.387,9.174,9.174,0,0,0-2.741-6.422l2.919-3.959-6.868-4.273c-.725,1.09-1.633,2.385-2.4,3.525a15.022,15.022,0,0,0-5.1-.616c-7.557.483-13.276,5.71-12.784,13.367.479,7.557,6.166,11.953,14.366,11.434,3.252-.21,4.451,1.149,4.6,2.882a3.558,3.558,0,0,1-3.033,3.749c-2.8.442-5.952.246-6.12-4.21l-8.547.547c-.018,7.489,5.167,11.721,13.91,11.164,6.964-.447,13.641-3.849,13.135-11.753C456.942,282.438,456.427,279,451.766,276.719Zm-9.158-2.841a4.585,4.585,0,0,1-5.049-4.488c-.205-3.261,1.756-5.172,4.419-5.34a4.764,4.764,0,0,1,4.916,4.743A4.412,4.412,0,0,1,442.608,273.878Z" transform="translate(-343.145 -239.708)" fill="#3a3936"/>
      <ellipse id="Ellipse_347" data-name="Ellipse 347" cx="28.236" cy="28.236" rx="28.236" ry="28.236" transform="translate(117.667 7.956)" fill="#68b985"/>
      <path id="Path_1090" data-name="Path 1090" d="M441.511,281.718l-.78-12.227-3,.192-.324-5.062,3-.192-.055-.857c-.333-5.167,3.493-7.452,7.133-7.685a9.037,9.037,0,0,1,3.448.451l.816.269-.634,4.615a5.023,5.023,0,0,0-2.385-.369,1.921,1.921,0,0,0-1.82,2.3l.055.853,4.561-.292.324,5.063-4.561.292.78,12.227Z" transform="translate(-312.098 -231.91)" fill="#fff"/>
      <path id="Path_1091" data-name="Path 1091" d="M448.834,274.776l-1.1-17.326-6.6.424,1.108,17.321Z" transform="translate(-298.852 -226.281)" fill="#fff"/>
      <path id="Path_1092" data-name="Path 1092" d="M452.244,256.252l.3,4.684,3.959-.251.324,5.081-4,.255.356,5.541a1.568,1.568,0,0,0,1.856,1.6,4.959,4.959,0,0,0,2.071-.675l1.363,4.834a10.651,10.651,0,0,1-4.8,1.368c-3.493.224-6.736-1.181-6.983-6.713l-.351-5.541-2.818.178-.324-5.08,2.819-.178-.251-3.922Z" transform="translate(-291.468 -230.547)" fill="#fff"/>
      <path id="Path_1093" data-name="Path 1093" d="M444.359,255.74a3.393,3.393,0,1,1-3.338,3.626A3.339,3.339,0,0,1,444.359,255.74Z" transform="translate(-299.276 -232.401)" fill="#fff"/>
      <path id="Path_1094" data-name="Path 1094" d="M420.775,253.374,422.987,288l-8.989.575-2.212-34.624Z" transform="translate(-403.34 -240.794)" fill="#3a3936"/>
      <path id="Path_1095" data-name="Path 1095" d="M440.245,279.722l-.862-13.486c-.192-3.015-1.989-3.94-3.667-3.836-2.175.141-4.1,1.751-3.9,4.962l.821,12.843-8.989.575-1.56-24.4,8.05-.515.565,2.641a9.949,9.949,0,0,1,7.5-3.753c5.14-.278,9.71,2.162,10.266,10.854l.867,13.531Z" transform="translate(-366.654 -235.961)" fill="#3a3936"/>
      <path id="Path_1096" data-name="Path 1096" d="M433.659,255.714l-.278,2.645c-1.409-1.893-3.908-2.923-7.366-2.7-7.11.456-11.5,6.294-11.041,13.5.456,7.115,4.78,11.944,11.972,11.931a10.07,10.07,0,0,0,7.858-3.576l.561,2.6,8.4-.538-1.56-24.4Zm-4.415,17.891c-2.714.173-5.012-1.614-5.231-5.026s1.833-5.523,4.547-5.7c3.211-.205,5.177,1.8,5.382,5.062A5.076,5.076,0,0,1,429.244,273.606Z" transform="translate(-392.107 -234.41)" fill="#3a3936"/>
      <path id="Path_1097" data-name="Path 1097" d="M451.766,276.719a10.3,10.3,0,0,0,3.931-8.387,9.174,9.174,0,0,0-2.741-6.422l2.919-3.959-6.868-4.273c-.725,1.09-1.633,2.385-2.4,3.525a15.022,15.022,0,0,0-5.1-.616c-7.557.483-13.276,5.71-12.784,13.367.479,7.557,6.166,11.953,14.366,11.434,3.252-.21,4.451,1.149,4.6,2.882a3.558,3.558,0,0,1-3.033,3.749c-2.8.442-5.952.246-6.12-4.21l-8.547.547c-.018,7.489,5.167,11.721,13.91,11.164,6.964-.447,13.641-3.849,13.135-11.753C456.942,282.438,456.427,279,451.766,276.719Zm-9.158-2.841a4.585,4.585,0,0,1-5.049-4.488c-.205-3.261,1.756-5.172,4.419-5.34a4.764,4.764,0,0,1,4.916,4.743A4.412,4.412,0,0,1,442.608,273.878Z" transform="translate(-343.145 -239.708)" fill="#3a3936"/>
      <ellipse id="Ellipse_348" data-name="Ellipse 348" cx="28.236" cy="28.236" rx="28.236" ry="28.236" transform="translate(117.667 7.956)" fill="#68b985"/>
      <path id="Path_1098" data-name="Path 1098" d="M441.511,281.718l-.78-12.227-3,.192-.324-5.062,3-.192-.055-.857c-.333-5.167,3.493-7.452,7.133-7.685a9.037,9.037,0,0,1,3.448.451l.816.269-.634,4.615a5.023,5.023,0,0,0-2.385-.369,1.921,1.921,0,0,0-1.82,2.3l.055.853,4.561-.292.324,5.063-4.561.292.78,12.227Z" transform="translate(-312.098 -231.91)" fill="#fff"/>
      <path id="Path_1099" data-name="Path 1099" d="M448.834,274.776l-1.1-17.326-6.6.424,1.108,17.321Z" transform="translate(-298.852 -226.281)" fill="#fff"/>
      <path id="Path_1100" data-name="Path 1100" d="M452.244,256.252l.3,4.684,3.959-.251.324,5.081-4,.255.356,5.541a1.568,1.568,0,0,0,1.856,1.6,4.959,4.959,0,0,0,2.071-.675l1.363,4.834a10.651,10.651,0,0,1-4.8,1.368c-3.493.224-6.736-1.181-6.983-6.713l-.351-5.541-2.818.178-.324-5.08,2.819-.178-.251-3.922Z" transform="translate(-291.468 -230.547)" fill="#fff"/>
      <path id="Path_1101" data-name="Path 1101" d="M444.359,255.74a3.393,3.393,0,1,1-3.338,3.626A3.339,3.339,0,0,1,444.359,255.74Z" transform="translate(-299.276 -232.401)" fill="#fff"/>
      <path id="Path_1102" data-name="Path 1102" d="M420.775,253.374,422.987,288l-8.989.575-2.212-34.624Z" transform="translate(-403.34 -240.794)" fill="#3a3936"/>
      <path id="Path_1103" data-name="Path 1103" d="M440.245,279.722l-.862-13.486c-.192-3.015-1.989-3.94-3.667-3.836-2.175.141-4.1,1.751-3.9,4.962l.821,12.843-8.989.575-1.56-24.4,8.05-.515.565,2.641a9.949,9.949,0,0,1,7.5-3.753c5.14-.278,9.71,2.162,10.266,10.854l.867,13.531Z" transform="translate(-366.654 -235.961)" fill="#3a3936"/>
      <path id="Path_1104" data-name="Path 1104" d="M433.659,255.714l-.278,2.645c-1.409-1.893-3.908-2.923-7.366-2.7-7.11.456-11.5,6.294-11.041,13.5.456,7.115,4.78,11.944,11.972,11.931a10.07,10.07,0,0,0,7.858-3.576l.561,2.6,8.4-.538-1.56-24.4Zm-4.415,17.891c-2.714.173-5.012-1.614-5.231-5.026s1.833-5.523,4.547-5.7c3.211-.205,5.177,1.8,5.382,5.062A5.076,5.076,0,0,1,429.244,273.606Z" transform="translate(-392.107 -234.41)" fill="#3a3936"/>
      <path id="Path_1105" data-name="Path 1105" d="M451.766,276.719a10.3,10.3,0,0,0,3.931-8.387,9.174,9.174,0,0,0-2.741-6.422l2.919-3.959-6.868-4.273c-.725,1.09-1.633,2.385-2.4,3.525a15.022,15.022,0,0,0-5.1-.616c-7.557.483-13.276,5.71-12.784,13.367.479,7.557,6.166,11.953,14.366,11.434,3.252-.21,4.451,1.149,4.6,2.882a3.558,3.558,0,0,1-3.033,3.749c-2.8.442-5.952.246-6.12-4.21l-8.547.547c-.018,7.489,5.167,11.721,13.91,11.164,6.964-.447,13.641-3.849,13.135-11.753C456.942,282.438,456.427,279,451.766,276.719Zm-9.158-2.841a4.585,4.585,0,0,1-5.049-4.488c-.205-3.261,1.756-5.172,4.419-5.34a4.764,4.764,0,0,1,4.916,4.743A4.412,4.412,0,0,1,442.608,273.878Z" transform="translate(-343.145 -239.708)" fill="#3a3936"/>
      <ellipse id="Ellipse_349" data-name="Ellipse 349" cx="28.236" cy="28.236" rx="28.236" ry="28.236" transform="translate(117.667 7.956)" fill="#36d399"/>
      <path id="Path_1106" data-name="Path 1106" d="M441.511,281.718l-.78-12.227-3,.192-.324-5.062,3-.192-.055-.857c-.333-5.167,3.493-7.452,7.133-7.685a9.037,9.037,0,0,1,3.448.451l.816.269-.634,4.615a5.023,5.023,0,0,0-2.385-.369,1.921,1.921,0,0,0-1.82,2.3l.055.853,4.561-.292.324,5.063-4.561.292.78,12.227Z" transform="translate(-312.098 -231.91)" fill="#fff"/>
      <path id="Path_1107" data-name="Path 1107" d="M448.834,274.776l-1.1-17.326-6.6.424,1.108,17.321Z" transform="translate(-298.852 -226.281)" fill="#fff"/>
      <path id="Path_1108" data-name="Path 1108" d="M452.244,256.252l.3,4.684,3.959-.251.324,5.081-4,.255.356,5.541a1.568,1.568,0,0,0,1.856,1.6,4.959,4.959,0,0,0,2.071-.675l1.363,4.834a10.651,10.651,0,0,1-4.8,1.368c-3.493.224-6.736-1.181-6.983-6.713l-.351-5.541-2.818.178-.324-5.08,2.819-.178-.251-3.922Z" transform="translate(-291.468 -230.547)" fill="#fff"/>
      <path id="Path_1109" data-name="Path 1109" d="M444.359,255.74a3.393,3.393,0,1,1-3.338,3.626A3.339,3.339,0,0,1,444.359,255.74Z" transform="translate(-299.276 -232.401)" fill="#fff"/>
    </g>
    <g id="Group_1830" data-name="Group 1830" transform="translate(552.226 676.36)">
      <path id="Path_1134" data-name="Path 1134" d="M628.839,319.209a24.99,24.99,0,0,0-3.881-19.146A21.037,21.037,0,0,0,626,287.978,22.37,22.37,0,0,0,614.843,273,22.609,22.609,0,0,0,599,258.206c-.479-.128-.967-.242-1.45-.342a23.029,23.029,0,0,0-13.075,1.122,21.8,21.8,0,0,0-10.969-6.025l-.237-.05-.018,0-.023,0a21.569,21.569,0,0,0-19.552,5.792,24.484,24.484,0,0,0-14.567,5.714,22.6,22.6,0,0,0-7.853,15.638,25.35,25.35,0,0,0-11.876,16.592,25,25,0,0,0,3.881,19.141,21.042,21.042,0,0,0-1.044,12.086,22.376,22.376,0,0,0,11.165,14.982,22.82,22.82,0,0,0,17.171,15.123c.123.023.246.046.369.064.543.1,1.1.187,1.7.255.178.018.342.032.492.046.593.059,1.2.091,1.774.1l.119,0h.1a23.055,23.055,0,0,0,8.629-1.578,21.747,21.747,0,0,0,11.009,6.029l.023,0,.023,0,.187.036a21.619,21.619,0,0,0,15.73-2.723,20.435,20.435,0,0,0,3.84-3.047,24.006,24.006,0,0,0,14.567-5.728,22.636,22.636,0,0,0,7.849-15.638A25.373,25.373,0,0,0,628.839,319.209Z" transform="translate(-518.878 -252.463)" fill="#fff" stroke="#f0f0f0" stroke-miterlimit="10" stroke-width="0.1"/>
      <path id="Path_1135" data-name="Path 1135" d="M610.561,309.273a16.791,16.791,0,0,0-5.5-15.967,12.8,12.8,0,0,0,2.8-10.932A13.761,13.761,0,0,0,597.969,272a13.475,13.475,0,0,0-10.152-12.118,14.129,14.129,0,0,0-6.061-.292,13.408,13.408,0,0,0-6.659,3.174,1.506,1.506,0,0,1-2.367-.511,12.519,12.519,0,0,0-8.926-7.3l-.146-.027a12.349,12.349,0,0,0-13.271,5.874,15.45,15.45,0,0,0-12.5,3.393,14.033,14.033,0,0,0-4.57,13.951,16.982,16.982,0,0,0-11.835,12.711,16.8,16.8,0,0,0,5.5,15.971,12.772,12.772,0,0,0-2.8,10.928,13.767,13.767,0,0,0,9.892,10.38,13.513,13.513,0,0,0,10.941,12.314l.109.018c.379.073.762.128,1.14.173l.3.027c.374.036.748.059,1.122.064h.1a13.688,13.688,0,0,0,9.057-3.27,1.629,1.629,0,0,1,2.54.584,11.96,11.96,0,0,0,1.044,1.884,12.554,12.554,0,0,0,7.822,5.245l.146.032a12.574,12.574,0,0,0,9.144-1.587,11.729,11.729,0,0,0,4.128-4.292,15.39,15.39,0,0,0,12.5-3.393,14.025,14.025,0,0,0,4.569-13.947A17,17,0,0,0,610.561,309.273Z" transform="translate(-510.788 -244.606)" fill="#36d399"/>
      <path id="Path_1136" data-name="Path 1136" d="M528.252,278.9l1.715-8.433-2.153-.438.711-3.494,2.153.442.119-.593c.725-3.562,3.854-4.387,6.471-3.854a5.733,5.733,0,0,1,3.548,2.1l-1.993,2.44a2.663,2.663,0,0,0-1.6-.94,1.374,1.374,0,0,0-1.715,1.213l-.119.588,3.279.666-.712,3.493-3.279-.67-1.715,8.433Z" transform="translate(-487.061 -217.145)" fill="#3a3936"/>
      <path id="Path_1137" data-name="Path 1137" d="M536.068,262.765a2.349,2.349,0,1,1-3.129,1.742A2.449,2.449,0,0,1,536.068,262.765ZM534.855,280.8l2.431-11.949-4.738-.967-2.435,11.949Z" transform="translate(-478.878 -216.035)" fill="#3a3936"/>
      <path id="Path_1138" data-name="Path 1138" d="M540.082,263.988l-.716,3.516,2.846.579-.707,3.466-2.868-.584-.812,3.981a1.129,1.129,0,0,0,1.017,1.437,2.824,2.824,0,0,0,1.468-.137l.347,3.553a7.653,7.653,0,0,1-3.8.068c-2.513-.511-4.542-2.075-3.694-5.87l.812-3.981-2.025-.415.707-3.466,2.025.415.616-3.024Z" transform="translate(-472.348 -213.066)" fill="#3a3936"/>
      <path id="Path_1139" data-name="Path 1139" d="M615.568,311.966a19.242,19.242,0,0,0-4.634-16.788,15.349,15.349,0,0,0,1.93-11.169A16.456,16.456,0,0,0,602.8,272.138a16.273,16.273,0,0,0-12.04-12.756,16.955,16.955,0,0,0-7.329-.351,16.323,16.323,0,0,0-6.663,2.736,15.424,15.424,0,0,0-10.143-7.338l-.205-.046a15.4,15.4,0,0,0-15.287,5.646,18.352,18.352,0,0,0-12.934,4.241,16.69,16.69,0,0,0-5.81,14.22,19.513,19.513,0,0,0-11.474,13.928,19.24,19.24,0,0,0,4.633,16.788,15.352,15.352,0,0,0-1.929,11.169,16.446,16.446,0,0,0,10.061,11.871,16.393,16.393,0,0,0,13.011,13l.2.032c.411.077.84.146,1.323.2.114.014.233.023.342.032.456.046.912.068,1.327.073l.141,0a16.606,16.606,0,0,0,9.682-2.969c.178.305.365.607.561.9a15.445,15.445,0,0,0,9.623,6.444l.178.036a15.468,15.468,0,0,0,11.242-1.947,14.649,14.649,0,0,0,4.05-3.69,18.038,18.038,0,0,0,12.93-4.251,16.7,16.7,0,0,0,5.805-14.22A19.5,19.5,0,0,0,615.568,311.966Zm-15.511,9.541-2.449.739.57,2.431a11.423,11.423,0,0,1-3.708,11.333,12.591,12.591,0,0,1-10.152,2.755l-1.856-.31a1.43,1.43,0,0,1-.251-.246,1.279,1.279,0,0,1-.256-.967,1.328,1.328,0,0,1,1.533-1.072,1.491,1.491,0,0,1,.424.137l2.613-4.807a7.35,7.35,0,0,0-2.216-.721,6.872,6.872,0,0,0-7.967,5.587,6.578,6.578,0,0,0,1.318,5.035,7.083,7.083,0,0,0,1.432,1.4,9.488,9.488,0,0,1-.894.634,9.714,9.714,0,0,1-7.046,1.222l-.114-.027a9.664,9.664,0,0,1-6.024-4.036,9.3,9.3,0,0,1-.807-1.46,4.517,4.517,0,0,0-3.147-2.554l-.087-.018a4.494,4.494,0,0,0-3.831.981,10.846,10.846,0,0,1-7.146,2.581h-.1c-.287,0-.584-.023-.912-.05l-.21-.023c-.333-.037-.63-.082-.93-.141l-.141-.027a10.65,10.65,0,0,1-8.574-9.723l-.068-1.245a2.623,2.623,0,0,1,1.113-1.683,2.842,2.842,0,0,1,1.956-.5,2.035,2.035,0,0,1,1.4.766l4.57-3.17a7.821,7.821,0,0,0-5.345-3.015,8.576,8.576,0,0,0-5.952,1.473,8.1,8.1,0,0,0-2.846,3.457,10.728,10.728,0,0,1-4.775-6.855,10.167,10.167,0,0,1,2.225-8.688l1.683-1.984-1.989-1.76a13.92,13.92,0,0,1,3.325-23.314c.133.164.265.328.406.488a10.627,10.627,0,0,0,5.811,3.316,11.784,11.784,0,0,0,1.336.187,10.471,10.471,0,0,0,7.544-2.344,9.747,9.747,0,0,0,.967-14.124,10.635,10.635,0,0,0-2.248-1.888l-3.046,4.561a4.763,4.763,0,0,1,1.026.862,4.433,4.433,0,0,1-.438,6.421,4.755,4.755,0,0,1-3.434,1.067,4.854,4.854,0,0,1-3.247-1.592,10.485,10.485,0,0,1-.866-1.282,11.411,11.411,0,0,1,3.771-10.941,12.617,12.617,0,0,1,10.166-2.75l1.989.324.944-1.692a9.57,9.57,0,0,1,10.225-4.529l.109.023a9.635,9.635,0,0,1,6.877,5.623,4.331,4.331,0,0,0,3.056,2.513,4.416,4.416,0,0,0,3.885-.976,10.577,10.577,0,0,1,5.254-2.5,11.1,11.1,0,0,1,4.811.237,10.58,10.58,0,0,1,8.023,9.577l.109,1.975,1.975.552a10.917,10.917,0,0,1,7.863,8.246,10.139,10.139,0,0,1-.739,6.33,9.43,9.43,0,0,0-3.046-1.049,9.2,9.2,0,0,0-6.764,1.5A8.431,8.431,0,0,0,593.339,301l5.491-1.3a3.169,3.169,0,0,1,1.286-3.471,3.467,3.467,0,0,1,2.544-.565,3.62,3.62,0,0,1,1.2.433l1.514,1.336a14.033,14.033,0,0,1,4.62,13.4A14.21,14.21,0,0,1,600.057,321.507Z" transform="translate(-513.009 -246.733)" fill="#2a2927"/>
    </g>
  </g>
</svg>
